<svg width="162" height="37" viewBox="0 0 162 37" fill="none" xmlns="http://www.w3.org/2000/svg">
<path d="M0.00102126 18.9961C-0.0323489 21.5775 0.564502 24.1169 1.72567 26.3985C2.31641 27.5594 3.71356 28.098 4.80784 27.3918C7.23507 25.8253 8.89556 22.6532 8.89556 18.9961C8.89556 15.3407 7.24105 12.1765 4.82279 10.6085C3.73028 9.90006 2.33203 10.4345 1.73851 11.5936C0.571092 13.8735 -0.0303431 16.4133 0.00102126 18.9961Z" fill="#2780F1" style="fill:#2780F1;fill:color(display-p3 0.1539 0.5021 0.9459);fill-opacity:1;"/>
<g style="mix-blend-mode:overlay" opacity="0.1">
<path d="M4.16304 13.0661C3.08432 11.8423 1.24592 12.4895 0.760735 14.0471C0.26325 15.6442 0.00775146 17.3125 0.00775146 18.9963C0.00775146 20.6811 0.263534 22.3503 0.761565 23.9481C1.24666 25.5046 3.08369 26.1527 4.16254 24.9307C5.45518 23.4664 6.26841 21.3536 6.26841 18.9963C6.26841 16.6412 5.45362 14.53 4.16304 13.0661Z" fill="#2780F1" style="fill:#2780F1;fill:color(display-p3 0.1539 0.5021 0.9459);fill-opacity:1;"/>
</g>
<g style="mix-blend-mode:multiply" opacity="0.2">
<path d="M8.69331 16.8235C8.42144 15.3784 7.47128 16.2815 7.61567 17.7448C7.65612 18.1549 7.67697 18.5726 7.67697 18.9966C7.67697 19.4051 7.65767 19.808 7.62017 20.2036C7.48129 21.6683 8.43526 22.5713 8.70162 21.1244C8.82749 20.4407 8.89401 19.7284 8.89401 18.9966C8.89401 18.2488 8.82455 17.5212 8.69331 16.8235Z" fill="#2780F1" style="fill:#2780F1;fill:color(display-p3 0.1539 0.5021 0.9459);fill-opacity:1;"/>
</g>
<path d="M26.7024 22.0827L26.3972 22.0126C25.5488 21.8297 24.6648 21.9058 23.8601 22.231C23.0553 22.5562 22.3667 23.1157 21.8834 23.8368C20.6137 25.724 18.6987 26.5835 16.4681 26.5835C15.5779 26.591 14.693 26.4463 13.8516 26.1555C12.8606 25.7944 11.7709 25.8136 10.7933 26.2095C9.81571 26.6055 9.01963 27.3499 8.55905 28.299C8.29385 28.8448 8.14901 29.4414 8.1343 30.0481C8.1196 30.6549 8.23538 31.2578 8.47383 31.8159C8.71227 32.374 9.0678 32.8745 9.51636 33.2832C9.96493 33.692 10.496 33.9996 11.0737 34.1853C12.8199 34.73 14.639 35.0045 16.4681 34.9992C21.729 34.9992 26.4043 32.7401 29.2698 28.9374C29.7075 28.3541 29.9913 27.6699 30.0951 26.948C30.1988 26.2261 30.1191 25.4897 29.8632 24.8067C29.6074 24.1237 29.1837 23.5162 28.6314 23.0402C28.0789 22.564 27.4155 22.2348 26.7024 22.0827Z" fill="#2780F1" style="fill:#2780F1;fill:color(display-p3 0.1539 0.5021 0.9459);fill-opacity:1;"/>
<path d="M8.55945 9.71429C9.02275 10.6651 9.8222 11.4102 10.8031 11.8055C11.7839 12.2007 12.8766 12.2181 13.8695 11.8542C14.7047 11.5624 15.5838 11.4164 16.4685 11.4227C18.6254 11.4227 20.4878 12.2576 21.6909 14.0326C22.1847 14.7868 22.897 15.3719 23.7326 15.7098C24.5681 16.0478 25.4869 16.1222 26.366 15.9234L26.7168 15.8358C27.4216 15.6676 28.0732 15.3256 28.6121 14.8411C29.151 14.3565 29.56 13.7448 29.802 13.0616C30.044 12.3784 30.1111 11.6456 29.9974 10.9298C29.8837 10.214 29.5927 9.53807 29.1509 8.96359C26.2398 5.21355 21.5821 3 16.4579 3C14.6297 3.00324 12.8128 3.28719 11.0707 3.84192C10.4941 4.02855 9.96413 4.33665 9.51661 4.74545C9.0691 5.15424 8.71441 5.65423 8.47643 6.21173C8.23846 6.76923 8.12273 7.37126 8.13705 7.97727C8.15137 8.58329 8.2954 9.17919 8.55945 9.72481V9.71429Z" fill="#2780F1" style="fill:#2780F1;fill:color(display-p3 0.1539 0.5021 0.9459);fill-opacity:1;"/>
<g style="mix-blend-mode:multiply" opacity="0.5">
<g style="mix-blend-mode:multiply" opacity="0.5">
<path d="M26.6372 22.084L26.3987 22.0315C25.5519 21.8467 24.6693 21.9201 23.8647 22.2422C23.0601 22.5643 22.3704 23.1201 21.8848 23.838C20.6152 25.7254 18.7002 26.5848 16.4695 26.5848C15.5794 26.5922 14.6945 26.4475 13.8531 26.1569C13.1038 25.8873 12.2943 25.8314 11.5151 25.9956C10.7359 26.1598 10.0177 26.5375 9.44086 27.0865C10.7862 28.2522 12.402 29.0623 14.1408 29.4427C15.8798 29.8232 17.6862 29.7619 19.3952 29.2644C21.1043 28.7669 22.6616 27.8492 23.9248 26.5949C25.1879 25.3406 26.1169 23.7898 26.6266 22.084H26.6372Z" fill="#2780F1" style="fill:#2780F1;fill:color(display-p3 0.1539 0.5021 0.9459);fill-opacity:1;"/>
</g>
<g style="mix-blend-mode:multiply" opacity="0.5">
<path d="M9.46588 10.95C10.0455 11.4921 10.7636 11.8635 11.541 12.0232C12.3183 12.1829 13.1246 12.1248 13.8711 11.855C14.7063 11.5632 15.5854 11.4173 16.47 11.4235C18.627 11.4235 20.4894 12.2584 21.6923 14.0335C22.1862 14.7875 22.8986 15.3728 23.7341 15.7106C24.5697 16.0486 25.4885 16.1231 26.3676 15.9243L26.6061 15.8682C26.0822 14.178 25.1457 12.6448 23.8812 11.4071C22.6167 10.1694 21.064 9.26615 19.3631 8.77881C17.6623 8.29147 15.8669 8.23541 14.1391 8.61568C12.4112 8.99595 10.8051 9.80059 9.46588 10.957V10.95Z" fill="#2780F1" style="fill:#2780F1;fill:color(display-p3 0.1539 0.5021 0.9459);fill-opacity:1;"/>
</g>
</g>
<g style="mix-blend-mode:overlay" opacity="0.3">
<g style="mix-blend-mode:overlay" opacity="0.3">
<path d="M16.4252 33.8143C13.5508 33.8177 10.7381 32.98 8.33386 31.4042C8.5325 32.053 8.88599 32.6437 9.36383 33.1253C9.84167 33.6068 10.4295 33.9649 11.0766 34.1686C12.8227 34.7132 14.6418 34.9877 16.4708 34.9824C21.7318 34.9824 26.407 32.7232 29.2725 28.9206C29.6832 28.3772 29.9574 27.743 30.0722 27.0715C30.187 26.4 30.1388 25.7108 29.9318 25.0618C28.7657 27.6692 26.8698 29.8832 24.4729 31.4363C22.0761 32.9894 19.2811 33.8153 16.4252 33.8143Z" fill="#2780F1" style="fill:#2780F1;fill:color(display-p3 0.1539 0.5021 0.9459);fill-opacity:1;"/>
</g>
<g style="mix-blend-mode:overlay" opacity="0.3">
<path d="M16.4261 4.22078C19.2596 4.22084 22.0335 5.0348 24.4179 6.56585C26.8023 8.09692 28.697 10.2807 29.8766 12.8575C30.0834 12.2001 30.1276 11.5023 30.0055 10.8241C29.8832 10.1459 29.5984 9.50743 29.1751 8.96359C26.2642 5.21355 21.6064 3 16.4822 3C14.6446 3.00037 12.818 3.28434 11.0669 3.84192C10.4135 4.04802 9.82086 4.41186 9.34129 4.9013C8.86174 5.39073 8.51003 5.99073 8.3172 6.64832C10.7238 5.06141 13.5437 4.21723 16.4261 4.22078Z" fill="#2780F1" style="fill:#2780F1;fill:color(display-p3 0.1539 0.5021 0.9459);fill-opacity:1;"/>
</g>
</g>
<g style="mix-blend-mode:multiply">
<path d="M55.0993 30.384C52.5606 30.384 50.4273 29.8187 48.6993 28.688C46.9713 27.536 45.6806 26.0107 44.8273 24.112C43.9953 22.192 43.5793 20.08 43.5793 17.776C43.5793 15.472 43.9953 13.3707 44.8273 11.472C45.6806 9.552 46.9713 8.02667 48.6993 6.896C50.4273 5.76533 52.5606 5.2 55.0993 5.2C57.9153 5.2 60.2086 5.89333 61.9793 7.28C63.7499 8.64533 64.8166 10.48 65.1793 12.784H61.0513C60.7953 11.4613 60.134 10.4373 59.0673 9.712C58.0006 8.96533 56.6566 8.592 55.0353 8.592C52.6033 8.592 50.7259 9.43467 49.4033 11.12C48.1019 12.784 47.4513 15.0027 47.4513 17.776C47.4513 20.5707 48.1019 22.8107 49.4033 24.496C50.7259 26.1813 52.6033 27.024 55.0353 27.024C56.6779 27.024 58.0219 26.6293 59.0673 25.84C60.134 25.0293 60.7953 23.8667 61.0513 22.352H65.1793C64.7953 24.848 63.7286 26.8107 61.9793 28.24C60.2299 29.6693 57.9366 30.384 55.0993 30.384ZM76.662 30.352C74.934 30.352 73.3874 29.9573 72.022 29.168C70.678 28.3787 69.622 27.28 68.854 25.872C68.1074 24.4427 67.734 22.8213 67.734 21.008C67.734 19.2373 68.1074 17.6587 68.854 16.272C69.622 14.8853 70.678 13.7973 72.022 13.008C73.3874 12.2187 74.934 11.824 76.662 11.824C78.39 11.824 79.926 12.2187 81.27 13.008C82.6354 13.7973 83.6914 14.8853 84.438 16.272C85.206 17.6587 85.59 19.2373 85.59 21.008C85.59 22.8 85.2167 24.4107 84.47 25.84C83.7234 27.248 82.6674 28.3573 81.302 29.168C79.958 29.9573 78.4114 30.352 76.662 30.352ZM76.662 27.28C77.686 27.28 78.6034 27.0133 79.414 26.48C80.2247 25.9467 80.854 25.2 81.302 24.24C81.7714 23.28 82.006 22.2027 82.006 21.008C82.006 19.856 81.7714 18.8213 81.302 17.904C80.854 16.9653 80.2247 16.2293 79.414 15.696C78.6034 15.1627 77.686 14.896 76.662 14.896C75.638 14.896 74.7207 15.1627 73.91 15.696C73.0994 16.208 72.4594 16.9333 71.99 17.872C71.542 18.7893 71.318 19.8347 71.318 21.008C71.318 22.224 71.542 23.312 71.99 24.272C72.4594 25.2107 73.0994 25.9467 73.91 26.48C74.7207 27.0133 75.638 27.28 76.662 27.28ZM89.095 12.176H92.615V13.04C92.615 13.36 92.583 13.6267 92.519 13.84C92.455 14.032 92.3484 14.2347 92.199 14.448L92.647 14.736C93.3724 13.6907 94.1297 12.944 94.919 12.496C95.7084 12.048 96.6257 11.824 97.671 11.824C100.338 11.824 102.14 12.784 103.079 14.704C103.442 15.408 103.666 16.1333 103.751 16.88C103.836 17.6053 103.879 18.48 103.879 19.504V30H100.359V19.472C100.359 17.6587 100.05 16.4 99.431 15.696C98.855 15.0987 98.023 14.8 96.935 14.8C95.6337 14.8 94.631 15.2053 93.927 16.016C93.4577 16.528 93.1164 17.2213 92.903 18.096C92.711 18.9707 92.615 20.1547 92.615 21.648V30H89.095V12.176ZM106.089 12.176H109.897L113.225 21.904C113.395 22.3947 113.523 22.8747 113.609 23.344C113.694 23.8133 113.758 24.208 113.801 24.528C113.843 24.848 113.875 25.104 113.897 25.296H114.281C114.302 25.168 114.334 24.88 114.377 24.432C114.419 23.9627 114.483 23.5253 114.569 23.12C114.654 22.7147 114.771 22.3093 114.921 21.904L118.313 12.176H122.121L115.497 30H112.649L106.089 12.176ZM132.568 30.352C130.84 30.352 129.294 29.9573 127.928 29.168C126.584 28.3787 125.528 27.28 124.76 25.872C124.014 24.4427 123.64 22.8213 123.64 21.008C123.64 19.2373 124.014 17.6587 124.76 16.272C125.528 14.8853 126.584 13.7973 127.928 13.008C129.294 12.2187 130.84 11.824 132.568 11.824C134.296 11.824 135.832 12.2187 137.176 13.008C138.542 13.7973 139.598 14.8853 140.344 16.272C141.112 17.6587 141.496 19.2373 141.496 21.008C141.496 22.8 141.123 24.4107 140.376 25.84C139.63 27.248 138.574 28.3573 137.208 29.168C135.864 29.9573 134.318 30.352 132.568 30.352ZM132.568 27.28C133.592 27.28 134.51 27.0133 135.32 26.48C136.131 25.9467 136.76 25.2 137.208 24.24C137.678 23.28 137.912 22.2027 137.912 21.008C137.912 19.856 137.678 18.8213 137.208 17.904C136.76 16.9653 136.131 16.2293 135.32 15.696C134.51 15.1627 133.592 14.896 132.568 14.896C131.544 14.896 130.627 15.1627 129.816 15.696C129.006 16.208 128.366 16.9333 127.896 17.872C127.448 18.7893 127.224 19.8347 127.224 21.008C127.224 22.224 127.448 23.312 127.896 24.272C128.366 25.2107 129.006 25.9467 129.816 26.48C130.627 27.0133 131.544 27.28 132.568 27.28ZM145.129 33.52H146.953C147.657 33.52 148.169 33.424 148.489 33.232C148.831 33.04 149.14 32.5813 149.417 31.856L150.121 29.904L143.369 12.176H147.209L151.273 23.6C151.487 24.176 151.647 24.8693 151.753 25.68H152.137C152.201 24.9973 152.351 24.304 152.585 23.6L156.361 12.176H160.169L152.745 32.816C152.233 34.2453 151.625 35.2267 150.921 35.76C150.217 36.3147 149.225 36.592 147.945 36.592H145.129V33.52Z" fill="black" style="fill:black;fill-opacity:1;"/>
</g>
</svg>
