<svg width="12" height="13" viewBox="0 0 12 13" fill="none" xmlns="http://www.w3.org/2000/svg">
<path d="M8.95997 4.14496C8.90923 4.02279 8.81214 3.9257 8.68997 3.87496C8.62986 3.84934 8.56531 3.83575 8.49997 3.83496H3.49997C3.36736 3.83496 3.24018 3.88764 3.14642 3.98141C3.05265 4.07518 2.99997 4.20235 2.99997 4.33496C2.99997 4.46757 3.05265 4.59475 3.14642 4.68851C3.24018 4.78228 3.36736 4.83496 3.49997 4.83496H7.29497L3.14497 8.97996C3.09811 9.02644 3.06091 9.08174 3.03552 9.14267C3.01014 9.2036 2.99707 9.26896 2.99707 9.33496C2.99707 9.40097 3.01014 9.46632 3.03552 9.52725C3.06091 9.58818 3.09811 9.64348 3.14497 9.68996C3.19145 9.73682 3.24675 9.77402 3.30768 9.79941C3.36861 9.82479 3.43396 9.83786 3.49997 9.83786C3.56598 9.83786 3.63133 9.82479 3.69226 9.79941C3.75319 9.77402 3.80849 9.73682 3.85497 9.68996L7.99997 5.53996V9.33496C7.99997 9.46757 8.05265 9.59475 8.14642 9.68851C8.24018 9.78228 8.36736 9.83496 8.49997 9.83496C8.63258 9.83496 8.75976 9.78228 8.85352 9.68851C8.94729 9.59475 8.99997 9.46757 8.99997 9.33496V4.33496C8.99918 4.26962 8.98559 4.20507 8.95997 4.14496Z" fill="#667085"/>
</svg>
