<svg width="128" height="22" viewBox="0 0 128 22" fill="none" xmlns="http://www.w3.org/2000/svg">
<path d="M0.000829905 10.9976C-0.0200487 12.6124 0.353381 14.2008 1.07988 15.6282C1.44949 16.3543 2.32364 16.6912 3.0083 16.2494C4.52693 15.2695 5.56584 13.2853 5.56584 10.9976C5.56584 8.71094 4.53067 6.73163 3.01765 5.75074C2.3341 5.3076 1.45926 5.64193 1.08792 6.36699C0.357504 7.79316 -0.0187937 9.3819 0.000829905 10.9976Z" fill="#477DB3"/>
<g style="mix-blend-mode:overlay" opacity="0.1">
<path d="M2.60471 7.28805C1.92979 6.52255 0.779562 6.92741 0.475999 7.90175C0.164739 8.9008 0.00488281 9.94441 0.00488281 10.9977C0.00488281 12.0516 0.164917 13.0958 0.476519 14.0953C0.780029 15.0689 1.92939 15.4744 2.6044 14.7099C3.41316 13.794 3.92197 12.4723 3.92197 10.9977C3.92197 9.52447 3.41218 8.20388 2.60471 7.28805Z" fill="#477DB3"/>
</g>
<g style="mix-blend-mode:multiply" opacity="0.2">
<path d="M5.43985 9.63849C5.26975 8.73453 4.67527 9.29944 4.76561 10.2148C4.79093 10.4714 4.80397 10.7327 4.80397 10.9978C4.80397 11.2534 4.79189 11.5054 4.76842 11.7529C4.68154 12.6691 5.2784 13.234 5.44506 12.3289C5.52381 11.9012 5.56543 11.4557 5.56543 10.9978C5.56543 10.53 5.52197 10.0749 5.43985 9.63849Z" fill="#477DB3"/>
</g>
<path d="M16.7071 12.9287L16.5161 12.8848C15.9853 12.7704 15.4323 12.818 14.9287 13.0215C14.4252 13.2249 13.9944 13.5748 13.6919 14.0259C12.8976 15.2065 11.6994 15.7441 10.3038 15.7441C9.74684 15.7488 9.19319 15.6583 8.66675 15.4764C8.04673 15.2505 7.36496 15.2625 6.7533 15.5102C6.14164 15.7579 5.64356 16.2236 5.35539 16.8172C5.18947 17.1587 5.09884 17.5319 5.08965 17.9114C5.08045 18.291 5.15289 18.6681 5.30207 19.0172C5.45126 19.3664 5.6737 19.6794 5.95435 19.9351C6.235 20.1908 6.56731 20.3833 6.92878 20.4994C8.02126 20.8401 9.15941 21.0118 10.3038 21.0085C13.5954 21.0085 16.5205 19.5953 18.3134 17.2166C18.5872 16.8517 18.7648 16.4237 18.8297 15.9722C18.8946 15.5206 18.8448 15.0599 18.6847 14.6327C18.5247 14.2054 18.2596 13.8254 17.914 13.5276C17.5683 13.2298 17.1533 13.0238 16.7071 12.9287Z" fill="#477DB3"/>
<path d="M5.35487 5.1913C5.64474 5.78607 6.14493 6.25218 6.75864 6.49945C7.37234 6.74672 8.05595 6.75756 8.6772 6.52989C9.19973 6.34737 9.74977 6.25606 10.3033 6.25997C11.6528 6.25997 12.818 6.78224 13.5707 7.89261C13.8797 8.36432 14.3254 8.73039 14.8482 8.94177C15.371 9.15316 15.9459 9.19978 16.4959 9.0754L16.7153 9.02054C17.1563 8.91533 17.564 8.70142 17.9011 8.39832C18.2383 8.09521 18.4942 7.71255 18.6456 7.2852C18.797 6.85785 18.839 6.3994 18.7679 5.95165C18.6967 5.50389 18.5146 5.08106 18.2382 4.7217C16.4169 2.37588 13.5027 0.991211 10.2967 0.991211C9.1528 0.993239 8.01603 1.17086 6.92606 1.51787C6.56529 1.63461 6.23373 1.82734 5.95374 2.08306C5.67375 2.33878 5.45182 2.65155 5.30293 3.00029C5.15403 3.34903 5.08162 3.72563 5.09058 4.10472C5.09954 4.48381 5.18966 4.85657 5.35487 5.19788V5.1913Z" fill="#477DB3"/>
<g style="mix-blend-mode:multiply" opacity="0.5">
<g style="mix-blend-mode:multiply" opacity="0.5">
<path d="M16.6644 12.9289L16.5152 12.896C15.9854 12.7805 15.4332 12.8264 14.9298 13.0279C14.4264 13.2293 13.9949 13.577 13.691 14.0261C12.8966 15.2067 11.6985 15.7443 10.3029 15.7443C9.74592 15.749 9.19228 15.6584 8.66583 15.4766C8.19703 15.308 7.69057 15.2731 7.20306 15.3758C6.71555 15.4785 6.26621 15.7147 5.90527 16.0581C6.74699 16.7874 7.75797 17.2941 8.84591 17.5321C9.93385 17.7701 11.0641 17.7317 12.1334 17.4205C13.2027 17.1094 14.177 16.5352 14.9673 15.7506C15.7577 14.966 16.3389 13.9959 16.6579 12.9289H16.6644Z" fill="#477DB3"/>
</g>
<g style="mix-blend-mode:multiply" opacity="0.5">
<path d="M5.9209 5.96384C6.28356 6.30296 6.73286 6.5353 7.21922 6.6352C7.70559 6.73511 8.2101 6.6987 8.67707 6.52999C9.19961 6.34747 9.74964 6.25617 10.3031 6.26008C11.6527 6.26008 12.8179 6.78234 13.5706 7.89271C13.8796 8.36443 14.3253 8.73049 14.8481 8.94187C15.3708 9.15326 15.9457 9.19988 16.4957 9.0755L16.645 9.04039C16.3172 7.98308 15.7313 7.02404 14.9401 6.24981C14.1489 5.47558 13.1775 4.91054 12.1133 4.60569C11.0492 4.30084 9.92584 4.26577 8.84475 4.50365C7.76365 4.74152 6.75881 5.24486 5.9209 5.96822V5.96384Z" fill="#477DB3"/>
</g>
</g>
<g style="mix-blend-mode:overlay" opacity="0.3">
<g style="mix-blend-mode:overlay" opacity="0.3">
<path d="M10.2793 20.2668C8.48085 20.269 6.72106 19.7449 5.2168 18.7592C5.34108 19.1651 5.56225 19.5345 5.86122 19.8358C6.16018 20.1371 6.52796 20.361 6.93282 20.4884C8.0253 20.8292 9.16345 21.0008 10.3078 20.9975C13.5994 20.9975 16.5246 19.5843 18.3174 17.2056C18.5744 16.8656 18.746 16.469 18.8177 16.0489C18.8895 15.6289 18.8594 15.1977 18.7299 14.7917C18.0003 16.4228 16.8141 17.8077 15.3145 18.7793C13.8149 19.7508 12.0661 20.2675 10.2793 20.2668Z" fill="#477DB3"/>
</g>
<g style="mix-blend-mode:overlay" opacity="0.3">
<path d="M10.2795 1.75486C12.0523 1.7549 13.7879 2.26407 15.2797 3.22181C16.7716 4.17956 17.957 5.5456 18.6951 7.15749C18.8245 6.74627 18.8521 6.30979 18.7757 5.88553C18.6992 5.46127 18.521 5.0619 18.2562 4.7217C16.4348 2.37588 13.5207 0.991211 10.3146 0.991211C9.16488 0.991438 8.02204 1.16908 6.92647 1.51787C6.51764 1.64679 6.14684 1.87439 5.84679 2.18055C5.54675 2.48672 5.3267 2.86204 5.20605 3.27339C6.71174 2.28072 8.47605 1.75264 10.2795 1.75486Z" fill="#477DB3"/>
</g>
</g>
<path d="M31.5651 6.43263C31.8662 6.58316 32.0398 6.82053 32.0862 7.14474C32.1441 7.46895 32.063 7.76421 31.843 8.03053C31.6925 8.23895 31.4956 8.35474 31.2525 8.37789C31.0209 8.40105 30.7835 8.35474 30.5404 8.23895C30.2625 8.11158 29.9672 8.01316 29.6546 7.94368C29.3535 7.87421 29.0351 7.83947 28.6993 7.83947C28.0741 7.83947 27.5125 7.93789 27.0146 8.13474C26.5283 8.33158 26.1114 8.61526 25.7641 8.98579C25.4167 9.34474 25.1504 9.77316 24.9651 10.2711C24.7914 10.7689 24.7046 11.3189 24.7046 11.9211C24.7046 12.6274 24.803 13.2411 24.9998 13.7621C25.2083 14.2832 25.492 14.7174 25.8509 15.0647C26.2098 15.4121 26.6325 15.6726 27.1188 15.8463C27.6051 16.0084 28.132 16.0895 28.6993 16.0895C29.012 16.0895 29.3246 16.0605 29.6372 16.0026C29.9498 15.9447 30.2509 15.8405 30.5404 15.69C30.7835 15.5742 31.0209 15.5337 31.2525 15.5684C31.4956 15.6032 31.6983 15.7247 31.8604 15.9332C32.092 16.2226 32.173 16.5237 32.1035 16.8363C32.0456 17.1374 31.872 17.3574 31.5825 17.4963C31.2814 17.6468 30.9688 17.7742 30.6446 17.8784C30.332 17.9711 30.0135 18.0405 29.6893 18.0868C29.3651 18.1447 29.0351 18.1737 28.6993 18.1737C27.8656 18.1737 27.0725 18.0405 26.3198 17.7742C25.5788 17.5079 24.913 17.1142 24.3225 16.5932C23.7435 16.0721 23.2862 15.4237 22.9504 14.6479C22.6146 13.8605 22.4467 12.9516 22.4467 11.9211C22.4467 11.0295 22.5972 10.2074 22.8983 9.45474C23.2109 8.7021 23.6451 8.05368 24.2009 7.50947C24.7683 6.95368 25.4341 6.52526 26.1983 6.22421C26.9625 5.91158 27.7962 5.75526 28.6993 5.75526C29.2088 5.75526 29.7067 5.81316 30.193 5.92895C30.6793 6.04474 31.1367 6.21263 31.5651 6.43263ZM42.7843 13.3626C42.7843 14.3121 42.5701 15.1516 42.1417 15.8811C41.7248 16.5989 41.1575 17.1605 40.4396 17.5658C39.7332 17.9711 38.9401 18.1737 38.0601 18.1737C37.1801 18.1737 36.3811 17.9711 35.6632 17.5658C34.9569 17.1605 34.3896 16.5989 33.9611 15.8811C33.5443 15.1516 33.3359 14.3121 33.3359 13.3626C33.3359 12.4132 33.5443 11.5795 33.9611 10.8616C34.3896 10.1321 34.9569 9.56474 35.6632 9.15947C36.3811 8.74263 37.1801 8.53421 38.0601 8.53421C38.9401 8.53421 39.7332 8.74263 40.4396 9.15947C41.1575 9.56474 41.7248 10.1321 42.1417 10.8616C42.5701 11.5795 42.7843 12.4132 42.7843 13.3626ZM40.7001 13.3626C40.7001 12.7721 40.5785 12.2626 40.3354 11.8342C40.1038 11.3942 39.7853 11.0526 39.3801 10.8095C38.9864 10.5663 38.5464 10.4447 38.0601 10.4447C37.5738 10.4447 37.128 10.5663 36.7227 10.8095C36.329 11.0526 36.0106 11.3942 35.7675 11.8342C35.5359 12.2626 35.4201 12.7721 35.4201 13.3626C35.4201 13.9416 35.5359 14.4511 35.7675 14.8911C36.0106 15.3195 36.329 15.6553 36.7227 15.8984C37.128 16.1416 37.5738 16.2632 38.0601 16.2632C38.5464 16.2632 38.9864 16.1416 39.3801 15.8984C39.7853 15.6553 40.1038 15.3195 40.3354 14.8911C40.5785 14.4511 40.7001 13.9416 40.7001 13.3626ZM49.5758 8.53421C50.4326 8.53421 51.081 8.71368 51.521 9.07263C51.9726 9.43158 52.2794 9.9121 52.4415 10.5142C52.6152 11.1047 52.7021 11.7647 52.7021 12.4942V16.9405C52.7021 17.2416 52.6037 17.4963 52.4068 17.7047C52.21 17.9016 51.961 18 51.66 18C51.3589 18 51.11 17.9016 50.9131 17.7047C50.7163 17.4963 50.6179 17.2416 50.6179 16.9405V12.4942C50.6179 12.1121 50.5658 11.7705 50.4615 11.4695C50.3689 11.1568 50.1952 10.9079 49.9405 10.7226C49.6858 10.5374 49.321 10.4447 48.8463 10.4447C48.3831 10.4447 47.9894 10.5374 47.6652 10.7226C47.3526 10.9079 47.1094 11.1568 46.9358 11.4695C46.7737 11.7705 46.6926 12.1121 46.6926 12.4942V16.9405C46.6926 17.2416 46.5942 17.4963 46.3973 17.7047C46.2005 17.9016 45.9515 18 45.6505 18C45.3494 18 45.1005 17.9016 44.9037 17.7047C44.7068 17.4963 44.6084 17.2416 44.6084 16.9405V9.76737C44.6084 9.46632 44.7068 9.21737 44.9037 9.02053C45.1005 8.8121 45.3494 8.70789 45.6505 8.70789C45.9515 8.70789 46.2005 8.8121 46.3973 9.02053C46.5942 9.21737 46.6926 9.46632 46.6926 9.76737V10.5142L46.4321 10.4621C46.5363 10.2653 46.6868 10.0568 46.8837 9.83684C47.0805 9.60526 47.3121 9.39105 47.5784 9.19421C47.8447 8.99737 48.1458 8.84105 48.4815 8.72526C48.8173 8.59789 49.1821 8.53421 49.5758 8.53421ZM55.2868 8.70789C55.5068 8.70789 55.7095 8.76579 55.8947 8.88158C56.08 8.98579 56.219 9.14789 56.3116 9.36789L58.8647 15.2037L58.4826 15.3774L61.0879 9.38526C61.2847 8.9221 61.5916 8.7021 62.0084 8.72526C62.2979 8.72526 62.5295 8.81789 62.7032 9.00316C62.8884 9.17684 62.9811 9.39684 62.9811 9.66316C62.9811 9.74421 62.9637 9.83105 62.929 9.92368C62.9058 10.0163 62.8768 10.1032 62.8421 10.1842L59.5942 17.34C59.409 17.7568 59.1137 17.9768 58.7084 18C58.4884 18.0347 58.2742 17.9942 58.0658 17.8784C57.869 17.7626 57.7184 17.5832 57.6142 17.34L54.3837 10.1842C54.3605 10.1263 54.3316 10.0511 54.2968 9.95842C54.2737 9.86579 54.2621 9.75579 54.2621 9.62842C54.2621 9.42 54.3547 9.21737 54.54 9.02053C54.7253 8.8121 54.9742 8.70789 55.2868 8.70789ZM73.5522 13.3626C73.5522 14.3121 73.338 15.1516 72.9096 15.8811C72.4927 16.5989 71.9253 17.1605 71.2074 17.5658C70.5011 17.9711 69.708 18.1737 68.828 18.1737C67.948 18.1737 67.149 17.9711 66.4311 17.5658C65.7248 17.1605 65.1574 16.5989 64.729 15.8811C64.3122 15.1516 64.1038 14.3121 64.1038 13.3626C64.1038 12.4132 64.3122 11.5795 64.729 10.8616C65.1574 10.1321 65.7248 9.56474 66.4311 9.15947C67.149 8.74263 67.948 8.53421 68.828 8.53421C69.708 8.53421 70.5011 8.74263 71.2074 9.15947C71.9253 9.56474 72.4927 10.1321 72.9096 10.8616C73.338 11.5795 73.5522 12.4132 73.5522 13.3626ZM71.468 13.3626C71.468 12.7721 71.3464 12.2626 71.1032 11.8342C70.8717 11.3942 70.5532 11.0526 70.148 10.8095C69.7543 10.5663 69.3143 10.4447 68.828 10.4447C68.3417 10.4447 67.8959 10.5663 67.4906 10.8095C67.0969 11.0526 66.7785 11.3942 66.5353 11.8342C66.3038 12.2626 66.188 12.7721 66.188 13.3626C66.188 13.9416 66.3038 14.4511 66.5353 14.8911C66.7785 15.3195 67.0969 15.6553 67.4906 15.8984C67.8959 16.1416 68.3417 16.2632 68.828 16.2632C69.3143 16.2632 69.7543 16.1416 70.148 15.8984C70.5532 15.6553 70.8717 15.3195 71.1032 14.8911C71.3464 14.4511 71.468 13.9416 71.468 13.3626ZM82.2715 8.70789C82.5726 8.70789 82.8215 8.8121 83.0184 9.02053C83.2152 9.21737 83.3136 9.46632 83.3136 9.76737V17.1489C83.3136 18.2142 83.111 19.0595 82.7058 19.6847C82.3121 20.3216 81.7794 20.7789 81.1079 21.0568C80.4363 21.3347 79.6836 21.4737 78.85 21.4737C78.4794 21.4737 78.0858 21.4447 77.6689 21.3868C77.2521 21.3289 76.9105 21.2421 76.6442 21.1263C76.2968 20.9758 76.0536 20.7847 75.9147 20.5532C75.7873 20.3332 75.7642 20.0958 75.8452 19.8411C75.9494 19.5053 76.1173 19.2737 76.3489 19.1463C76.5805 19.0305 76.8236 19.0189 77.0784 19.1116C77.2636 19.1695 77.5068 19.2563 77.8079 19.3721C78.1089 19.4995 78.4563 19.5632 78.85 19.5632C79.3826 19.5632 79.8226 19.4879 80.17 19.3374C80.5289 19.1984 80.7952 18.9553 80.9689 18.6079C81.1542 18.2721 81.2468 17.8089 81.2468 17.2184V16.0547L81.6115 16.4716C81.4147 16.8537 81.1658 17.1721 80.8647 17.4268C80.5752 17.67 80.2279 17.8553 79.8226 17.9826C79.4173 18.11 78.9542 18.1737 78.4331 18.1737C77.8194 18.1737 77.281 18.0347 76.8179 17.7568C76.3663 17.4674 76.0131 17.0737 75.7584 16.5758C75.5036 16.0663 75.3763 15.4874 75.3763 14.8389V9.76737C75.3763 9.46632 75.4747 9.21737 75.6715 9.02053C75.8684 8.8121 76.1173 8.70789 76.4184 8.70789C76.7194 8.70789 76.9684 8.8121 77.1652 9.02053C77.3621 9.21737 77.4605 9.46632 77.4605 9.76737V14.2137C77.4605 14.9663 77.6226 15.4989 77.9468 15.8116C78.2826 16.1126 78.7458 16.2632 79.3363 16.2632C79.7415 16.2632 80.0831 16.1879 80.361 16.0374C80.6389 15.8753 80.8531 15.6437 81.0036 15.3426C81.1542 15.03 81.2294 14.6537 81.2294 14.2137V9.76737C81.2294 9.46632 81.3279 9.21737 81.5247 9.02053C81.7215 8.8121 81.9705 8.70789 82.2715 8.70789Z" fill="#477DB3"/>
<path d="M94.0455 17.835H90.2784V6.1986H94.1648C95.3049 6.1986 96.2841 6.43155 97.1023 6.89746C97.9205 7.35958 98.5473 8.02435 98.983 8.89178C99.4223 9.75542 99.642 10.7914 99.642 11.9997C99.642 13.2119 99.4205 14.2535 98.9773 15.1247C98.5379 15.9959 97.9015 16.6664 97.0682 17.1361C96.2348 17.602 95.2273 17.835 94.0455 17.835ZM92.0341 16.3009H93.9489C94.8352 16.3009 95.572 16.1342 96.1591 15.8009C96.7462 15.4637 97.1856 14.977 97.4773 14.3406C97.7689 13.7005 97.9148 12.9202 97.9148 11.9997C97.9148 11.0869 97.7689 10.3122 97.4773 9.67587C97.1894 9.03951 96.7595 8.55655 96.1875 8.22701C95.6155 7.89746 94.9053 7.73269 94.0568 7.73269H92.0341V16.3009ZM105.365 18.0111C104.547 18.0111 103.833 17.8236 103.223 17.4486C102.613 17.0736 102.14 16.549 101.803 15.8747C101.465 15.2005 101.297 14.4126 101.297 13.5111C101.297 12.6058 101.465 11.8141 101.803 11.1361C102.14 10.4581 102.613 9.93155 103.223 9.55655C103.833 9.18155 104.547 8.99405 105.365 8.99405C106.183 8.99405 106.897 9.18155 107.507 9.55655C108.117 9.93155 108.59 10.4581 108.928 11.1361C109.265 11.8141 109.433 12.6058 109.433 13.5111C109.433 14.4126 109.265 15.2005 108.928 15.8747C108.59 16.549 108.117 17.0736 107.507 17.4486C106.897 17.8236 106.183 18.0111 105.365 18.0111ZM105.371 16.585C105.901 16.585 106.34 16.4448 106.689 16.1645C107.037 15.8842 107.295 15.5111 107.462 15.0452C107.632 14.5793 107.717 14.066 107.717 13.5054C107.717 12.9486 107.632 12.4372 107.462 11.9713C107.295 11.5016 107.037 11.1247 106.689 10.8406C106.34 10.5566 105.901 10.4145 105.371 10.4145C104.837 10.4145 104.393 10.5566 104.041 10.8406C103.693 11.1247 103.433 11.5016 103.263 11.9713C103.096 12.4372 103.013 12.9486 103.013 13.5054C103.013 14.066 103.096 14.5793 103.263 15.0452C103.433 15.5111 103.693 15.8842 104.041 16.1645C104.393 16.4448 104.837 16.585 105.371 16.585ZM115.006 18.0111C114.161 18.0111 113.434 17.8198 112.824 17.4372C112.218 17.0509 111.752 16.5187 111.426 15.8406C111.1 15.1626 110.938 14.3861 110.938 13.5111C110.938 12.6247 111.104 11.8425 111.438 11.1645C111.771 10.4827 112.241 9.95049 112.847 9.56791C113.453 9.18534 114.167 8.99405 114.989 8.99405C115.652 8.99405 116.242 9.11716 116.761 9.36337C117.28 9.60579 117.699 9.9467 118.017 10.3861C118.339 10.8255 118.53 11.3387 118.591 11.9259H116.938C116.847 11.5168 116.638 11.1645 116.312 10.8691C115.991 10.5736 115.559 10.4259 115.017 10.4259C114.544 10.4259 114.129 10.5509 113.773 10.8009C113.42 11.0471 113.146 11.3994 112.949 11.8577C112.752 12.3122 112.653 12.8501 112.653 13.4713C112.653 14.1077 112.75 14.6569 112.943 15.1191C113.136 15.5812 113.409 15.9391 113.761 16.1929C114.117 16.4467 114.536 16.5736 115.017 16.5736C115.339 16.5736 115.631 16.5149 115.892 16.3975C116.157 16.2762 116.379 16.1039 116.557 15.8804C116.739 15.6569 116.866 15.388 116.938 15.0736H118.591C118.53 15.638 118.347 16.1418 118.04 16.585C117.733 17.0281 117.322 17.3766 116.807 17.6304C116.295 17.8842 115.695 18.0111 115.006 18.0111ZM126.947 11.2384L125.408 11.5111C125.343 11.3141 125.241 11.1266 125.101 10.9486C124.964 10.7706 124.779 10.6247 124.544 10.5111C124.309 10.3975 124.016 10.3406 123.663 10.3406C123.182 10.3406 122.781 10.4486 122.459 10.6645C122.137 10.8766 121.976 11.1512 121.976 11.4884C121.976 11.78 122.084 12.0149 122.3 12.1929C122.516 12.3709 122.864 12.5168 123.345 12.6304L124.732 12.9486C125.535 13.1342 126.133 13.4202 126.527 13.8066C126.921 14.1929 127.118 14.6948 127.118 15.3122C127.118 15.835 126.966 16.3009 126.663 16.71C126.364 17.1153 125.946 17.4334 125.408 17.6645C124.874 17.8956 124.254 18.0111 123.55 18.0111C122.572 18.0111 121.775 17.8028 121.158 17.3861C120.54 16.9656 120.161 16.3691 120.021 15.5963L121.663 15.3463C121.766 15.7744 121.976 16.0982 122.294 16.3179C122.612 16.5338 123.027 16.6418 123.538 16.6418C124.095 16.6418 124.54 16.5262 124.874 16.2952C125.207 16.0603 125.374 15.7744 125.374 15.4372C125.374 15.1645 125.271 14.9353 125.067 14.7497C124.866 14.5641 124.557 14.424 124.141 14.3293L122.663 14.0054C121.849 13.8198 121.247 13.5244 120.857 13.1191C120.47 12.7137 120.277 12.2005 120.277 11.5793C120.277 11.0641 120.421 10.6134 120.709 10.227C120.997 9.84064 121.394 9.53951 121.902 9.3236C122.41 9.1039 122.991 8.99405 123.646 8.99405C124.589 8.99405 125.332 9.1986 125.874 9.60769C126.415 10.013 126.773 10.5566 126.947 11.2384Z" fill="#47B38D"/>
</svg>
