<svg width="32" height="32" viewBox="0 0 32 32" fill="none" xmlns="http://www.w3.org/2000/svg">
<path d="M5.19924 15.9972C5.17421 17.9333 5.62185 19.8378 6.49272 21.549C6.93578 22.4197 7.98364 22.8236 8.80435 22.2939C10.6248 21.1191 11.8701 18.74 11.8701 15.9972C11.8701 13.2556 10.6293 10.8825 8.81556 9.70648C7.99618 9.17517 6.94749 9.57602 6.50236 10.4453C5.62679 12.1553 5.17571 14.0601 5.19924 15.9972Z" fill="#2780F1" style="fill:#2780F1;fill:color(display-p3 0.1539 0.5021 0.9459);fill-opacity:1;"/>
<g style="mix-blend-mode:overlay" opacity="0.1">
<path d="M8.32057 11.5499C7.51153 10.632 6.13273 11.1174 5.76884 12.2856C5.39573 13.4834 5.2041 14.7347 5.2041 15.9976C5.2041 17.2611 5.39594 18.513 5.76946 19.7114C6.13329 20.8787 7.51106 21.3648 8.32019 20.4483C9.28968 19.3501 9.8996 17.7655 9.8996 15.9976C9.8996 14.2312 9.28851 12.6478 8.32057 11.5499Z" fill="#2780F1" style="fill:#2780F1;fill:color(display-p3 0.1539 0.5021 0.9459);fill-opacity:1;"/>
</g>
<g style="mix-blend-mode:multiply" opacity="0.2">
<path d="M11.7197 14.3675C11.5158 13.2837 10.8032 13.961 10.9115 15.0585C10.9419 15.3661 10.9575 15.6793 10.9575 15.9973C10.9575 16.3037 10.943 16.6058 10.9149 16.9026C10.8107 18.0011 11.5262 18.6784 11.726 17.5932C11.8204 17.0804 11.8703 16.5462 11.8703 15.9973C11.8703 15.4365 11.8182 14.8907 11.7197 14.3675Z" fill="#2780F1" style="fill:#2780F1;fill:color(display-p3 0.1539 0.5021 0.9459);fill-opacity:1;"/>
</g>
<path d="M25.2248 18.3126L24.996 18.26C24.3596 18.1228 23.6967 18.1799 23.0931 18.4238C22.4895 18.6677 21.9731 19.0873 21.6106 19.6281C20.6583 21.0436 19.2221 21.6882 17.5491 21.6882C16.8815 21.6938 16.2178 21.5852 15.5868 21.3672C14.8435 21.0963 14.0262 21.1108 13.2931 21.4077C12.5598 21.7047 11.9628 22.2629 11.6173 22.9748C11.4184 23.3841 11.3098 23.8316 11.2988 24.2866C11.2878 24.7418 11.3746 25.1939 11.5534 25.6125C11.7323 26.0311 11.9989 26.4064 12.3353 26.7129C12.6718 27.0196 13.0701 27.2503 13.5034 27.3895C14.813 27.798 16.1773 28.0039 17.5491 27.9999C21.4948 27.9999 25.0013 26.3056 27.1504 23.4536C27.4787 23.0162 27.6916 22.503 27.7694 21.9615C27.8471 21.4202 27.7874 20.8678 27.5955 20.3556C27.4036 19.8434 27.0859 19.3877 26.6716 19.0307C26.2572 18.6736 25.7597 18.4267 25.2248 18.3126Z" fill="#2780F1" style="fill:#2780F1;fill:color(display-p3 0.1539 0.5021 0.9459);fill-opacity:1;"/>
<path d="M11.6175 9.03572C11.965 9.74882 12.5646 10.3077 13.3002 10.6041C14.0359 10.9006 14.8553 10.9136 15.6 10.6406C16.2264 10.4218 16.8857 10.3123 17.5493 10.317C19.167 10.317 20.5637 10.9432 21.4661 12.2744C21.8364 12.8401 22.3707 13.2789 22.9974 13.5324C23.624 13.7858 24.3131 13.8417 24.9724 13.6926L25.2355 13.6268C25.7641 13.5007 26.2528 13.2442 26.657 12.8808C27.0611 12.5174 27.3679 12.0586 27.5494 11.5462C27.7309 11.0338 27.7813 10.4842 27.696 9.94734C27.6107 9.4105 27.3924 8.90355 27.061 8.47269C24.8777 5.66016 21.3845 4 17.5414 4C16.1702 4.00243 14.8075 4.2154 13.5009 4.63144C13.0684 4.77141 12.671 5.00248 12.3354 5.30908C11.9997 5.61568 11.7337 5.99067 11.5552 6.4088C11.3767 6.82692 11.29 7.27845 11.3007 7.73296C11.3114 8.18747 11.4195 8.63439 11.6175 9.04361V9.03572Z" fill="#2780F1" style="fill:#2780F1;fill:color(display-p3 0.1539 0.5021 0.9459);fill-opacity:1;"/>
<g style="mix-blend-mode:multiply" opacity="0.5">
<g style="mix-blend-mode:multiply" opacity="0.5">
<path d="M25.1756 18.3126L24.9967 18.2732C24.3616 18.1346 23.6997 18.1897 23.0962 18.4312C22.4928 18.6728 21.9755 19.0897 21.6113 19.6281C20.6591 21.0436 19.2228 21.6881 17.5498 21.6881C16.8822 21.6937 16.2185 21.5852 15.5875 21.3672C15.0255 21.165 14.4184 21.1231 13.834 21.2463C13.2496 21.3694 12.711 21.6527 12.2783 22.0644C13.2873 22.9387 14.4992 23.5463 15.8033 23.8316C17.1075 24.117 18.4623 24.071 19.7441 23.6979C21.0259 23.3247 22.1939 22.6364 23.1413 21.6957C24.0886 20.755 24.7854 19.5919 25.1677 18.3126H25.1756Z" fill="#2780F1" style="fill:#2780F1;fill:color(display-p3 0.1539 0.5021 0.9459);fill-opacity:1;"/>
</g>
<g style="mix-blend-mode:multiply" opacity="0.5">
<path d="M12.2969 9.96185C12.7316 10.3684 13.2702 10.647 13.8532 10.7668C14.4362 10.8866 15.0409 10.843 15.6008 10.6406C16.2272 10.4218 16.8865 10.3123 17.5499 10.317C19.1677 10.317 20.5645 10.9432 21.4667 12.2745C21.8371 12.84 22.3714 13.279 22.998 13.5324C23.6248 13.7858 24.3139 13.8417 24.9732 13.6926L25.152 13.6505C24.7591 12.3829 24.0567 11.233 23.1084 10.3047C22.16 9.37645 20.9955 8.699 19.7198 8.3335C18.4442 7.96799 17.0977 7.92595 15.8018 8.21115C14.5058 8.49635 13.3013 9.09983 12.2969 9.96711V9.96185Z" fill="#2780F1" style="fill:#2780F1;fill:color(display-p3 0.1539 0.5021 0.9459);fill-opacity:1;"/>
</g>
</g>
<g style="mix-blend-mode:overlay" opacity="0.3">
<g style="mix-blend-mode:overlay" opacity="0.3">
<path d="M17.5197 27.1105C15.3638 27.1131 13.2544 26.4848 11.4512 25.303C11.6002 25.7896 11.8653 26.2326 12.2236 26.5938C12.582 26.9549 13.0229 27.2235 13.5082 27.3762C14.8178 27.7847 16.1821 27.9906 17.5539 27.9866C21.4996 27.9866 25.006 26.2922 27.1551 23.4403C27.4632 23.0327 27.6688 22.5571 27.7549 22.0534C27.841 21.5498 27.8049 21.0329 27.6496 20.5461C26.775 22.5017 25.3531 24.1622 23.5555 25.327C21.7579 26.4919 19.6616 27.1113 17.5197 27.1105Z" fill="#2780F1" style="fill:#2780F1;fill:color(display-p3 0.1539 0.5021 0.9459);fill-opacity:1;"/>
</g>
<g style="mix-blend-mode:overlay" opacity="0.3">
<path d="M17.5201 4.91558C19.6452 4.91563 21.7257 5.5261 23.514 6.67439C25.3023 7.82269 26.7233 9.46051 27.608 11.3931C27.7631 10.9001 27.7963 10.3767 27.7047 9.86807C27.613 9.3594 27.3994 8.88058 27.0819 8.47269C24.8987 5.66016 21.4053 4 17.5622 4C16.184 4.00028 14.814 4.21325 13.5008 4.63144C13.0107 4.78601 12.5662 5.0589 12.2065 5.42598C11.8469 5.79305 11.5831 6.24305 11.4385 6.73624C13.2434 5.54606 15.3583 4.91292 17.5201 4.91558Z" fill="#2780F1" style="fill:#2780F1;fill:color(display-p3 0.1539 0.5021 0.9459);fill-opacity:1;"/>
</g>
</g>
</svg>
