<svg width="12" height="13" viewBox="0 0 12 13" fill="none" xmlns="http://www.w3.org/2000/svg">
<path d="M10.8547 10.9799L8.99971 9.13991C9.71976 8.24212 10.0685 7.10256 9.97411 5.95556C9.87977 4.80856 9.34954 3.7413 8.49247 2.97324C7.63539 2.20517 6.51661 1.79467 5.36617 1.82615C4.21573 1.85763 3.12107 2.32869 2.30728 3.14248C1.49349 3.95627 1.02242 5.05093 0.990943 6.20137C0.959463 7.35182 1.36996 8.4706 2.13803 9.32767C2.9061 10.1847 3.97336 10.715 5.12036 10.8093C6.26736 10.9037 7.40691 10.555 8.30471 9.83491L10.1447 11.6749C10.1912 11.7218 10.2465 11.759 10.3074 11.7844C10.3683 11.8097 10.4337 11.8228 10.4997 11.8228C10.5657 11.8228 10.6311 11.8097 10.692 11.7844C10.7529 11.759 10.8082 11.7218 10.8547 11.6749C10.9448 11.5817 10.9952 11.4571 10.9952 11.3274C10.9952 11.1977 10.9448 11.0731 10.8547 10.9799ZM5.49971 9.83491C4.80747 9.83491 4.13078 9.62964 3.55521 9.24506C2.97964 8.86047 2.53104 8.31385 2.26613 7.67431C2.00122 7.03476 1.93191 6.33103 2.06696 5.6521C2.20201 4.97316 2.53535 4.34952 3.02483 3.86004C3.51432 3.37056 4.13796 3.03721 4.81689 2.90216C5.49583 2.76712 6.19956 2.83643 6.8391 3.10133C7.47864 3.36624 8.02527 3.81485 8.40985 4.39042C8.79444 4.96599 8.99971 5.64268 8.99971 6.33491C8.99971 7.26317 8.63096 8.15341 7.97458 8.80979C7.3182 9.46616 6.42797 9.83491 5.49971 9.83491Z" fill="#737A91"/>
</svg>
