<svg width="11" height="12" viewBox="0 0 11 12" fill="none" xmlns="http://www.w3.org/2000/svg">
<path fill-rule="evenodd" clip-rule="evenodd" d="M4.03309 0.834961C3.42503 0.835409 2.93291 1.32789 2.93336 1.93474C2.93291 2.54159 3.42548 3.03406 4.03354 3.03451H5.13372V1.93519C5.13417 1.32834 4.64161 0.835858 4.03309 0.834961C4.03354 0.834961 4.03354 0.834961 4.03309 0.834961M4.03309 3.76829H1.10018C0.492116 3.76874 -0.000448192 4.26122 1.22821e-06 4.86807C-0.000897611 5.47492 0.491666 5.9674 1.09973 5.96829H4.03309C4.64116 5.96785 5.13372 5.47537 5.13327 4.86852C5.13372 4.26122 4.64116 3.76874 4.03309 3.76829Z" fill="#36C5F0"/>
<path fill-rule="evenodd" clip-rule="evenodd" d="M11.0005 4.86807C11.0009 4.26122 10.5083 3.76874 9.90028 3.76829C9.29222 3.76874 8.79965 4.26122 8.8001 4.86807V5.96829H9.90028C10.5083 5.96785 11.0009 5.47537 11.0005 4.86807ZM8.0671 4.86807V1.93474C8.06755 1.32834 7.57543 0.835858 6.96737 0.834961C6.3593 0.835409 5.86674 1.32789 5.86719 1.93474V4.86807C5.86629 5.47492 6.35885 5.9674 6.96692 5.96829C7.57498 5.96785 8.06755 5.47537 8.0671 4.86807Z" fill="#2EB67D"/>
<path fill-rule="evenodd" clip-rule="evenodd" d="M6.96639 11.835C7.57446 11.8345 8.06702 11.342 8.06657 10.7352C8.06702 10.1283 7.57446 9.63585 6.96639 9.6354H5.86621V10.7352C5.86576 11.3416 6.35833 11.8341 6.96639 11.835ZM6.96639 8.90117H9.89975C10.5078 8.90072 11.0004 8.40825 10.9999 7.8014C11.0008 7.19455 10.5083 6.70207 9.9002 6.70117H6.96684C6.35877 6.70162 5.86621 7.1941 5.86666 7.80095C5.86621 8.40825 6.35833 8.90072 6.96639 8.90117Z" fill="#ECB22E"/>
<path fill-rule="evenodd" clip-rule="evenodd" d="M3.07296e-07 7.80144C-0.000449112 8.40829 0.492115 8.90076 1.10018 8.90121C1.70824 8.90076 2.20081 8.40829 2.20036 7.80144V6.70166H1.10018C0.492115 6.70211 -0.000449112 7.19459 3.07296e-07 7.80144ZM2.93336 7.80144V10.7348C2.93246 11.3416 3.42503 11.8341 4.03309 11.835C4.64116 11.8345 5.13372 11.3421 5.13327 10.7352V7.80233C5.13417 7.19548 4.64161 6.70301 4.03354 6.70211C3.42503 6.70211 2.93291 7.19459 2.93336 7.80144C2.93336 7.80188 2.93336 7.80144 2.93336 7.80144Z" fill="#E01E5A"/>
</svg>
