<svg width="47" height="21" viewBox="0 0 47 21" fill="none" xmlns="http://www.w3.org/2000/svg">
<g clip-path="url(#clip0_6507_29136)">
<path d="M8.6529 15.3877V13.9745C8.38995 14.4346 7.96268 14.829 7.37109 15.1249C6.77944 15.4206 6.08923 15.5849 5.30041 15.5849C4.57733 15.5849 3.91998 15.4535 3.32837 15.2234C2.73676 14.9934 2.21088 14.6318 1.7836 14.1717C1.38919 13.7444 1.06052 13.1856 0.797577 12.5283C0.567505 11.8709 0.436035 11.1479 0.436035 10.3262C0.436035 9.53738 0.567505 8.7814 0.797577 8.15693C1.02765 7.49959 1.38919 6.94085 1.81646 6.48071C2.24374 6.02057 2.76962 5.69189 3.36123 5.42895C3.95285 5.19888 4.6102 5.06741 5.33328 5.06741C6.08923 5.06741 6.74658 5.19888 7.30532 5.46182C7.86405 5.72476 8.25851 6.05343 8.55427 6.44784V0.0386963H10.7564V15.3877H8.6529ZM5.66195 6.97375C5.23467 6.97375 4.84027 7.03944 4.47873 7.20382C4.11718 7.33527 3.78851 7.56534 3.52557 7.86117C3.26263 8.15693 3.06543 8.51852 2.90109 8.91291C2.73676 9.34018 2.67102 9.80033 2.67102 10.359C2.67102 10.885 2.73676 11.378 2.90109 11.8053C3.06543 12.1996 3.26263 12.5283 3.52557 12.8241C3.78851 13.1199 4.11718 13.3171 4.47873 13.4815C4.84027 13.6129 5.23467 13.7115 5.66195 13.7115C6.48364 13.7115 7.17385 13.4486 7.7326 12.9227C8.25851 12.3968 8.55427 11.6409 8.55427 10.622V10.0961C8.55427 9.11011 8.29132 8.32125 7.7326 7.79542C7.20672 7.23663 6.5165 6.97375 5.66195 6.97375Z" fill="#477DB3"/>
<path d="M26.3359 16.6696C26.3359 17.8858 26.0072 18.8389 25.317 19.5291C24.6268 20.2193 23.7065 20.548 22.5561 20.548C22.3589 20.548 22.2275 20.548 22.096 20.548C21.9645 20.548 21.8331 20.5151 21.6687 20.4823V18.5431C21.8331 18.576 22.0632 18.6089 22.2932 18.6089C22.852 18.6089 23.2792 18.4445 23.6079 18.1158C23.9366 17.7871 24.1009 17.327 24.1009 16.7025V5.26468H26.303V16.6696H26.3359ZM26.3359 3.1283H24.1338V0.893311H26.3359V3.1283Z" fill="#477DB3"/>
<path d="M32.0874 5.06714C33.4021 5.06714 34.421 5.39581 35.1112 6.08603C35.8014 6.77625 36.1629 7.7623 36.1629 9.077V15.3875H33.9279V14.5001C33.5664 14.8287 33.172 15.1246 32.7119 15.3218C32.2517 15.519 31.7587 15.6176 31.1671 15.6176C30.1482 15.6176 29.3265 15.3546 28.702 14.8616C28.0776 14.3358 27.7817 13.6127 27.7817 12.6595C27.7817 12.1337 27.8804 11.6735 28.0776 11.2791C28.2748 10.9175 28.5377 10.5889 28.8664 10.3588C29.1951 10.1287 29.5895 9.93154 30.0496 9.80003C30.5098 9.66859 31.0028 9.60283 31.4957 9.56995L33.8951 9.43851V9.14268C33.8951 8.48534 33.7636 7.9595 33.4678 7.59791C33.172 7.2364 32.7119 7.0392 32.0874 7.0392C31.4629 7.0392 31.0028 7.20352 30.707 7.56504C30.4111 7.89374 30.2797 8.32102 30.2797 8.78117L28.0447 8.64966C28.0447 8.18957 28.1433 7.7623 28.3076 7.33496C28.5048 6.90772 28.7678 6.51331 29.0964 6.18464C29.4251 5.85596 29.8524 5.59302 30.3782 5.36295C30.9042 5.19861 31.4629 5.06714 32.0874 5.06714ZM31.8245 11.2791C31.2985 11.3119 30.8713 11.4106 30.5426 11.6078C30.2139 11.8049 30.0496 12.1337 30.0496 12.5938C30.0496 13.0211 30.1811 13.3168 30.4769 13.4812C30.7727 13.6455 31.1342 13.7441 31.5615 13.7441C32.2846 13.7441 32.8433 13.5798 33.3035 13.2183C33.7307 12.8567 33.9608 12.298 33.9608 11.5092V11.1476L31.8245 11.2791Z" fill="#477DB3"/>
<path d="M39.943 6.41485C40.173 6.05331 40.5346 5.7575 40.9947 5.49457C41.4549 5.23163 42.0465 5.10015 42.7696 5.10015C43.3612 5.10015 43.8871 5.19876 44.3472 5.39596C44.8402 5.59316 45.2347 5.8561 45.5962 6.21765C45.9577 6.57919 46.2206 7.00644 46.4178 7.53234C46.615 8.05825 46.7137 8.64984 46.7137 9.30718V15.4205H44.4787V9.60301C44.4787 8.84703 44.2815 8.22257 43.8871 7.79529C43.4926 7.36802 42.9339 7.13795 42.2766 7.13795C41.5535 7.13795 40.9947 7.36802 40.5675 7.82817C40.1402 8.28832 39.9101 8.87991 39.9101 9.60301V15.3876H37.708V0.0385742H39.9101V6.41485H39.943Z" fill="#477DB3"/>
<path d="M22.0302 7.49952L20.2554 5.7247C19.861 5.33029 19.3023 5.10022 18.7435 5.10022H15.9498C15.391 5.10022 14.8323 5.33029 14.4379 5.7247L12.663 7.49952C12.2686 7.89398 12.0386 8.45269 12.0386 9.01148V11.7723C12.0386 12.331 12.2686 12.8898 12.663 13.2842L14.7994 15.4206C14.9308 15.5521 14.9966 15.7164 14.9966 15.9136V16.7681C14.9966 17.2612 15.391 17.6555 15.884 17.6555H18.7106C19.2036 17.6555 19.598 17.2612 19.598 16.7681V15.9465C19.598 15.7821 19.6638 15.5849 19.7952 15.4534L21.9973 13.2842C22.3918 12.8898 22.6219 12.331 22.6219 11.7723V9.01148C22.6876 8.45269 22.4575 7.92679 22.0302 7.49952ZM20.4198 11.4108C20.4198 11.7066 20.3211 11.9695 20.1239 12.1996L19.2694 13.1199C18.9736 13.4157 18.9078 13.8758 19.0722 14.2703L19.5652 15.4863H15.1938L15.6868 14.2703C15.8511 13.8758 15.7526 13.4485 15.4896 13.1199L14.6351 12.1996C14.4379 12.0024 14.3393 11.7066 14.3393 11.4108V9.40587C14.3393 9.11004 14.4379 8.84709 14.6351 8.64989L15.5882 7.56527C15.8183 7.3352 16.1141 7.17088 16.4428 7.17088H18.3162C18.6449 7.17088 18.9407 7.30232 19.1708 7.56527L20.1568 8.64989C20.354 8.84709 20.4526 9.14292 20.4526 9.43875V11.4108H20.4198Z" fill="#477DB3"/>
</g>
<defs>
<clipPath id="clip0_6507_29136">
<rect width="46.2774" height="20.7212" fill="white" transform="translate(0.436035 0.0386963)"/>
</clipPath>
</defs>
</svg>
