<svg width="24" height="24" viewBox="0 0 24 24" fill="none" xmlns="http://www.w3.org/2000/svg">
<path d="M4.89692 13.0527L4.40535 12.9474C4.41083 12.9305 4.41635 12.9136 4.42189 12.8967L4.89692 13.0527ZM4.89692 13.0527C4.84468 13.2118 4.79544 13.3717 4.74921 13.5324L4.79212 13.5416L4.89692 13.0527ZM9.53753 6.85461L9.23699 6.7821L6.63218 6.15362L6.60818 6.14783L6.58486 6.1397C6.06561 5.95867 5.49839 5.97165 4.98795 6.17623C4.47752 6.38081 4.05835 6.76317 3.80785 7.25271L3.80321 7.26177L3.79822 7.27063L1.59803 11.1705L1.59799 11.1706C1.55945 11.2389 1.53751 11.3153 1.53396 11.3936C1.53041 11.472 1.54533 11.55 1.57753 11.6215C1.60973 11.693 1.6583 11.756 1.71932 11.8052C1.78033 11.8545 1.85208 11.8887 1.92877 11.9051L1.92897 11.9052L5.00172 12.5638L5.54552 12.6804L5.37194 13.2088C5.1214 13.9715 4.94248 14.7558 4.83752 15.5517C4.82771 15.6276 4.83542 15.7047 4.86007 15.7771C4.88475 15.8496 4.92576 15.9155 4.97994 15.9697L4.97996 15.9697L8.08006 19.0698L8.0802 19.0699C8.12658 19.1164 8.18166 19.1532 8.24227 19.1783C8.3029 19.2034 8.36787 19.2163 8.43351 19.2163C8.44509 19.2163 8.45923 19.2158 8.47745 19.2143C9.28744 19.1413 10.0876 18.9839 10.8649 18.7446L11.3865 18.5839L11.5009 19.1176L12.1446 22.1208C12.161 22.1975 12.1953 22.2692 12.2446 22.3302C12.2938 22.3912 12.3568 22.4398 12.4283 22.472C12.4998 22.5042 12.5779 22.5192 12.6563 22.5156C12.7346 22.5121 12.8111 22.4902 12.8794 22.4517L16.7772 20.2533C17.2331 19.9743 17.5893 19.5584 17.7947 19.0648C18.001 18.5691 18.0446 18.0207 17.9193 17.4987L9.53753 6.85461ZM9.53753 6.85461L9.7367 6.61814M9.53753 6.85461L9.7367 6.61814M9.7367 6.61814L10.8509 5.29517C10.851 5.29501 10.8512 5.29485 10.8513 5.2947C12.1594 3.74881 13.8774 2.60373 15.8076 1.99129C17.7377 1.3789 19.8015 1.32398 21.7615 1.83285C21.8469 1.85549 21.9248 1.90034 21.9873 1.96284C22.0499 2.02543 22.0948 2.10348 22.1174 2.18905L9.7367 6.61814ZM4.34175 15.4868C4.32198 15.6387 4.33737 15.7931 4.38673 15.9382C4.43608 16.0832 4.51808 16.2149 4.62641 16.3232L4.34175 15.4868ZM17.2506 14.7397L17.9191 17.4978L22.1175 2.18942C22.6322 4.14975 22.5798 6.21594 21.9664 8.14766C21.3528 10.0795 20.2034 11.7974 18.6518 13.1016L18.6433 13.1088L18.6351 13.1163L17.3981 14.2538L17.1811 14.4533L17.2506 14.7397ZM3.13669 10.4776L2.80283 11.0697L3.46746 11.2121L5.57152 11.6629L5.94576 11.7431L6.12088 11.4028C6.54398 10.5805 7.05635 9.8073 7.64874 9.09718C7.649 9.09687 7.64925 9.09656 7.64951 9.09625L8.29804 8.32623L8.81834 7.70844L8.03336 7.5182L6.35496 7.11146C6.05757 6.9923 5.72641 6.9847 5.42303 7.09119C5.10689 7.20215 4.84463 7.42866 4.68881 7.72498L3.13669 10.4776ZM16.2881 19.3809L16.3084 19.3694L16.3276 19.356C16.5855 19.177 16.7825 18.9234 16.8923 18.6292C17.0018 18.3361 17.0194 18.0166 16.9428 17.7133L16.54 16.0511L16.3401 15.2266L15.7156 15.8008L14.9765 16.4804C14.2783 17.0917 13.5044 17.6108 12.674 18.025L12.327 18.198L12.4082 18.5772L12.8377 20.5818L12.9801 21.2465L13.5722 20.9126L16.2881 19.3809ZM14.2992 15.7445L14.3049 15.7395L14.3105 15.7344L17.9864 12.3561C19.3158 11.2436 20.3234 9.7956 20.9048 8.16231C21.4875 6.52523 21.6205 4.76185 21.2901 3.05586L21.2257 2.72289L20.8925 2.65969C19.1924 2.3372 17.4371 2.47167 15.806 3.04938C14.1749 3.62708 12.7263 4.62732 11.6081 5.94796L11.6073 5.94894L10.1723 7.65262L10.1622 7.66468L10.1528 7.67735C10.1412 7.693 10.1287 7.7079 10.1152 7.72198L10.1043 7.73336L10.0942 7.7454L8.41586 9.73808L8.41504 9.73906C7.10874 11.2981 6.24204 13.1774 5.90435 15.1832L5.86154 15.4374L6.04385 15.6197L8.44815 18.024L8.62131 18.1972L8.86426 18.1665C10.8752 17.913 12.7661 17.0703 14.2992 15.7445ZM16.7337 6.31627C16.865 6.31626 16.9951 6.34211 17.1164 6.39236C17.2377 6.44262 17.348 6.51627 17.4408 6.60913C17.5337 6.70199 17.6073 6.81223 17.6576 6.93356C17.7078 7.05489 17.7337 7.18493 17.7337 7.31625V7.31629C17.7337 7.51407 17.675 7.70741 17.5652 7.87186C17.4553 8.03631 17.2991 8.16448 17.1164 8.24017C16.9336 8.31585 16.7326 8.33566 16.5386 8.29707C16.3446 8.25849 16.1664 8.16325 16.0266 8.02339C15.8867 7.88354 15.7915 7.70536 15.7529 7.51138C15.7143 7.3174 15.7341 7.11633 15.8098 6.9336C15.8855 6.75088 16.0137 6.5947 16.1781 6.48482C16.3426 6.37494 16.5359 6.31629 16.7337 6.31629V6.31627Z" fill="#31323D" stroke="#31323D"/>
</svg>
