<svg width="43" height="43" viewBox="0 0 43 43" fill="none" xmlns="http://www.w3.org/2000/svg">
<rect width="43" height="43" rx="7.16667" fill="#F0F2FA"/>
<path d="M31.0556 18.7176V18.5146C31.0629 16.4827 30.4182 14.5022 29.2164 12.8639C28.0145 11.2256 26.3189 10.016 24.3787 9.41288H24.307C23.3049 9.10738 22.2608 8.96226 21.2134 8.98288C18.7192 9.11976 16.3712 10.2033 14.6487 12.0124C12.9262 13.8215 11.959 16.2197 11.9445 18.7176C11.2446 18.9638 10.6383 19.4213 10.2095 20.0267C9.78062 20.6322 9.55029 21.3559 9.55029 22.0979C9.55029 22.8399 9.78062 23.5635 10.2095 24.169C10.6383 24.7745 11.2446 25.2319 11.9445 25.4782C12.1905 27.8369 13.3049 30.0199 15.0709 31.6028C16.837 33.1856 19.1285 34.0551 21.5001 34.0423H21.7748C24.0681 33.9313 26.2479 33.0114 27.9272 31.4457C29.6066 29.8801 30.6769 27.77 30.9481 25.4901C31.6563 25.2578 32.2744 24.8105 32.7164 24.2104C33.1584 23.6103 33.4023 22.8873 33.4141 22.1421C33.426 21.3969 33.2051 20.6666 32.7824 20.0528C32.3597 19.439 31.7561 18.9723 31.0556 18.7176ZM21.7151 31.6534C19.986 31.7035 18.2972 31.1264 16.9602 30.0288C15.6233 28.9311 14.7285 27.387 14.4409 25.6812H28.4995C28.208 27.296 27.3791 28.7648 26.1474 29.8489C24.9158 30.9331 23.3538 31.5691 21.7151 31.6534ZM29.8612 23.2923H13.139C12.8222 23.2923 12.5184 23.1665 12.2944 22.9425C12.0704 22.7185 11.9445 22.4147 11.9445 22.0979C11.9445 21.7811 12.0704 21.4773 12.2944 21.2533C12.5184 21.0293 12.8222 20.9034 13.139 20.9034H15.5278C15.8446 20.9034 16.1484 20.7776 16.3724 20.5536C16.5964 20.3296 16.7223 20.0258 16.7223 19.709C16.7223 19.3922 16.5964 19.0884 16.3724 18.8644C16.1484 18.6404 15.8446 18.5146 15.5278 18.5146H14.3334C14.3869 17.2754 14.741 16.068 15.3653 14.9963C15.9896 13.9246 16.8652 13.0209 17.9167 12.3632V16.1257C17.9167 16.4424 18.0426 16.7463 18.2666 16.9703C18.4906 17.1943 18.7944 17.3201 19.1112 17.3201C19.428 17.3201 19.7318 17.1943 19.9558 16.9703C20.1798 16.7463 20.3056 16.4424 20.3056 16.1257V11.4554C20.6298 11.4012 20.9568 11.3653 21.2851 11.3479H21.5001C21.9004 11.3535 22.2996 11.3895 22.6945 11.4554V16.1257C22.6945 16.4424 22.8204 16.7463 23.0444 16.9703C23.2684 17.1943 23.5722 17.3201 23.889 17.3201C24.2057 17.3201 24.5096 17.1943 24.7336 16.9703C24.9576 16.7463 25.0834 16.4424 25.0834 16.1257V12.3273C25.5901 12.6207 26.0628 12.9692 26.4928 13.3665C27.1815 14.0353 27.7288 14.8356 28.1022 15.7199C28.4757 16.6042 28.6676 17.5546 28.6667 18.5146H27.4723C27.1555 18.5146 26.8517 18.6404 26.6277 18.8644C26.4037 19.0884 26.2778 19.3922 26.2778 19.709C26.2778 20.0258 26.4037 20.3296 26.6277 20.5536C26.8517 20.7776 27.1555 20.9034 27.4723 20.9034H29.8612C30.178 20.9034 30.4818 21.0293 30.7058 21.2533C30.9298 21.4773 31.0556 21.7811 31.0556 22.0979C31.0556 22.4147 30.9298 22.7185 30.7058 22.9425C30.4818 23.1665 30.178 23.2923 29.8612 23.2923Z" fill="#7EA4CA"/>
</svg>
