<svg width="38" height="37" viewBox="0 0 38 37" fill="none" xmlns="http://www.w3.org/2000/svg">
<rect x="0.5" y="0.5" width="37" height="36" rx="18" fill="#EDF2F7"/>
<path d="M19.7161 12.0887C19.7992 12.2092 19.8404 12.3537 19.8332 12.4999V15.9999V16.4999H20.3332L19.7161 12.0887ZM19.7161 12.0887C19.633 11.9682 19.5125 11.8784 19.3732 11.8332L19.7161 12.0887ZM23.3134 17.0915L23.3145 17.0938C23.3285 17.1211 23.3346 17.1518 23.3323 17.1824C23.3299 17.2127 23.3193 17.2419 23.3016 17.2666C23.3015 17.2668 23.3013 17.267 23.3012 17.2671L17.9695 24.5982C17.9695 24.5983 17.9694 24.5984 17.9694 24.5984C17.9539 24.6196 17.9336 24.6367 17.9102 24.6486C17.8879 24.6599 17.8634 24.666 17.8384 24.6665C17.8181 24.6657 17.7979 24.6625 17.7783 24.6567C17.7463 24.6456 17.7184 24.6248 17.6984 24.5973C17.6778 24.569 17.6667 24.5348 17.6666 24.4998C17.6666 24.4997 17.6666 24.4996 17.6666 24.4995L17.6666 20.4999V19.9999H17.1666H13.8477C13.8178 19.9973 13.7892 19.9867 13.7648 19.9691C13.7385 19.9502 13.7182 19.924 13.7066 19.8937L13.6995 19.8754L13.6911 19.8577C13.6784 19.8312 13.673 19.8018 13.6753 19.7726C13.6776 19.7446 13.6868 19.7177 13.7022 19.6943L19.0303 12.3682C19.0304 12.3681 19.0304 12.368 19.0305 12.3679C19.0513 12.3396 19.0805 12.3185 19.1139 12.3078C19.1474 12.297 19.1835 12.2971 19.217 12.3082L19.217 12.3082L19.2188 12.3088C19.2536 12.3201 19.2838 12.3425 19.3046 12.3726L19.7125 12.0912L19.3046 12.3726C19.3253 12.4028 19.3356 12.4389 19.3338 12.4754L19.3332 12.4876V12.4999V16.4999V16.9999H19.8332H23.1656C23.1962 17.0001 23.2261 17.0087 23.2522 17.0248C23.2784 17.0409 23.2995 17.064 23.3134 17.0915ZM17.9999 22.4465V23.9923L18.9052 22.7394L22.2385 18.126L22.8114 17.3332H21.8332H19.1666C19.1224 17.3332 19.08 17.3156 19.0487 17.2844C19.0175 17.2531 18.9999 17.2107 18.9999 17.1665V14.5532V13.0075L18.0946 14.2604L14.7613 18.8737L14.1884 19.6665H15.1666H17.8332C17.8774 19.6665 17.9198 19.6841 17.9511 19.7153C17.9823 19.7466 17.9999 19.789 17.9999 19.8332V22.4465Z" fill="#000624" stroke="#477DB3"/>
</svg>
