<svg width="14" height="18" viewBox="0 0 14 18" fill="none" xmlns="http://www.w3.org/2000/svg">
<path d="M13.5749 6.95841C13.5056 6.82098 13.3997 6.70541 13.2688 6.62451C13.1379 6.54361 12.9871 6.50054 12.8332 6.50008H8.66655V1.50008C8.67549 1.31731 8.62403 1.13669 8.52011 0.986077C8.41619 0.835467 8.26559 0.723249 8.09155 0.666743C7.92424 0.611696 7.74379 0.611077 7.5761 0.664976C7.40842 0.718875 7.26212 0.824519 7.15822 0.966743L0.491551 10.1334C0.408023 10.2541 0.357867 10.3948 0.34616 10.5411C0.334453 10.6874 0.361611 10.8343 0.424885 10.9667C0.483153 11.1182 0.584375 11.2493 0.716126 11.3441C0.847877 11.4388 1.00442 11.493 1.16655 11.5001H5.33322V16.5001C5.33335 16.6758 5.38903 16.847 5.4923 16.9892C5.59557 17.1314 5.74114 17.2373 5.90822 17.2917C5.99194 17.3177 6.07891 17.3317 6.16655 17.3334C6.29804 17.3338 6.42774 17.303 6.54506 17.2436C6.66237 17.1842 6.76397 17.0979 6.84155 16.9917L13.5082 7.82508C13.598 7.70074 13.6517 7.55404 13.6635 7.40112C13.6753 7.24821 13.6446 7.09502 13.5749 6.95841ZM6.99988 13.9334V10.6667C6.99988 10.4457 6.91209 10.2338 6.75581 10.0775C6.59953 9.92121 6.38756 9.83341 6.16655 9.83341H2.83322L6.99988 4.06674V7.33341C6.99988 7.55442 7.08768 7.76638 7.24396 7.92267C7.40024 8.07895 7.6122 8.16674 7.83322 8.16674H11.1666L6.99988 13.9334Z" fill="#FCFCFC"/>
</svg>
