<svg width="21" height="20" viewBox="0 0 21 20" fill="none" xmlns="http://www.w3.org/2000/svg">
<path d="M13.2503 10.433L13.9992 10.0001L13.2503 9.56719L9.08363 7.15886L8.33342 6.72524V7.59175V12.4084V13.2749L9.08363 12.8413L13.2503 10.433ZM9.41654 6.58297C9.41661 6.58301 9.41668 6.58305 9.41675 6.58309L13.5825 8.99092C13.5826 8.99098 13.5827 8.99104 13.5829 8.9911C13.7595 9.09365 13.9061 9.24078 14.0081 9.41778C14.1101 9.59489 14.1638 9.79569 14.1638 10.0001C14.1638 10.2045 14.1101 10.4053 14.0081 10.5824C13.9061 10.7594 13.7595 10.9065 13.5829 11.0091C13.5827 11.0091 13.5826 11.0092 13.5825 11.0092L9.41675 13.4171C9.41668 13.4171 9.41661 13.4172 9.41654 13.4172C9.23924 13.5195 9.03813 13.5734 8.83342 13.5734C8.62862 13.5734 8.42744 13.5195 8.25009 13.4171L8.00008 13.8501L8.25008 13.4171C8.0729 13.3148 7.92574 13.1677 7.82335 12.9906C7.72103 12.8135 7.66703 12.6128 7.66675 12.4083C7.66675 12.4082 7.66675 12.408 7.66675 12.4079V7.59226C7.66675 7.59213 7.66675 7.592 7.66675 7.59186C7.66703 7.38731 7.72109 7.18642 7.8235 7.00935C7.92599 6.83216 8.07328 6.68505 8.2506 6.5828C8.42792 6.48054 8.62903 6.42674 8.83372 6.42679C9.03833 6.42684 9.23932 6.48071 9.41654 6.58297ZM6.14812 3.4869C7.4363 2.62617 8.9508 2.16675 10.5001 2.16675C11.5288 2.16675 12.5474 2.36936 13.4978 2.76303C14.4482 3.15669 15.3117 3.73369 16.0391 4.46108C16.7665 5.18847 17.3435 6.05201 17.7371 7.00239C18.1308 7.95278 18.3334 8.97139 18.3334 10.0001C18.3334 11.5494 17.874 13.0639 17.0133 14.352C16.1525 15.6402 14.9291 16.6443 13.4978 17.2371C12.0664 17.83 10.4914 17.9852 8.97188 17.6829C7.45236 17.3806 6.05659 16.6346 4.96108 15.5391C3.86557 14.4436 3.11952 13.0478 2.81727 11.5283C2.51502 10.0088 2.67014 8.43375 3.26303 7.00239C3.85592 5.57104 4.85993 4.34764 6.14812 3.4869ZM6.5185 15.9589C7.69705 16.7464 9.08265 17.1667 10.5001 17.1667C12.4008 17.1667 14.2237 16.4117 15.5677 15.0677C16.9117 13.7237 17.6668 11.9008 17.6668 10.0001C17.6668 8.58265 17.2464 7.19705 16.459 6.0185C15.6715 4.83994 14.5522 3.92137 13.2426 3.37894C11.9331 2.83652 10.4921 2.69459 9.10194 2.97112C7.71174 3.24765 6.43476 3.93021 5.43249 4.93248C4.43021 5.93476 3.74765 7.21174 3.47112 8.60193C3.1946 9.99213 3.33652 11.4331 3.87895 12.7426C4.42138 14.0522 5.33995 15.1715 6.5185 15.9589Z" fill="#000624" stroke="#477DB3"/>
</svg>
