<svg width="41" height="40" viewBox="0 0 41 40" fill="none" xmlns="http://www.w3.org/2000/svg">
<rect x="0.969727" width="40" height="40" rx="5.2" fill="#F5F5F5"/>
<path d="M31.5705 10.062C31.5254 9.89071 31.4356 9.73447 31.3104 9.60923C31.1851 9.48398 31.0289 9.39422 30.8576 9.3491C28.8062 8.81628 26.6461 8.87367 24.6259 9.51465C22.6057 10.1556 20.8076 11.3541 19.4387 12.9722L18.3237 14.296L15.7189 13.6675C15.0857 13.4467 14.3939 13.4626 13.7714 13.7121C13.1489 13.9616 12.6377 14.4279 12.3322 15.0249L10.132 18.9248C10.0549 19.0614 10.0111 19.2142 10.004 19.3709C9.99685 19.5276 10.0267 19.6838 10.0911 19.8268C10.1555 19.9698 10.2527 20.0957 10.3747 20.1942C10.4968 20.2927 10.6403 20.3612 10.7937 20.394L13.8664 21.0527C13.6061 21.845 13.4202 22.6599 13.3112 23.4868C13.2915 23.6387 13.3069 23.7931 13.3562 23.9381C13.4056 24.0831 13.4876 24.2149 13.5959 24.3232L16.696 27.4233C16.7888 27.5162 16.899 27.5899 17.0203 27.6401C17.1416 27.6904 17.2717 27.7163 17.403 27.7163C17.4318 27.7163 17.4606 27.7148 17.4899 27.7124C18.3352 27.6364 19.1703 27.4722 19.9815 27.2224L20.6252 30.2256C20.6581 30.3789 20.7265 30.5224 20.8251 30.6444C20.9236 30.7664 21.0495 30.8635 21.1925 30.9279C21.3355 30.9923 21.4916 31.0221 21.6483 31.0151C21.805 31.008 21.9578 30.9642 22.0944 30.8872L25.9997 28.6845C26.5493 28.3506 26.9787 27.8506 27.2258 27.2569C27.4729 26.6631 27.5251 26.0061 27.3747 25.3808L26.706 22.6218L27.943 21.4843C29.5671 20.1192 30.7702 18.321 31.4124 16.2989C32.0546 14.2769 32.1094 12.114 31.5705 10.062ZM12.5417 18.7231L14.0979 15.9634C14.1945 15.776 14.3592 15.6327 14.5581 15.5629C14.757 15.4931 14.9751 15.502 15.1677 15.5879L16.8851 16.0041L16.2351 16.7759C15.6188 17.5144 15.0859 18.3187 14.6458 19.174L12.5417 18.7231ZM25.0119 26.9453L22.2961 28.477L21.8666 26.4723C22.7372 26.0382 23.5483 25.4937 24.28 24.8525L25.0235 24.1688L25.427 25.8334C25.4793 26.039 25.4676 26.2556 25.3934 26.4543C25.3192 26.653 25.1861 26.8243 25.0119 26.9453ZM26.6262 19.98L22.9416 23.3662C21.4832 24.6275 19.6842 25.4292 17.7712 25.6704L15.3669 23.2661C15.6898 21.3481 16.5186 19.551 17.7678 18.0601L19.4461 16.0674C19.4741 16.0382 19.5002 16.0072 19.5242 15.9747L20.9592 14.271C22.0201 13.0179 23.3947 12.0688 24.9424 11.5206C26.4901 10.9725 28.1556 10.8449 29.7688 11.1509C30.0821 12.7691 29.9559 14.4417 29.4032 15.9946C28.8505 17.5474 27.8915 18.9237 26.6262 19.98ZM25.7032 13.8162C25.4065 13.8162 25.1165 13.9042 24.8698 14.069C24.6231 14.2338 24.4309 14.4681 24.3174 14.7422C24.2038 15.0163 24.1741 15.3179 24.232 15.6089C24.2899 15.8998 24.4327 16.1671 24.6425 16.3769C24.8523 16.5867 25.1196 16.7295 25.4105 16.7874C25.7015 16.8453 26.0031 16.8156 26.2772 16.702C26.5513 16.5885 26.7856 16.3963 26.9504 16.1496C27.1152 15.9029 27.2032 15.6129 27.2032 15.3162C27.2032 15.1192 27.1644 14.9242 27.089 14.7422C27.0136 14.5602 26.9031 14.3948 26.7638 14.2555C26.6246 14.1162 26.4592 14.0057 26.2772 13.9304C26.0952 13.855 25.9001 13.8162 25.7031 13.8162L25.7032 13.8162Z" fill="url(#paint0_linear_7852_30195)"/>
<defs>
<linearGradient id="paint0_linear_7852_30195" x1="20.9704" y1="8.98773" x2="20.9704" y2="31.0161" gradientUnits="userSpaceOnUse">
<stop stop-color="#2C2F3E"/>
<stop offset="1" stop-color="#422F41"/>
</linearGradient>
</defs>
</svg>
