<svg width="41" height="40" viewBox="0 0 41 40" fill="none" xmlns="http://www.w3.org/2000/svg">
<rect x="0.313477" width="40" height="40" rx="5.2" fill="#F5F5F5"/>
<path d="M28.2235 23.51H23.6935C23.4283 23.51 23.1739 23.6154 22.9864 23.8029C22.7988 23.9904 22.6935 24.2448 22.6935 24.51C22.6935 24.7752 22.7988 25.0296 22.9864 25.2171C23.1739 25.4046 23.4283 25.51 23.6935 25.51H26.0935C24.9904 26.6627 23.5679 27.4593 22.0086 27.7974C20.4494 28.1355 18.8247 27.9996 17.3433 27.4072C15.8618 26.8149 14.5913 25.7931 13.6951 24.4732C12.7988 23.1532 12.3177 21.5955 12.3135 20C12.3135 19.7348 12.2081 19.4804 12.0206 19.2929C11.833 19.1054 11.5787 19 11.3135 19C11.0483 19 10.7939 19.1054 10.6064 19.2929C10.4188 19.4804 10.3135 19.7348 10.3135 20C10.3188 21.9528 10.8957 23.8613 11.9731 25.49C13.0505 27.1187 14.5811 28.3964 16.3762 29.1652C18.1713 29.9341 20.1522 30.1605 22.0745 29.8166C23.9968 29.4727 25.7763 28.5735 27.1935 27.23V29C27.1935 29.2652 27.2988 29.5196 27.4864 29.7071C27.6739 29.8946 27.9283 30 28.1935 30C28.4587 30 28.713 29.8946 28.9006 29.7071C29.0881 29.5196 29.1935 29.2652 29.1935 29V24.5C29.191 24.2416 29.0886 23.9943 28.9078 23.8097C28.727 23.6251 28.4817 23.5177 28.2235 23.51ZM23.3135 20C23.3135 19.4067 23.1375 18.8266 22.8079 18.3333C22.4782 17.8399 22.0097 17.4554 21.4615 17.2284C20.9133 17.0013 20.3101 16.9419 19.7282 17.0576C19.1463 17.1734 18.6117 17.4591 18.1922 17.8787C17.7726 18.2982 17.4869 18.8328 17.3711 19.4147C17.2554 19.9967 17.3148 20.5999 17.5418 21.1481C17.7689 21.6962 18.1534 22.1648 18.6468 22.4944C19.1401 22.8241 19.7201 23 20.3135 23C21.1091 23 21.8722 22.6839 22.4348 22.1213C22.9974 21.5587 23.3135 20.7956 23.3135 20ZM19.3135 20C19.3135 19.8022 19.3721 19.6089 19.482 19.4444C19.5919 19.28 19.7481 19.1518 19.9308 19.0761C20.1135 19.0004 20.3146 18.9806 20.5086 19.0192C20.7025 19.0578 20.8807 19.153 21.0206 19.2929C21.1604 19.4327 21.2557 19.6109 21.2943 19.8049C21.3328 19.9989 21.313 20.2 21.2374 20.3827C21.1617 20.5654 21.0335 20.7216 20.869 20.8315C20.7046 20.9414 20.5113 21 20.3135 21C20.0483 21 19.7939 20.8946 19.6064 20.7071C19.4188 20.5196 19.3135 20.2652 19.3135 20ZM20.3135 10C17.7499 10.0073 15.287 10.9989 13.4335 12.77V11C13.4335 10.7348 13.3281 10.4804 13.1406 10.2929C12.953 10.1054 12.6987 10 12.4335 10C12.1683 10 11.9139 10.1054 11.7264 10.2929C11.5388 10.4804 11.4335 10.7348 11.4335 11V15.5C11.4335 15.7652 11.5388 16.0196 11.7264 16.2071C11.9139 16.3946 12.1683 16.5 12.4335 16.5H16.9335C17.1987 16.5 17.453 16.3946 17.6406 16.2071C17.8281 16.0196 17.9335 15.7652 17.9335 15.5C17.9335 15.2348 17.8281 14.9804 17.6406 14.7929C17.453 14.6054 17.1987 14.5 16.9335 14.5H14.5335C15.6359 13.3479 17.0576 12.5515 18.6159 12.2131C20.1742 11.8747 21.7981 12.0097 23.2791 12.6009C24.7601 13.192 26.0307 14.2122 26.9277 15.5306C27.8247 16.849 28.3073 18.4054 28.3135 20C28.3135 20.2652 28.4188 20.5196 28.6064 20.7071C28.7939 20.8946 29.0483 21 29.3135 21C29.5787 21 29.833 20.8946 30.0206 20.7071C30.2081 20.5196 30.3135 20.2652 30.3135 20C30.3135 18.6868 30.0548 17.3864 29.5523 16.1732C29.0497 14.9599 28.3131 13.8575 27.3845 12.9289C26.456 12.0003 25.3536 11.2638 24.1403 10.7612C22.9271 10.2587 21.6267 10 20.3135 10Z" fill="url(#paint0_linear_7852_30217)"/>
<defs>
<linearGradient id="paint0_linear_7852_30217" x1="20.3135" y1="10" x2="20.3135" y2="30" gradientUnits="userSpaceOnUse">
<stop stop-color="#2C2F3E"/>
<stop offset="1" stop-color="#422F41"/>
</linearGradient>
</defs>
</svg>
