<svg width="41" height="40" viewBox="0 0 41 40" fill="none" xmlns="http://www.w3.org/2000/svg">
<rect x="0.342773" width="40" height="40" rx="5.2" fill="#F5F5F5"/>
<path d="M19.3428 19.72V23C19.3428 23.2652 19.4481 23.5196 19.6357 23.7071C19.8232 23.8946 20.0776 24 20.3428 24C20.608 24 20.8623 23.8946 21.0499 23.7071C21.2374 23.5196 21.3428 23.2652 21.3428 23V19.72C21.645 19.5455 21.8964 19.2949 22.0718 18.9932C22.2473 18.6914 22.3407 18.349 22.3428 18C22.3428 17.4696 22.1321 16.9609 21.757 16.5858C21.3819 16.2107 20.8732 16 20.3428 16C19.8123 16 19.3036 16.2107 18.9286 16.5858C18.5535 16.9609 18.3428 17.4696 18.3428 18C18.3449 18.349 18.4383 18.6914 18.6137 18.9932C18.7892 19.2949 19.0405 19.5455 19.3428 19.72ZM29.3428 10H11.3428C11.0776 10 10.8232 10.1054 10.6357 10.2929C10.4481 10.4804 10.3428 10.7348 10.3428 11V29C10.3428 29.2652 10.4481 29.5196 10.6357 29.7071C10.8232 29.8946 11.0776 30 11.3428 30H29.3428C29.608 30 29.8623 29.8946 30.0499 29.7071C30.2374 29.5196 30.3428 29.2652 30.3428 29V11C30.3428 10.7348 30.2374 10.4804 30.0499 10.2929C29.8623 10.1054 29.608 10 29.3428 10ZM28.3428 28H12.3428V12H28.3428V28Z" fill="url(#paint0_linear_7852_30253)"/>
<defs>
<linearGradient id="paint0_linear_7852_30253" x1="20.3428" y1="10" x2="20.3428" y2="30" gradientUnits="userSpaceOnUse">
<stop stop-color="#2C2F3E"/>
<stop offset="1" stop-color="#422F41"/>
</linearGradient>
</defs>
</svg>
