<svg width="48" height="48" viewBox="0 0 48 48" fill="none" xmlns="http://www.w3.org/2000/svg">
<rect width="48" height="48" rx="9" fill="#F0AD4E"/>
<path d="M22.11 23.15H19.4601C18.8301 23.15 18.3201 23.66 18.3201 24.29V29.41H22.11V23.15V23.15Z" stroke="#FCFCFC" stroke-miterlimit="10" stroke-linecap="round" stroke-linejoin="round"/>
<path d="M24.7613 18.6H23.2413C22.6113 18.6 22.1013 19.11 22.1013 19.74V29.4H25.8913V19.74C25.8913 19.11 25.3913 18.6 24.7613 18.6Z" stroke="#FCFCFC" stroke-miterlimit="10" stroke-linecap="round" stroke-linejoin="round"/>
<path d="M28.5482 24.85H25.8982V29.4H29.6882V25.99C29.6782 25.36 29.1682 24.85 28.5482 24.85Z" stroke="#FCFCFC" stroke-miterlimit="10" stroke-linecap="round" stroke-linejoin="round"/>
<path d="M21 34H27C32 34 34 32 34 27V21C34 16 32 14 27 14H21C16 14 14 16 14 21V27C14 32 16 34 21 34Z" stroke="#FCFCFC" stroke-width="1.5" stroke-linecap="round" stroke-linejoin="round"/>
</svg>
