<svg width="71" height="22" viewBox="0 0 71 22" fill="none" xmlns="http://www.w3.org/2000/svg">
<path d="M22.1186 16V5.81818H25.7479C26.54 5.81818 27.1963 5.96236 27.7166 6.25071C28.237 6.53906 28.6264 6.93347 28.8849 7.43395C29.1435 7.93111 29.2727 8.49124 29.2727 9.11435C29.2727 9.74077 29.1418 10.3042 28.88 10.8047C28.6214 11.3018 28.2304 11.6963 27.7067 11.9879C27.1863 12.2763 26.5317 12.4205 25.7429 12.4205H23.2472V11.1179H25.6037C26.1042 11.1179 26.5102 11.0317 26.8217 10.8594C27.1333 10.6837 27.362 10.4451 27.5078 10.1435C27.6536 9.84186 27.7266 9.49882 27.7266 9.11435C27.7266 8.72988 27.6536 8.38849 27.5078 8.0902C27.362 7.7919 27.1316 7.55824 26.8168 7.3892C26.5052 7.22017 26.0942 7.13565 25.5838 7.13565H23.6548V16H22.1186ZM30.9544 16V8.36364H32.3912V9.5767H32.4707C32.6099 9.16572 32.8552 8.84257 33.2065 8.60724C33.5611 8.36861 33.9622 8.24929 34.4096 8.24929C34.5024 8.24929 34.6118 8.2526 34.7377 8.25923C34.867 8.26586 34.9681 8.27415 35.041 8.28409V9.70597C34.9814 9.68939 34.8753 9.67116 34.7228 9.65128C34.5704 9.62808 34.4179 9.61648 34.2654 9.61648C33.9141 9.61648 33.6009 9.69105 33.3258 9.8402C33.054 9.98603 32.8386 10.1899 32.6795 10.4517C32.5204 10.7102 32.4409 11.0052 32.4409 11.3366V16H30.9544ZM39.2706 16.1541C38.5547 16.1541 37.9299 15.9901 37.3963 15.6619C36.8627 15.3338 36.4484 14.8748 36.1534 14.2848C35.8584 13.6948 35.7109 13.0054 35.7109 12.2166C35.7109 11.4245 35.8584 10.7318 36.1534 10.1385C36.4484 9.54522 36.8627 9.08452 37.3963 8.75639C37.9299 8.42827 38.5547 8.2642 39.2706 8.2642C39.9865 8.2642 40.6113 8.42827 41.1449 8.75639C41.6785 9.08452 42.0928 9.54522 42.3878 10.1385C42.6828 10.7318 42.8303 11.4245 42.8303 12.2166C42.8303 13.0054 42.6828 13.6948 42.3878 14.2848C42.0928 14.8748 41.6785 15.3338 41.1449 15.6619C40.6113 15.9901 39.9865 16.1541 39.2706 16.1541ZM39.2756 14.9062C39.7396 14.9062 40.1241 14.7836 40.429 14.5384C40.7339 14.2931 40.9593 13.9666 41.1051 13.5589C41.2543 13.1513 41.3288 12.7022 41.3288 12.2116C41.3288 11.7244 41.2543 11.277 41.1051 10.8693C40.9593 10.4583 40.7339 10.1286 40.429 9.87997C40.1241 9.63139 39.7396 9.5071 39.2756 9.5071C38.8082 9.5071 38.4205 9.63139 38.1122 9.87997C37.8073 10.1286 37.5803 10.4583 37.4311 10.8693C37.2853 11.277 37.2124 11.7244 37.2124 12.2116C37.2124 12.7022 37.2853 13.1513 37.4311 13.5589C37.5803 13.9666 37.8073 14.2931 38.1122 14.5384C38.4205 14.7836 38.8082 14.9062 39.2756 14.9062ZM48.9888 11.0533V12.3409H44.4746V11.0533H48.9888ZM49.7532 7.14062V5.81818H57.6332V7.14062H54.4563V16H52.9251V7.14062H49.7532ZM59.2551 16V8.36364H60.7417V16H59.2551ZM60.0059 7.18537C59.7473 7.18537 59.5253 7.09919 59.3397 6.92685C59.1574 6.75118 59.0662 6.54238 59.0662 6.30043C59.0662 6.05516 59.1574 5.84635 59.3397 5.67401C59.5253 5.49834 59.7473 5.41051 60.0059 5.41051C60.2644 5.41051 60.4848 5.49834 60.6671 5.67401C60.8527 5.84635 60.9455 6.05516 60.9455 6.30043C60.9455 6.54238 60.8527 6.75118 60.6671 6.92685C60.4848 7.09919 60.2644 7.18537 60.0059 7.18537ZM62.7415 18.8636V8.36364H64.1932V9.60156H64.3175C64.4036 9.44247 64.5279 9.25852 64.6903 9.04972C64.8527 8.84091 65.0781 8.65862 65.3665 8.50284C65.6548 8.34375 66.036 8.2642 66.5099 8.2642C67.1264 8.2642 67.6766 8.41998 68.1605 8.73153C68.6444 9.04309 69.0239 9.49219 69.299 10.0788C69.5774 10.6655 69.7166 11.3714 69.7166 12.1967C69.7166 13.022 69.5791 13.7296 69.304 14.3196C69.0289 14.9062 68.651 15.3587 68.1705 15.6768C67.6899 15.9917 67.1413 16.1491 66.5249 16.1491C66.0608 16.1491 65.6813 16.0713 65.3864 15.9155C65.0947 15.7597 64.866 15.5774 64.7003 15.3686C64.5346 15.1598 64.407 14.9742 64.3175 14.8118H64.228V18.8636H62.7415ZM64.1982 12.1818C64.1982 12.7187 64.276 13.1894 64.4318 13.5938C64.5876 13.9981 64.813 14.3146 65.108 14.5433C65.4029 14.7687 65.7642 14.8814 66.1918 14.8814C66.6359 14.8814 67.0071 14.7637 67.3054 14.5284C67.6037 14.2898 67.8291 13.9666 67.9815 13.5589C68.1373 13.1513 68.2152 12.6922 68.2152 12.1818C68.2152 11.678 68.139 11.2256 67.9865 10.8246C67.8374 10.4235 67.612 10.107 67.3104 9.875C67.0121 9.64299 66.6392 9.52699 66.1918 9.52699C65.7609 9.52699 65.3963 9.63802 65.098 9.86009C64.803 10.0821 64.5793 10.392 64.4268 10.7898C64.2744 11.1875 64.1982 11.6515 64.1982 12.1818Z" fill="#25C26E"/>
<path d="M11.1816 4.13741L11.4165 4.33057C12.2966 5.15456 12.8521 6.27198 12.9738 7.47851C13.106 8.78808 12.7164 10.0969 11.8897 11.121C11.3383 11.7745 11.0247 12.5956 11.0002 13.4504L11 13.4504V13.46V15.3333C11 15.7753 10.8244 16.1992 10.5119 16.5118C10.1993 16.8244 9.7754 17 9.33338 17H6.66671C6.22468 17 5.80076 16.8244 5.4882 16.5118C5.17564 16.1992 5.00004 15.7753 5.00004 15.3333V13.3333H5.0002L4.99988 13.3229C4.97554 12.54 4.67839 11.7902 4.1599 11.2031C3.68745 10.6326 3.34636 9.96509 3.16086 9.24792C2.97501 8.52934 2.94994 7.77861 3.08744 7.04925C3.27597 6.07701 3.74897 5.18265 4.44647 4.47958C5.14416 3.77633 6.03503 3.29617 7.00604 3.10003L7.00664 3.09991C7.73589 2.95122 8.48914 2.9672 9.21143 3.14669C9.93371 3.32618 10.6068 3.66465 11.1816 4.13741ZM6.00004 14.3333H5.66671V14.6666V15.3333C5.66671 15.5985 5.77207 15.8529 5.9596 16.0404C6.14714 16.2279 6.40149 16.3333 6.66671 16.3333H9.33338C9.59859 16.3333 9.85295 16.2279 10.0405 16.0404C10.228 15.8529 10.3334 15.5985 10.3334 15.3333V14.6666V14.3333H10H6.00004ZM11.3682 10.7215L11.3682 10.7215L11.3714 10.7176C11.9984 9.95083 12.3385 8.98957 12.3334 7.99916C12.3336 7.3561 12.1907 6.72105 11.915 6.14008C11.6392 5.5588 11.2374 5.04624 10.7387 4.63961C10.2401 4.23298 9.65724 3.94248 9.03236 3.78921C8.40749 3.63593 7.75633 3.62373 7.12615 3.75348L7.1258 3.75355C6.39253 3.90536 5.71112 4.2446 5.14801 4.73818C4.58489 5.23176 4.15929 5.86284 3.91269 6.56988C3.6661 7.27693 3.60694 8.03581 3.74097 8.77253C3.875 9.50925 4.19765 10.1987 4.67746 10.7736L4.6774 10.7736L4.68214 10.779C5.3018 11.4897 5.65052 12.3963 5.66676 13.339L5.6724 13.6666H6.00004H7.33338H7.66671V13.3333V11.3333C7.66671 11.2449 7.70183 11.1601 7.76434 11.0976C7.82685 11.0351 7.91164 11 8.00004 11C8.08845 11 8.17323 11.0351 8.23574 11.0976C8.29826 11.1601 8.33338 11.2449 8.33338 11.3333V13.3333V13.6666H8.66671H10H10.3171L10.333 13.3499C10.3812 12.3841 10.7449 11.4608 11.3682 10.7215Z" fill="#000624" stroke="#25C26E" stroke-width="0.666667"/>
</svg>
