<svg width="75" height="19" viewBox="0 0 75 19" fill="none" xmlns="http://www.w3.org/2000/svg">
<g clip-path="url(#clip0_6507_29119)">
<path fill-rule="evenodd" clip-rule="evenodd" d="M51.714 1.78468V3.13162H54.0825V0.437744H51.714V1.78468ZM0 7.47132V14.4143H2.35003L2.35466 13.8139L2.35995 13.2122L2.4393 13.3213C2.90547 13.9514 3.72871 14.4057 4.63791 14.5327C5.04788 14.5902 5.73424 14.5657 6.20372 14.4771C7.57777 14.2179 8.63707 13.4185 9.24078 12.1826C9.62496 11.3971 9.80019 10.5738 9.80019 9.55091C9.80019 8.86785 9.73009 8.33621 9.56479 7.75962C9.48706 7.46893 9.37844 7.1874 9.24078 6.91985C8.56632 5.54315 7.37609 4.73115 5.77855 4.56055C5.42568 4.53508 5.07144 4.53508 4.71858 4.56055C4.16315 4.62668 3.5839 4.82769 3.16468 5.0988C2.90415 5.26742 2.65553 5.49157 2.42806 5.76268L2.35202 5.85327L2.35136 3.19047L2.3507 0.528334H0V7.47132ZM45.3853 4.21803C44.0145 4.32449 42.8217 4.97581 42.1571 5.97957C41.8411 6.45764 41.6718 6.90993 41.5885 7.50239C41.5686 7.64258 41.5633 8.14512 41.5812 8.25025L41.5918 8.31505L41.8206 8.08561C42.2027 7.69932 42.66 7.39551 43.1642 7.19294C44.2235 6.75652 45.4739 6.73073 46.6304 7.12218C46.9365 7.22534 47.1085 7.29873 47.3921 7.44751C48.511 8.03337 49.3296 8.9829 49.6866 10.1116C49.7342 10.2617 49.8149 10.6367 49.8149 10.7081C49.8149 10.7378 49.8202 10.7623 49.8261 10.7623C49.8447 10.7623 49.9029 10.6856 50.0516 10.4661C50.3889 9.96815 50.5727 9.43387 50.6289 8.79379C50.691 8.08759 50.4847 7.26104 50.0741 6.57203C49.717 5.97163 49.114 5.36858 48.4885 4.98507C47.5594 4.4164 46.43 4.13736 45.3853 4.21803ZM69.6057 4.52485C69.2397 4.55834 68.8787 4.63377 68.5299 4.74967C68.2325 4.86735 67.9477 5.01443 67.6795 5.18873C67.3278 5.43868 66.9773 5.83939 66.7981 6.19711C66.609 6.57402 66.5396 6.86827 66.5277 7.34502C66.5171 7.74705 66.5376 7.97253 66.613 8.27472C66.73 8.74684 66.9151 9.07614 67.2411 9.39089C67.423 9.56611 67.6028 9.69307 67.8349 9.81011C68.3143 10.0521 68.7124 10.1619 69.8133 10.3563C70.4296 10.4654 70.8112 10.5507 71.0247 10.6274C71.4367 10.7762 71.6873 10.9911 71.7871 11.282C71.8215 11.3812 71.8295 11.4427 71.8295 11.6047C71.8295 11.8037 71.8295 11.8057 71.7528 11.9598C71.7033 12.068 71.6309 12.1641 71.5405 12.2415C70.9751 12.7691 69.7406 12.7963 69.0628 12.2957C68.717 12.0398 68.5008 11.6695 68.43 11.2099L68.4195 11.1418H66.2645L66.2764 11.3058C66.3366 12.0973 66.6626 12.8419 67.1889 13.3887C67.823 14.048 68.7111 14.4335 69.8081 14.5254C70.1208 14.5518 70.8012 14.5366 71.0684 14.497C72.0483 14.3541 72.7684 14.0202 73.3053 13.4615C73.8396 12.9047 74.0955 12.1734 74.0539 11.323C74.0036 10.2796 73.6684 9.5919 72.9886 9.133C72.5185 8.81561 71.8982 8.62584 70.8713 8.48565C69.7366 8.33026 69.4986 8.27935 69.1713 8.12263C68.8307 7.95931 68.6555 7.68754 68.6568 7.3232C68.6575 6.79553 69.0304 6.43053 69.6844 6.31415C69.8762 6.28043 70.2683 6.2877 70.4567 6.32936C71.1596 6.48409 71.6304 6.93902 71.7746 7.6029L71.7851 7.65249H73.9362V7.57976C73.9362 7.35362 73.837 6.91852 73.7166 6.61237C73.2994 5.55704 72.2745 4.80719 70.9527 4.58899C70.5354 4.52088 69.9542 4.49311 69.6057 4.52485ZM34.8888 4.54468C34.7394 4.54997 34.5767 4.56055 34.5271 4.56783C34.354 4.589 34.182 4.61768 34.0114 4.65379C32.0369 5.075 30.6384 6.57799 30.3051 8.63708C30.2707 8.84867 30.2331 9.33137 30.2331 9.56016C30.2331 10.0336 30.3144 10.6406 30.4347 11.0612C30.6807 11.9201 31.0708 12.5966 31.66 13.1864C32.3993 13.9256 33.2728 14.3521 34.3823 14.5155C34.791 14.575 35.478 14.5789 35.9197 14.5241C36.5617 14.4441 37.2554 14.2199 37.7817 13.9223C38.8675 13.3087 39.616 12.3023 39.8421 11.1518L39.8798 10.966L39.8891 10.925H37.4921L37.4505 11.0565C37.221 11.7779 36.6385 12.2864 35.8377 12.465C35.6711 12.502 35.601 12.5073 35.2591 12.5073C34.9179 12.5073 34.8472 12.502 34.6805 12.465C34.0669 12.3281 33.5769 11.9995 33.2344 11.4943C33.0234 11.1655 32.8738 10.8012 32.7927 10.4191L32.751 10.2016C32.7074 9.97674 32.7074 9.14358 32.751 8.89099C32.923 7.89252 33.366 7.20682 34.0775 6.84314C34.2686 6.74528 34.4524 6.6818 34.699 6.62824C34.9166 6.58063 35.5282 6.58063 35.7418 6.62758C36.6206 6.82 37.2587 7.38007 37.4425 8.11801L37.4703 8.23042H39.8157V8.17686C39.8157 8.09685 39.7661 7.82376 39.7158 7.6234C39.368 6.25464 38.2658 5.18807 36.7449 4.75099C36.1498 4.58039 35.5778 4.51625 34.8888 4.54402V4.54468ZM11.1028 7.73846C11.1028 9.49073 11.1101 10.9507 11.1194 11.0645C11.2503 12.6409 12.1198 13.845 13.4469 14.2873C13.9124 14.4427 14.2893 14.4956 14.8355 14.4824C15.2355 14.4725 15.4524 14.4454 15.7546 14.3693C16.5898 14.1577 17.2569 13.683 17.6497 13.0198L17.7469 12.8544L17.7522 13.5983L17.7568 14.3429H20.1247V4.61477H17.7575L17.7509 7.45809C17.7443 10.6016 17.7529 10.3827 17.6279 10.7874C17.4328 11.4196 17.0321 11.9016 16.4813 12.1654C16.1478 12.3258 15.7798 12.4013 15.4101 12.385C14.8758 12.3585 14.4447 12.1747 14.1022 11.8282C13.7517 11.4744 13.5401 10.9864 13.4886 10.4099C13.4793 10.3107 13.472 8.96571 13.4714 7.42172V4.61477H11.1022V7.73846H11.1028ZM60.9442 4.62668C60.7336 4.6499 60.5245 4.68522 60.318 4.73247C59.4729 4.94605 58.8196 5.41884 58.4044 6.11644L58.3138 6.26853V4.76025H55.9446V14.4877H58.3118L58.3184 11.6629C58.325 9.09068 58.3277 8.82354 58.3561 8.68402C58.5108 7.91038 58.86 7.36949 59.4273 7.02564C60.1447 6.58923 61.1247 6.61634 61.7608 7.08912C62.1609 7.38668 62.4134 7.80458 62.549 8.3944L62.5887 8.56632L62.594 11.5273L62.5999 14.4877H64.9685L64.9625 11.1835L64.9566 7.8793L64.909 7.62605C64.7417 6.73999 64.3965 6.07214 63.8298 5.53389C63.3127 5.04326 62.6409 4.74041 61.856 4.64321C61.6543 4.61808 61.0963 4.60816 60.9442 4.62734V4.62668ZM51.7133 9.53305V14.3971H54.0819V4.669H51.714V9.53305H51.7133ZM20.9837 4.71859C21.0234 4.82174 21.2025 5.30907 21.3837 5.80831L21.4994 6.12438C21.5186 6.17397 21.5629 6.2963 21.5986 6.39548C21.7084 6.69701 21.8076 6.96944 21.8433 7.06466C22.3627 8.49359 22.884 9.92186 23.4071 11.3495C23.5863 11.8454 23.7662 12.338 23.7959 12.4167C23.8548 12.5728 23.9599 12.8597 24.0406 13.0859C24.0842 13.2049 24.1444 13.3722 24.1761 13.4562L24.2489 13.6552C24.2568 13.6803 24.3183 13.847 24.3857 14.0262C24.4532 14.2047 24.5081 14.3799 24.5081 14.415C24.5081 14.45 24.4704 14.5842 24.4248 14.7132C24.264 15.1643 24.1059 15.6164 23.9506 16.0694C23.8323 16.4066 23.7146 16.7441 23.5975 17.0817L23.5248 17.29C23.5083 17.3403 23.2603 18.0537 23.2015 18.2204C23.1803 18.2799 23.1631 18.3348 23.1631 18.3427C23.1631 18.3639 25.4007 18.3606 25.414 18.3394C25.4232 18.3249 25.7267 17.4467 25.8398 17.1095C25.8577 17.0546 25.9595 16.7571 26.0653 16.4489C26.1711 16.1408 26.2736 15.8439 26.2914 15.789C26.4706 15.2534 26.9335 13.9111 27.0016 13.7279C27.0373 13.6334 27.1325 13.3729 27.2145 13.1494C27.4906 12.3925 27.7679 11.636 28.0463 10.88C28.2105 10.4275 28.3758 9.97542 28.5423 9.52379C28.5859 9.40477 28.6448 9.24145 28.6745 9.1621C28.8269 8.74098 28.9814 8.32065 29.138 7.90112C29.1724 7.80855 29.2333 7.64456 29.2723 7.53479L29.4019 7.18236L29.5374 6.81206L29.6697 6.44971L30.2264 4.93217C30.2701 4.81315 30.3058 4.70933 30.3058 4.7014C30.3058 4.69346 29.7616 4.68685 29.0964 4.68685H27.887L27.8407 4.81777C27.1201 6.96736 26.3992 9.11682 25.6778 11.2662L25.6467 11.364L25.5819 11.1762C25.103 9.77411 24.6285 8.37052 24.1583 6.96547C23.9063 6.21069 23.6502 5.45731 23.3899 4.70536C23.382 4.6928 22.9839 4.68685 22.1752 4.68685C21.0366 4.68685 20.9718 4.68883 20.9837 4.71859ZM5.44264 6.64609C5.54711 6.67056 5.69391 6.71288 5.76797 6.73999C6.58592 7.03556 7.17243 7.76689 7.36816 8.73428C7.53876 9.57669 7.4356 10.4965 7.09705 11.1597C6.72411 11.8871 6.1376 12.3255 5.32494 12.4822C5.12789 12.5212 4.48252 12.5152 4.27622 12.4742C3.12368 12.2415 2.37186 11.3323 2.2244 9.99393C2.20084 9.69728 2.20106 9.39921 2.22506 9.10259C2.36128 7.85417 3.02251 6.98266 4.05933 6.68444C4.13868 6.66196 4.26498 6.63353 4.33969 6.62163C4.41441 6.60972 4.48715 6.59716 4.50236 6.59386C4.63193 6.58975 4.7616 6.58975 4.89117 6.59386C5.19798 6.59981 5.2813 6.60708 5.44264 6.64609ZM41.4853 8.46251C41.1018 8.96902 40.8816 9.52049 40.8009 10.1751C40.7004 10.9957 40.9286 11.897 41.4318 12.6693C42.0222 13.5765 42.95 14.2728 44.0463 14.6325C45.3092 15.0464 46.6271 14.9724 47.7446 14.4242C48.8502 13.882 49.5874 12.945 49.7944 11.8203C49.8486 11.5227 49.8671 11.1524 49.8394 10.8912L49.8281 10.7788L49.6754 10.9428C49.1609 11.4936 48.4382 11.9102 47.6487 12.1092C45.9182 12.547 43.9802 11.9895 42.7489 10.6988C42.1915 10.1156 41.8106 9.41469 41.6513 8.67873C41.631 8.5911 41.616 8.50233 41.6063 8.41292C41.6063 8.38382 41.5997 8.35539 41.5918 8.35076C41.5832 8.34547 41.5356 8.39639 41.4853 8.46317V8.46251Z" fill="#B5BCC3"/>
</g>
<defs>
<clipPath id="clip0_6507_29119">
<rect width="74.0585" height="18.5146" fill="white" transform="translate(0 0.245239)"/>
</clipPath>
</defs>
</svg>
