<svg width="63" height="17" viewBox="0 0 63 17" fill="none" xmlns="http://www.w3.org/2000/svg">
<g clip-path="url(#clip0_8502_2659)">
<mask id="mask0_8502_2659" style="mask-type:luminance" maskUnits="userSpaceOnUse" x="0" y="0" width="63" height="17">
<path d="M62.7637 0.000976562H0V16.9625H62.7637V0.000976562Z" fill="white"/>
</mask>
<g mask="url(#mask0_8502_2659)">
<path d="M28.7139 9.66997C28.0151 12.8082 25.995 13.4689 24.4068 13.4689C21.6625 13.4689 19.9473 11.4615 19.9473 8.24702C19.9473 5.03258 21.6625 3.02515 24.4068 3.02515C26.6557 3.02515 28.1422 4.30838 28.7139 6.73508C28.7289 6.77906 28.7309 6.82643 28.7196 6.8715C28.7083 6.91657 28.6843 6.95746 28.6504 6.9892C28.6235 7.01943 28.5901 7.04312 28.5526 7.05856C28.5152 7.07395 28.4748 7.08067 28.4344 7.07813H26.9987C26.9231 7.08534 26.8477 7.06286 26.7884 7.01543C26.7292 6.968 26.6906 6.89937 26.6811 6.82401C26.4524 5.46456 25.6646 4.75307 24.4068 4.75307C22.8568 4.75307 21.9547 6.02359 21.9547 8.24702C21.9547 10.4704 22.8695 11.741 24.4068 11.741C25.6519 11.741 26.4524 10.9786 26.6811 9.59377C26.6906 9.51847 26.7292 9.44984 26.7884 9.4024C26.8477 9.35497 26.9231 9.33244 26.9987 9.33965H28.4344C28.4748 9.33716 28.5152 9.34383 28.5526 9.35921C28.5901 9.37466 28.6235 9.39835 28.6504 9.42857C28.682 9.45923 28.7046 9.49793 28.7158 9.54046C28.727 9.58298 28.7263 9.62781 28.7139 9.66997Z" fill="#B5BCC3"/>
<path d="M36.3619 5.9724H34.9516C34.8708 5.9724 34.7932 6.00453 34.7361 6.06171C34.6789 6.1189 34.6467 6.19644 34.6467 6.27731V6.59497C34.2656 6.07407 33.6684 5.83264 32.8044 5.83264C30.6827 5.83264 29.374 7.31917 29.374 9.72044C29.374 12.1218 30.6573 13.4685 32.8044 13.4685C33.6684 13.4685 34.2656 13.2398 34.6467 12.7697V13.0238C34.6467 13.1047 34.6789 13.1823 34.7361 13.2395C34.7932 13.2967 34.8708 13.3288 34.9516 13.3288H36.3619C36.4428 13.3288 36.5203 13.2967 36.5775 13.2395C36.6347 13.1823 36.6669 13.1047 36.6669 13.0238V6.27731C36.6669 6.19644 36.6347 6.1189 36.5775 6.06171C36.5203 6.00453 36.4428 5.9724 36.3619 5.9724ZM33.0332 11.8804C32.004 11.8804 31.3941 11.0672 31.3941 9.72044C31.3941 8.37369 32.0294 7.42082 33.0332 7.42082C34.0369 7.42082 34.6467 8.32287 34.6467 9.72044C34.6467 11.118 34.0496 11.8804 33.0332 11.8804Z" fill="#B5BCC3"/>
<path d="M41.0252 7.49688V11.4736C41.0252 11.6515 41.1015 11.7405 41.2794 11.7405H42.6642C42.7037 11.7404 42.7428 11.7484 42.7791 11.7639C42.8154 11.7793 42.8482 11.802 42.8755 11.8305C42.9028 11.859 42.924 11.8927 42.938 11.9297C42.9519 11.9666 42.9582 12.006 42.9564 12.0454V13.0237C42.9582 13.0631 42.9519 13.1025 42.938 13.1394C42.924 13.1764 42.9028 13.2101 42.8755 13.2386C42.8482 13.2671 42.8154 13.2897 42.7791 13.3052C42.7428 13.3207 42.7037 13.3287 42.6642 13.3286H40.9999C39.7929 13.3286 39.0178 12.5409 39.0178 11.3339V7.5096L38.2047 7.56042C38.1632 7.56412 38.1213 7.55885 38.0819 7.54497C38.0426 7.53116 38.0067 7.50905 37.9766 7.48016C37.9465 7.45126 37.9229 7.41625 37.9075 7.37754C37.892 7.33877 37.8851 7.29715 37.8871 7.25548V6.27722C37.8852 6.23669 37.8919 6.19623 37.9066 6.15843C37.9213 6.12057 37.9437 6.08628 37.9723 6.05757C38.0011 6.02888 38.0354 6.00649 38.0732 5.99181C38.111 5.97712 38.1515 5.97046 38.192 5.97227L39.0178 6.0358V4.5874C39.0161 4.54796 39.0224 4.50859 39.0363 4.47166C39.0503 4.43472 39.0715 4.401 39.0988 4.3725C39.1261 4.344 39.1589 4.32134 39.1952 4.30587C39.2315 4.29039 39.2706 4.28243 39.3101 4.28247H40.7203C40.8012 4.28247 40.8788 4.31459 40.936 4.37178C40.9931 4.42896 41.0252 4.50652 41.0252 4.5874V6.0358L42.6516 5.97227C42.6921 5.97046 42.7325 5.97712 42.7703 5.99181C42.8081 6.00649 42.8425 6.02888 42.8711 6.05757C42.8999 6.08628 42.9222 6.12057 42.9369 6.15843C42.9516 6.19623 42.9583 6.23669 42.9564 6.27722V7.25548C42.9582 7.29491 42.9519 7.33429 42.938 7.37124C42.924 7.40819 42.9028 7.44187 42.8755 7.4704C42.8482 7.49887 42.8154 7.52153 42.7791 7.53704C42.7428 7.55248 42.7037 7.56048 42.6642 7.56042L41.0252 7.49688Z" fill="#B5BCC3"/>
<path d="M46.0565 3.4696V13.0239C46.0565 13.1048 46.0244 13.1824 45.9672 13.2396C45.91 13.2968 45.8325 13.3289 45.7516 13.3289H44.3413C44.3018 13.329 44.2628 13.321 44.2265 13.3055C44.1902 13.29 44.1574 13.2673 44.13 13.2389C44.1027 13.2103 44.0815 13.1767 44.0676 13.1397C44.0537 13.1028 44.0474 13.0634 44.0491 13.0239V3.4696C44.0474 3.43017 44.0537 3.3908 44.0676 3.35387C44.0815 3.31693 44.1027 3.2832 44.13 3.25471C44.1574 3.22621 44.1902 3.20355 44.2265 3.18807C44.2628 3.1726 44.3018 3.16464 44.3413 3.16467H45.7516C45.8325 3.16467 45.91 3.1968 45.9672 3.25399C46.0244 3.31117 46.0565 3.38873 46.0565 3.4696Z" fill="#B5BCC3"/>
<path d="M50.9989 5.83313C48.7501 5.83313 47.416 7.28155 47.416 9.72093C47.416 12.1604 48.7247 13.469 50.9989 13.469C53.2731 13.469 54.5564 12.0968 54.5564 9.72093C54.5564 7.34504 53.2223 5.83313 50.9989 5.83313ZM50.9989 11.8809C50.262 11.8809 49.4235 11.6395 49.4235 9.72093C49.4235 8.17088 49.9444 7.4213 50.9989 7.4213C52.0535 7.4213 52.5489 8.17088 52.5489 9.72093C52.5489 11.6395 51.7231 11.8809 50.9989 11.8809Z" fill="#B5BCC3"/>
<path d="M62.4713 5.9724H61.0611C61.0205 5.9706 60.9799 5.97725 60.9424 5.99193C60.9042 6.00662 60.8703 6.02902 60.8412 6.0577C60.8127 6.08637 60.7903 6.12071 60.7758 6.15851C60.7607 6.19638 60.754 6.23678 60.7558 6.27731V6.722C60.3622 6.13756 59.7524 5.83264 58.9392 5.83264C56.6523 5.83264 55.4961 7.14132 55.4961 9.72044C55.4961 12.0455 56.6268 13.189 58.9392 13.189C59.7651 13.189 60.3622 12.9349 60.7558 12.4266V13.1763C60.7558 14.2435 60.2987 14.6882 59.2187 14.6882C58.3802 14.6882 57.872 14.3833 57.872 13.8751C57.872 13.7976 57.8412 13.7232 57.7864 13.6685C57.7316 13.6137 57.6572 13.5829 57.5798 13.5829H56.1695C56.13 13.5811 56.0907 13.5874 56.0537 13.6014C56.0168 13.6153 55.9831 13.6365 55.9546 13.6638C55.9261 13.6911 55.9034 13.7239 55.8879 13.7603C55.8725 13.7965 55.8645 13.8356 55.8645 13.8751C55.8645 15.6538 57.6687 16.2764 59.2187 16.2764C61.6075 16.2764 62.7633 15.26 62.7633 13.1763V6.27731C62.7651 6.23787 62.7591 6.19856 62.7452 6.1616C62.7312 6.12465 62.71 6.09091 62.6828 6.06244C62.6555 6.03394 62.6222 6.01127 62.5858 5.99579C62.5501 5.98032 62.5107 5.97236 62.4713 5.9724ZM60.7558 9.33929V10.0508C60.6674 11.1053 60.1208 11.6009 59.079 11.6009C58.0371 11.6009 57.5162 11.0418 57.5162 9.72044C57.5162 8.19584 58.0371 7.42082 59.079 7.42082C60.1208 7.42082 60.6546 8.10691 60.7558 9.33929Z" fill="#B5BCC3"/>
<path d="M13.2008 0.000976562H3.76076C1.68375 0.000976562 0 1.68472 0 3.76174V13.198C0 15.275 1.68375 16.9587 3.76076 16.9587H13.2008C15.2778 16.9587 16.9615 15.275 16.9615 13.198V3.76174C16.9615 1.68472 15.2778 0.000976562 13.2008 0.000976562Z" fill="#B5BCC3"/>
<mask id="mask1_8502_2659" style="mask-type:alpha" maskUnits="userSpaceOnUse" x="3" y="4" width="11" height="9">
<path d="M12.5908 8.28467H4.37051C4.09684 8.28467 3.875 8.5065 3.875 8.78019V9.63141C3.875 9.9051 4.09684 10.1269 4.37051 10.1269H12.5908C12.8645 10.1269 13.0863 9.9051 13.0863 9.63141V8.78019C13.0863 8.5065 12.8645 8.28467 12.5908 8.28467Z" fill="white"/>
<path d="M12.6882 5.50683L4.59273 4.07939C4.32323 4.03187 4.06623 4.21182 4.01871 4.48132L3.87089 5.31964C3.82337 5.58915 4.00333 5.84614 4.27283 5.89367L12.3682 7.32114C12.6378 7.36863 12.8948 7.18865 12.9423 6.91915L13.0901 6.08082C13.1376 5.81135 12.9577 5.55435 12.6882 5.50683Z" fill="white"/>
<path d="M12.5908 11.0422H4.37051C4.09684 11.0422 3.875 11.2641 3.875 11.5378V12.389C3.875 12.6627 4.09684 12.8845 4.37051 12.8845H12.5908C12.8645 12.8845 13.0863 12.6627 13.0863 12.389V11.5378C13.0863 11.2641 12.8645 11.0422 12.5908 11.0422Z" fill="white"/>
</mask>
<g mask="url(#mask1_8502_2659)">
</g>
</g>
</g>
<defs>
<clipPath id="clip0_8502_2659">
<rect width="63" height="16.9615" fill="white"/>
</clipPath>
</defs>
</svg>
