<svg width="63" height="17" viewBox="0 0 63 17" fill="none" xmlns="http://www.w3.org/2000/svg">
<path d="M28.7139 9.67022C28.0151 12.8085 25.995 13.4691 24.4068 13.4691C21.6625 13.4691 19.9473 11.4617 19.9473 8.24727C19.9473 5.03283 21.6625 3.02539 24.4068 3.02539C26.6557 3.02539 28.1422 4.30862 28.7139 6.73533C28.7289 6.77931 28.7309 6.82668 28.7196 6.87175C28.7083 6.91682 28.6843 6.9577 28.6504 6.98945C28.6235 7.01967 28.5901 7.04336 28.5526 7.05881C28.5152 7.07419 28.4748 7.08092 28.4344 7.07837H26.9987C26.9231 7.08558 26.8477 7.06311 26.7884 7.01568C26.7292 6.96825 26.6906 6.89961 26.6811 6.82425C26.4524 5.4648 25.6646 4.75331 24.4068 4.75331C22.8568 4.75331 21.9547 6.02383 21.9547 8.24727C21.9547 10.4707 22.8695 11.7412 24.4068 11.7412C25.6519 11.7412 26.4524 10.9789 26.6811 9.59401C26.6906 9.51871 26.7292 9.45008 26.7884 9.40265C26.8477 9.35522 26.9231 9.33268 26.9987 9.33989H28.4344C28.4748 9.33741 28.5152 9.34407 28.5526 9.35946C28.5901 9.3749 28.6235 9.39859 28.6504 9.42882C28.682 9.45947 28.7046 9.49818 28.7158 9.5407C28.727 9.58323 28.7263 9.62806 28.7139 9.67022Z" fill="#B5BCC3"/>
<path d="M36.3619 5.97276H34.9516C34.8708 5.97276 34.7932 6.00489 34.7361 6.06208C34.6789 6.11926 34.6467 6.1968 34.6467 6.27767V6.59534C34.2656 6.07444 33.6684 5.83301 32.8044 5.83301C30.6827 5.83301 29.374 7.31954 29.374 9.7208C29.374 12.1221 30.6573 13.4689 32.8044 13.4689C33.6684 13.4689 34.2656 13.2402 34.6467 12.7701V13.0242C34.6467 13.1051 34.6789 13.1827 34.7361 13.2398C34.7932 13.297 34.8708 13.3291 34.9516 13.3291H36.3619C36.4428 13.3291 36.5203 13.297 36.5775 13.2398C36.6347 13.1827 36.6669 13.1051 36.6669 13.0242V6.27767C36.6669 6.1968 36.6347 6.11926 36.5775 6.06208C36.5203 6.00489 36.4428 5.97276 36.3619 5.97276ZM33.0332 11.8807C32.004 11.8807 31.3941 11.0676 31.3941 9.7208C31.3941 8.37406 32.0294 7.42118 33.0332 7.42118C34.0369 7.42118 34.6467 8.32323 34.6467 9.7208C34.6467 11.1184 34.0496 11.8807 33.0332 11.8807Z" fill="#B5BCC3"/>
<path d="M41.0252 7.49663V11.4734C41.0252 11.6513 41.1015 11.7402 41.2794 11.7402H42.6642C42.7037 11.7402 42.7428 11.7482 42.7791 11.7636C42.8154 11.7791 42.8482 11.8018 42.8755 11.8302C42.9028 11.8588 42.924 11.8925 42.938 11.9294C42.9519 11.9664 42.9582 12.0057 42.9564 12.0452V13.0234C42.9582 13.0629 42.9519 13.1022 42.938 13.1392C42.924 13.1761 42.9028 13.2098 42.8755 13.2384C42.8482 13.2668 42.8154 13.2895 42.7791 13.305C42.7428 13.3204 42.7037 13.3284 42.6642 13.3284H40.9999C39.7929 13.3284 39.0178 12.5406 39.0178 11.3336V7.50935L38.2047 7.56018C38.1632 7.56387 38.1213 7.5586 38.0819 7.54473C38.0426 7.53092 38.0067 7.50881 37.9766 7.47991C37.9465 7.45102 37.9229 7.416 37.9075 7.37729C37.892 7.33853 37.8851 7.29691 37.8871 7.25523V6.27698C37.8852 6.23645 37.8919 6.19598 37.9066 6.15818C37.9213 6.12032 37.9437 6.08604 37.9723 6.05732C38.0011 6.02864 38.0354 6.00625 38.0732 5.99156C38.111 5.97687 38.1515 5.97022 38.192 5.97203L39.0178 6.03555V4.58715C39.0161 4.54772 39.0224 4.50835 39.0363 4.47141C39.0503 4.43448 39.0715 4.40075 39.0988 4.37226C39.1261 4.34376 39.1589 4.32109 39.1952 4.30562C39.2315 4.29014 39.2706 4.28218 39.3101 4.28223H40.7203C40.8012 4.28223 40.8788 4.31435 40.936 4.37154C40.9931 4.42872 41.0252 4.50628 41.0252 4.58715V6.03555L42.6516 5.97203C42.6921 5.97022 42.7325 5.97687 42.7703 5.99156C42.8081 6.00625 42.8425 6.02864 42.8711 6.05732C42.8999 6.08604 42.9222 6.12032 42.9369 6.15818C42.9516 6.19598 42.9583 6.23645 42.9564 6.27698V7.25523C42.9582 7.29467 42.9519 7.33404 42.938 7.37099C42.924 7.40795 42.9028 7.44163 42.8755 7.47016C42.8482 7.49863 42.8154 7.52129 42.7791 7.53679C42.7428 7.55224 42.7037 7.56024 42.6642 7.56018L41.0252 7.49663Z" fill="#B5BCC3"/>
<path d="M46.057 3.46997V13.0243C46.057 13.1052 46.0249 13.1828 45.9677 13.24C45.9105 13.2972 45.833 13.3293 45.7521 13.3293H44.3418C44.3023 13.3293 44.2633 13.3213 44.227 13.3059C44.1907 13.2904 44.1579 13.2677 44.1305 13.2392C44.1032 13.2107 44.082 13.177 44.0681 13.1401C44.0541 13.1031 44.0478 13.0637 44.0496 13.0243V3.46997C44.0478 3.43054 44.0541 3.39117 44.0681 3.35423C44.082 3.3173 44.1032 3.28357 44.1305 3.25507C44.1579 3.22658 44.1907 3.20391 44.227 3.18843C44.2633 3.17296 44.3023 3.165 44.3418 3.16504H45.7521C45.833 3.16504 45.9105 3.19717 45.9677 3.25435C46.0249 3.31154 46.057 3.3891 46.057 3.46997Z" fill="#B5BCC3"/>
<path d="M50.9984 5.83301C48.7496 5.83301 47.4155 7.28143 47.4155 9.7208C47.4155 12.1602 48.7242 13.4689 50.9984 13.4689C53.2726 13.4689 54.5559 12.0967 54.5559 9.7208C54.5559 7.34492 53.2218 5.83301 50.9984 5.83301ZM50.9984 11.8807C50.2615 11.8807 49.423 11.6393 49.423 9.7208C49.423 8.17076 49.9439 7.42118 50.9984 7.42118C52.053 7.42118 52.5484 8.17076 52.5484 9.7208C52.5484 11.6393 51.7226 11.8807 50.9984 11.8807Z" fill="#B5BCC3"/>
<path d="M62.4718 5.97276H61.0616C61.021 5.97097 60.9804 5.97762 60.9429 5.9923C60.9047 6.00699 60.8708 6.02939 60.8417 6.05807C60.8132 6.08673 60.7908 6.12108 60.7763 6.15888C60.7611 6.19674 60.7545 6.23715 60.7563 6.27767V6.72237C60.3627 6.13792 59.7528 5.83301 58.9397 5.83301C56.6528 5.83301 55.4966 7.14168 55.4966 9.7208C55.4966 12.0459 56.6273 13.1894 58.9397 13.1894C59.7656 13.1894 60.3627 12.9353 60.7563 12.427V13.1767C60.7563 14.2439 60.2992 14.6886 59.2192 14.6886C58.3807 14.6886 57.8725 14.3836 57.8725 13.8755C57.8725 13.7979 57.8417 13.7236 57.7869 13.6688C57.7321 13.614 57.6577 13.5832 57.5802 13.5832H56.17C56.1305 13.5815 56.0911 13.5878 56.0542 13.6017C56.0173 13.6157 55.9836 13.6369 55.9551 13.6642C55.9266 13.6915 55.9039 13.7243 55.8884 13.7606C55.8729 13.7969 55.865 13.836 55.865 13.8755C55.865 15.6542 57.6692 16.2767 59.2192 16.2767C61.608 16.2767 62.7638 15.2603 62.7638 13.1767V6.27767C62.7656 6.23824 62.7596 6.19892 62.7456 6.16197C62.7317 6.12502 62.7105 6.09128 62.6832 6.06281C62.656 6.0343 62.6227 6.01164 62.5863 5.99616C62.5506 5.98069 62.5112 5.97273 62.4718 5.97276ZM60.7563 9.33965V10.0511C60.6679 11.1057 60.1213 11.6012 59.0795 11.6012C58.0376 11.6012 57.5167 11.0422 57.5167 9.7208C57.5167 8.1962 58.0376 7.42118 59.0795 7.42118C60.1213 7.42118 60.6551 8.10728 60.7563 9.33965Z" fill="#B5BCC3"/>
<path d="M13.2008 0.000976562H3.76076C1.68375 0.000976562 0 1.68472 0 3.76174V13.198C0 15.275 1.68375 16.9587 3.76076 16.9587H13.2008C15.2778 16.9587 16.9615 15.275 16.9615 13.198V3.76174C16.9615 1.68472 15.2778 0.000976562 13.2008 0.000976562Z" fill="#B5BCC3"/>
<path d="M12.5908 8.28516H4.37051C4.09684 8.28516 3.875 8.50699 3.875 8.78068V9.6319C3.875 9.90559 4.09684 10.1274 4.37051 10.1274H12.5908C12.8645 10.1274 13.0863 9.90559 13.0863 9.6319V8.78068C13.0863 8.50699 12.8645 8.28516 12.5908 8.28516Z" fill="#FFFFFF"/>
<path d="M12.6877 5.50732L4.59224 4.07988C4.32274 4.03236 4.06575 4.21231 4.01822 4.48181L3.8704 5.32013C3.82288 5.58963 4.00284 5.84663 4.27234 5.89415L12.3678 7.32162C12.6373 7.36912 12.8943 7.18914 12.9418 6.91964L13.0896 6.08131C13.1371 5.81184 12.9572 5.55484 12.6877 5.50732Z" fill="#FFFFFF"/>
<path d="M12.5908 11.042H4.37051C4.09684 11.042 3.875 11.2638 3.875 11.5375V12.3887C3.875 12.6624 4.09684 12.8843 4.37051 12.8843H12.5908C12.8645 12.8843 13.0863 12.6624 13.0863 12.3887V11.5375C13.0863 11.2638 12.8645 11.042 12.5908 11.042Z" fill="#FFFFFF"/>
</svg>
