<svg width="130" height="34" viewBox="0 0 130 34" fill="none" xmlns="http://www.w3.org/2000/svg">
<path d="M0.00125974 16.694C-0.0304325 19.1452 0.536408 21.5564 1.63919 23.7229C2.20023 24.8252 3.52713 25.3366 4.56639 24.666C6.87157 23.1786 8.44857 20.1666 8.44857 16.694C8.44857 13.2231 6.87725 10.2186 4.58058 8.7297C3.54301 8.05704 2.21506 8.56454 1.65139 9.66513C0.542667 11.83 -0.0285276 14.2416 0.00125974 16.694Z" fill="#477DB3"/>
<g style="mix-blend-mode:overlay" opacity="0.1">
<path d="M3.95411 11.0632C2.92963 9.90119 1.18366 10.5157 0.722874 11.9947C0.250403 13.5112 0.00775146 15.0953 0.00775146 16.6942C0.00775146 18.2939 0.250673 19.8789 0.723662 21.3961C1.18437 22.874 2.92903 23.4894 3.95363 22.3291C5.18128 20.9387 5.95362 18.9325 5.95362 16.6942C5.95362 14.4579 5.1798 12.4533 3.95411 11.0632Z" fill="#477DB3"/>
</g>
<g style="mix-blend-mode:multiply" opacity="0.2">
<path d="M8.258 14.6308C7.9998 13.2586 7.09742 14.1161 7.23455 15.5056C7.27297 15.895 7.29277 16.2916 7.29277 16.6942C7.29277 17.0821 7.27444 17.4646 7.23882 17.8403C7.10693 19.2311 8.01293 20.0885 8.2659 18.7146C8.38544 18.0654 8.44861 17.3891 8.44861 16.6942C8.44861 15.9841 8.38265 15.2932 8.258 14.6308Z" fill="#477DB3"/>
</g>
<path d="M25.3598 19.6253L25.07 19.5587C24.2642 19.385 23.4247 19.4573 22.6604 19.7661C21.8961 20.0749 21.2421 20.6061 20.7831 21.2908C19.5773 23.0828 17.7586 23.8989 15.6401 23.8989C14.7947 23.906 13.9543 23.7686 13.1552 23.4925C12.214 23.1496 11.1791 23.1679 10.2507 23.5438C9.32223 23.9198 8.56617 24.6266 8.12875 25.5278C7.87689 26.0461 7.73933 26.6126 7.72536 27.1887C7.7114 27.7649 7.82136 28.3373 8.04782 28.8673C8.27427 29.3972 8.61192 29.8724 9.03793 30.2605C9.46394 30.6487 9.96835 30.9408 10.517 31.1171C12.1754 31.6343 13.903 31.8949 15.6401 31.8899C20.6365 31.8899 25.0767 29.7448 27.7981 26.134C28.2138 25.5802 28.4834 24.9305 28.5819 24.245C28.6804 23.5596 28.6047 22.8603 28.3617 22.2118C28.1188 21.5633 27.7164 20.9864 27.1918 20.5344C26.6671 20.0823 26.0371 19.7697 25.3598 19.6253Z" fill="#477DB3"/>
<path d="M8.12885 7.88033C8.56886 8.78315 9.32811 9.49068 10.2597 9.86601C11.1912 10.2413 12.2289 10.2578 13.1719 9.91222C13.9651 9.63516 14.8 9.49657 15.6402 9.5025C17.6887 9.5025 19.4574 10.2953 20.6 11.9807C21.069 12.6968 21.7455 13.2524 22.5391 13.5733C23.3326 13.8942 24.2052 13.9649 25.0401 13.7761L25.3732 13.6929C26.0426 13.5332 26.6614 13.2085 27.1732 12.7484C27.685 12.2883 28.0735 11.7074 28.3033 11.0587C28.5331 10.41 28.5969 9.71415 28.4889 9.03448C28.3809 8.35482 28.1045 7.713 27.6849 7.16751C24.9202 3.60672 20.4967 1.50488 15.6302 1.50488C13.8939 1.50796 12.1683 1.77758 10.5138 2.30431C9.96618 2.48152 9.4629 2.77407 9.03789 3.16224C8.61288 3.5504 8.27602 4.02516 8.05001 4.55453C7.824 5.08389 7.71409 5.65554 7.72769 6.23097C7.74129 6.8064 7.87808 7.37223 8.12885 7.89032V7.88033Z" fill="#477DB3"/>
<g style="mix-blend-mode:multiply" opacity="0.5">
<g style="mix-blend-mode:multiply" opacity="0.5">
<path d="M25.2965 19.6254L25.07 19.5755C24.2658 19.4001 23.4276 19.4698 22.6634 19.7756C21.8993 20.0814 21.2443 20.6092 20.7831 21.2909C19.5773 23.083 17.7586 23.899 15.6401 23.899C14.7947 23.9061 13.9543 23.7687 13.1552 23.4927C12.4436 23.2367 11.6748 23.1837 10.9348 23.3396C10.1948 23.4955 9.51272 23.8541 8.96484 24.3754C10.2425 25.4823 11.7771 26.2515 13.4285 26.6127C15.08 26.974 16.7956 26.9158 18.4187 26.4434C20.0418 25.971 21.5208 25.0996 22.7205 23.9086C23.9201 22.7176 24.8024 21.2451 25.2865 19.6254H25.2965Z" fill="#477DB3"/>
</g>
<g style="mix-blend-mode:multiply" opacity="0.5">
<path d="M8.9881 9.05298C9.53859 9.56775 10.2206 9.92042 10.9589 10.0721C11.6971 10.2237 12.4629 10.1685 13.1718 9.91236C13.965 9.63531 14.7999 9.49672 15.64 9.50265C17.6886 9.50265 19.4573 10.2954 20.5998 11.9809C21.0688 12.6969 21.7454 13.2526 22.5389 13.5734C23.3325 13.8943 24.2051 13.9651 25.04 13.7763L25.2665 13.723C24.7689 12.1181 23.8795 10.6623 22.6786 9.48707C21.4777 8.31184 20.0031 7.45415 18.3877 6.99141C16.7724 6.52866 15.0673 6.47543 13.4263 6.83651C11.7853 7.19759 10.26 7.96162 8.9881 9.05964V9.05298Z" fill="#477DB3"/>
</g>
</g>
<g style="mix-blend-mode:overlay" opacity="0.3">
<g style="mix-blend-mode:overlay" opacity="0.3">
<path d="M15.6035 30.7639C12.8736 30.7672 10.2024 29.9717 7.91901 28.4755C8.10766 29.0915 8.44338 29.6524 8.89719 30.1097C9.351 30.5669 9.90927 30.9069 10.5238 31.1003C12.1821 31.6175 13.9098 31.8781 15.6468 31.8731C20.6433 31.8731 25.0834 29.7279 27.8048 26.1172C28.1949 25.6012 28.4553 24.999 28.5643 24.3614C28.6733 23.7238 28.6276 23.0694 28.431 22.4531C27.3235 24.9289 25.5229 27.0312 23.2466 28.5059C20.9703 29.9807 18.3158 30.7649 15.6035 30.7639Z" fill="#477DB3"/>
</g>
<g style="mix-blend-mode:overlay" opacity="0.3">
<path d="M15.6035 2.66405C18.2945 2.66411 20.929 3.43699 23.1935 4.89078C25.458 6.34458 27.2574 8.41813 28.3777 10.8649C28.5741 10.2407 28.6161 9.57812 28.5001 8.93412C28.384 8.29012 28.1135 7.68391 27.7115 7.16751C24.9469 3.60672 20.5233 1.50488 15.6568 1.50488C13.9116 1.50523 12.1768 1.77487 10.5138 2.30431C9.89324 2.50001 9.33039 2.84549 8.87494 3.31023C8.4195 3.77496 8.08547 4.34468 7.90234 4.96908C10.1879 3.46226 12.866 2.66068 15.6035 2.66405Z" fill="#477DB3"/>
</g>
</g>
<path d="M47.9135 8.44153C48.3705 8.67001 48.6341 9.03032 48.7044 9.52245C48.7923 10.0146 48.6693 10.4628 48.3354 10.867C48.1069 11.1834 47.8081 11.3591 47.439 11.3943C47.0875 11.4295 46.7271 11.3591 46.358 11.1834C45.9362 10.9901 45.488 10.8407 45.0135 10.7352C44.5565 10.6297 44.0732 10.577 43.5635 10.577C42.6143 10.577 41.7619 10.7264 41.0061 11.0252C40.2679 11.324 39.6352 11.7546 39.1079 12.317C38.5806 12.8619 38.1764 13.5122 37.8952 14.268C37.6315 15.0238 37.4997 15.8586 37.4997 16.7726C37.4997 17.8447 37.6491 18.7762 37.9479 19.5672C38.2643 20.3581 38.6949 21.0172 39.2397 21.5445C39.7846 22.0718 40.4261 22.4672 41.1643 22.7309C41.9025 22.9769 42.7022 23.1 43.5635 23.1C44.038 23.1 44.5126 23.056 44.9871 22.9681C45.4617 22.8803 45.9186 22.7221 46.358 22.4936C46.7271 22.3178 47.0875 22.2563 47.439 22.309C47.8081 22.3618 48.1156 22.5463 48.3617 22.8627C48.7132 23.3021 48.8363 23.7591 48.7308 24.2336C48.6429 24.6906 48.3793 25.0245 47.9399 25.2354C47.4829 25.4639 47.0084 25.6573 46.5162 25.8155C46.0417 25.9561 45.5583 26.0615 45.0662 26.1318C44.5741 26.2197 44.0732 26.2636 43.5635 26.2636C42.298 26.2636 41.094 26.0615 39.9516 25.6573C38.8267 25.253 37.8161 24.6554 36.9197 23.8645C36.0409 23.0736 35.3466 22.0893 34.8369 20.9117C34.3272 19.7166 34.0724 18.3368 34.0724 16.7726C34.0724 15.4192 34.3009 14.1713 34.7579 13.0289C35.2324 11.8864 35.8915 10.9022 36.7352 10.0761C37.5964 9.23245 38.607 8.58213 39.767 8.12516C40.927 7.6506 42.1925 7.41333 43.5635 7.41333C44.3368 7.41333 45.0926 7.50121 45.8308 7.67697C46.569 7.85273 47.2632 8.10758 47.9135 8.44153ZM64.9435 18.9608C64.9435 20.402 64.6183 21.6763 63.968 22.7836C63.3353 23.8733 62.474 24.7257 61.3843 25.3409C60.3122 25.9561 59.1082 26.2636 57.7725 26.2636C56.4367 26.2636 55.2239 25.9561 54.1342 25.3409C53.0621 24.7257 52.2008 23.8733 51.5505 22.7836C50.9178 21.6763 50.6014 20.402 50.6014 18.9608C50.6014 17.5196 50.9178 16.2541 51.5505 15.1644C52.2008 14.0571 53.0621 13.1958 54.1342 12.5807C55.2239 11.9479 56.4367 11.6316 57.7725 11.6316C59.1082 11.6316 60.3122 11.9479 61.3843 12.5807C62.474 13.1958 63.3353 14.0571 63.968 15.1644C64.6183 16.2541 64.9435 17.5196 64.9435 18.9608ZM61.7798 18.9608C61.7798 18.0644 61.5952 17.2911 61.2261 16.6408C60.8746 15.9729 60.3913 15.4544 59.7761 15.0853C59.1785 14.7162 58.5106 14.5316 57.7725 14.5316C57.0343 14.5316 56.3576 14.7162 55.7424 15.0853C55.1448 15.4544 54.6615 15.9729 54.2924 16.6408C53.9409 17.2911 53.7651 18.0644 53.7651 18.9608C53.7651 19.8396 53.9409 20.6129 54.2924 21.2808C54.6615 21.9311 55.1448 22.4408 55.7424 22.8099C56.3576 23.179 57.0343 23.3636 57.7725 23.3636C58.5106 23.3636 59.1785 23.179 59.7761 22.8099C60.3913 22.4408 60.8746 21.9311 61.2261 21.2808C61.5952 20.6129 61.7798 19.8396 61.7798 18.9608ZM75.2525 11.6316C76.5531 11.6316 77.5373 11.904 78.2052 12.4489C78.8907 12.9937 79.3565 13.7231 79.6025 14.6371C79.8662 15.5335 79.998 16.5353 79.998 17.6426V24.3918C79.998 24.8488 79.8486 25.2354 79.5498 25.5518C79.251 25.8506 78.8731 26 78.4161 26C77.9592 26 77.5813 25.8506 77.2825 25.5518C76.9837 25.2354 76.8343 24.8488 76.8343 24.3918V17.6426C76.8343 17.0626 76.7552 16.5441 76.597 16.0871C76.4564 15.6126 76.1928 15.2347 75.8061 14.9535C75.4194 14.6722 74.8658 14.5316 74.1452 14.5316C73.4421 14.5316 72.8445 14.6722 72.3524 14.9535C71.8779 15.2347 71.5088 15.6126 71.2451 16.0871C70.9991 16.5441 70.876 17.0626 70.876 17.6426V24.3918C70.876 24.8488 70.7266 25.2354 70.4278 25.5518C70.129 25.8506 69.7512 26 69.2942 26C68.8372 26 68.4593 25.8506 68.1605 25.5518C67.8617 25.2354 67.7123 24.8488 67.7123 24.3918V13.5034C67.7123 13.0465 67.8617 12.6686 68.1605 12.3698C68.4593 12.0534 68.8372 11.8952 69.2942 11.8952C69.7512 11.8952 70.129 12.0534 70.4278 12.3698C70.7266 12.6686 70.876 13.0465 70.876 13.5034V14.6371L70.4806 14.558C70.6387 14.2592 70.8672 13.9428 71.166 13.6089C71.4648 13.2574 71.8163 12.9322 72.2206 12.6334C72.6248 12.3346 73.0818 12.0973 73.5915 11.9216C74.1012 11.7282 74.6549 11.6316 75.2525 11.6316ZM83.9215 11.8952C84.2554 11.8952 84.563 11.9831 84.8442 12.1589C85.1255 12.317 85.3364 12.5631 85.477 12.8971L89.3525 21.7554L88.7725 22.019L92.7271 12.9234C93.0259 12.2204 93.4917 11.8864 94.1244 11.9216C94.5638 11.9216 94.9153 12.0622 95.179 12.3434C95.4602 12.607 95.6008 12.941 95.6008 13.3452C95.6008 13.4683 95.5744 13.6001 95.5217 13.7407C95.4865 13.8813 95.4426 14.0131 95.3899 14.1362L90.4598 24.9982C90.1786 25.6309 89.7304 25.9648 89.1152 26C88.7813 26.0527 88.4561 25.9912 88.1398 25.8155C87.841 25.6397 87.6125 25.3673 87.4543 24.9982L82.5506 14.1362C82.5154 14.0483 82.4715 13.934 82.4187 13.7934C82.3836 13.6528 82.366 13.4859 82.366 13.2925C82.366 12.9761 82.5066 12.6686 82.7878 12.3698C83.0691 12.0534 83.4469 11.8952 83.9215 11.8952ZM111.647 18.9608C111.647 20.402 111.322 21.6763 110.672 22.7836C110.039 23.8733 109.178 24.7257 108.088 25.3409C107.016 25.9561 105.812 26.2636 104.476 26.2636C103.14 26.2636 101.927 25.9561 100.838 25.3409C99.7656 24.7257 98.9044 23.8733 98.2541 22.7836C97.6213 21.6763 97.305 20.402 97.305 18.9608C97.305 17.5196 97.6213 16.2541 98.2541 15.1644C98.9044 14.0571 99.7656 13.1958 100.838 12.5807C101.927 11.9479 103.14 11.6316 104.476 11.6316C105.812 11.6316 107.016 11.9479 108.088 12.5807C109.178 13.1958 110.039 14.0571 110.672 15.1644C111.322 16.2541 111.647 17.5196 111.647 18.9608ZM108.483 18.9608C108.483 18.0644 108.299 17.2911 107.93 16.6408C107.578 15.9729 107.095 15.4544 106.48 15.0853C105.882 14.7162 105.214 14.5316 104.476 14.5316C103.738 14.5316 103.061 14.7162 102.446 15.0853C101.848 15.4544 101.365 15.9729 100.996 16.6408C100.644 17.2911 100.469 18.0644 100.469 18.9608C100.469 19.8396 100.644 20.6129 100.996 21.2808C101.365 21.9311 101.848 22.4408 102.446 22.8099C103.061 23.179 103.738 23.3636 104.476 23.3636C105.214 23.3636 105.882 23.179 106.48 22.8099C107.095 22.4408 107.578 21.9311 107.93 21.2808C108.299 20.6129 108.483 19.8396 108.483 18.9608ZM124.882 11.8952C125.339 11.8952 125.717 12.0534 126.016 12.3698C126.315 12.6686 126.464 13.0465 126.464 13.5034V24.7082C126.464 26.3252 126.157 27.6082 125.542 28.5573C124.944 29.524 124.135 30.2183 123.116 30.6401C122.097 31.0619 120.954 31.2728 119.689 31.2728C119.126 31.2728 118.529 31.2289 117.896 31.141C117.263 31.0531 116.745 30.9213 116.34 30.7455C115.813 30.517 115.444 30.227 115.233 29.8755C115.04 29.5416 115.005 29.1813 115.128 28.7946C115.286 28.2849 115.541 27.9334 115.892 27.74C116.244 27.5643 116.613 27.5467 117 27.6873C117.281 27.7752 117.65 27.907 118.107 28.0828C118.564 28.2761 119.091 28.3728 119.689 28.3728C120.497 28.3728 121.165 28.2585 121.692 28.03C122.237 27.8191 122.641 27.45 122.905 26.9227C123.186 26.413 123.327 25.71 123.327 24.8136V23.0472L123.881 23.68C123.582 24.26 123.204 24.7433 122.747 25.13C122.308 25.4991 121.78 25.7803 121.165 25.9736C120.55 26.167 119.847 26.2636 119.056 26.2636C118.124 26.2636 117.307 26.0527 116.604 25.6309C115.919 25.1915 115.383 24.5939 114.996 23.8381C114.609 23.0648 114.416 22.186 114.416 21.2017V13.5034C114.416 13.0465 114.565 12.6686 114.864 12.3698C115.163 12.0534 115.541 11.8952 115.998 11.8952C116.455 11.8952 116.833 12.0534 117.131 12.3698C117.43 12.6686 117.58 13.0465 117.58 13.5034V20.2526C117.58 21.3951 117.826 22.2036 118.318 22.6781C118.827 23.1351 119.531 23.3636 120.427 23.3636C121.042 23.3636 121.561 23.2493 121.982 23.0209C122.404 22.7748 122.729 22.4233 122.958 21.9663C123.186 21.4917 123.301 20.9205 123.301 20.2526V13.5034C123.301 13.0465 123.45 12.6686 123.749 12.3698C124.048 12.0534 124.425 11.8952 124.882 11.8952Z" fill="#477DB3"/>
</svg>
