<svg width="67" height="30" viewBox="0 0 67 30" fill="none" xmlns="http://www.w3.org/2000/svg">
<path d="M11.8963 22.2222V20.1761C11.5156 20.8423 10.897 21.4133 10.0405 21.8416C9.18392 22.2698 8.18464 22.5077 7.04259 22.5077C5.99572 22.5077 5.04402 22.3174 4.18749 21.9843C3.33096 21.6512 2.5696 21.1278 1.95099 20.4616C1.37997 19.843 0.904117 19.034 0.523436 18.0823C0.19034 17.1306 0 16.0838 0 14.8941C0 13.7521 0.19034 12.6576 0.523436 11.7535C0.856532 10.8018 1.37997 9.99287 1.99857 9.32668C2.61718 8.66049 3.37854 8.18464 4.23507 7.80396C5.09161 7.47086 6.04331 7.28052 7.09018 7.28052C8.18464 7.28052 9.13634 7.47086 9.94528 7.85154C10.7542 8.23222 11.3253 8.70807 11.7535 9.27909V0H14.9417V22.2222H11.8963ZM7.56603 10.0405C6.94742 10.0405 6.3764 10.1356 5.85297 10.3736C5.32953 10.5639 4.85368 10.897 4.473 11.3253C4.09232 11.7535 3.80681 12.277 3.56888 12.848C3.33096 13.4666 3.23579 14.1328 3.23579 14.9417C3.23579 15.7031 3.33096 16.4169 3.56888 17.0355C3.80681 17.6065 4.09232 18.0823 4.473 18.5106C4.85368 18.9389 5.32953 19.2244 5.85297 19.4623C6.3764 19.6526 6.94742 19.7954 7.56603 19.7954C8.75566 19.7954 9.75494 19.4147 10.5639 18.6534C11.3253 17.892 11.7535 16.7975 11.7535 15.3224V14.561C11.7535 13.1335 11.3728 11.9914 10.5639 11.2301C9.80253 10.4211 8.80324 10.0405 7.56603 10.0405Z" fill="#3F7CDB"/>
<path d="M37.4973 24.0781C37.4973 25.8388 37.0215 27.2188 36.0222 28.218C35.0229 29.2173 33.6905 29.6932 32.025 29.6932C31.7395 29.6932 31.5492 29.6932 31.3588 29.6932C31.1685 29.6932 30.9782 29.6456 30.7402 29.598V26.7905C30.9782 26.8381 31.3113 26.8857 31.6444 26.8857C32.4533 26.8857 33.0719 26.6477 33.5478 26.1719C34.0236 25.696 34.2615 25.0298 34.2615 24.1257V7.56612H37.4497V24.0781H37.4973ZM37.4973 4.47309H34.3091V1.2373H37.4973V4.47309Z" fill="#3F7CDB"/>
<path d="M45.8245 7.28027C47.7279 7.28027 49.203 7.75612 50.2023 8.75541C51.2016 9.7547 51.725 11.1823 51.725 13.0857V22.222H48.4892V20.9372C47.9658 21.413 47.3948 21.8413 46.7286 22.1268C46.0624 22.4123 45.3486 22.5551 44.4921 22.5551C43.0169 22.5551 41.8273 22.1744 40.9232 21.4606C40.0191 20.6993 39.5908 19.6524 39.5908 18.2724C39.5908 17.5111 39.7336 16.8449 40.0191 16.2739C40.3046 15.7504 40.6853 15.2746 41.1611 14.9415C41.637 14.6084 42.208 14.3229 42.8742 14.1325C43.5404 13.9422 44.2542 13.847 44.9679 13.7994L48.4417 13.6091V13.1808C48.4417 12.2291 48.2513 11.4678 47.823 10.9443C47.3948 10.4209 46.7286 10.1354 45.8245 10.1354C44.9204 10.1354 44.2542 10.3733 43.8259 10.8967C43.3976 11.3726 43.2073 11.9912 43.2073 12.6574L39.9715 12.467C39.9715 11.8009 40.1143 11.1823 40.3522 10.5636C40.6377 9.94504 41.0184 9.37402 41.4942 8.89817C41.9701 8.42232 42.5887 8.04164 43.35 7.70854C44.1114 7.47061 44.9204 7.28027 45.8245 7.28027ZM45.4438 16.2739C44.6824 16.3214 44.0638 16.4642 43.588 16.7497C43.1121 17.0352 42.8742 17.5111 42.8742 18.1773C42.8742 18.7959 43.0645 19.2241 43.4928 19.4621C43.9211 19.7 44.4445 19.8427 45.0631 19.8427C46.11 19.8427 46.9189 19.6048 47.5851 19.0814C48.2037 18.5579 48.5368 17.749 48.5368 16.607V16.0835L45.4438 16.2739Z" fill="#3F7CDB"/>
<path d="M57.1975 9.23151C57.5305 8.70807 58.054 8.27981 58.7202 7.89913C59.3864 7.51845 60.2429 7.3281 61.2898 7.3281C62.1463 7.3281 62.9077 7.47086 63.5739 7.75637C64.2876 8.04188 64.8587 8.42256 65.3821 8.946C65.9055 9.46943 66.2862 10.088 66.5717 10.8494C66.8572 11.6108 67 12.4673 67 13.419V22.2698H63.7642V13.8473C63.7642 12.7528 63.4787 11.8487 62.9077 11.2301C62.3366 10.6115 61.5277 10.2784 60.576 10.2784C59.5291 10.2784 58.7202 10.6115 58.1016 11.2777C57.483 11.9439 57.1499 12.8004 57.1499 13.8473V22.2222H53.9617V0H57.1499V9.23151H57.1975Z" fill="#3F7CDB"/>
<path d="M31.2637 10.8018L28.6941 8.23224C28.1231 7.66122 27.3142 7.32812 26.5052 7.32812H22.4605C21.6515 7.32812 20.8426 7.66122 20.2716 8.23224L17.702 10.8018C17.1309 11.3729 16.7979 12.1818 16.7979 12.9908V16.9879C16.7979 17.7968 17.1309 18.6058 17.702 19.1768L20.795 22.2698C20.9853 22.4602 21.0805 22.6981 21.0805 22.9836V24.2208C21.0805 24.9346 21.6515 25.5056 22.3653 25.5056H26.4576C27.1714 25.5056 27.7424 24.9346 27.7424 24.2208V23.0312C27.7424 22.7933 27.8376 22.5078 28.0279 22.3174L31.2161 19.1768C31.7872 18.6058 32.1203 17.7968 32.1203 16.9879V12.9908C32.2154 12.1818 31.8823 11.4204 31.2637 10.8018ZM28.9321 16.4645C28.9321 16.8927 28.7893 17.2734 28.5038 17.6065L27.2666 18.9389C26.8383 19.3672 26.7431 20.0333 26.9811 20.6044L27.6948 22.365H21.366L22.0798 20.6044C22.3177 20.0333 22.175 19.4147 21.7943 18.9389L20.5571 17.6065C20.2716 17.321 20.1288 16.8927 20.1288 16.4645V13.5618C20.1288 13.1335 20.2716 12.7528 20.5571 12.4673L21.937 10.897C22.2701 10.5639 22.6984 10.326 23.1743 10.326H25.8866C26.3625 10.326 26.7907 10.5163 27.1238 10.897L28.5514 12.4673C28.8369 12.7528 28.9796 13.1811 28.9796 13.6094V16.4645H28.9321Z" fill="#3F7CDB"/>
</svg>
