<svg width="95" height="17" viewBox="0 0 95 17" fill="none" xmlns="http://www.w3.org/2000/svg">
<g clip-path="url(#clip0_6507_29121)">
<path d="M62.6099 0.0230713H60.6904C60.4271 0.0230713 60.2136 0.236531 60.2136 0.499846V11.3869C60.2136 11.6502 60.4271 11.8637 60.6904 11.8637H62.6099C62.8732 11.8637 63.0867 11.6502 63.0867 11.3869V0.499846C63.0867 0.236531 62.8732 0.0230713 62.6099 0.0230713Z" fill="#B5BCC3"/>
<path d="M58.2564 0.0230713H56.3369C56.0736 0.0230713 55.8601 0.236531 55.8601 0.499846V11.3869C55.8601 11.6502 56.0736 11.8637 56.3369 11.8637H58.2564C58.5197 11.8637 58.7332 11.6502 58.7332 11.3869V0.499846C58.7332 0.236531 58.5197 0.0230713 58.2564 0.0230713Z" fill="#B5BCC3"/>
<path d="M28.0207 8.15742C28.0256 8.34852 27.9643 8.53544 27.8472 8.68654C27.7301 8.83764 27.5644 8.94364 27.3781 8.98659C27.2595 9.00893 27.1375 9.00512 27.0206 8.97544C26.9036 8.94575 26.7946 8.8909 26.701 8.8147C26.6074 8.73851 26.5316 8.64282 26.4789 8.53431C26.4261 8.4258 26.3977 8.30708 26.3955 8.18644V4.92364H28.2114C28.3368 4.92364 28.457 4.87385 28.5456 4.78521C28.6343 4.69658 28.6841 4.57636 28.6841 4.45101V2.51075C28.6798 2.38829 28.6281 2.2723 28.5399 2.18722C28.4517 2.10214 28.334 2.05462 28.2114 2.0547H26.3955V0.524875C26.3955 0.399526 26.3457 0.279311 26.2571 0.190676C26.1685 0.102041 26.0483 0.0522461 25.9229 0.0522461H23.9992C23.8739 0.0522461 23.7537 0.102041 23.665 0.190676C23.5764 0.279311 23.5266 0.399526 23.5266 0.524875V8.0745C23.5159 9.033 23.8726 9.95922 24.5232 10.6631C25.1739 11.367 26.0693 11.7951 27.0257 11.8597C27.5247 11.8844 28.0235 11.8075 28.4919 11.6337C28.9603 11.4598 29.3885 11.1927 29.7505 10.8485C30.1126 10.5042 30.401 10.0901 30.5982 9.63105C30.7955 9.17203 30.8974 8.67774 30.8979 8.17815V8.15742C30.8979 8.03207 30.8482 7.91185 30.7595 7.82322C30.6709 7.73458 30.5507 7.68479 30.4253 7.68479H28.4975C28.3718 7.68478 28.2511 7.73444 28.1618 7.82296C28.0725 7.91148 28.0218 8.03169 28.0207 8.15742Z" fill="#B5BCC3"/>
<path d="M78.9238 8.15742C78.9287 8.34852 78.8674 8.53544 78.7503 8.68654C78.6332 8.83764 78.4675 8.94364 78.2812 8.98659C78.1626 9.00893 78.0406 9.00512 77.9236 8.97544C77.8067 8.94575 77.6976 8.8909 77.6041 8.8147C77.5105 8.73851 77.4347 8.64282 77.3819 8.53431C77.3292 8.4258 77.3007 8.30708 77.2986 8.18644V4.92364H79.1145C79.2398 4.92364 79.3601 4.87385 79.4487 4.78521C79.5373 4.69658 79.5871 4.57636 79.5871 4.45101V2.51075C79.5871 2.3854 79.5373 2.26518 79.4487 2.17655C79.3601 2.08791 79.2398 2.03812 79.1145 2.03812H77.2986V0.524875C77.2986 0.399526 77.2488 0.279311 77.1602 0.190676C77.0715 0.102041 76.9513 0.0522461 76.826 0.0522461H74.8982C74.7728 0.0522461 74.6526 0.102041 74.564 0.190676C74.4753 0.279311 74.4255 0.399526 74.4255 0.524875V8.0745C74.4149 9.033 74.7715 9.95922 75.4222 10.6631C76.0728 11.367 76.9683 11.7951 77.9246 11.8597C78.4236 11.8844 78.9224 11.8075 79.3908 11.6337C79.8592 11.4598 80.2874 11.1927 80.6495 10.8485C81.0115 10.5042 81.2999 10.0901 81.4972 9.63105C81.6944 9.17203 81.7964 8.67774 81.7969 8.17815V8.15742C81.7969 8.03207 81.7471 7.91185 81.6584 7.82322C81.5698 7.73458 81.4496 7.68479 81.3242 7.68479H79.4006C79.2748 7.68478 79.1542 7.73444 79.0649 7.82296C78.9756 7.91148 78.9249 8.03169 78.9238 8.15742Z" fill="#B5BCC3"/>
<path d="M36.4743 11.5361L37.6518 7.94991L38.8209 11.5361C38.8517 11.6316 38.9121 11.7148 38.9933 11.7737C39.0746 11.8326 39.1725 11.864 39.2728 11.8636H41.582C41.6829 11.8643 41.7814 11.8329 41.8634 11.7741C41.9453 11.7152 42.0065 11.6319 42.0381 11.5361L44.9651 2.61003C44.9886 2.53792 44.9948 2.46126 44.983 2.38632C44.9713 2.31138 44.942 2.24028 44.8975 2.17883C44.853 2.11738 44.7947 2.06732 44.7271 2.03274C44.6596 1.99816 44.5849 1.98004 44.509 1.97986H42.4941C42.3934 1.98034 42.2955 2.01268 42.2143 2.07227C42.1331 2.13185 42.0729 2.21561 42.0422 2.31153L40.4295 7.21609L38.8333 2.31153C38.8019 2.21527 38.7409 2.13139 38.659 2.07184C38.5771 2.01229 38.4785 1.9801 38.3773 1.97986H36.9304C36.8291 1.9801 36.7305 2.01229 36.6486 2.07184C36.5668 2.13139 36.5058 2.21527 36.4743 2.31153L34.8699 7.2078L33.2737 2.31153C33.2418 2.21561 33.1806 2.13208 33.0988 2.07262C33.0171 2.01315 32.9188 1.98072 32.8177 1.97986H30.8028C30.7269 1.98004 30.6522 1.99816 30.5847 2.03274C30.5172 2.06732 30.4588 2.11738 30.4143 2.17883C30.3698 2.24028 30.3405 2.31138 30.3288 2.38632C30.3171 2.46126 30.3232 2.53792 30.3467 2.61003L33.2489 11.5361C33.281 11.6316 33.3423 11.7145 33.4241 11.7733C33.5059 11.8321 33.6042 11.8637 33.7049 11.8636H36.0224C36.1226 11.8634 36.2202 11.8317 36.3013 11.7729C36.3824 11.7141 36.443 11.6312 36.4743 11.5361Z" fill="#B5BCC3"/>
<path d="M82.5764 10.5494L83.1858 8.8911C83.2082 8.82818 83.2436 8.77071 83.2898 8.72247C83.336 8.67424 83.3918 8.63634 83.4537 8.61127C83.5156 8.5862 83.5821 8.57453 83.6489 8.57703C83.7156 8.57953 83.781 8.59614 83.8409 8.62576C84.6018 9.00181 85.4382 9.20027 86.2869 9.20618C87.1161 9.20618 87.3524 9.03206 87.3524 8.75428C87.3524 7.78415 82.5598 9.08595 82.5598 5.29249C82.5598 3.50562 84.0191 2.05042 86.8217 2.05042C87.8527 2.0373 88.8755 2.23481 89.8275 2.63084C89.935 2.68234 90.0196 2.77193 90.0648 2.88224C90.11 2.99255 90.1126 3.11571 90.0721 3.22784L89.4627 4.88619C89.4401 4.94853 89.4048 5.00549 89.359 5.05342C89.3132 5.10136 89.2579 5.13921 89.1967 5.16457C89.1354 5.18993 89.0696 5.20224 89.0033 5.2007C88.937 5.19917 88.8718 5.18384 88.8118 5.15567C88.2054 4.86357 87.5404 4.71329 86.8674 4.71621C85.9843 4.71621 85.7397 4.94009 85.7397 5.16396C85.7397 6.15483 90.5199 4.86961 90.5199 8.66307C90.5199 10.3795 89.102 11.8678 86.2123 11.8678C85.0419 11.8772 83.8834 11.6325 82.8168 11.1506C82.7091 11.0983 82.6248 11.0077 82.5803 10.8965C82.5358 10.7854 82.5344 10.6616 82.5764 10.5494Z" fill="#B5BCC3"/>
<path d="M22.7556 6.93401C22.7545 5.78572 22.3518 4.67399 21.6173 3.79131C20.8828 2.90863 19.8628 2.31058 18.7339 2.10072C17.6049 1.89085 16.4381 2.08239 15.4355 2.64216C14.4329 3.20193 13.6576 4.09469 13.2439 5.16585C12.8301 6.23702 12.804 7.41914 13.17 8.50754C13.536 9.59594 14.2711 10.5221 15.248 11.1256C16.2249 11.7291 17.3821 11.972 18.5192 11.8122C19.6563 11.6525 20.7018 11.1001 21.4745 10.2507C21.5171 10.2015 21.5492 10.1442 21.5689 10.0823C21.5887 10.0204 21.5956 9.95505 21.5894 9.89034C21.5832 9.82563 21.564 9.76284 21.5328 9.70578C21.5017 9.64872 21.4593 9.59856 21.4082 9.55835L19.8535 8.40994C19.7641 8.34333 19.6541 8.31016 19.5428 8.31622C19.4314 8.32228 19.3257 8.36718 19.2441 8.44311C19.0116 8.65634 18.7336 8.81371 18.4311 8.90322C18.1286 8.99274 17.8097 9.01205 17.4986 8.95967C17.1876 8.90729 16.8925 8.78461 16.6361 8.60098C16.3796 8.41734 16.1684 8.1776 16.0186 7.9H22.2913C22.3543 7.89839 22.4163 7.88432 22.4738 7.8586C22.5313 7.83288 22.5831 7.79602 22.6263 7.75014C22.6695 7.70427 22.7032 7.65029 22.7253 7.59133C22.7475 7.53237 22.7578 7.4696 22.7556 7.40664V6.93401ZM17.8262 4.86108C18.2005 4.86283 18.5673 4.96589 18.8878 5.15932C19.2082 5.35276 19.4703 5.62935 19.6462 5.95973H16.0186C16.1967 5.63244 16.4597 5.35921 16.78 5.16879C17.1003 4.97836 17.466 4.8778 17.8386 4.87766L17.8262 4.86108Z" fill="#B5BCC3"/>
<path d="M6.25524 16.7599C4.53834 16.7599 2.84599 16.3521 1.31752 15.5701C1.25948 15.5405 1.20806 15.4994 1.16637 15.4494C1.12468 15.3994 1.09359 15.3414 1.07498 15.279C1.05637 15.2166 1.05063 15.151 1.05812 15.0863C1.0656 15.0216 1.08615 14.9591 1.11851 14.9026L2.07206 13.2442C2.13238 13.1386 2.2308 13.06 2.34719 13.0245C2.46357 12.9891 2.58911 12.9994 2.69809 13.0535C3.8107 13.6079 5.03742 13.8947 6.2805 13.8911C7.52357 13.8876 8.74862 13.5936 9.858 13.0328C9.9663 12.9773 10.0918 12.9658 10.2084 13.0005C10.325 13.0353 10.4238 13.1137 10.484 13.2194L11.45 14.8777C11.4825 14.9345 11.5031 14.9974 11.5106 15.0624C11.5181 15.1274 11.5124 15.1932 11.4938 15.256C11.4752 15.3187 11.4441 15.3771 11.4024 15.4275C11.3607 15.4779 11.3092 15.5194 11.251 15.5493C9.70717 16.3483 7.99356 16.7635 6.25524 16.7599Z" fill="#B5BCC3"/>
<path d="M6.03947 11.8305C4.49831 11.7473 3.04861 11.0729 1.99217 9.94776C0.935724 8.82259 0.353938 7.33331 0.367922 5.78997C0.365739 5.03309 0.513002 4.28322 0.801264 3.58337C1.08953 2.88352 1.51312 2.24747 2.04774 1.71169C2.58236 1.17591 3.2175 0.750951 3.91672 0.461178C4.61595 0.171405 5.3655 0.022524 6.12238 0.0230728H11.6903C11.8167 0.0230728 11.938 0.0733043 12.0274 0.162717C12.1168 0.252129 12.1671 0.373399 12.1671 0.499847V5.93508C12.1665 6.72887 12.0059 7.5144 11.6948 8.2447C11.3837 8.97499 10.9286 9.63505 10.3565 10.1854C9.7845 10.7358 9.10736 11.1651 8.3656 11.4478C7.62384 11.7304 6.83269 11.8606 6.03947 11.8305ZM3.24101 5.82729C3.24725 6.6034 3.53749 7.35036 4.05691 7.92707C4.57633 8.50377 5.28896 8.8703 6.0602 8.95742C6.47444 8.98521 6.88998 8.92771 7.2811 8.78848C7.67223 8.64924 8.03063 8.43124 8.33413 8.14794C8.63763 7.86465 8.87978 7.5221 9.04559 7.14147C9.2114 6.76085 9.29735 6.35025 9.29812 5.93508V3.38537C9.2938 3.2611 9.2411 3.14343 9.15126 3.05746C9.06141 2.97149 8.94154 2.92402 8.8172 2.92518H6.17213C5.78859 2.92134 5.40809 2.99358 5.05263 3.1377C4.69718 3.28183 4.37382 3.49499 4.10125 3.76486C3.82868 4.03473 3.61232 4.35595 3.46466 4.70995C3.317 5.06396 3.24099 5.44372 3.24101 5.82729Z" fill="#B5BCC3"/>
<path d="M73.6875 6.9343C73.6878 5.78498 73.2861 4.67174 72.552 3.78737C71.818 2.90301 70.7977 2.30321 69.668 2.09183C68.5383 1.88046 67.3702 2.07083 66.3661 2.62997C65.3619 3.18911 64.5849 4.08182 64.1697 5.1535C63.7544 6.22518 63.727 7.40835 64.0922 8.49811C64.4574 9.58787 65.1922 10.5156 66.1693 11.1207C67.1465 11.7257 68.3045 11.97 69.4428 11.8111C70.5811 11.6523 71.628 11.1004 72.4023 10.251C72.4455 10.2008 72.4778 10.1423 72.4973 10.0791C72.5169 10.0158 72.5231 9.94925 72.5157 9.88349C72.5083 9.81772 72.4874 9.75419 72.4544 9.69686C72.4213 9.63954 72.3767 9.58966 72.3235 9.55034L70.7647 8.40609C70.6759 8.33978 70.5666 8.30678 70.456 8.31284C70.3454 8.31891 70.2404 8.36365 70.1594 8.43925C69.7845 8.79266 69.2898 8.99113 68.7746 8.9948C68.3992 8.9934 68.0312 8.89007 67.7099 8.69584C67.3887 8.50161 67.1262 8.22378 66.9505 7.892H73.2232C73.35 7.892 73.4717 7.8419 73.5618 7.75261C73.6518 7.66331 73.703 7.54205 73.7041 7.41522V6.9343H73.6875ZM68.7581 4.86137C69.1324 4.86312 69.4992 4.96618 69.8196 5.15961C70.1401 5.35305 70.4022 5.62964 70.5781 5.96002H66.9339C67.1137 5.62962 67.3799 5.35437 67.7042 5.16375C68.0285 4.97313 68.3985 4.87434 68.7746 4.87795L68.7581 4.86137Z" fill="#B5BCC3"/>
<path d="M51.5073 2.44035C50.7506 2.08587 49.9152 1.93306 49.082 1.99674C47.8064 2.08738 46.616 2.67018 45.762 3.62208C44.9081 4.57398 44.4575 5.82048 44.5054 7.09837C44.5533 8.37627 45.0959 9.58554 46.0187 10.4709C46.9415 11.3562 48.1722 11.8483 49.451 11.8432C50.167 11.8451 50.8748 11.6894 51.5239 11.3871V11.4079C51.525 11.5292 51.574 11.6452 51.6601 11.7306C51.7463 11.816 51.8628 11.8639 51.9841 11.8639H53.9409C54.0619 11.8639 54.1779 11.8159 54.2634 11.7303C54.3489 11.6448 54.397 11.5288 54.397 11.4079V2.44035C54.397 2.31901 54.3491 2.20259 54.2637 2.1164C54.1783 2.03022 54.0623 1.98125 53.9409 1.98016H51.9841C51.9223 1.97793 51.8607 1.98818 51.8029 2.01031C51.7451 2.03244 51.6924 2.06598 51.6479 2.10894C51.6034 2.15189 51.568 2.20338 51.5439 2.26032C51.5197 2.31727 51.5073 2.37849 51.5073 2.44035ZM49.4344 8.97009C49.0244 8.97009 48.6236 8.84851 48.2827 8.62074C47.9418 8.39296 47.6761 8.06921 47.5192 7.69043C47.3624 7.31165 47.3213 6.89486 47.4013 6.49275C47.4813 6.09064 47.6787 5.72127 47.9686 5.43137C48.2585 5.14146 48.6279 4.94404 49.03 4.86405C49.4321 4.78407 49.8489 4.82512 50.2277 4.98201C50.6064 5.13891 50.9302 5.4046 51.158 5.7455C51.3857 6.08639 51.5073 6.48717 51.5073 6.89715C51.5073 7.44407 51.2912 7.96883 50.906 8.35711C50.5209 8.74539 49.9979 8.96571 49.451 8.97009H49.4344Z" fill="#B5BCC3"/>
<path d="M92.6923 11.8636C93.4845 11.8636 94.1268 11.2213 94.1268 10.4291C94.1268 9.63686 93.4845 8.99463 92.6923 8.99463C91.9 8.99463 91.2578 9.63686 91.2578 10.4291C91.2578 11.2213 91.9 11.8636 92.6923 11.8636Z" fill="#B5BCC3"/>
</g>
<defs>
<clipPath id="clip0_6507_29121">
<rect width="93.7588" height="16.7369" fill="white" transform="translate(0.36792 0.0230713)"/>
</clipPath>
</defs>
</svg>
