<svg width="79" height="15" viewBox="0 0 79 15" fill="none" xmlns="http://www.w3.org/2000/svg">
<g clip-path="url(#clip0_8502_1875)">
<path d="M0.174805 0V0.0873894H5.9425L4.10733 0H0.174805Z" fill="#B5BCC3"/>
<path d="M8.47656 0V0.0873894H14.2443L12.4091 0H8.47656Z" fill="#B5BCC3"/>
<path d="M0.00044905 14.6821C1.39957 14.9418 2.94885 14.7695 4.36992 14.7695C4.82613 14.7695 5.60285 14.914 6.00254 14.6543C6.2874 14.4693 6.20508 14.0109 6.2051 13.7208C6.20514 13.0522 6.00902 12.0225 6.39983 11.4487C7.357 10.0433 8.92998 8.80754 10.1451 7.61835C10.6363 7.13757 11.4392 6.58161 11.716 5.94311C11.9098 5.49622 11.798 4.84841 11.798 4.37017V0.874595H13.808V5.50623C13.808 6.02935 13.9818 6.93877 13.7181 7.40385C13.4359 7.90185 12.8139 8.33545 12.4097 8.73964L9.52589 11.6235C8.73491 12.4144 7.91181 13.091 8.24283 14.3287C8.38996 14.8788 9.08825 14.7695 9.52589 14.7695H13.1962C13.5884 14.7695 14.2441 14.8752 14.4914 14.483C14.941 13.7699 14.5945 11.9349 14.5945 11.0992V3.49628C14.5945 2.63912 14.8841 1.14678 14.5296 0.363206C14.3365 -0.0636135 13.5743 0.0880911 13.1962 0.0880911H9.61328C9.27421 0.0880911 8.61826 -0.0348788 8.35517 0.22821C7.70719 0.876186 8.57293 2.53265 8.07493 3.3215C7.11699 4.83889 5.29042 6.15874 4.02036 7.4288C3.60327 7.84589 2.9785 8.29391 2.71195 8.82703C2.49872 9.25349 2.62213 9.93434 2.62213 10.4V13.8956H0.699564V9.26398C0.699564 8.70926 0.53317 7.82694 0.839684 7.34141C1.75723 5.88798 3.50312 4.62524 4.71948 3.40889C5.63807 2.49029 6.43122 1.84596 6.19215 0.442773C6.10791 -0.0516403 5.44126 0.0880911 5.06903 0.0880911H1.39868C1.07234 0.0880911 0.228396 -0.065435 0.0531794 0.290651C-0.10081 0.603598 0.00044905 1.14516 0.00044905 1.48632V4.37017V14.6821Z" fill="#B5BCC3"/>
<path d="M6.2041 0.262573V1.74819H6.29149L6.2041 0.262573Z" fill="#B5BCC3"/>
<path d="M8.12695 0.262573V3.23381H8.21434L8.12695 0.262573Z" fill="#B5BCC3"/>
<path d="M0.699219 0.874878V6.11824H0.786608V2.53528L0.699219 0.874878Z" fill="#B5BCC3"/>
<path d="M0.786133 0.873779V6.02975C1.35196 5.63117 2.32418 4.85746 2.56858 4.19458C2.89985 3.29611 2.62131 1.83108 2.62131 0.873779H0.786133ZM3.4952 0.873779V3.32068C4.2909 2.76018 5.32676 1.89748 5.33038 0.873779H3.4952Z" fill="transparent"/>
<path d="M9.00065 0.874878L8.91081 3.58395L7.42764 5.15696L3.49512 9.17687C4.3694 8.56101 5.099 7.66037 5.85463 6.90474C7.44128 5.31809 10.0955 3.48424 9.00065 0.874878Z" fill="#B5BCC3"/>
<path d="M9.08804 0.874878L8.9982 3.58395L7.68981 4.98218L4.80596 7.86603L3.58494 9.17687L3.49512 10.6625V13.8959H5.41768L5.5075 11.1868L6.81591 9.78859L9.61246 6.99085L10.8334 5.68129L10.9232 4.19567V0.874878H9.08804Z" fill="transparent"/>
<path d="M11.7969 0.873779V5.94236H11.8843V2.53418L11.7969 0.873779Z" fill="#B5BCC3"/>
<path d="M13.7197 0.874878V7.51647H13.8071V2.97222L13.7197 0.874878Z" fill="#B5BCC3"/>
<path d="M5.33008 0.961914V1.48625H5.41747L5.33008 0.961914Z" fill="#B5BCC3"/>
<path d="M10.9238 0.961914V5.59355H11.0112V2.44753L10.9238 0.961914ZM17.6528 1.39886V1.48625H18.5267L17.6528 1.39886Z" fill="#B5BCC3"/>
<path d="M25.3428 1.39868V1.48607H26.2167L25.3428 1.39868Z" fill="#B5BCC3"/>
<path d="M33.2959 1.39868V1.48607H34.5193L33.2959 1.39868Z" fill="#B5BCC3"/>
<path d="M41.5967 1.39868V1.48607H42.4706L41.5967 1.39868Z" fill="#B5BCC3"/>
<path d="M46.2285 1.39868V1.48607H47.015L46.2285 1.39868Z" fill="#B5BCC3"/>
<path d="M55.9297 1.39868V1.48607H56.7162L55.9297 1.39868Z" fill="#B5BCC3"/>
<path d="M60.4727 1.39868V1.48607H67.4638L65.2791 1.39868H60.4727Z" fill="#B5BCC3"/>
<path d="M69.3867 1.39868V1.48607H70.2606L69.3867 1.39868Z" fill="#B5BCC3"/>
<path d="M77.7764 1.39868V1.48607H78.7377L77.7764 1.39868Z" fill="#B5BCC3"/>
<path d="M18.7884 8.04078H25.0804C25.0804 9.58023 24.8465 11.3276 25.0933 12.8455C25.1794 13.375 26.2106 13.5021 26.4259 13.009C26.7067 12.3659 26.4786 11.1866 26.4786 10.4877V4.37043C26.4786 3.71792 26.7556 2.23876 26.3888 1.68914C26.1681 1.35849 25.2963 1.38782 25.1331 1.76169C24.8257 2.46601 25.0804 3.77855 25.0804 4.54521V6.64255H20.5361C20.135 6.64255 19.2351 6.80907 18.9284 6.50243C18.6895 6.26352 18.7884 5.72524 18.7884 5.4191V2.79742C18.7884 2.48125 18.8829 1.96547 18.6985 1.68914C18.5399 1.45135 18.1661 1.46994 17.9149 1.4917C17.0291 1.56845 17.3901 3.70951 17.3901 4.37043V10.4877C17.3901 11.1866 17.162 12.3659 17.4428 13.009C17.6187 13.4116 18.5598 13.4116 18.7357 13.009C19.0164 12.3659 18.7884 11.1866 18.7884 10.4877V8.04078Z" fill="#B5BCC3"/>
<path d="M33.1362 1.5513C32.482 1.83688 32.2081 3.23286 31.9796 3.84595C31.15 6.07115 30.2445 8.2678 29.3993 10.4875C29.155 11.1295 28.8919 11.7635 28.6591 12.4101C28.5805 12.6284 28.397 13.0065 28.6288 13.1942C29.2459 13.6936 29.9101 13.0001 30.1239 12.4975C30.3319 12.0088 30.4877 10.9575 30.9593 10.6648C31.2831 10.4638 31.8798 10.5749 32.2461 10.5749H35.4795C35.8583 10.5749 36.5122 10.4512 36.8433 10.6648C37.6675 11.1964 37.4759 14.0466 39.122 13.2313C39.4325 13.0775 39.2558 12.6458 39.1617 12.4101C38.8597 11.654 38.574 10.8907 38.2638 10.138C37.4918 8.26445 36.7949 6.35198 36.0745 4.45767C35.7623 3.63689 35.5202 2.5708 35.0239 1.8455C34.7079 1.3837 33.6243 1.3382 33.1362 1.5513Z" fill="#B5BCC3"/>
<path d="M41.5375 1.5757C41.0495 1.90132 41.3349 3.74042 41.3349 4.28234V11.5357C41.3349 12.1892 41.2896 14.0217 42.5306 13.1936C43.0186 12.868 42.7331 11.0289 42.7331 10.487V3.23367C42.7331 2.58012 42.7784 0.747634 41.5375 1.5757Z" fill="#B5BCC3"/>
<path d="M47.3649 11.9735V4.10847C47.3649 3.58318 47.6424 1.80171 47.0784 1.53952C45.5909 0.848014 45.8793 2.96511 45.8793 3.75892V10.0509C45.8793 10.9167 45.6684 12.0994 45.9172 12.9296C46.0769 13.4626 46.9375 13.2844 47.3649 13.2844H51.8218C52.1912 13.2844 53.3238 13.474 53.5169 13.0818C53.6546 12.8019 53.6485 12.1064 53.2945 12.0013C52.7397 11.8366 51.9621 11.9735 51.3848 11.9735H47.3649Z" fill="#B5BCC3"/>
<path d="M55.8686 1.55042C55.3902 1.7943 55.666 3.78721 55.666 4.28201V11.3605C55.666 12.1224 55.4291 13.8404 56.7822 13.2304C57.3567 12.9713 57.0642 11.03 57.0642 10.4867V3.32072C57.0642 2.57402 57.188 0.877737 55.8686 1.55042Z" fill="#B5BCC3"/>
<path d="M61.6097 6.99145V3.93282C61.6097 3.62519 61.512 3.08694 61.8123 2.88658C62.1211 2.68046 62.7401 2.79676 63.0954 2.79676H66.154C66.5308 2.79676 67.3947 2.95768 67.6372 2.5942C67.8464 2.28076 67.771 1.62319 67.3723 1.5137C65.9333 1.11853 63.8922 1.48592 62.3962 1.48592C61.8557 1.48592 60.9866 1.32036 60.4866 1.53865C59.9629 1.7673 60.2115 3.27831 60.2115 3.75804V10.7492C60.2115 11.2581 59.9412 12.9927 60.4866 13.2308C60.7833 13.3603 61.4094 13.3465 61.557 13.0084C61.9444 12.1209 61.6097 10.4079 61.6097 9.43835C61.6097 9.13074 61.512 8.59247 61.8123 8.39211C62.1211 8.18599 62.7401 8.30229 63.0954 8.30229H65.9792C66.3204 8.30229 66.8619 8.40355 67.1749 8.24956C67.6259 8.02764 67.4014 7.0796 66.9388 7.00439C65.2561 6.73082 63.3165 6.99145 61.6097 6.99145Z" fill="#B5BCC3"/>
<path d="M73.9308 7.34119C73.2761 5.55328 71.9662 3.71666 70.9592 2.09817C70.6669 1.62838 69.8881 1.173 69.3307 1.57592C69.0532 1.77653 69.316 2.14901 69.4393 2.36C69.8326 3.03304 70.2484 3.69266 70.6345 4.36995C71.432 5.76885 72.8503 7.3628 73.2754 8.9142C73.6229 10.182 72.9998 11.6655 73.3468 12.929C73.4623 13.3495 74.095 13.3549 74.4456 13.2559C74.8802 13.1332 74.8045 12.5879 74.8047 12.235C74.8051 11.2031 74.7048 10.1148 74.8141 9.08898C74.8826 8.44588 75.437 7.80389 75.7528 7.2538C76.5622 5.84433 77.4114 4.45308 78.2478 3.05911C78.4534 2.71643 78.8574 2.2541 78.875 1.84078C78.8966 1.33725 77.8985 1.4184 77.6093 1.57592C77.0939 1.85664 76.7556 2.7371 76.4853 3.23389C75.8231 4.45069 75.0209 6.48777 73.9308 7.34119Z" fill="#B5BCC3"/>
<path d="M41.2471 1.6604V13.1084H41.3345V5.15597C41.3345 4.15798 41.6323 2.57832 41.2471 1.6604Z" fill="#B5BCC3"/>
<path d="M60.124 1.6604V13.1084H60.2114V5.15597C60.2114 4.15799 60.5092 2.57831 60.124 1.6604Z" fill="#B5BCC3"/>
<path d="M17.3026 1.74854V13.1092H17.3899V5.15672C17.3899 4.18162 17.679 2.64565 17.3026 1.74854Z" fill="#B5BCC3"/>
<path d="M18.7891 1.74854V6.55495H18.8765V3.32154L18.7891 1.74854Z" fill="#B5BCC3"/>
<path d="M24.9932 1.74854V6.55495H25.0806V3.32154L24.9932 1.74854ZM26.4788 1.74854V13.0218H26.5662V5.15672C26.5662 4.18162 26.8553 2.64565 26.4788 1.74854Z" fill="#B5BCC3"/>
<path d="M42.7334 1.74854V13.0218H42.8208V5.15672C42.8208 4.18162 43.1099 2.64565 42.7334 1.74854Z" fill="#B5BCC3"/>
<path d="M55.5801 1.74854V13.1092H55.6675V5.15672C55.6675 4.18163 55.9566 2.64563 55.5801 1.74854Z" fill="#B5BCC3"/>
<path d="M57.0645 1.83557V12.934H57.1518V5.15637C57.1518 4.20417 57.4322 2.71185 57.0645 1.83557Z" fill="#B5BCC3"/>
<path d="M67.7266 1.83557V2.4473H67.814L67.7266 1.83557Z" fill="#B5BCC3"/>
<path d="M61.6968 2.79749V2.88487H67.4645L65.6293 2.79749H61.6968Z" fill="#B5BCC3"/>
<path d="M61.6094 2.88379V6.9037H61.6968C61.6968 5.76735 62.0472 3.9271 61.6094 2.88379Z" fill="#B5BCC3"/>
<path d="M33.9078 2.97192C32.8969 4.8702 32.1504 7.13856 31.4609 9.17657H36.2674L35.1683 6.11794L33.9078 2.97192Z" fill="transparent"/>
<path d="M18.876 6.55469V6.64208H24.9932L23.0707 6.55469H18.876Z" fill="#B5BCC3"/>
<path d="M61.6973 6.9043V6.99169H67.1154L65.3676 6.9043H61.6973Z" fill="#B5BCC3"/>
<path d="M67.3764 7.25391V8.1278H67.4638L67.3764 7.25391Z" fill="#B5BCC3"/>
<path d="M0.699219 7.34131V13.8955H0.786608V9.35126L0.699219 7.34131Z" fill="#B5BCC3"/>
<path d="M18.7885 8.04053V13.0217H18.8759V9.61354L18.7885 8.04053Z" fill="#B5BCC3"/>
<path d="M24.9932 8.04053V13.0217H25.0806V9.61354L24.9932 8.04053Z" fill="#B5BCC3"/>
<path d="M61.7842 8.302V8.38939H67.2023L65.4545 8.302H61.7842Z" fill="#B5BCC3"/>
<path d="M61.6092 8.38916V13.0208H61.6966V9.87478L61.6092 8.38916Z" fill="#B5BCC3"/>
<path d="M13.6321 8.65173L11.7969 10.5743C12.3477 10.1863 13.4713 9.31484 13.6321 8.65173Z" fill="#B5BCC3"/>
<path d="M13.7197 8.65173V13.8951H13.8071V10.3121L13.7197 8.65173Z" fill="#B5BCC3"/>
<path d="M13.6324 8.73987C13.1139 9.25844 12.3045 9.8276 11.9745 10.4877C11.5622 11.3123 11.8846 12.9776 11.8846 13.8958H13.7198V10.4003L13.6324 8.73987Z" fill="transparent"/>
<path d="M73.2314 8.82605V13.0207H73.3188C73.3188 11.8387 73.6867 9.9109 73.2314 8.82605Z" fill="#B5BCC3"/>
<path d="M31.5479 9.17688V9.26427H36.2669L34.6939 9.17688H31.5479Z" fill="#B5BCC3"/>
<path d="M11.7969 10.5743V13.8951H11.8843C11.8843 12.9416 12.1649 11.4514 11.7969 10.5743Z" fill="#B5BCC3"/>
<path d="M30.9355 10.5743V10.6617H36.878L35.0428 10.5743H30.9355Z" fill="#B5BCC3"/>
<path d="M9.00098 13.896H9.08837C9.11948 12.9361 10.2879 12.1722 10.9235 11.5365V13.896H11.0109V11.4491C10.1966 11.8288 9.01199 12.9636 9.00098 13.896Z" fill="#B5BCC3"/>
<path d="M6.2041 11.5354V14.4192H6.29149L6.2041 11.5354Z" fill="#B5BCC3"/>
<path d="M10.8357 11.5354C10.1742 12.1969 9.09978 12.8917 9.08789 13.8949H10.9231L10.8357 11.5354Z" fill="transparent"/>
<path d="M47.4521 11.885V11.9724H53.3946L51.5594 11.885H47.4521Z" fill="#B5BCC3"/>
<path d="M53.569 12.2355V13.022H53.6564L53.569 12.2355Z" fill="#B5BCC3"/>
<path d="M8.12695 12.9343V14.5073H8.21434L8.12695 12.9343Z" fill="#B5BCC3"/>
<path d="M17.6523 13.2837V13.3711H18.5262L17.6523 13.2837Z" fill="#B5BCC3"/>
<path d="M25.3428 13.2837V13.3711H26.2167L25.3428 13.2837Z" fill="#B5BCC3"/>
<path d="M28.6641 13.2837V13.3711H29.538L28.6641 13.2837Z" fill="#B5BCC3"/>
<path d="M38.2764 13.2837V13.3711H39.1503L38.2764 13.2837Z" fill="#B5BCC3"/>
<path d="M41.5967 13.2837V13.3711H42.4706L41.5967 13.2837Z" fill="#B5BCC3"/>
<path d="M46.2285 13.2837V13.3711H53.3071L51.1223 13.2837H46.2285Z" fill="#B5BCC3"/>
<path d="M55.9297 13.2837V13.3711H56.8036L55.9297 13.2837Z" fill="#B5BCC3"/>
<path d="M60.4727 13.2837V13.3711H61.3466L60.4727 13.2837Z" fill="#B5BCC3"/>
<path d="M73.582 13.2837V13.3711H74.4559L73.582 13.2837Z" fill="#B5BCC3"/>
</g>
<defs>
<clipPath id="clip0_8502_1875">
<rect width="79" height="14.7688" fill="transparent"/>
</clipPath>
</defs>
</svg>
