<svg width="21" height="20" viewBox="0 0 21 20" fill="none" xmlns="http://www.w3.org/2000/svg">
<path d="M16.2002 7.50006L8.15018 2.8834C7.71458 2.63186 7.22017 2.50009 6.71717 2.50148C6.21417 2.50286 5.72049 2.63734 5.28628 2.89126C4.85208 3.14518 4.49281 3.5095 4.24497 3.94721C3.99713 4.38492 3.86954 4.88042 3.87518 5.3834V14.6501C3.87518 15.4059 4.17545 16.1308 4.70992 16.6653C5.2444 17.1998 5.96931 17.5001 6.72518 17.5001C7.22554 17.4992 7.71692 17.367 8.15018 17.1167L16.2002 12.5001C16.6327 12.2497 16.9918 11.89 17.2415 11.4571C17.4912 11.0241 17.6226 10.5332 17.6226 10.0334C17.6226 9.53363 17.4912 9.04264 17.2415 8.6097C16.9918 8.17675 16.6327 7.81707 16.2002 7.56673V7.50006ZM15.3668 10.9917L7.31685 15.6751C7.13642 15.7773 6.93257 15.8311 6.72518 15.8311C6.51779 15.8311 6.31394 15.7773 6.13351 15.6751C5.95359 15.5712 5.80419 15.4218 5.70033 15.2418C5.59647 15.0619 5.54181 14.8578 5.54185 14.6501V5.35006C5.54181 5.14231 5.59647 4.93821 5.70033 4.75828C5.80419 4.57835 5.95359 4.42894 6.13351 4.32506C6.31468 4.22436 6.51793 4.16997 6.72518 4.16673C6.93229 4.17098 7.13529 4.22531 7.31685 4.32506L15.3668 8.97506C15.5468 9.07889 15.6963 9.22829 15.8002 9.40822C15.9042 9.58815 15.9589 9.79227 15.9589 10.0001C15.9589 10.2078 15.9042 10.412 15.8002 10.5919C15.6963 10.7718 15.5468 10.9212 15.3668 11.0251V10.9917Z" fill="#477DB3"/>
</svg>
