<svg width="24" height="24" viewBox="0 0 24 24" fill="none" xmlns="http://www.w3.org/2000/svg">
<g clip-path="url(#clip0_6184_16378)">
<path d="M22.9377 5.04667C22.155 5.39333 21.3143 5.628 20.431 5.73333C21.3323 5.19333 22.0243 4.338 22.35 3.319C21.5067 3.819 20.5733 4.183 19.5787 4.37767C18.7837 3.53 17.6497 3 16.3943 3C13.9843 3 12.0303 4.95333 12.0303 7.36433C12.0303 7.70633 12.0697 8.03767 12.143 8.35767C8.51466 8.17567 5.30033 6.43933 3.14699 3.79867C2.77199 4.444 2.55699 5.19333 2.55699 5.992C2.55699 7.50633 3.32766 8.84267 4.49833 9.62533C3.78299 9.602 3.10999 9.406 2.52166 9.07867C2.52099 9.09733 2.52099 9.11533 2.52099 9.133C2.52099 11.248 4.02533 13.0123 6.02233 13.413C5.65566 13.5123 5.27033 13.5653 4.87233 13.5653C4.59066 13.5653 4.31699 13.5393 4.05099 13.4887C4.60666 15.222 6.21766 16.4837 8.12766 16.5187C6.63366 17.6887 4.75099 18.387 2.70766 18.387C2.35599 18.387 2.00899 18.367 1.66699 18.3257C3.59833 19.5647 5.89233 20.2863 8.35599 20.2863C16.3837 20.2863 20.7727 13.6363 20.7727 7.86967C20.7727 7.68133 20.7683 7.492 20.76 7.30533C21.6127 6.68967 22.3527 5.922 22.9373 5.04733L22.9377 5.04667Z" fill="#1DA1F2"/>
</g>
<defs>
<clipPath id="clip0_6184_16378">
<rect width="24" height="24" fill="white"/>
</clipPath>
</defs>
</svg>
