<svg width="41" height="40" viewBox="0 0 41 40" fill="none" xmlns="http://www.w3.org/2000/svg">
<rect x="0.768555" width="40" height="40" rx="5.2" fill="#F5F5F5"/>
<path d="M18.7686 21H11.7686C11.5033 21 11.249 21.1054 11.0614 21.2929C10.8739 21.4804 10.7686 21.7348 10.7686 22V29C10.7686 29.2652 10.8739 29.5196 11.0614 29.7071C11.249 29.8946 11.5033 30 11.7686 30H18.7686C19.0338 30 19.2881 29.8946 19.4757 29.7071C19.6632 29.5196 19.7686 29.2652 19.7686 29V22C19.7686 21.7348 19.6632 21.4804 19.4757 21.2929C19.2881 21.1054 19.0338 21 18.7686 21ZM17.7686 28H12.7686V23H17.7686V28ZM29.7686 10H22.7686C22.5033 10 22.249 10.1054 22.0614 10.2929C21.8739 10.4804 21.7686 10.7348 21.7686 11V18C21.7686 18.2652 21.8739 18.5196 22.0614 18.7071C22.249 18.8946 22.5033 19 22.7686 19H29.7686C30.0338 19 30.2881 18.8946 30.4757 18.7071C30.6632 18.5196 30.7686 18.2652 30.7686 18V11C30.7686 10.7348 30.6632 10.4804 30.4757 10.2929C30.2881 10.1054 30.0338 10 29.7686 10ZM28.7686 17H23.7686V12H28.7686V17ZM29.7686 21H22.7686C22.5033 21 22.249 21.1054 22.0614 21.2929C21.8739 21.4804 21.7686 21.7348 21.7686 22V29C21.7686 29.2652 21.8739 29.5196 22.0614 29.7071C22.249 29.8946 22.5033 30 22.7686 30H29.7686C30.0338 30 30.2881 29.8946 30.4757 29.7071C30.6632 29.5196 30.7686 29.2652 30.7686 29V22C30.7686 21.7348 30.6632 21.4804 30.4757 21.2929C30.2881 21.1054 30.0338 21 29.7686 21ZM28.7686 28H23.7686V23H28.7686V28ZM18.7686 10H11.7686C11.5033 10 11.249 10.1054 11.0614 10.2929C10.8739 10.4804 10.7686 10.7348 10.7686 11V18C10.7686 18.2652 10.8739 18.5196 11.0614 18.7071C11.249 18.8946 11.5033 19 11.7686 19H18.7686C19.0338 19 19.2881 18.8946 19.4757 18.7071C19.6632 18.5196 19.7686 18.2652 19.7686 18V11C19.7686 10.7348 19.6632 10.4804 19.4757 10.2929C19.2881 10.1054 19.0338 10 18.7686 10ZM17.7686 17H12.7686V12H17.7686V17Z" fill="url(#paint0_linear_7852_30260)"/>
<defs>
<linearGradient id="paint0_linear_7852_30260" x1="20.7686" y1="10" x2="20.7686" y2="30" gradientUnits="userSpaceOnUse">
<stop stop-color="#2C2F3E"/>
<stop offset="1" stop-color="#422F41"/>
</linearGradient>
</defs>
</svg>
