<svg width="40" height="40" viewBox="0 0 40 40" fill="none" xmlns="http://www.w3.org/2000/svg">
<g id="Frame">
<path id="Vector" d="M5.60156 2.40039V37.6004H34.4016V2.40039H5.60156ZM7.20156 4.00039H17.6016V19.4254C17.1266 19.7066 16.8016 20.216 16.8016 20.8004V22.4004C16.8016 23.066 17.2234 23.6441 17.8109 23.8816C17.6953 24.3285 17.6172 24.6191 17.4234 25.4379C17.2734 26.0785 17.1203 26.7504 17.0047 27.3348C16.8891 27.916 16.8016 28.3629 16.8016 28.7691C16.8016 30.5379 18.2391 32.0004 20.0016 32.0004C21.7641 32.0004 23.2016 30.5379 23.2016 28.7691C23.2016 28.3629 23.1141 27.916 22.9984 27.3348C22.8828 26.7504 22.7297 26.0785 22.5797 25.4379C22.3859 24.6191 22.3078 24.3285 22.1922 23.8816C22.7797 23.6441 23.2016 23.066 23.2016 22.4004V20.8004C23.2016 20.216 22.8766 19.7066 22.4016 19.4254V4.00039H32.8016V36.0004H7.20156V4.00039ZM19.2016 4.00039H20.8016V7.20039H20.0016V8.80039H20.8016V12.0004H20.0016V13.6004H20.8016V16.8004H20.0016V18.4004H20.8016V19.2004H19.2016V16.0004H20.0016V14.4004H19.2016V11.2004H20.0016V9.60039H19.2016V6.40039H20.0016V4.80039H19.2016V4.00039ZM18.4016 20.8004H21.6016V22.4004H18.4016V20.8004ZM19.4266 24.0004H20.5766C20.6734 24.3785 20.8016 24.8566 21.0234 25.8035C21.1734 26.4348 21.3203 27.091 21.4297 27.6441C21.5391 28.1973 21.6016 28.691 21.6016 28.7691C21.6016 29.6754 20.8797 30.4004 20.0016 30.4004C19.1234 30.4004 18.4016 29.6754 18.4016 28.7691C18.4016 28.691 18.4641 28.1973 18.5734 27.6441C18.6828 27.091 18.8297 26.4348 18.9797 25.8035C19.2016 24.8566 19.3297 24.3785 19.4266 24.0004ZM20.0016 28.0004C19.5672 28.0004 19.2109 28.3598 19.2141 28.8004C19.2109 29.241 19.5672 29.6004 20.0016 29.6004C20.4359 29.6004 20.7922 29.241 20.7891 28.8004C20.7922 28.3598 20.4359 28.0004 20.0016 28.0004Z" fill="black" style="fill:black;fill-opacity:1;"/>
</g>
</svg>
