<svg width="141" height="28" viewBox="0 0 141 28" fill="none" xmlns="http://www.w3.org/2000/svg">
<path d="M40.9733 14.667C40.566 14.1438 40.0544 13.711 39.471 13.3959C38.824 13.0374 38.0952 12.8521 37.3555 12.8581C36.7183 12.8505 36.0882 12.992 35.5155 13.2714C35.2481 13.3895 35.0231 13.5864 34.8706 13.8358C34.7181 14.0852 34.6454 14.3752 34.6622 14.667C34.6502 14.9633 34.7329 15.2557 34.8983 15.5019C35.0637 15.748 35.3033 15.9351 35.5822 16.0359C36.4464 16.382 37.3385 16.6541 38.2488 16.8492C38.8913 16.993 39.5238 17.1786 40.1422 17.4048C40.7608 17.6254 41.3445 17.9338 41.8755 18.3203C42.3938 18.6992 42.8256 19.184 43.1422 19.7425C43.4827 20.3663 43.6557 21.0676 43.6444 21.7781C43.6722 22.6732 43.4751 23.5611 43.071 24.3603C42.7071 25.0444 42.1843 25.6312 41.5466 26.0714C40.8733 26.5282 40.1191 26.8525 39.3244 27.027C38.4658 27.2242 37.5875 27.3226 36.7066 27.3203C35.414 27.3215 34.1326 27.0803 32.9288 26.6092C31.7668 26.1812 30.7211 25.4871 29.8755 24.5825L32.6133 22.0225C33.1006 22.6429 33.7161 23.1508 34.4177 23.5114C35.1775 23.9072 36.0234 24.1087 36.8799 24.0981C37.1892 24.098 37.4976 24.0653 37.7999 24.0003C38.111 23.9357 38.4106 23.8249 38.6888 23.6714C38.9495 23.5268 39.1695 23.3189 39.3288 23.067C39.4994 22.7847 39.5844 22.4589 39.5733 22.1292C39.5821 21.8102 39.4914 21.4963 39.3138 21.2311C39.1362 20.9659 38.8805 20.7626 38.5822 20.6492C37.6601 20.2624 36.7032 19.9647 35.7244 19.7603C35.1055 19.6244 34.4967 19.4462 33.9022 19.227C33.3477 19.0109 32.8281 18.7144 32.3599 18.347C31.8985 17.9871 31.5196 17.5324 31.2488 17.0137C30.9554 16.3983 30.8136 15.7217 30.8355 15.0403C30.8119 14.2072 31.0081 13.3825 31.4044 12.6492C31.7745 11.9918 32.2917 11.429 32.9155 11.0048C33.5583 10.567 34.2728 10.2451 35.0266 10.0537C35.8185 9.84483 36.6343 9.74025 37.4533 9.74255C38.6541 9.74039 39.8459 9.95106 40.9733 10.3648C42.0436 10.7273 42.9886 11.3871 43.6977 12.267L40.9733 14.667ZM57.9199 14.8403C57.5441 14.3344 57.0433 13.9346 56.4666 13.6803C55.8512 13.377 55.1749 13.2174 54.4888 13.2137C53.7892 13.1983 53.097 13.3588 52.4755 13.6803C51.9083 13.9759 51.4136 14.3933 51.0266 14.9025C50.6436 15.4175 50.356 15.9971 50.1777 16.6137C49.9961 17.2391 49.9034 17.8869 49.9022 18.5381C49.9032 19.1892 50.0021 19.8364 50.1955 20.4581C50.3858 21.0789 50.6869 21.6602 51.0844 22.1737C51.4836 22.6838 51.9865 23.1034 52.5599 23.4048C53.1984 23.7279 53.9068 23.8882 54.6222 23.8714C55.2878 23.8672 55.9467 23.7375 56.5644 23.4892C57.1779 23.2667 57.721 22.8847 58.1377 22.3825L60.7377 25.0137C59.9938 25.7845 59.0809 26.3718 58.071 26.7292C56.9539 27.1389 55.772 27.3436 54.5822 27.3337C53.3951 27.3411 52.2159 27.141 51.0977 26.7425C50.0256 26.371 49.0432 25.7787 48.2141 25.004C47.3851 24.2293 46.7277 23.2893 46.2844 22.2448C45.7951 21.0712 45.553 19.8094 45.5733 18.5381C45.5563 17.2901 45.7984 16.0522 46.2844 14.9025C46.7306 13.8569 47.3854 12.9132 48.2088 12.1292C49.0256 11.3573 49.986 10.7532 51.0355 10.3514C53.2985 9.49949 55.798 9.52326 58.0444 10.4181C59.0961 10.8164 60.0313 11.4719 60.7644 12.3248L57.9199 14.8181V14.8403ZM74.4888 16.8892C74.4912 16.3725 74.4147 15.8584 74.2622 15.3648C74.1186 14.8925 73.8762 14.4562 73.551 14.0848C73.2127 13.6997 72.7919 13.3958 72.3199 13.1959C71.7653 12.9661 71.169 12.8541 70.5688 12.867C69.4081 12.8348 68.277 13.2356 67.3955 13.9914C66.9719 14.3519 66.6259 14.7946 66.3784 15.2927C66.1309 15.7908 65.987 16.3339 65.9555 16.8892H74.4888ZM78.6488 18.7603V19.3114C78.6503 19.4972 78.6384 19.6829 78.6133 19.867H65.9555C65.9967 20.4419 66.1571 21.0019 66.4266 21.5114C66.6853 22.0001 67.0407 22.431 67.4711 22.7781C67.9166 23.1419 68.4199 23.4289 68.9599 23.627C69.5141 23.8348 70.1014 23.9402 70.6933 23.9381C71.605 23.9661 72.5098 23.7708 73.3288 23.3692C74.0422 22.9975 74.6528 22.4556 75.1066 21.7914L77.8844 24.0137C76.2399 26.23 73.8577 27.3381 70.7377 27.3381C69.5262 27.3475 68.3225 27.1429 67.1822 26.7337C66.138 26.3503 65.1792 25.766 64.3599 25.0137C63.5484 24.2517 62.9102 23.324 62.4888 22.2937C62.0223 21.1331 61.7926 19.891 61.8133 18.6403C61.7976 17.3901 62.0271 16.1489 62.4888 14.987C62.911 13.9356 63.5431 12.9814 64.3466 12.1825C65.1453 11.3995 66.0949 10.7871 67.1377 10.3825C68.2479 9.94935 69.4305 9.73212 70.6222 9.74255C71.7179 9.73021 72.8063 9.92317 73.8311 10.3114C74.7883 10.6808 75.652 11.2576 76.3599 12.0003C77.1127 12.806 77.6867 13.7617 78.0444 14.8048C78.4718 16.0711 78.6763 17.4019 78.6488 18.7381V18.7603ZM82.0933 10.2225H86.0488V12.8892H86.1377C86.5596 11.9836 87.2261 11.2139 88.0622 10.667C89.0163 10.0193 90.1493 9.68669 91.3022 9.71588C92.264 9.68714 93.2194 9.88187 94.0933 10.2848C94.8345 10.6386 95.4874 11.1533 96.0044 11.7914C96.5058 12.4279 96.8759 13.1576 97.0933 13.9381C97.3247 14.749 97.4414 15.5882 97.4399 16.4314V26.8492H93.2488V17.6359C93.2464 17.1261 93.2122 16.617 93.1466 16.1114C93.087 15.6099 92.9364 15.1234 92.7022 14.6759C92.4741 14.2524 92.148 13.8897 91.7511 13.6181C91.2672 13.3209 90.7049 13.1768 90.1377 13.2048C89.5359 13.1893 88.9399 13.3253 88.4044 13.6003C87.9363 13.8519 87.5272 14.2004 87.2044 14.6225C86.8854 15.0576 86.6448 15.5449 86.4933 16.0625C86.3344 16.5963 86.2536 17.1501 86.2533 17.707V26.8492H82.0933V10.2225ZM118.249 26.8448H114.293V24.3559H114.227C113.657 25.3169 112.818 26.0895 111.813 26.5781C110.784 27.0851 109.65 27.3453 108.502 27.3381C107.375 27.362 106.257 27.1407 105.224 26.6894C104.191 26.2382 103.268 25.5678 102.52 24.7248C101.8 23.9025 101.246 22.9486 100.889 21.9159C100.501 20.8094 100.307 19.6441 100.315 18.4714C100.308 17.3032 100.508 16.1428 100.907 15.0448C101.279 14.0186 101.848 13.075 102.582 12.267C103.32 11.458 104.22 10.8147 105.225 10.3795C106.229 9.94437 107.314 9.72726 108.409 9.74255C109.673 9.71846 110.922 10.0249 112.031 10.6314C112.449 10.8623 112.838 11.1412 113.191 11.4625C113.483 11.7352 113.751 12.0326 113.991 12.3514H114.093V0.666992H118.258V26.8492L118.249 26.8448ZM104.547 18.467C104.55 19.1255 104.65 19.78 104.844 20.4092C105.031 21.0357 105.332 21.622 105.733 22.1381C106.136 22.6546 106.643 23.0802 107.222 23.387C107.872 23.7001 108.583 23.8626 109.304 23.8626C110.025 23.8626 110.737 23.7001 111.387 23.387C111.976 23.0812 112.5 22.6629 112.929 22.1559C113.353 21.6501 113.681 21.0699 113.893 20.4448C114.112 19.8283 114.225 19.179 114.227 18.5248C114.224 17.8633 114.112 17.2069 113.893 16.5825C113.468 15.3051 112.57 14.2393 111.382 13.6048C110.75 13.2763 110.046 13.1098 109.333 13.1203C108.601 13.103 107.875 13.2631 107.218 13.587C106.637 13.8832 106.129 14.3035 105.729 14.8181C105.33 15.3305 105.028 15.9121 104.84 16.5337C104.645 17.1551 104.545 17.8024 104.542 18.4537L104.547 18.467ZM132.547 24.7381H132.44C131.966 25.5304 131.267 26.1633 130.431 26.5559C129.451 27.0396 128.369 27.2819 127.276 27.2625C126.569 27.2591 125.864 27.1726 125.178 27.0048C124.461 26.8366 123.779 26.5432 123.164 26.1381C122.545 25.7271 122.024 25.1837 121.64 24.547C121.213 23.8051 121.002 22.9582 121.031 22.1025C120.975 21.009 121.355 19.9378 122.089 19.1248C122.851 18.3525 123.784 17.7708 124.813 17.427C126.008 17.0178 127.248 16.7566 128.507 16.6492C129.84 16.5248 131.173 16.4581 132.476 16.4581V16.0448C132.507 15.5961 132.419 15.147 132.222 14.7429C132.025 14.3387 131.724 13.9937 131.351 13.7425C130.556 13.2349 129.628 12.975 128.684 12.9959C127.81 12.9954 126.945 13.185 126.151 13.5514C125.406 13.871 124.726 14.3228 124.142 14.8848L121.991 12.3559C122.931 11.4868 124.04 10.8211 125.249 10.4003C126.457 9.96652 127.73 9.744 129.013 9.74255C130.262 9.69989 131.507 9.91158 132.671 10.3648C133.51 10.6939 134.258 11.2171 134.856 11.8916C135.453 12.566 135.881 13.3725 136.107 14.2448C136.323 15.0583 136.433 15.8963 136.436 16.7381V26.8492H132.551V24.7381H132.547ZM132.991 19.2625H132.053C131.382 19.2625 130.68 19.2937 129.938 19.3514C129.244 19.3992 128.558 19.5275 127.893 19.7337C127.321 19.8991 126.79 20.1822 126.333 20.5648C126.124 20.7466 125.959 20.9735 125.851 21.2283C125.742 21.4831 125.693 21.7592 125.707 22.0359C125.696 22.3827 125.786 22.7252 125.964 23.0225C126.137 23.2867 126.37 23.506 126.644 23.6625C126.935 23.828 127.25 23.9451 127.578 24.0092C127.92 24.0762 128.269 24.1105 128.618 24.1114C130.053 24.1114 131.142 23.7337 131.88 22.9692C132.262 22.5498 132.556 22.0589 132.747 21.5249C132.938 20.9909 133.021 20.4244 132.991 19.8581V19.2625Z" fill="#22285A" style="fill:#22285A;fill:color(display-p3 0.1333 0.1569 0.3529);fill-opacity:1;"/>
<path d="M14.4953 2.75161H18.2686L28.8286 27.1116H23.8419L21.5219 21.4938C18.4908 25.239 14.1042 27.1116 8.36195 27.1116H3.82861L14.4953 2.73828V2.75161ZM19.8731 17.4183L16.2686 7.89828L9.51306 23.3072C11.5954 23.357 13.6531 22.8491 15.4731 21.8361C17.3152 20.7938 18.8357 19.2656 19.8686 17.4183H19.8731Z" fill="#22285A" style="fill:#22285A;fill:color(display-p3 0.1333 0.1569 0.3529);fill-opacity:1;"/>
</svg>
