<svg width="140" height="30" viewBox="0 0 140 30" fill="none" xmlns="http://www.w3.org/2000/svg">
<path d="M39.3773 15.7C38.9496 15.1507 38.4125 14.6962 37.7999 14.3653C37.1205 13.9889 36.3553 13.7944 35.5786 13.8007C34.9096 13.7926 34.2479 13.9413 33.6466 14.2347C33.3658 14.3586 33.1296 14.5654 32.9695 14.8272C32.8094 15.0891 32.733 15.3936 32.7506 15.7C32.738 16.0111 32.8249 16.3182 32.9986 16.5766C33.1723 16.8351 33.4238 17.0315 33.7166 17.1373C34.6241 17.5007 35.5608 17.7864 36.5166 17.9913C37.1913 18.1423 37.8553 18.3372 38.5046 18.5747C39.1542 18.8064 39.7671 19.1301 40.3246 19.536C40.8689 19.9338 41.3223 20.4428 41.6546 21.0293C42.0122 21.6842 42.1938 22.4206 42.1819 23.1667C42.2111 24.1066 42.0042 25.0388 41.5799 25.878C41.1978 26.5963 40.6488 27.2124 39.9793 27.6747C39.2723 28.1543 38.4804 28.4948 37.6459 28.678C36.7445 28.8851 35.8222 28.9884 34.8973 28.986C33.54 28.9872 32.1946 28.7339 30.9306 28.2393C29.7105 27.7899 28.6125 27.0612 27.7246 26.1113L30.5993 23.4233C31.1109 24.0747 31.7572 24.608 32.4939 24.9867C33.2917 25.4022 34.1799 25.6138 35.0793 25.6027C35.404 25.6026 35.7278 25.5682 36.0453 25.5C36.3719 25.4322 36.6865 25.3158 36.9786 25.1547C37.2523 25.0028 37.4834 24.7845 37.6506 24.52C37.8298 24.2236 37.9189 23.8815 37.9073 23.5353C37.9165 23.2003 37.8213 22.8708 37.6348 22.5923C37.4484 22.3139 37.1799 22.1003 36.8666 21.9813C35.8985 21.5752 34.8937 21.2626 33.8659 21.048C33.2161 20.9053 32.5768 20.7182 31.9526 20.488C31.3704 20.2611 30.8248 19.9498 30.3333 19.564C29.8488 19.1861 29.451 18.7087 29.1666 18.164C28.8585 17.5179 28.7097 16.8074 28.7326 16.092C28.7078 15.2172 28.9139 14.3513 29.3299 13.5813C29.7185 12.8911 30.2616 12.3001 30.9166 11.8547C31.5916 11.395 32.3418 11.057 33.1333 10.856C33.9648 10.6367 34.8213 10.5269 35.6813 10.5293C36.9422 10.5271 38.1935 10.7483 39.3773 11.1827C40.5011 11.5633 41.4934 12.2561 42.2379 13.18L39.3773 15.7ZM57.1713 15.882C56.7766 15.3507 56.2508 14.931 55.6453 14.664C54.9991 14.3455 54.289 14.1779 53.5686 14.174C52.834 14.1579 52.1072 14.3264 51.4546 14.664C50.8591 14.9744 50.3396 15.4126 49.9333 15.9473C49.5311 16.4881 49.2292 17.0966 49.0419 17.744C48.8513 18.4007 48.7539 19.0809 48.7526 19.7647C48.7537 20.4483 48.8575 21.1279 49.0606 21.7807C49.2604 22.4325 49.5766 23.0428 49.9939 23.582C50.4131 24.1177 50.9412 24.5583 51.5433 24.8747C52.2137 25.2139 52.9575 25.3822 53.7086 25.3647C54.4076 25.3602 55.0994 25.224 55.7479 24.9633C56.3921 24.7297 56.9623 24.3286 57.3999 23.8013L60.1299 26.564C59.3488 27.3733 58.3903 27.99 57.3299 28.3653C56.1569 28.7955 54.916 29.0105 53.6666 29C52.4202 29.0078 51.182 28.7977 50.0079 28.3793C48.8822 27.9892 47.8507 27.3673 46.9802 26.5539C46.1097 25.7404 45.4194 24.7534 44.9539 23.6567C44.4402 22.4244 44.186 21.0995 44.2073 19.7647C44.1894 18.4543 44.4437 17.1544 44.9539 15.9473C45.4225 14.8494 46.1101 13.8585 46.9746 13.0353C47.8322 12.2248 48.8406 11.5906 49.9426 11.1687C52.3187 10.2741 54.9433 10.2991 57.3019 11.2387C58.4063 11.6568 59.3882 12.3452 60.1579 13.2407L57.1713 15.8587V15.882ZM74.5686 18.0333C74.5711 17.4908 74.4908 16.951 74.3306 16.4327C74.1799 15.9368 73.9253 15.4786 73.5839 15.0887C73.2287 14.6843 72.7869 14.3653 72.2913 14.1553C71.7089 13.9141 71.0828 13.7965 70.4526 13.81C69.2339 13.7762 68.0461 14.197 67.1206 14.9907C66.6759 15.3692 66.3126 15.834 66.0527 16.357C65.7928 16.88 65.6417 17.4503 65.6086 18.0333H74.5686ZM78.9366 19.998V20.5767C78.9381 20.7718 78.9256 20.9667 78.8993 21.16H65.6086C65.6518 21.7637 65.8203 22.3517 66.1033 22.8867C66.3749 23.3997 66.748 23.8522 67.1999 24.2167C67.6678 24.5987 68.1962 24.9 68.7633 25.108C69.3452 25.3262 69.9618 25.4368 70.5833 25.4347C71.5406 25.4641 72.4906 25.259 73.3506 24.8373C74.0996 24.4471 74.7408 23.878 75.2173 23.1807L78.1339 25.514C76.4073 27.8411 73.9059 29.0047 70.6299 29.0047C69.3578 29.0146 68.094 28.7997 66.8966 28.37C65.8003 27.9675 64.7935 27.3539 63.9333 26.564C63.0811 25.7639 62.4111 24.7899 61.9686 23.708C61.4787 22.4894 61.2375 21.1852 61.2593 19.872C61.2428 18.5593 61.4838 17.256 61.9686 16.036C62.4119 14.932 63.0756 13.9301 63.9193 13.0913C64.7579 12.2692 65.755 11.6261 66.8499 11.2013C68.0156 10.7465 69.2574 10.5184 70.5086 10.5293C71.6592 10.5164 72.802 10.719 73.8779 11.1267C74.8831 11.5146 75.7899 12.1202 76.5333 12.9C77.3237 13.746 77.9264 14.7495 78.3019 15.8447C78.7507 17.1743 78.9655 18.5717 78.9366 19.9747V19.998ZM82.5533 11.0333H86.7066V13.8333H86.7999C87.2429 12.8824 87.9428 12.0743 88.8206 11.5C89.8225 10.8199 91.0121 10.4707 92.2226 10.5013C93.2325 10.4712 94.2357 10.6756 95.1533 11.0987C95.9315 11.4702 96.6171 12.0106 97.1599 12.6807C97.6864 13.349 98.075 14.1151 98.3033 14.9347C98.5462 15.7861 98.6688 16.6673 98.6673 17.5527V28.4913H94.2666V18.8173C94.264 18.2821 94.2282 17.7475 94.1593 17.2167C94.0967 16.69 93.9386 16.1792 93.6926 15.7093C93.4531 15.2647 93.1107 14.8839 92.6939 14.5987C92.1859 14.2866 91.5954 14.1353 90.9999 14.1647C90.3681 14.1484 89.7422 14.2912 89.1799 14.58C88.6884 14.8441 88.2589 15.2101 87.9199 15.6533C87.5851 16.1101 87.3324 16.6218 87.1733 17.1653C87.0065 17.7257 86.9216 18.3073 86.9213 18.892V28.4913H82.5533V11.0333ZM120.517 28.4867H116.363V25.8733H116.293C115.695 26.8824 114.814 27.6937 113.759 28.2067C112.678 28.739 111.488 29.0122 110.283 29.0047C109.099 29.0298 107.925 28.7974 106.84 28.3236C105.756 27.8498 104.787 27.1459 104.001 26.2607C103.245 25.3972 102.664 24.3957 102.289 23.3113C101.881 22.1495 101.677 20.9259 101.687 19.6947C101.678 18.468 101.888 17.2496 102.307 16.0967C102.698 15.0192 103.296 14.0285 104.067 13.18C104.841 12.3306 105.787 11.6551 106.841 11.1982C107.896 10.7412 109.035 10.5133 110.185 10.5293C111.512 10.504 112.823 10.8258 113.988 11.4627C114.427 11.705 114.835 11.9979 115.206 12.3353C115.512 12.6216 115.793 12.9339 116.046 13.2687H116.153V1H120.526V28.4913L120.517 28.4867ZM106.129 19.69C106.133 20.3815 106.238 21.0686 106.442 21.7293C106.638 22.3871 106.954 23.0027 107.375 23.5447C107.798 24.087 108.331 24.5339 108.939 24.856C109.621 25.1847 110.368 25.3554 111.125 25.3554C111.882 25.3554 112.629 25.1847 113.311 24.856C113.93 24.5349 114.48 24.0958 114.931 23.5633C115.376 23.0323 115.72 22.4231 115.943 21.7667C116.173 21.1193 116.292 20.4376 116.293 19.7507C116.291 19.0562 116.172 18.3669 115.943 17.7113C115.497 16.37 114.553 15.2509 113.307 14.5847C112.643 14.2397 111.903 14.065 111.155 14.076C110.386 14.0578 109.624 14.2259 108.934 14.566C108.324 14.877 107.791 15.3184 107.371 15.8587C106.952 16.3967 106.635 17.0073 106.437 17.66C106.233 18.3125 106.127 18.9921 106.125 19.676L106.129 19.69ZM135.529 26.2747H135.417C134.92 27.1066 134.185 27.7711 133.308 28.1833C132.278 28.6912 131.142 28.9457 129.995 28.9253C129.252 28.9217 128.513 28.8309 127.792 28.6547C127.039 28.4781 126.324 28.17 125.678 27.7447C125.027 27.3131 124.481 26.7425 124.077 26.074C123.629 25.295 123.407 24.4058 123.438 23.5073C123.379 22.3591 123.778 21.2344 124.549 20.3807C125.349 19.5697 126.329 18.959 127.409 18.598C128.664 18.1684 129.966 17.8941 131.287 17.7813C132.687 17.6507 134.087 17.5807 135.455 17.5807V17.1467C135.488 16.6755 135.396 16.204 135.188 15.7797C134.981 15.3553 134.666 14.993 134.274 14.7293C133.439 14.1963 132.464 13.9234 131.474 13.9453C130.556 13.9449 129.648 14.1439 128.814 14.5287C128.032 14.8643 127.318 15.3386 126.705 15.9287L124.446 13.2733C125.433 12.3608 126.597 11.6618 127.867 11.22C129.135 10.7645 130.472 10.5309 131.819 10.5293C133.131 10.4845 134.437 10.7068 135.66 11.1827C136.54 11.5282 137.327 12.0776 137.954 12.7858C138.581 13.494 139.031 14.3408 139.267 15.2567C139.494 16.1109 139.61 16.9908 139.613 17.8747V28.4913H135.534V26.2747H135.529ZM135.996 20.5253H135.011C134.307 20.5253 133.569 20.558 132.79 20.6187C132.061 20.6688 131.341 20.8035 130.643 21.02C130.043 21.1937 129.485 21.491 129.005 21.8927C128.786 22.0836 128.613 22.3218 128.499 22.5894C128.385 22.8569 128.333 23.1469 128.347 23.4373C128.336 23.8015 128.43 24.1611 128.618 24.4733C128.799 24.7507 129.044 24.981 129.332 25.1453C129.637 25.3191 129.968 25.442 130.312 25.5093C130.672 25.5797 131.037 25.6156 131.404 25.6167C132.911 25.6167 134.055 25.22 134.829 24.4173C135.23 23.977 135.539 23.4616 135.74 22.9008C135.94 22.3401 136.027 21.7453 135.996 21.1507V20.5253Z" fill="#6B7280"/>
<path d="M11.5733 3.18867H15.5353L26.6233 28.7667H21.3873L18.9513 22.868C15.7686 26.8004 11.1626 28.7667 5.13329 28.7667H0.373291L11.5733 3.17467V3.18867ZM17.22 18.5887L13.4353 8.59267L6.34196 24.772C8.52837 24.8243 10.689 24.291 12.6 23.2273C14.5342 22.133 16.1307 20.5284 17.2153 18.5887H17.22Z" fill="#6B7280"/>
</svg>
