<svg width="107" height="24" viewBox="0 0 107 24" fill="none" xmlns="http://www.w3.org/2000/svg">
<g id="Logo Group">
<g id="Logo Container">
<path id="Vector" d="M29.6941 11.6207C31.3157 11.6207 32.4042 12.3528 33.0706 13.2624V0.306308C33.0706 0.0622718 32.7818 -0.0930236 32.5819 0.0622721L16.5656 11.7538H16.9877C18.6537 11.7538 19.4979 12.8187 19.4979 13.9723C19.4979 14.8819 19.0314 15.5475 18.3872 15.8359C18.2761 15.8803 18.2761 16.0355 18.3872 16.0799C19.1202 16.3905 19.6534 17.167 19.6534 18.0988C19.6534 19.4299 18.787 20.4726 17.121 20.4726H12.5671C12.4783 20.4726 12.3894 20.406 12.3894 20.2951V14.7932L0.46051 23.5119C0.260584 23.6894 0.349439 24 0.616007 24H32.7818C32.9373 24 33.0484 23.8891 33.0484 23.7338V19.3189C32.182 20.1176 31.0491 20.6279 29.6719 20.6279C27.095 20.6279 25.0069 18.8531 25.0069 16.1243C25.0292 13.3733 27.1395 11.6207 29.6941 11.6207ZM23.3187 20.3173C23.3187 20.406 23.252 20.4726 23.1632 20.4726H21.6304C21.5416 20.4726 21.4749 20.406 21.4749 20.3173V11.9091C21.4749 11.8204 21.5416 11.7538 21.6304 11.7538H23.1632C23.252 11.7538 23.3187 11.8204 23.3187 11.9091V20.3173Z" fill="#34313F" style="fill:#34313F;fill:color(display-p3 0.2039 0.1922 0.2471);fill-opacity:1;"/>
</g>
<path id="Vector_2" d="M14.4316 15.2147H16.5864C17.2084 15.2147 17.6082 14.8597 17.6082 14.3051C17.6082 13.7727 17.2084 13.3955 16.5864 13.3955H14.3428C14.2983 13.3955 14.2539 13.4399 14.2539 13.4842V15.0594C14.2539 15.1481 14.3428 15.2147 14.4316 15.2147Z" fill="#34313F" style="fill:#34313F;fill:color(display-p3 0.2039 0.1922 0.2471);fill-opacity:1;"/>
<path id="Vector_3" d="M14.4316 18.8531H16.6752C17.3639 18.8531 17.7859 18.476 17.7859 17.8548C17.7859 17.3001 17.3861 16.8564 16.6752 16.8564H14.4316C14.3428 16.8564 14.2539 16.923 14.2539 17.0339V18.6756C14.2539 18.7644 14.3428 18.8531 14.4316 18.8531Z" fill="#34313F" style="fill:#34313F;fill:color(display-p3 0.2039 0.1922 0.2471);fill-opacity:1;"/>
<path id="Vector_4" d="M31.673 14.261C31.2509 13.7064 30.5401 13.2627 29.6959 13.2627C28.0965 13.2627 26.9414 14.4829 26.9414 16.1246C26.9414 17.7663 28.0965 18.9865 29.6959 18.9865C30.429 18.9865 31.1176 18.6759 31.4953 18.3653C31.5175 18.3431 31.5397 18.2987 31.5397 18.2543V17.4113C31.5397 17.3448 31.4731 17.2782 31.4064 17.2782H29.4294C29.3183 17.2782 29.2517 17.1895 29.2517 17.1007V15.8584C29.2517 15.7474 29.3405 15.6809 29.4294 15.6809H33.0947V13.7064L31.9173 14.3498C31.8285 14.372 31.7174 14.3276 31.673 14.261Z" fill="#34313F" style="fill:#34313F;fill:color(display-p3 0.2039 0.1922 0.2471);fill-opacity:1;"/>
<path id="Vector_5" d="M34.4492 16.1247C34.4492 13.4403 36.3818 11.6211 38.8698 11.6211C40.4914 11.6211 41.5355 12.4419 42.1575 13.4403C42.2019 13.5068 42.1797 13.6178 42.0908 13.6399L41.0912 14.1724C41.0245 14.2168 40.9357 14.1946 40.9135 14.128C40.4914 13.4625 39.7139 12.9744 38.8698 12.9744C37.2037 12.9744 35.9598 14.2833 35.9598 16.1247C35.9598 17.9438 37.2037 19.275 38.8698 19.275C39.7139 19.275 40.4914 18.7869 40.9135 18.1213C40.9579 18.0548 41.0245 18.0326 41.0912 18.077L42.0908 18.5872C42.1797 18.6316 42.2019 18.7203 42.1575 18.8091C41.5133 19.8074 40.4692 20.6504 38.8698 20.6504C36.3818 20.6282 34.4492 18.7869 34.4492 16.1247Z" fill="#34313F" style="fill:#34313F;fill:color(display-p3 0.2039 0.1922 0.2471);fill-opacity:1;"/>
<path id="Vector_6" d="M43.0234 16.1239C43.0234 13.9498 44.2674 12.2637 46.1334 11.7756C49.31 10.9326 52.22 13.9054 51.5314 17.211C51.1093 19.252 49.4877 20.6497 47.3329 20.6497C44.8006 20.6275 43.0234 18.7196 43.0234 16.1239ZM50.1097 16.1239C50.1097 14.3269 48.999 12.9736 47.3107 12.9736C45.6003 12.9736 44.5118 14.3269 44.5118 16.1239C44.5118 17.9209 45.6003 19.2742 47.3107 19.2742C49.0212 19.2742 50.1097 17.8987 50.1097 16.1239Z" fill="#34313F" style="fill:#34313F;fill:color(display-p3 0.2039 0.1922 0.2471);fill-opacity:1;"/>
<path id="Vector_7" d="M60.6817 20.3615V13.7281L58.0382 20.4058C58.0382 20.428 57.9938 20.4502 57.9715 20.4502H57.4162C57.394 20.4502 57.3496 20.428 57.3496 20.4058L54.6839 13.7281V20.3615C54.6839 20.428 54.6395 20.4724 54.5728 20.4724H53.24C53.1733 20.4724 53.1289 20.428 53.1289 20.3615V11.8424C53.1289 11.7758 53.1733 11.7314 53.24 11.7314H55.1504C55.2392 11.7314 55.3059 11.7758 55.3503 11.8646L57.6828 17.8545L59.993 11.8646C60.0152 11.7758 60.1041 11.7314 60.1929 11.7314H62.1033C62.17 11.7314 62.2144 11.7758 62.2144 11.8424V20.3615C62.2144 20.428 62.17 20.4724 62.1033 20.4724H60.7705C60.7483 20.4724 60.6817 20.428 60.6817 20.3615Z" fill="#34313F" style="fill:#34313F;fill:color(display-p3 0.2039 0.1922 0.2471);fill-opacity:1;"/>
<path id="Vector_8" d="M75.7891 20.3174V11.9092C75.7891 11.8205 75.8557 11.7539 75.9446 11.7539H81.6091C81.698 11.7539 81.7646 11.8205 81.7646 11.9092V12.9297C81.7646 13.0185 81.698 13.085 81.6091 13.085H77.4773C77.3885 13.085 77.3218 13.1516 77.3218 13.2403V15.1704C77.3218 15.2592 77.3885 15.3257 77.4773 15.3257H81.5203C81.6091 15.3257 81.6758 15.3923 81.6758 15.481V16.5015C81.6758 16.5903 81.6091 16.6568 81.5203 16.6568H77.4773C77.3885 16.6568 77.3218 16.7234 77.3218 16.8121V18.9197C77.3218 19.0084 77.3885 19.075 77.4773 19.075H81.6091C81.698 19.075 81.7646 19.1415 81.7646 19.2303V20.2508C81.7646 20.3395 81.698 20.4061 81.6091 20.4061H75.9446C75.8557 20.4727 75.7891 20.4061 75.7891 20.3174Z" fill="#34313F" style="fill:#34313F;fill:color(display-p3 0.2039 0.1922 0.2471);fill-opacity:1;"/>
<path id="Vector_9" d="M88.8729 20.3839L87.0292 17.278C87.0069 17.2336 86.9403 17.2114 86.8959 17.2114H85.6075C85.5186 17.2114 85.452 17.278 85.452 17.3667V20.3174C85.452 20.4061 85.3853 20.4726 85.2965 20.4726H84.0969C84.0081 20.4726 83.9414 20.4061 83.9414 20.3174V11.9092C83.9414 11.8205 84.0081 11.7539 84.0969 11.7539H87.7844C89.5171 11.7539 90.65 12.8632 90.65 14.4827C90.65 15.9247 89.7615 16.7456 88.7841 16.9896C88.673 17.0118 88.6286 17.1227 88.673 17.2336C89.0284 17.8104 90.1391 19.5852 90.5612 20.2286C90.6278 20.3395 90.5612 20.4726 90.4279 20.4726H89.0284C88.9618 20.4726 88.9173 20.4505 88.8729 20.3839ZM89.0728 14.4605C89.0728 13.6175 88.4508 13.085 87.5845 13.085H85.6297C85.5408 13.085 85.4742 13.1516 85.4742 13.2403V15.7029C85.4742 15.7916 85.5408 15.8582 85.6297 15.8582H87.5845C88.4508 15.8582 89.0728 15.3257 89.0728 14.4605Z" fill="#34313F" style="fill:#34313F;fill:color(display-p3 0.2039 0.1922 0.2471);fill-opacity:1;"/>
<path id="Vector_10" d="M101 20.3174V11.9092C101 11.8205 101.067 11.7539 101.156 11.7539H106.842C106.931 11.7539 106.998 11.8205 106.998 11.9092V12.9519C106.998 13.0406 106.931 13.1072 106.842 13.1072H102.688C102.599 13.1072 102.533 13.1738 102.533 13.2625V15.2148C102.533 15.3035 102.599 15.3701 102.688 15.3701H106.731C106.82 15.3701 106.887 15.4366 106.887 15.5254V16.5681C106.887 16.6568 106.82 16.7234 106.731 16.7234H102.688C102.599 16.7234 102.533 16.7899 102.533 16.8787V19.0084C102.533 19.0972 102.599 19.1637 102.688 19.1637H106.842C106.931 19.1637 106.998 19.2303 106.998 19.319V20.3617C106.998 20.4505 106.931 20.517 106.842 20.517H101.156C101.067 20.4727 101 20.4061 101 20.3174Z" fill="#34313F" style="fill:#34313F;fill:color(display-p3 0.2039 0.1922 0.2471);fill-opacity:1;"/>
<path id="Vector_11" d="M91.7617 16.0797C91.7617 13.3954 93.6943 11.5762 96.1823 11.5762C97.8039 11.5762 98.848 12.397 99.47 13.3953C99.5144 13.4619 99.4922 13.5728 99.4033 13.595L98.4037 14.1275C98.3371 14.1718 98.2482 14.1496 98.226 14.0831C97.8039 13.4175 97.0264 12.9295 96.1823 12.9295C94.5162 12.9295 93.2723 14.2384 93.2723 16.0797C93.2723 17.8989 94.5162 19.23 96.1823 19.23C97.0264 19.23 97.8039 18.742 98.226 18.0764C98.2704 18.0099 98.3371 17.9877 98.4037 18.032L99.4033 18.5423C99.4922 18.5867 99.5144 18.6754 99.47 18.7641C98.8258 19.7625 97.7817 20.6055 96.1823 20.6055C93.6943 20.5833 91.7617 18.7641 91.7617 16.0797Z" fill="#34313F" style="fill:#34313F;fill:color(display-p3 0.2039 0.1922 0.2471);fill-opacity:1;"/>
<path id="Vector_12" d="M72.0137 20.3615V13.7281L69.3702 20.4058C69.3702 20.428 69.3258 20.4502 69.3036 20.4502H68.7482C68.726 20.4502 68.6816 20.428 68.6816 20.4058L66.0159 13.7281V20.3615C66.0159 20.428 65.9715 20.4724 65.9048 20.4724H64.572C64.5054 20.4724 64.4609 20.428 64.4609 20.3615V11.8424C64.4609 11.7758 64.5054 11.7314 64.572 11.7314H66.4824C66.5713 11.7314 66.6379 11.7758 66.6823 11.8646L69.0148 17.8545L71.3251 11.8646C71.3473 11.7758 71.4361 11.7314 71.525 11.7314H73.4354C73.502 11.7314 73.5464 11.7758 73.5464 11.8424V20.3615C73.5464 20.428 73.502 20.4724 73.4354 20.4724H72.1025C72.0581 20.4724 72.0137 20.428 72.0137 20.3615Z" fill="#34313F" style="fill:#34313F;fill:color(display-p3 0.2039 0.1922 0.2471);fill-opacity:1;"/>
</g>
</svg>
