<svg width="40" height="40" viewBox="0 0 40 40" fill="none" xmlns="http://www.w3.org/2000/svg">
<g id="Frame">
<path id="Vector" d="M20 1.59961C18.3672 1.59961 17.0062 2.46502 15.0156 3.44805C13.0251 4.43108 10.3728 5.61524 6.23281 6.50117L5.6 6.63711V7.28398C5.6 16.8951 9.09161 23.3852 12.5953 27.4293C16.099 31.4734 19.6641 33.1262 19.6641 33.1262L20 33.2809L20.3359 33.1262C20.3359 33.1262 23.901 31.4734 27.4047 27.4293C30.9084 23.3852 34.4 16.8951 34.4 7.28398V6.63711L33.7672 6.50117C29.6272 5.61524 26.9749 4.43108 24.9844 3.44805C22.9938 2.46502 21.6328 1.59961 20 1.59961ZM20 3.19961C21.0118 3.19961 22.2358 3.87459 24.2766 4.88242C26.1883 5.8265 28.8991 6.97035 32.7469 7.86836C32.5996 16.7401 29.4157 22.6638 26.1953 26.3809C23.1717 29.8708 20.471 31.2406 20 31.4715C19.529 31.2406 16.8283 29.8708 13.8047 26.3809C10.5843 22.6638 7.40036 16.7401 7.25313 7.86836C11.1009 6.97035 13.8117 5.8265 15.7234 4.88242C17.7642 3.87459 18.9882 3.19961 20 3.19961ZM20 11.6277C19.5358 11.6285 19.0844 11.7795 18.7132 12.0583C18.342 12.337 18.0711 12.7284 17.9409 13.174C17.8108 13.6195 17.8284 14.0953 17.9911 14.53C18.1539 14.9647 18.453 15.335 18.8438 15.5855L17.8516 20.223H22.1484L21.1563 15.5871C21.4604 15.3929 21.7107 15.1251 21.8841 14.8086C22.0575 14.4921 22.1484 14.1371 22.1484 13.7762C22.1483 13.2064 21.9219 12.66 21.5191 12.2571C21.1162 11.8542 20.5698 11.6278 20 11.6277ZM2.4 15.9996C1.66667 15.9996 1.01485 16.3034 0.601563 16.7684C0.188278 17.2333 0 17.8218 0 18.3996C0 18.9774 0.188278 19.5659 0.601563 20.0309C1.01485 20.4958 1.66667 20.7996 2.4 20.7996C2.59861 20.7996 2.7899 20.7742 2.97344 20.7324L6.62344 24.5512C6.69757 24.6296 6.78695 24.6922 6.88609 24.7349C6.98523 24.7776 7.09205 24.7996 7.2 24.7996H8.74375C8.42375 24.2876 8.11962 23.7516 7.81563 23.1996H7.54375L4.33594 19.8418C4.64682 19.4106 4.8 18.9036 4.8 18.3996C4.8 17.8218 4.61172 17.2333 4.19844 16.7684C3.78515 16.3034 3.13333 15.9996 2.4 15.9996ZM37.6 15.9996C36.8667 15.9996 36.2148 16.3034 35.8016 16.7684C35.3883 17.2333 35.2 17.8218 35.2 18.3996C35.2 18.9036 35.3532 19.4106 35.6641 19.8418L32.4563 23.1996H32.1844C31.8804 23.7516 31.5763 24.2876 31.2563 24.7996H32.8C32.908 24.7996 33.0148 24.7776 33.1139 24.7349C33.2131 24.6922 33.3024 24.6296 33.3766 24.5512L37.0266 20.7324C37.2101 20.7742 37.4014 20.7996 37.6 20.7996C38.3333 20.7996 38.9852 20.4958 39.3984 20.0309C39.8117 19.5659 40 18.9774 40 18.3996C40 17.8218 39.8117 17.2333 39.3984 16.7684C38.9852 16.3034 38.3333 15.9996 37.6 15.9996ZM2.4 17.5996C2.73333 17.5996 2.88151 17.6958 3.00156 17.8309C3.12161 17.9659 3.2 18.1774 3.2 18.3996C3.2 18.6218 3.12161 18.8333 3.00156 18.9684C2.88151 19.1034 2.73333 19.1996 2.4 19.1996C2.06667 19.1996 1.91849 19.1034 1.79844 18.9684C1.67839 18.8333 1.6 18.6218 1.6 18.3996C1.6 18.1774 1.67839 17.9659 1.79844 17.8309C1.91849 17.6958 2.06667 17.5996 2.4 17.5996ZM37.6 17.5996C37.9333 17.5996 38.0815 17.6958 38.2016 17.8309C38.3216 17.9659 38.4 18.1774 38.4 18.3996C38.4 18.6218 38.3216 18.8333 38.2016 18.9684C38.0815 19.1034 37.9333 19.1996 37.6 19.1996C37.2667 19.1996 37.1185 19.1034 36.9984 18.9684C36.8784 18.8333 36.8 18.6218 36.8 18.3996C36.8 18.1774 36.8784 17.9659 36.9984 17.8309C37.1185 17.6958 37.2667 17.5996 37.6 17.5996ZM3.2 25.5996C2.46667 25.5996 1.81485 25.9034 1.40156 26.3684C0.988278 26.8333 0.8 27.4218 0.8 27.9996C0.8 28.5774 0.988278 29.1659 1.40156 29.6309C1.81485 30.0958 2.46667 30.3996 3.2 30.3996C3.93333 30.3996 4.58515 30.0958 4.99844 29.6309C5.21918 29.3825 5.37235 29.098 5.47031 28.7996H11.7047C11.2567 28.3036 10.8162 27.7676 10.3922 27.1996H5.47031C5.37235 26.9012 5.21918 26.6167 4.99844 26.3684C4.58515 25.9034 3.93333 25.5996 3.2 25.5996ZM36.8 25.5996C36.0667 25.5996 35.4148 25.9034 35.0016 26.3684C34.7808 26.6167 34.6276 26.9012 34.5297 27.1996H29.6078C29.1838 27.7676 28.7433 28.3036 28.2953 28.7996H34.5297C34.6276 29.098 34.7808 29.3825 35.0016 29.6309C35.4148 30.0958 36.0667 30.3996 36.8 30.3996C37.5333 30.3996 38.1852 30.0958 38.5984 29.6309C39.0117 29.1659 39.2 28.5774 39.2 27.9996C39.2 27.4218 39.0117 26.8333 38.5984 26.3684C38.1852 25.9034 37.5333 25.5996 36.8 25.5996ZM3.2 27.1996C3.53333 27.1996 3.68151 27.2958 3.80156 27.4309C3.92161 27.5659 4 27.7774 4 27.9996C4 28.2218 3.92161 28.4333 3.80156 28.5684C3.68151 28.7034 3.53333 28.7996 3.2 28.7996C2.86667 28.7996 2.71849 28.7034 2.59844 28.5684C2.47839 28.4333 2.4 28.2218 2.4 27.9996C2.4 27.7774 2.47839 27.5659 2.59844 27.4309C2.71849 27.2958 2.86667 27.1996 3.2 27.1996ZM36.8 27.1996C37.1333 27.1996 37.2815 27.2958 37.4016 27.4309C37.5216 27.5659 37.6 27.7774 37.6 27.9996C37.6 28.2218 37.5216 28.4333 37.4016 28.5684C37.2815 28.7034 37.1333 28.7996 36.8 28.7996C36.4667 28.7996 36.3185 28.7034 36.1984 28.5684C36.0784 28.4333 36 28.2218 36 27.9996C36 27.7774 36.0784 27.5659 36.1984 27.4309C36.3185 27.2958 36.4667 27.1996 36.8 27.1996ZM10.3891 30.3996C10.283 30.4011 10.1782 30.4238 10.0811 30.4665C9.98391 30.5092 9.8963 30.5709 9.82344 30.648L6.17344 34.4668C5.9899 34.4251 5.79861 34.3996 5.6 34.3996C4.86667 34.3996 4.21485 34.7034 3.80156 35.1684C3.38828 35.6333 3.2 36.2218 3.2 36.7996C3.2 37.3774 3.38828 37.9659 3.80156 38.4309C4.21485 38.8958 4.86667 39.1996 5.6 39.1996C6.33333 39.1996 6.98515 38.8958 7.39844 38.4309C7.81172 37.9659 8 37.3774 8 36.7996C8 36.2956 7.84682 35.7886 7.53594 35.3574L10.7438 31.9996H14.9844C14.4164 31.5356 13.8238 30.9996 13.2078 30.3996H10.4C10.3964 30.3996 10.3927 30.3996 10.3891 30.3996ZM26.7922 30.3996C26.1762 30.9996 25.5836 31.5356 25.0156 31.9996H29.2563L32.4641 35.3574C32.1532 35.7886 32 36.2956 32 36.7996C32 37.3774 32.1883 37.9659 32.6016 38.4309C33.0148 38.8958 33.6667 39.1996 34.4 39.1996C35.1333 39.1996 35.7852 38.8958 36.1984 38.4309C36.6117 37.9659 36.8 37.3774 36.8 36.7996C36.8 36.2218 36.6117 35.6333 36.1984 35.1684C35.7852 34.7034 35.1333 34.3996 34.4 34.3996C34.2014 34.3996 34.0101 34.4251 33.8266 34.4668L30.1766 30.648C30.1024 30.5696 30.0131 30.5071 29.9139 30.4643C29.8148 30.4216 29.708 30.3996 29.6 30.3996H26.7922ZM5.6 35.9996C5.93333 35.9996 6.08151 36.0958 6.20156 36.2309C6.32161 36.3659 6.4 36.5774 6.4 36.7996C6.4 37.0218 6.32161 37.2333 6.20156 37.3684C6.08151 37.5034 5.93333 37.5996 5.6 37.5996C5.26667 37.5996 5.11849 37.5034 4.99844 37.3684C4.87839 37.2333 4.8 37.0218 4.8 36.7996C4.8 36.5774 4.87839 36.3659 4.99844 36.2309C5.11849 36.0958 5.26667 35.9996 5.6 35.9996ZM34.4 35.9996C34.7333 35.9996 34.8815 36.0958 35.0016 36.2309C35.1216 36.3659 35.2 36.5774 35.2 36.7996C35.2 37.0218 35.1216 37.2333 35.0016 37.3684C34.8815 37.5034 34.7333 37.5996 34.4 37.5996C34.0667 37.5996 33.9185 37.5034 33.7984 37.3684C33.6784 37.2333 33.6 37.0218 33.6 36.7996C33.6 36.5774 33.6784 36.3659 33.7984 36.2309C33.9185 36.0958 34.0667 35.9996 34.4 35.9996Z" fill="black" style="fill:black;fill-opacity:1;"/>
</g>
</svg>
