<svg width="90" height="24" viewBox="0 0 90 24" fill="none" xmlns="http://www.w3.org/2000/svg">
<g id="calendly_logo.svg">
<g id="Layer 2">
<g id="Logo assets">
<g id="Wordmark">
<path id="Vector" d="M52.4674 8.7902C53.7599 8.7902 54.9839 9.57652 55.2422 11.2755H49.486C49.7269 9.78464 50.8476 8.7902 52.4674 8.7902ZM55.0582 13.7891C54.6186 14.4706 53.7689 14.9949 52.6055 14.9949C51.0025 14.9949 49.7786 14.121 49.486 12.5782H56.7076C56.7424 12.3571 56.76 12.1336 56.7603 11.9098C56.7603 9.51047 55.0735 7.38477 52.4685 7.38477C49.7801 7.38477 47.9531 9.35583 47.9531 11.893C47.9531 14.4617 49.7981 16.4013 52.5718 16.4013C54.2955 16.4013 55.6054 15.6297 56.3634 14.4617L55.0582 13.7891Z" fill="#006BFF" style="fill:#006BFF;fill:color(display-p3 0.0000 0.4196 1.0000);fill-opacity:1;"/>
<path id="Vector_2" d="M47.2413 3.66602H45.7422V16.1786H47.2413V3.66602Z" fill="#006BFF" style="fill:#006BFF;fill:color(display-p3 0.0000 0.4196 1.0000);fill-opacity:1;"/>
<path id="Vector_3" d="M65.1041 10.9168V16.1784H63.6045V11.0023C63.6045 9.59683 62.7948 8.8084 61.4675 8.8084C60.0885 8.8084 58.9684 9.61413 58.9684 11.6366V16.1784H57.4688V7.60951H58.9684V8.84352C59.6062 7.8323 60.554 7.38672 61.7622 7.38672C63.7784 7.38672 65.1057 8.72348 65.1057 10.9179" fill="#006BFF" style="fill:#006BFF;fill:color(display-p3 0.0000 0.4196 1.0000);fill-opacity:1;"/>
<path id="Vector_4" d="M73.368 11.8931C73.368 10.1448 72.0407 8.82485 70.3001 8.82485C68.5764 8.82485 67.2497 10.1448 67.2497 11.8931C67.2497 13.6414 68.5764 14.9614 70.3001 14.9614C72.0396 14.9614 73.368 13.6414 73.368 11.8931ZM74.8671 3.66602V16.1786H73.368V14.704C72.6785 15.7524 71.5758 16.4014 70.1104 16.4014C67.7146 16.4014 65.75 14.4298 65.75 11.8931C65.75 9.35641 67.7146 7.38482 70.1104 7.38482C71.5752 7.38482 72.6785 8.0359 73.368 9.08172V3.66602H74.8671Z" fill="#006BFF" style="fill:#006BFF;fill:color(display-p3 0.0000 0.4196 1.0000);fill-opacity:1;"/>
<path id="Vector_5" d="M77.5773 3.66602H76.0781V16.1786H77.5773V3.66602Z" fill="#006BFF" style="fill:#006BFF;fill:color(display-p3 0.0000 0.4196 1.0000);fill-opacity:1;"/>
<path id="Vector_6" d="M43.0711 11.893C43.0711 10.1448 41.7443 8.8248 40.0032 8.8248C38.2801 8.8248 36.9528 10.1448 36.9528 11.893C36.9528 13.6413 38.2801 14.9613 40.0032 14.9613C41.7428 14.9613 43.0711 13.6413 43.0711 11.893ZM44.5708 7.60913V16.178H43.0711V14.7039C42.3816 15.7523 41.2789 16.4013 39.814 16.4013C37.4182 16.4013 35.4531 14.4297 35.4531 11.893C35.4531 9.35635 37.4182 7.38477 39.814 7.38477C41.2789 7.38477 42.3816 8.03585 43.0711 9.08166V7.60913H44.5708Z" fill="#006BFF" style="fill:#006BFF;fill:color(display-p3 0.0000 0.4196 1.0000);fill-opacity:1;"/>
<path id="Vector_7" d="M33.2302 14.5289C32.4627 14.8106 31.6342 14.8867 30.8278 14.7495C30.0214 14.6123 29.2654 14.2666 28.6357 13.7472C28.0059 13.2278 27.5246 12.5529 27.2398 11.7902C26.9551 11.0274 26.877 10.2036 27.0134 9.40137C27.1498 8.59913 27.4958 7.84665 28.0169 7.21936C28.5379 6.59208 29.2156 6.11205 29.982 5.8274C30.7485 5.54274 31.5767 5.46347 32.3836 5.59754C33.1906 5.7316 33.9479 6.07428 34.5797 6.59122C34.8431 6.80739 35.0815 7.05214 35.2902 7.32094L36.5875 6.37734C35.8317 5.39479 34.7997 4.6575 33.6221 4.25893C32.4445 3.86035 31.1745 3.81843 29.9729 4.13848C28.7714 4.45853 27.6924 5.12614 26.8728 6.0567C26.0532 6.98725 25.5299 8.13884 25.3691 9.36552C25.2083 10.5922 25.4174 11.8387 25.9698 12.9471C26.5222 14.0555 27.393 14.9758 28.472 15.5915C29.5509 16.2071 30.7893 16.4903 32.0303 16.4052C33.2712 16.3201 34.4588 15.8705 35.4426 15.1135L34.5792 13.7557C34.1758 14.0861 33.7199 14.3474 33.2302 14.5289Z" fill="#006BFF" style="fill:#006BFF;fill:color(display-p3 0.0000 0.4196 1.0000);fill-opacity:1;"/>
<path id="Vector_8" d="M84.8169 7.60938V12.4731C84.8169 14.0457 83.8971 15.0418 82.4928 15.0418C81.0886 15.0418 80.0717 14.0457 80.0717 12.4731V7.60938H78.5547V12.3273C78.5547 14.7996 80.1039 16.4047 82.4928 16.4047C84.5591 16.4047 84.8817 15.1047 84.8817 15.0722V16.822C84.8817 18.5556 84.1232 19.5348 82.5413 19.5348C81.9763 19.5376 81.4294 19.336 81.0028 18.9676C80.5761 18.5992 80.2986 18.0891 80.222 17.5323L78.8657 18.0041C79.0598 18.829 79.529 19.5641 80.197 20.0899C80.8649 20.6156 81.6921 20.9009 82.544 20.8994C84.9972 20.8994 86.3392 19.2937 86.3392 16.822V7.60938H84.8169Z" fill="#006BFF" style="fill:#006BFF;fill:color(display-p3 0.0000 0.4196 1.0000);fill-opacity:1;"/>
</g>
<g id="Brand mark">
<path id="Vector_9" d="M16.5265 14.9683C15.888 15.5318 15.0906 16.2331 13.6447 16.2331H12.7802C11.7339 16.2331 10.7823 15.8549 10.1011 15.1693C9.43577 14.4995 9.0695 13.5827 9.0695 12.5876V11.4111C9.0695 10.416 9.43577 9.49921 10.1011 8.82937C10.7823 8.14385 11.7339 7.76623 12.7802 7.76623H13.6447C15.0923 7.76623 15.888 8.46686 16.5265 9.03038C17.1895 9.61134 17.7614 10.1191 19.2867 10.1191C19.5193 10.119 19.7516 10.1006 19.9813 10.0639L19.976 10.0505C19.8846 9.82491 19.7775 9.60594 19.6553 9.39522L18.6359 7.639C18.1762 6.84729 17.5151 6.18986 16.7189 5.73279C15.9228 5.27572 15.0197 5.03512 14.1004 5.03516H12.061C11.1418 5.03512 10.2387 5.27572 9.44251 5.73279C8.64637 6.18986 7.98522 6.84729 7.52553 7.639L6.50615 9.39522C6.04661 10.187 5.80469 11.0851 5.80469 11.9994C5.80469 12.9136 6.04661 13.8117 6.50615 14.6035L7.52553 16.3597C7.98522 17.1514 8.64637 17.8088 9.44251 18.2659C10.2387 18.723 11.1418 18.9636 12.061 18.9635H14.1004C15.0197 18.9636 15.9228 18.723 16.7189 18.2659C17.5151 17.8088 18.1762 17.1514 18.6359 16.3597L19.6553 14.6064C19.7775 14.3957 19.8846 14.1767 19.976 13.9511L19.9813 13.9383C19.7517 13.9004 19.5194 13.8809 19.2867 13.8802C17.7614 13.8802 17.1895 14.385 16.5265 14.9689" fill="#006BFF" style="fill:#006BFF;fill:color(display-p3 0.0000 0.4196 1.0000);fill-opacity:1;"/>
<path id="Vector_10" d="M13.6439 8.83301H12.7793C11.1869 8.83301 10.1406 9.96413 10.1406 11.4119V12.5883C10.1406 14.036 11.1869 15.1672 12.7793 15.1672H13.6439C15.9642 15.1672 15.782 12.8143 19.2858 12.8143C19.6178 12.8139 19.9491 12.8443 20.2754 12.9049C20.3818 12.3063 20.3818 11.6938 20.2754 11.0952C19.9491 11.1556 19.6178 11.186 19.2858 11.1859C15.7808 11.1859 15.9642 8.83301 13.6439 8.83301Z" fill="#006BFF" style="fill:#006BFF;fill:color(display-p3 0.0000 0.4196 1.0000);fill-opacity:1;"/>
<path id="Vector_11" d="M22.2888 13.7647C21.6921 13.33 21.004 13.0358 20.2763 12.9043C20.2763 12.9106 20.2763 12.9159 20.2763 12.9217C20.2136 13.2686 20.1158 13.6082 19.9842 13.9355C20.5853 14.028 21.1556 14.2616 21.6479 14.6169C21.6479 14.6216 21.645 14.6274 21.6432 14.6326C21.0096 16.673 19.6611 18.4197 17.8426 19.5554C16.0241 20.6911 13.8563 21.1405 11.733 20.8219C9.60969 20.5032 7.67174 19.4377 6.2712 17.819C4.87065 16.2002 4.10042 14.1355 4.10042 12C4.10042 9.86449 4.87065 7.79982 6.2712 6.18104C7.67174 4.56227 9.60969 3.49679 11.733 3.17815C13.8563 2.85951 16.0241 3.30886 17.8426 4.44456C19.6611 5.58026 21.0096 7.32698 21.6432 9.3674C21.6432 9.37263 21.6462 9.37844 21.6479 9.38309C21.1557 9.73842 20.5853 9.97184 19.9842 10.064C20.1156 10.3916 20.2135 10.7317 20.2763 11.0789C20.276 11.0843 20.276 11.0897 20.2763 11.0952C21.0039 10.9638 21.692 10.6698 22.2888 10.2353C22.8624 9.81299 22.7514 9.33603 22.6644 9.05369C21.9551 6.76595 20.4441 4.80717 18.406 3.53329C16.3678 2.25941 13.9377 1.75496 11.5573 2.11162C9.17693 2.46827 7.00418 3.66236 5.43389 5.4769C3.86361 7.29143 3 9.606 3 12C3 14.394 3.86361 16.7086 5.43389 18.5231C7.00418 20.3376 9.17693 21.5317 11.5573 21.8884C13.9377 22.245 16.3678 21.7406 18.406 20.4667C20.4441 19.1928 21.9551 17.234 22.6644 14.9463C22.7514 14.664 22.8624 14.187 22.2888 13.7647Z" fill="#006BFF" style="fill:#006BFF;fill:color(display-p3 0.0000 0.4196 1.0000);fill-opacity:1;"/>
<path id="Vector_12" d="M19.9821 10.0649C19.7525 10.1028 19.5202 10.1222 19.2875 10.123C17.7622 10.123 17.1903 9.61813 16.5279 9.03427C15.8888 8.47074 15.0931 7.76953 13.6456 7.76953H12.781C11.7341 7.76953 10.7831 8.14773 10.102 8.83326C9.43659 9.5031 9.07031 10.4198 9.07031 11.415V12.5915C9.07031 13.5866 9.43659 14.5034 10.102 15.1732C10.7831 15.8587 11.7341 16.2364 12.781 16.2364H13.6456C15.0931 16.2364 15.8888 15.5357 16.5279 14.9722C17.1903 14.3913 17.7622 13.8835 19.2875 13.8835C19.5201 13.8836 19.7524 13.902 19.9821 13.9387C20.1139 13.6116 20.2118 13.2719 20.2742 12.9249C20.2745 12.9191 20.2745 12.9133 20.2742 12.9075C19.9478 12.8473 19.6165 12.8172 19.2846 12.8174C15.7795 12.8174 15.963 15.1709 13.6426 15.1709H12.7781C11.1856 15.1709 10.1393 14.0392 10.1393 12.5915V11.4127C10.1393 9.96496 11.1856 8.83384 12.7781 8.83384H13.6426C15.963 8.83384 15.7807 11.1861 19.2846 11.1861C19.6165 11.1867 19.9478 11.1565 20.2742 11.0961C20.2742 11.0909 20.2742 11.0856 20.2742 11.0798C20.2114 10.7326 20.1135 10.3926 19.9821 10.0649Z" fill="#0AE8F0" style="fill:#0AE8F0;fill:color(display-p3 0.0392 0.9098 0.9412);fill-opacity:1;"/>
<path id="Vector_13" d="M19.9821 10.0649C19.7525 10.1028 19.5202 10.1222 19.2875 10.123C17.7622 10.123 17.1903 9.61813 16.5279 9.03427C15.8888 8.47074 15.0931 7.76953 13.6456 7.76953H12.781C11.7341 7.76953 10.7831 8.14773 10.102 8.83326C9.43659 9.5031 9.07031 10.4198 9.07031 11.415V12.5915C9.07031 13.5866 9.43659 14.5034 10.102 15.1732C10.7831 15.8587 11.7341 16.2364 12.781 16.2364H13.6456C15.0931 16.2364 15.8888 15.5357 16.5279 14.9722C17.1903 14.3913 17.7622 13.8835 19.2875 13.8835C19.5201 13.8836 19.7524 13.902 19.9821 13.9387C20.1139 13.6116 20.2118 13.2719 20.2742 12.9249C20.2745 12.9191 20.2745 12.9133 20.2742 12.9075C19.9478 12.8473 19.6165 12.8172 19.2846 12.8174C15.7795 12.8174 15.963 15.1709 13.6426 15.1709H12.7781C11.1856 15.1709 10.1393 14.0392 10.1393 12.5915V11.4127C10.1393 9.96496 11.1856 8.83384 12.7781 8.83384H13.6426C15.963 8.83384 15.7807 11.1861 19.2846 11.1861C19.6165 11.1867 19.9478 11.1565 20.2742 11.0961C20.2742 11.0909 20.2742 11.0856 20.2742 11.0798C20.2114 10.7326 20.1135 10.3926 19.9821 10.0649Z" fill="#0AE8F0" style="fill:#0AE8F0;fill:color(display-p3 0.0392 0.9098 0.9412);fill-opacity:1;"/>
</g>
</g>
</g>
</g>
</svg>
