<svg width="40" height="40" viewBox="0 0 40 40" fill="none" xmlns="http://www.w3.org/2000/svg">
<g id="Frame">
<path id="Vector" d="M8.79844 2.40039C8.58627 2.40041 8.3828 2.4847 8.23278 2.63473C8.08275 2.78475 7.99846 2.98822 7.99844 3.20039V6.40039H7.19844C6.98627 6.40041 6.7828 6.4847 6.63278 6.63473C6.48275 6.78475 6.39846 6.98822 6.39844 7.20039V10.4004H5.59844C5.38627 10.4004 5.1828 10.4847 5.03278 10.6347C4.88275 10.7848 4.79846 10.9882 4.79844 11.2004V23.2004H3.19844C2.98627 23.2004 2.7828 23.2847 2.63278 23.4347C2.48275 23.5848 2.39846 23.7882 2.39844 24.0004V36.8004C2.39846 37.0126 2.48275 37.216 2.63278 37.3661C2.7828 37.5161 2.98627 37.6004 3.19844 37.6004H36.7984C37.0106 37.6004 37.2141 37.5161 37.3641 37.3661C37.5141 37.216 37.5984 37.0126 37.5984 36.8004V24.0004C37.5984 23.7882 37.5141 23.5848 37.3641 23.4347C37.2141 23.2847 37.0106 23.2004 36.7984 23.2004H35.1984V11.2004C35.1984 10.9882 35.1141 10.7848 34.9641 10.6347C34.8141 10.4847 34.6106 10.4004 34.3984 10.4004H33.5984V7.20039C33.5984 6.98822 33.5141 6.78475 33.3641 6.63473C33.2141 6.4847 33.0106 6.40041 32.7984 6.40039H31.9984V3.20039C31.9984 2.98822 31.9141 2.78475 31.7641 2.63473C31.6141 2.4847 31.4106 2.40041 31.1984 2.40039H8.79844ZM9.59844 4.00039H30.3984V6.40039H9.59844V4.00039ZM7.99844 8.00039H8.66406C8.75046 8.01467 8.83861 8.01467 8.925 8.00039H31.0641C31.1505 8.01467 31.2386 8.01467 31.325 8.00039H31.9984V10.4004H7.99844V8.00039ZM6.39844 12.0004H7.06406C7.15046 12.0147 7.23861 12.0147 7.325 12.0004H32.6641C32.7505 12.0147 32.8386 12.0147 32.925 12.0004H33.5984V23.2004H24.7984C24.5863 23.2004 24.3828 23.2847 24.2328 23.4347C24.0828 23.5848 23.9985 23.7882 23.9984 24.0004C23.9984 26.2193 22.2174 28.0004 19.9984 28.0004C17.7795 28.0004 15.9984 26.2193 15.9984 24.0004C15.9984 23.7882 15.9141 23.5848 15.7641 23.4347C15.6141 23.2847 15.4106 23.2004 15.1984 23.2004H6.39844V12.0004ZM3.99844 24.8004H14.5609C14.966 27.4909 17.1983 29.6004 19.9984 29.6004C22.7985 29.6004 25.0309 27.4909 25.4359 24.8004H35.9984V36.0004H3.99844V24.8004Z" fill="black" style="fill:black;fill-opacity:1;"/>
</g>
</svg>
