<svg width="141" height="24" viewBox="0 0 141 24" fill="none" xmlns="http://www.w3.org/2000/svg">
<path fill-rule="evenodd" clip-rule="evenodd" d="M23.0836 23.4568L31.5855 0.455972H38.331L46.7266 23.4568H40.5798L38.9622 18.7448H30.6022L28.9854 23.4568H23.0836ZM37.7688 14.6328L34.9222 6.44559L32.0779 14.6328H37.7688Z" fill="#6B7280"/>
<path d="M64.7405 0.445225L59.948 7.61004L55.1888 0.445225H48.4369L56.2735 11.8108L48.1919 23.4596H54.6995L59.7022 15.9068L64.6366 23.4596H71.3885L63.4107 11.7052L71.2497 0.445225H64.7405Z" fill="#6B7280"/>
<path d="M72.8537 4.89178V0.443775H92.8304V4.89178H85.727V23.4598H79.9556V4.89178H72.8537Z" fill="#6B7280"/>
<path d="M134.874 0.444457V13.6813L126.513 0.444457H119.55V23.4597H124.938V7.75167L134.629 23.4597H140.263V0.444457H134.874Z" fill="#6B7280"/>
<path fill-rule="evenodd" clip-rule="evenodd" d="M93.8039 12C93.8039 18.6168 99.1395 24 105.698 24C112.256 24 117.592 18.6168 117.592 12C117.592 5.3832 112.256 0 105.698 0C99.1395 0 93.8039 5.38319 93.8039 12ZM99.7406 12C99.7406 8.68559 102.413 5.98958 105.698 5.98958C108.982 5.98958 111.655 8.68559 111.655 12C111.655 15.3144 108.982 18.0104 105.698 18.0104C102.413 18.0104 99.7406 15.3144 99.7406 12Z" fill="#6B7280"/>
<path d="M16.7069 16.1622C15.623 17.3014 14.1021 18.0102 12.4187 18.0102C9.1312 18.0102 6.45742 15.3134 6.45742 12.0014C6.45742 8.68944 9.1312 5.99184 12.4187 5.99184C14.0775 5.99184 15.5833 6.68063 16.6625 7.79022L21.5391 4.31342C19.3609 1.68063 16.0781 0.0022176 12.4187 0.0022176C5.85874 0.0022176 0.521484 5.38224 0.521484 12.0014C0.521484 18.6198 5.85874 23.9998 12.4187 23.9998C16.1225 23.9998 19.4354 22.2814 21.6184 19.5942L16.7069 16.1622Z" fill="#6B7280"/>
</svg>
