<svg width="158" height="28" viewBox="0 0 158 28" fill="none" xmlns="http://www.w3.org/2000/svg">
<path d="M39.461 7.69252L42.6405 16.7182H36.2815L39.461 7.69252ZM35.7687 1.12842L26.3328 26.5643H32.8969L34.743 21.3335H44.0763L45.9225 26.5643H52.7943L43.2558 1.12842H35.7687Z" fill="#D52128" style="fill:#D52128;fill:color(display-p3 0.8353 0.1294 0.1569);fill-opacity:1;"/>
<path d="M72.6888 1.02588L67.3555 9.02588L62.0222 1.02588H54.535L63.2529 13.6413L54.2273 26.5643H61.5093L67.0478 18.2566L72.5863 26.5643H80.0735L71.1504 13.5387L79.9709 1.02588H72.6888Z" fill="#D52128" style="fill:#D52128;fill:color(display-p3 0.8353 0.1294 0.1569);fill-opacity:1;"/>
<path d="M81.7156 1.02588V5.94896H89.613V26.4618H96.0746V5.94896H103.972V1.02588H81.7156Z" fill="#D52128" style="fill:#D52128;fill:color(display-p3 0.8353 0.1294 0.1569);fill-opacity:1;"/>
<path d="M150.945 1.02588V15.6925L141.612 1.02588H133.817V26.4618H139.868V9.12844L150.638 26.4618H156.894V1.02588H150.945Z" fill="#D52128" style="fill:#D52128;fill:color(display-p3 0.8353 0.1294 0.1569);fill-opacity:1;"/>
<path d="M118.435 7.17982C114.742 7.17982 111.768 10.1542 111.768 13.8465C111.768 17.5388 114.742 20.5132 118.435 20.5132C122.127 20.5132 125.101 17.5388 125.101 13.8465C124.999 10.1542 122.024 7.17982 118.435 7.17982ZM118.435 27.0773C111.153 27.0773 105.204 21.1285 105.204 13.8465C105.204 6.56444 111.153 0.615723 118.435 0.615723C125.717 0.615723 131.665 6.56444 131.665 13.8465C131.665 21.1285 125.717 27.0773 118.435 27.0773Z" fill="#D52128" style="fill:#D52128;fill:color(display-p3 0.8353 0.1294 0.1569);fill-opacity:1;"/>
<path d="M19.1536 18.4619C17.9228 19.6926 16.2818 20.5132 14.3331 20.5132C10.6408 20.5132 7.6664 17.5388 7.6664 13.8465C7.6664 10.1542 10.6408 7.17982 14.3331 7.17982C16.1792 7.17982 17.8202 7.89777 19.051 9.12854L24.4869 5.33367C22.0254 2.46188 18.4356 0.615723 14.3331 0.615723C7.05101 0.615723 1.10229 6.56444 1.10229 13.8465C1.10229 21.1285 7.05101 27.0773 14.3331 27.0773C18.4356 27.0773 22.1279 25.1285 24.5895 22.2567L19.1536 18.4619Z" fill="#D52128" style="fill:#D52128;fill:color(display-p3 0.8353 0.1294 0.1569);fill-opacity:1;"/>
</svg>
