<svg width="40" height="40" viewBox="0 0 40 40" fill="none" xmlns="http://www.w3.org/2000/svg">
<g id="Frame">
<path id="Vector" d="M5.60313 3.2002C4.28715 3.2002 3.20312 4.28422 3.20312 5.6002V34.4986C3.20312 35.8146 4.28715 36.8986 5.60313 36.8986L25.0891 36.9002C29.8194 36.9002 33.5328 36.9018 33.5328 36.9018C33.6899 36.9017 33.8435 36.8555 33.9745 36.7687C34.1054 36.682 34.208 36.5586 34.2693 36.414C34.3306 36.2693 34.348 36.1099 34.3193 35.9554C34.2905 35.801 34.217 35.6584 34.1078 35.5455L29.1406 30.4064C29.0332 30.2949 28.8957 30.2169 28.7448 30.1819C28.5939 30.147 28.4362 30.1566 28.2906 30.2096C27.7906 30.3917 27.2346 30.4532 26.6391 30.3533C25.3377 30.1339 24.2524 29.0347 24.0453 27.7299C23.6951 25.5197 25.5143 23.6965 27.7234 24.0408C29.0314 24.2447 30.134 25.3311 30.3547 26.6346C30.4556 27.2289 30.3942 27.788 30.2125 28.2908C30.161 28.4338 30.1512 28.5885 30.1845 28.7368C30.2177 28.8852 30.2924 29.0209 30.4 29.1283C30.3577 29.086 30.4862 29.2177 30.6281 29.3643C30.77 29.5108 30.9685 29.7153 31.2047 29.9596C31.6771 30.4481 32.3 31.0928 32.9203 31.7346C34.161 33.018 35.3922 34.2908 35.3922 34.2908C35.5029 34.4052 35.6452 34.484 35.801 34.5171C35.9567 34.5501 36.1188 34.5359 36.2664 34.4764C36.4141 34.4168 36.5406 34.3146 36.6298 34.1827C36.719 34.0508 36.7668 33.8953 36.7672 33.7361L36.7656 5.60176C36.7656 4.28619 35.6821 3.20176 34.3656 3.20176L23.9672 3.2002C23.8618 3.20022 23.7574 3.22107 23.66 3.26156C23.5627 3.30205 23.4743 3.36138 23.4 3.43613L15.9984 10.8736C15.8911 10.9812 15.8167 11.117 15.7837 11.2654C15.7508 11.4137 15.7608 11.5683 15.8125 11.7111C15.9943 12.212 16.0551 12.7704 15.9547 13.3658C15.7346 14.6679 14.6338 15.7529 13.3281 15.958C11.1194 16.3056 9.29942 14.4877 9.64375 12.2799C9.84761 10.9728 10.9343 9.86931 12.2375 9.64863C12.8318 9.54773 13.3905 9.60933 13.8922 9.79082C14.0347 9.84241 14.1889 9.85247 14.3369 9.81983C14.4849 9.78719 14.6206 9.71319 14.7281 9.60644C14.8011 9.53426 15.0742 9.25737 15.5469 8.78144C16.0195 8.30552 16.642 7.67823 17.2625 7.05332C18.5034 5.80349 19.7344 4.56426 19.7344 4.56426C19.8458 4.45219 19.9215 4.30965 19.9519 4.15461C19.9824 3.99958 19.9663 3.83899 19.9056 3.69309C19.845 3.5472 19.7425 3.42253 19.6111 3.33482C19.4796 3.2471 19.3252 3.20026 19.1672 3.2002H5.60313ZM5.60313 4.8002H17.2453C16.801 5.24769 16.6878 5.36147 16.1266 5.92676C15.5061 6.55164 14.8835 7.17906 14.4109 7.65488C14.0753 7.99286 13.9603 8.10783 13.8359 8.23301C13.2349 8.09681 12.6255 7.95928 11.9703 8.07051C9.96634 8.40983 8.37544 10.0265 8.0625 12.033C7.56043 15.2524 10.3565 18.046 13.5766 17.5393C15.5813 17.2243 17.1945 15.6334 17.5328 13.6314C17.6434 12.9761 17.5058 12.3662 17.3688 11.7643L24.3 4.8002L34.3656 4.80176C34.8172 4.80176 35.1656 5.15092 35.1656 5.60176L35.1672 31.7564C34.7272 31.3012 34.6207 31.1915 34.0703 30.6221C33.4499 29.9803 32.8273 29.3358 32.3547 28.8471C32.1184 28.6027 31.9204 28.3971 31.7781 28.2502C31.7728 28.2447 31.7738 28.246 31.7688 28.2408C31.9064 27.6374 32.0445 27.0253 31.9328 26.3674C31.5935 24.3637 29.9775 22.7725 27.9703 22.4596C24.7491 21.9575 21.9551 24.7581 22.4656 27.9799C22.7834 29.9823 24.3724 31.5925 26.3734 31.9299C26.3734 31.9304 26.3734 31.9309 26.3734 31.9314C27.0236 32.0405 27.6307 31.9025 28.2297 31.7674L31.6484 35.3018C30.4654 35.3015 28.7639 35.3002 25.0891 35.3002L5.60313 35.2986C5.1511 35.2986 4.80313 34.9507 4.80313 34.4986V5.6002C4.80313 5.14817 5.1511 4.8002 5.60313 4.8002ZM27.2031 8.0002C24.5618 8.0002 22.4031 10.1589 22.4031 12.8002C22.4031 13.1767 22.5092 13.5253 22.5922 13.8799L13.8828 22.5893C13.5285 22.5058 13.181 22.4002 12.8031 22.4002C10.1618 22.4002 8.00313 24.5589 8.00313 27.2002C8.00313 29.8415 10.1618 32.0002 12.8031 32.0002C15.4444 32.0002 17.6031 29.8415 17.6031 27.2002C17.6031 26.8228 17.4969 26.4756 17.4141 26.1221L26.1234 17.4127C26.4775 17.4952 26.8245 17.6002 27.2031 17.6002C29.8444 17.6002 32.0031 15.4415 32.0031 12.8002C32.0031 10.1589 29.8444 8.0002 27.2031 8.0002ZM27.2031 9.60019C28.9794 9.60019 30.4031 11.0239 30.4031 12.8002C30.4031 14.5765 28.9794 16.0002 27.2031 16.0002C26.8184 16.0002 26.4512 15.9335 26.1078 15.8111C25.9655 15.7606 25.8117 15.7514 25.6643 15.7845C25.5169 15.8177 25.382 15.8919 25.275 15.9986L16 25.2736C15.8924 25.381 15.8177 25.5168 15.7845 25.6651C15.7512 25.8134 15.761 25.9681 15.8125 26.1111C15.9352 26.4506 16.0031 26.8154 16.0031 27.2002C16.0031 28.9765 14.5794 30.4002 12.8031 30.4002C11.0268 30.4002 9.60313 28.9765 9.60313 27.2002C9.60313 25.4239 11.0268 24.0002 12.8031 24.0002C13.1879 24.0002 13.5535 24.0677 13.8922 24.1908C14.035 24.2425 14.1897 24.2525 14.338 24.2196C14.4863 24.1867 14.6221 24.1122 14.7297 24.0049L24.0063 14.7283C24.1138 14.6209 24.1886 14.4852 24.2218 14.3368C24.255 14.1885 24.2453 14.0338 24.1938 13.8908C24.0703 13.5493 24.0031 13.1839 24.0031 12.8002C24.0031 11.0239 25.4268 9.60019 27.2031 9.60019ZM12.8031 11.2002C12.3788 11.2002 11.9718 11.3688 11.6718 11.6688C11.3717 11.9689 11.2031 12.3758 11.2031 12.8002C11.2031 13.2245 11.3717 13.6315 11.6718 13.9316C11.9718 14.2316 12.3788 14.4002 12.8031 14.4002C13.2275 14.4002 13.6344 14.2316 13.9345 13.9316C14.2346 13.6315 14.4031 13.2245 14.4031 12.8002C14.4031 12.3758 14.2346 11.9689 13.9345 11.6688C13.6344 11.3688 13.2275 11.2002 12.8031 11.2002ZM27.2031 11.2002C26.7788 11.2002 26.3718 11.3688 26.0718 11.6688C25.7717 11.9689 25.6031 12.3758 25.6031 12.8002C25.6031 13.2245 25.7717 13.6315 26.0718 13.9316C26.3718 14.2316 26.7788 14.4002 27.2031 14.4002C27.6275 14.4002 28.0344 14.2316 28.3345 13.9316C28.6346 13.6315 28.8031 13.2245 28.8031 12.8002C28.8031 12.3758 28.6346 11.9689 28.3345 11.6688C28.0344 11.3688 27.6275 11.2002 27.2031 11.2002ZM12.8031 25.6002C12.3788 25.6002 11.9718 25.7688 11.6718 26.0688C11.3717 26.3689 11.2031 26.7758 11.2031 27.2002C11.2031 27.6245 11.3717 28.0315 11.6718 28.3316C11.9718 28.6316 12.3788 28.8002 12.8031 28.8002C13.2275 28.8002 13.6344 28.6316 13.9345 28.3316C14.2346 28.0315 14.4031 27.6245 14.4031 27.2002C14.4031 26.7758 14.2346 26.3689 13.9345 26.0688C13.6344 25.7688 13.2275 25.6002 12.8031 25.6002ZM27.2031 25.6002C26.7788 25.6002 26.3718 25.7688 26.0718 26.0688C25.7717 26.3689 25.6031 26.7758 25.6031 27.2002C25.6031 27.6245 25.7717 28.0315 26.0718 28.3316C26.3718 28.6316 26.7788 28.8002 27.2031 28.8002C27.6275 28.8002 28.0344 28.6316 28.3345 28.3316C28.6346 28.0315 28.8031 27.6245 28.8031 27.2002C28.8031 26.7758 28.6346 26.3689 28.3345 26.0688C28.0344 25.7688 27.6275 25.6002 27.2031 25.6002Z" fill="black" style="fill:black;fill-opacity:1;"/>
</g>
</svg>
