<svg width="40" height="40" viewBox="0 0 40 40" fill="none" xmlns="http://www.w3.org/2000/svg">
<g id="Frame">
<path id="Vector" d="M32.8016 1.59961C29.7182 1.59961 27.2016 4.11629 27.2016 7.19961C27.2016 8.674 27.781 10.0148 28.7188 11.0168L22.0219 19.1996H12.7375C12.3462 16.4936 10.0126 14.3996 7.20156 14.3996C4.11824 14.3996 1.60156 16.9163 1.60156 19.9996C1.60156 23.0829 4.11824 25.5996 7.20156 25.5996C10.0126 25.5996 12.3462 23.5056 12.7375 20.7996H22.0031L28.4297 29.3121C27.6629 30.2705 27.2016 31.4822 27.2016 32.7996C27.2016 35.8829 29.7182 38.3996 32.8016 38.3996C35.8849 38.3996 38.4016 35.8829 38.4016 32.7996C38.4016 29.7163 35.8849 27.1996 32.8016 27.1996C31.6138 27.1996 30.5128 27.5766 29.6047 28.2121L23.4188 20.0199L29.9656 12.0168C30.7991 12.5101 31.7667 12.7996 32.8016 12.7996C35.8849 12.7996 38.4016 10.2829 38.4016 7.19961C38.4016 4.11629 35.8849 1.59961 32.8016 1.59961ZM32.8016 3.19961C35.0202 3.19961 36.8016 4.98099 36.8016 7.19961C36.8016 9.41822 35.0202 11.1996 32.8016 11.1996C30.5829 11.1996 28.8016 9.41822 28.8016 7.19961C28.8016 4.98099 30.5829 3.19961 32.8016 3.19961ZM7.20156 15.9996C9.42018 15.9996 11.2016 17.781 11.2016 19.9996C11.2016 22.2182 9.42018 23.9996 7.20156 23.9996C4.98295 23.9996 3.20156 22.2182 3.20156 19.9996C3.20156 17.781 4.98295 15.9996 7.20156 15.9996ZM32.8016 28.7996C35.0202 28.7996 36.8016 30.581 36.8016 32.7996C36.8016 35.0182 35.0202 36.7996 32.8016 36.7996C30.5829 36.7996 28.8016 35.0182 28.8016 32.7996C28.8016 30.581 30.5829 28.7996 32.8016 28.7996Z" fill="black" style="fill:black;fill-opacity:1;"/>
</g>
</svg>
