<svg width="40" height="40" viewBox="0 0 40 40" fill="none" xmlns="http://www.w3.org/2000/svg">
<g id="Frame">
<path id="Vector" d="M20 0C15.4844 0 11.3844 0.809375 8.35 2.175C6.83437 2.85625 5.58437 3.68125 4.675 4.65C3.76562 5.61875 3.2 6.76562 3.2 8V15.85C3.19375 15.9 3.19375 15.95 3.2 16V23.85C3.19375 23.9 3.19375 23.95 3.2 24V31.2C3.2 32.4344 3.76562 33.5813 4.675 34.55C5.58437 35.5188 6.83437 36.3438 8.35 37.025C11.3844 38.3906 15.4844 39.2 20 39.2C24.5156 39.2 28.6156 38.3906 31.65 37.025C33.1656 36.3438 34.4156 35.5188 35.325 34.55C36.2344 33.5813 36.8 32.4344 36.8 31.2V8C36.8 6.76562 36.2344 5.61875 35.325 4.65C34.4156 3.68125 33.1656 2.85625 31.65 2.175C28.6156 0.809375 24.5156 0 20 0ZM20 1.6C24.3219 1.6 28.2187 2.40938 30.975 3.65C32.3531 4.26875 33.4406 4.99375 34.15 5.75C34.8594 6.50625 35.2 7.24688 35.2 8C35.2 8.75312 34.8594 9.49375 34.15 10.25C33.4406 11.0063 32.3531 11.7313 30.975 12.35C28.2187 13.5906 24.3219 14.4 20 14.4C15.6781 14.4 11.7812 13.5906 9.025 12.35C7.64687 11.7313 6.55937 11.0063 5.85 10.25C5.14062 9.49375 4.8 8.75312 4.8 8C4.8 7.24688 5.14062 6.50625 5.85 5.75C6.55937 4.99375 7.64687 4.26875 9.025 3.65C11.7812 2.40938 15.6781 1.6 20 1.6ZM4.8 11.475C5.69687 12.3906 6.89687 13.1719 8.35 13.825C11.3844 15.1906 15.4844 16 20 16C24.5156 16 28.6156 15.1906 31.65 13.825C33.1031 13.1719 34.3031 12.3906 35.2 11.475V15.875C35.2 15.9 35.2 15.925 35.2 15.95V16C35.2 16.7531 34.8594 17.4938 34.15 18.25C33.4406 19.0063 32.3531 19.7313 30.975 20.35C28.2187 21.5906 24.3219 22.4 20 22.4C15.6781 22.4 11.7812 21.5906 9.025 20.35C7.64687 19.7313 6.55937 19.0063 5.85 18.25C5.14062 17.4938 4.8 16.7531 4.8 16C4.80625 15.95 4.80625 15.9 4.8 15.85V11.475ZM4.8 19.475C5.69687 20.3906 6.89687 21.1719 8.35 21.825C11.3844 23.1906 15.4844 24 20 24C24.5156 24 28.6156 23.1906 31.65 21.825C33.1031 21.1719 34.3031 20.3906 35.2 19.475V23.875C35.2 23.9 35.2 23.925 35.2 23.95V24C35.2 24.7531 34.8594 25.4938 34.15 26.25C33.4406 27.0063 32.3531 27.7313 30.975 28.35C28.2187 29.5906 24.3219 30.4 20 30.4C15.6781 30.4 11.7812 29.5906 9.025 28.35C7.64687 27.7313 6.55937 27.0063 5.85 26.25C5.14062 25.4938 4.8 24.7531 4.8 24C4.80625 23.95 4.80625 23.9 4.8 23.85V19.475ZM4.8 27.475C5.69687 28.3906 6.89687 29.1719 8.35 29.825C11.3844 31.1906 15.4844 32 20 32C24.5156 32 28.6156 31.1906 31.65 29.825C33.1031 29.1719 34.3031 28.3906 35.2 27.475V31.2C35.2 31.9531 34.8594 32.6938 34.15 33.45C33.4406 34.2063 32.3531 34.9313 30.975 35.55C28.2187 36.7906 24.3219 37.6 20 37.6C15.6781 37.6 11.7812 36.7906 9.025 35.55C7.64687 34.9313 6.55937 34.2063 5.85 33.45C5.14062 32.6938 4.8 31.9531 4.8 31.2V27.475Z" fill="black" style="fill:black;fill-opacity:1;"/>
</g>
</svg>
