<svg width="159" height="32" viewBox="0 0 159 32" fill="none" xmlns="http://www.w3.org/2000/svg">
<g clip-path="url(#clip0_2957_1880)">
<path d="M0.00132643 15.9966C-0.0320437 18.578 0.564807 21.1174 1.72597 23.399C2.31672 24.5599 3.71387 25.0985 4.80815 24.3922C7.23537 22.8258 8.89586 19.6537 8.89586 15.9966C8.89586 12.3412 7.24135 9.17699 4.82309 7.60896C3.73059 6.90055 2.33233 7.43502 1.73882 8.59411C0.571397 10.874 -0.0300379 13.4138 0.00132643 15.9966Z" fill="#2780F1" style="fill:#2780F1;fill:color(display-p3 0.1539 0.5021 0.9459);fill-opacity:1;"/>
<g style="mix-blend-mode:overlay" opacity="0.1">
<path d="M4.1631 10.0658C3.08438 8.84205 1.24598 9.48922 0.760796 11.0468C0.263311 12.6439 0.0078125 14.3122 0.0078125 15.9961C0.0078125 17.6808 0.263595 19.3501 0.761626 20.9479C1.24673 22.5043 3.08375 23.1525 4.1626 21.9305C5.45524 20.4662 6.26847 18.3534 6.26847 15.9961C6.26847 13.6409 5.45369 11.5298 4.1631 10.0658Z" fill="#2780F1" style="fill:#2780F1;fill:color(display-p3 0.1539 0.5021 0.9459);fill-opacity:1;"/>
</g>
<g style="mix-blend-mode:multiply" opacity="0.2">
<path d="M8.69404 13.824C8.42217 12.3789 7.47201 13.282 7.6164 14.7453C7.65686 15.1554 7.6777 15.5731 7.6777 15.9971C7.6777 16.4056 7.6584 16.8084 7.6209 17.2041C7.48203 18.6688 8.43599 19.5718 8.70236 18.1249C8.82822 17.4412 8.89474 16.7289 8.89474 15.9971C8.89474 15.2493 8.82529 14.5216 8.69404 13.824Z" fill="#2780F1" style="fill:#2780F1;fill:color(display-p3 0.1539 0.5021 0.9459);fill-opacity:1;"/>
</g>
<path d="M26.7021 19.0825L26.397 19.0124C25.5485 18.8294 24.6646 18.9056 23.8598 19.2308C23.055 19.556 22.3664 20.1154 21.8831 20.8365C20.6135 22.7238 18.6985 23.5832 16.4678 23.5832C15.5777 23.5907 14.6928 23.446 13.8514 23.1552C12.8603 22.7941 11.7706 22.8134 10.7931 23.2093C9.81547 23.6052 9.01938 24.3496 8.5588 25.2987C8.29361 25.8446 8.14877 26.4412 8.13406 27.0479C8.11936 27.6547 8.23514 28.2575 8.47359 28.8157C8.71203 29.3738 9.06755 29.8742 9.51612 30.2829C9.96468 30.6918 10.4958 30.9994 11.0735 31.1851C12.8197 31.7298 14.6388 32.0042 16.4678 31.9989C21.7288 31.9989 26.404 29.7398 29.2695 25.9371C29.7072 25.3539 29.9911 24.6697 30.0948 23.9477C30.1985 23.2259 30.1188 22.4894 29.863 21.8065C29.6072 21.1235 29.1835 20.5159 28.6311 20.0399C28.0786 19.5638 27.4153 19.2346 26.7021 19.0825Z" fill="#2780F1" style="fill:#2780F1;fill:color(display-p3 0.1539 0.5021 0.9459);fill-opacity:1;"/>
<path d="M8.55639 6.71429C9.0197 7.6651 9.81915 8.41023 10.8001 8.80551C11.7809 9.20075 12.8735 9.21812 13.8664 8.85418C14.7016 8.56239 15.5807 8.41643 16.4654 8.42268C18.6224 8.42268 20.4847 9.25762 21.6878 11.0326C22.1816 11.7868 22.894 12.3719 23.7296 12.7098C24.5651 13.0478 25.4839 13.1222 26.363 12.9234L26.7137 12.8358C27.4186 12.6676 28.0701 12.3256 28.609 11.8411C29.1479 11.3565 29.557 10.7448 29.7989 10.0616C30.0409 9.37841 30.1081 8.64558 29.9944 7.92979C29.8807 7.214 29.5896 6.53807 29.1478 5.96359C26.2367 2.21355 21.579 0 16.4549 0C14.6267 0.0032437 12.8097 0.287194 11.0676 0.841918C10.491 1.02855 9.96107 1.33665 9.51356 1.74545C9.06605 2.15424 8.71136 2.65423 8.47338 3.21173C8.2354 3.76923 8.11968 4.37126 8.134 4.97727C8.14832 5.58329 8.29235 6.17919 8.55639 6.72481V6.71429Z" fill="#2780F1" style="fill:#2780F1;fill:color(display-p3 0.1539 0.5021 0.9459);fill-opacity:1;"/>
<g style="mix-blend-mode:multiply" opacity="0.5">
<g style="mix-blend-mode:multiply" opacity="0.5">
<path d="M26.6338 19.0838L26.3953 19.0312C25.5485 18.8465 24.666 18.9199 23.8613 19.242C23.0568 19.564 22.3671 20.1199 21.8815 20.8378C20.6118 22.7251 18.6968 23.5845 16.4662 23.5845C15.576 23.592 14.6911 23.4473 13.8497 23.1566C13.1004 22.887 12.2909 22.8312 11.5118 22.9954C10.7326 23.1596 10.0144 23.5372 9.4375 24.0862C10.7828 25.252 12.3987 26.062 14.1375 26.4424C15.8764 26.8229 17.6828 26.7616 19.3919 26.2641C21.1009 25.7666 22.6582 24.8489 23.9214 23.5946C25.1845 22.3403 26.1136 20.7896 26.6233 19.0838H26.6338Z" fill="#2780F1" style="fill:#2780F1;fill:color(display-p3 0.1539 0.5021 0.9459);fill-opacity:1;"/>
</g>
<g style="mix-blend-mode:multiply" opacity="0.5">
<path d="M9.46094 7.94946C10.0406 8.49159 10.7587 8.863 11.5361 9.02275C12.3134 9.1824 13.1197 9.12427 13.8661 8.85452C14.7013 8.56274 15.5804 8.41679 16.465 8.42303C18.6221 8.42303 20.4844 9.25791 21.6874 11.033C22.1812 11.7871 22.8936 12.3723 23.7292 12.7101C24.5648 13.0481 25.4836 13.1227 26.3627 12.9238L26.6012 12.8677C26.0772 11.1775 25.1407 9.64431 23.8763 8.40662C22.6118 7.16893 21.0591 6.26566 19.3582 5.77832C17.6574 5.29098 15.862 5.23492 14.1341 5.61519C12.4062 5.99546 10.8002 6.8001 9.46094 7.95648V7.94946Z" fill="#2780F1" style="fill:#2780F1;fill:color(display-p3 0.1539 0.5021 0.9459);fill-opacity:1;"/>
</g>
</g>
<g style="mix-blend-mode:overlay" opacity="0.3">
<g style="mix-blend-mode:overlay" opacity="0.3">
<path d="M16.4273 30.814C13.5528 30.8175 10.7402 29.9797 8.33594 28.404C8.53458 29.0527 8.88807 29.6435 9.36591 30.1251C9.84374 30.6066 10.4316 30.9646 11.0786 31.1683C12.8247 31.713 14.6439 31.9874 16.4729 31.9822C21.7339 31.9822 26.4091 29.723 29.2745 25.9204C29.6853 25.3769 29.9595 24.7427 30.0743 24.0712C30.189 23.3998 30.1409 22.7106 29.9339 22.0615C28.7678 24.6689 26.8718 26.8829 24.475 28.436C22.0782 29.9892 19.2832 30.8151 16.4273 30.814Z" fill="#2780F1" style="fill:#2780F1;fill:color(display-p3 0.1539 0.5021 0.9459);fill-opacity:1;"/>
</g>
<g style="mix-blend-mode:overlay" opacity="0.3">
<path d="M16.4292 1.22078C19.2627 1.22084 22.0366 2.0348 24.421 3.56585C26.8054 5.09692 28.7001 7.28068 29.8797 9.85749C30.0865 9.20011 30.1307 8.50232 30.0086 7.82409C29.8863 7.14586 29.6015 6.50743 29.1782 5.96359C26.2673 2.21355 21.6095 0 16.4853 0C14.6477 0.000368602 12.8211 0.28434 11.07 0.841918C10.4166 1.04802 9.82397 1.41186 9.34441 1.9013C8.86485 2.39073 8.51314 2.99073 8.32031 3.64832C10.7269 2.06141 13.5468 1.21723 16.4292 1.22078Z" fill="#2780F1" style="fill:#2780F1;fill:color(display-p3 0.1539 0.5021 0.9459);fill-opacity:1;"/>
</g>
</g>
<path d="M59.6915 3.04987C60.3824 3.40646 60.7279 3.97478 60.7279 4.75482C60.7279 5.22284 60.5607 5.67972 60.2264 6.12546C59.8698 6.59348 59.4129 6.82749 58.8558 6.82749C58.4769 6.82749 58.098 6.7272 57.7191 6.52662C56.6271 6.01402 55.4459 5.75772 54.1755 5.75772C52.6154 5.75772 51.2559 6.09203 50.097 6.76063C48.9381 7.40695 48.0466 8.33186 47.4226 9.53534C46.7986 10.7165 46.4866 12.076 46.4866 13.6138C46.4866 16.2437 47.1886 18.2384 48.5927 19.5979C50.019 20.9574 51.88 21.6371 54.1755 21.6371C55.535 21.6371 56.7162 21.3808 57.7191 20.8682C58.1203 20.6899 58.4769 20.6008 58.7889 20.6008C59.3684 20.6008 59.8587 20.8459 60.2598 21.3362C60.5941 21.7597 60.7613 22.2166 60.7613 22.7069C60.7613 23.0635 60.6721 23.3866 60.4938 23.6763C60.3155 23.9661 60.0592 24.1889 59.7249 24.345C57.9866 25.2141 56.1368 25.6487 54.1755 25.6487C51.9914 25.6487 49.9856 25.1919 48.1581 24.2781C46.3305 23.342 44.8708 21.9714 43.7787 20.1662C42.6867 18.3609 42.1406 16.1768 42.1406 13.6138C42.1406 11.3406 42.6532 9.30133 43.6784 7.4961C44.7259 5.69086 46.1634 4.28679 47.9909 3.28388C49.8184 2.25869 51.88 1.74609 54.1755 1.74609C56.159 1.74609 57.9977 2.18069 59.6915 3.04987ZM81.1188 16.3885C81.1188 18.1715 80.7176 19.7761 79.9153 21.2025C79.1129 22.6066 78.0097 23.6986 76.6057 24.4787C75.2239 25.2587 73.6972 25.6487 72.0257 25.6487C70.3319 25.6487 68.7941 25.2587 67.4123 24.4787C66.0306 23.6986 64.9385 22.6066 64.1362 21.2025C63.3338 19.7761 62.9327 18.1715 62.9327 16.3885C62.9327 14.6056 63.3338 13.0121 64.1362 11.608C64.9385 10.1817 66.0306 9.07846 67.4123 8.29842C68.7941 7.4961 70.3319 7.09493 72.0257 7.09493C73.6972 7.09493 75.2239 7.4961 76.6057 8.29842C78.0097 9.07846 79.1129 10.1817 79.9153 11.608C80.7176 13.0121 81.1188 14.6056 81.1188 16.3885ZM77.1071 16.3885C77.1071 15.2965 76.8731 14.327 76.4051 13.4801C75.9593 12.6109 75.3465 11.9423 74.5664 11.4743C73.8087 11.0063 72.9618 10.7723 72.0257 10.7723C71.0897 10.7723 70.2316 11.0063 69.4516 11.4743C68.6938 11.9423 68.0809 12.6109 67.6129 13.4801C67.1672 14.327 66.9443 15.2965 66.9443 16.3885C66.9443 17.4806 67.1672 18.4501 67.6129 19.297C68.0809 20.1439 68.6938 20.8013 69.4516 21.2694C70.2316 21.7374 71.0897 21.9714 72.0257 21.9714C72.9618 21.9714 73.8087 21.7374 74.5664 21.2694C75.3465 20.8013 75.9593 20.1439 76.4051 19.297C76.8731 18.4501 77.1071 17.4806 77.1071 16.3885ZM94.0314 7.09493C96.3047 7.09493 97.8759 7.77468 98.7451 9.13418C99.6143 10.4714 100.049 12.3323 100.049 14.717V23.2752C100.049 23.8546 99.8594 24.345 99.4805 24.7461C99.1017 25.125 98.6225 25.3144 98.043 25.3144C97.4636 25.3144 96.9844 25.125 96.6055 24.7461C96.2267 24.345 96.0372 23.8546 96.0372 23.2752V14.717C96.0372 13.4913 95.7809 12.5329 95.2683 11.842C94.7557 11.1289 93.8754 10.7723 92.6273 10.7723C91.3347 10.7723 90.3207 11.1511 89.5852 11.9089C88.8497 12.6444 88.482 13.5804 88.482 14.717V23.2752C88.482 23.8546 88.2926 24.345 87.9137 24.7461C87.5348 25.125 87.0556 25.3144 86.4762 25.3144C85.8967 25.3144 85.4175 25.125 85.0387 24.7461C84.6598 24.345 84.4704 23.8546 84.4704 23.2752V9.46848C84.4704 8.88903 84.6598 8.40986 85.0387 8.03098C85.4175 7.62982 85.8967 7.42924 86.4762 7.42924C87.0556 7.42924 87.5348 7.62982 87.9137 8.03098C88.2926 8.40986 88.482 8.88903 88.482 9.46848V10.0368C89.0837 9.23447 89.8638 8.54358 90.8221 7.96412C91.8027 7.38466 92.8725 7.09493 94.0314 7.09493ZM117.961 7.46267C118.496 7.46267 118.942 7.64096 119.298 7.99755C119.655 8.33186 119.833 8.75531 119.833 9.2679C119.833 9.53534 119.744 9.86965 119.566 10.2708L113.314 24.0441C113.158 24.423 112.924 24.7238 112.612 24.9467C112.323 25.1696 111.988 25.2921 111.609 25.3144L111.309 25.3479C110.93 25.3479 110.573 25.2364 110.239 25.0136C109.927 24.7684 109.682 24.4452 109.504 24.0441L103.286 10.2708C103.13 9.91422 103.052 9.55763 103.052 9.20104C103.052 8.75531 103.241 8.35414 103.62 7.99755C103.999 7.61868 104.467 7.42924 105.024 7.42924C105.447 7.42924 105.837 7.54067 106.194 7.76354C106.551 7.98641 106.818 8.29842 106.996 8.69959L111.609 19.2636L116.189 8.73302C116.368 8.30957 116.613 7.98641 116.925 7.76354C117.237 7.54067 117.582 7.44038 117.961 7.46267ZM140.014 16.3885C140.014 18.1715 139.613 19.7761 138.81 21.2025C138.008 22.6066 136.905 23.6986 135.501 24.4787C134.119 25.2587 132.592 25.6487 130.921 25.6487C129.227 25.6487 127.689 25.2587 126.308 24.4787C124.926 23.6986 123.834 22.6066 123.031 21.2025C122.229 19.7761 121.828 18.1715 121.828 16.3885C121.828 14.6056 122.229 13.0121 123.031 11.608C123.834 10.1817 124.926 9.07846 126.308 8.29842C127.689 7.4961 129.227 7.09493 130.921 7.09493C132.592 7.09493 134.119 7.4961 135.501 8.29842C136.905 9.07846 138.008 10.1817 138.81 11.608C139.613 13.0121 140.014 14.6056 140.014 16.3885ZM136.002 16.3885C136.002 15.2965 135.768 14.327 135.3 13.4801C134.855 12.6109 134.242 11.9423 133.462 11.4743C132.704 11.0063 131.857 10.7723 130.921 10.7723C129.985 10.7723 129.127 11.0063 128.347 11.4743C127.589 11.9423 126.976 12.6109 126.508 13.4801C126.062 14.327 125.84 15.2965 125.84 16.3885C125.84 17.4806 126.062 18.4501 126.508 19.297C126.976 20.1439 127.589 20.8013 128.347 21.2694C129.127 21.7374 129.985 21.9714 130.921 21.9714C131.857 21.9714 132.704 21.7374 133.462 21.2694C134.242 20.8013 134.855 20.1439 135.3 19.297C135.768 18.4501 136.002 17.4806 136.002 16.3885ZM156.637 7.42924C157.216 7.42924 157.695 7.62982 158.074 8.03098C158.453 8.40986 158.642 8.88903 158.642 9.46848V23.6763C158.642 26.5736 157.862 28.6797 156.302 29.9947C154.742 31.3319 152.658 32.0005 150.051 32.0005C149.293 32.0005 148.513 31.9336 147.711 31.7999C146.931 31.6885 146.296 31.5325 145.805 31.3319C144.713 30.8639 144.167 30.2175 144.167 29.3929C144.167 29.2369 144.201 29.0586 144.267 28.858C144.401 28.3677 144.624 27.9888 144.936 27.7214C145.27 27.4763 145.627 27.3537 146.006 27.3537C146.229 27.3537 146.44 27.3871 146.641 27.454C146.797 27.5208 147.064 27.6323 147.443 27.7883C147.844 27.9443 148.257 28.0669 148.68 28.156C149.126 28.2674 149.583 28.3232 150.051 28.3232C151.633 28.3232 152.792 27.9777 153.528 27.2868C154.285 26.6182 154.664 25.4593 154.664 23.8101V23.4758C153.505 24.9244 151.7 25.6487 149.249 25.6487C148.09 25.6487 147.064 25.3813 146.173 24.8464C145.281 24.2892 144.591 23.5315 144.1 22.5731C143.61 21.5925 143.365 20.4782 143.365 19.2301V9.46848C143.365 8.88903 143.554 8.40986 143.933 8.03098C144.312 7.62982 144.791 7.42924 145.371 7.42924C145.95 7.42924 146.429 7.62982 146.808 8.03098C147.187 8.40986 147.376 8.88903 147.376 9.46848V18.0266C147.376 19.4307 147.677 20.4448 148.279 21.0688C148.903 21.6705 149.806 21.9714 150.987 21.9714C152.146 21.9714 153.037 21.6371 153.661 20.9685C154.308 20.2776 154.631 19.297 154.631 18.0266V9.46848C154.631 8.88903 154.82 8.40986 155.199 8.03098C155.578 7.62982 156.057 7.42924 156.637 7.42924Z" fill="black" style="fill:black;fill-opacity:1;"/>
</g>
<defs>
<clipPath id="clip0_2957_1880">
<rect width="158.641" height="32" fill="white" style="fill:white;fill-opacity:1;"/>
</clipPath>
</defs>
</svg>
