<svg width="29" height="31" viewBox="0 0 29 31" fill="none" xmlns="http://www.w3.org/2000/svg">
<g id="Frame 14">
<path id="Vector" d="M0.00124353 15.4968C-0.030041 17.917 0.529507 20.2976 1.6181 22.4366C2.17192 23.525 3.48175 24.0299 4.50764 23.3678C6.78316 21.8992 8.33987 18.9254 8.33987 15.4968C8.33987 12.0699 6.78877 9.10349 4.52165 7.63346C3.49743 6.96933 2.18656 7.4704 1.63014 8.55704C0.535685 10.6945 -0.0281606 13.0755 0.00124353 15.4968Z" fill="#2780F1" style="fill:#2780F1;fill:color(display-p3 0.1539 0.5021 0.9459);fill-opacity:1;"/>
<g id="Group" style="mix-blend-mode:overlay" opacity="0.1">
<path id="Vector_2" d="M3.9034 9.93701C2.8921 8.78973 1.16859 9.39645 0.713734 10.8567C0.247342 12.354 0.0078125 13.918 0.0078125 15.4966C0.0078125 17.0761 0.247609 18.641 0.714512 20.139C1.16929 21.5981 2.89151 22.2057 3.90292 21.0601C5.11478 19.6874 5.87718 17.7066 5.87718 15.4966C5.87718 13.2887 5.11332 11.3095 3.9034 9.93701Z" fill="#2780F1" style="fill:#2780F1;fill:color(display-p3 0.1539 0.5021 0.9459);fill-opacity:1;"/>
</g>
<g id="Group_2" style="mix-blend-mode:multiply" opacity="0.2">
<path id="Vector_3" d="M8.1531 13.4595C7.89822 12.1047 7.00745 12.9513 7.14282 14.3232C7.18074 14.7077 7.20029 15.0992 7.20029 15.4967C7.20029 15.8797 7.1822 16.2574 7.14703 16.6283C7.01684 18.0015 7.91118 18.848 8.1609 17.4915C8.2789 16.8506 8.34126 16.1828 8.34126 15.4967C8.34126 14.7956 8.27615 14.1135 8.1531 13.4595Z" fill="#2780F1" style="fill:#2780F1;fill:color(display-p3 0.1539 0.5021 0.9459);fill-opacity:1;"/>
</g>
<path id="Vector_4" d="M25.0337 18.3909L24.7477 18.3251C23.9522 18.1536 23.1235 18.225 22.3691 18.5299C21.6146 18.8348 20.969 19.3593 20.5159 20.0353C19.3256 21.8046 17.5303 22.6103 15.4391 22.6103C14.6046 22.6173 13.775 22.4817 12.9861 22.2091C12.0571 21.8705 11.0355 21.8886 10.119 22.2597C9.20249 22.631 8.45616 23.3288 8.02437 24.2186C7.77575 24.7303 7.63996 25.2896 7.62617 25.8584C7.61239 26.4273 7.72093 26.9925 7.94448 27.5158C8.16801 28.0389 8.50132 28.5081 8.92185 28.8913C9.34238 29.2746 9.8403 29.563 10.3819 29.737C12.019 30.2477 13.7243 30.505 15.4391 30.5C20.3712 30.5 24.7543 28.3821 27.4407 24.8171C27.851 24.2703 28.1171 23.6288 28.2144 22.952C28.3116 22.2753 28.2369 21.5849 27.997 20.9446C27.7572 20.3043 27.36 19.7347 26.8422 19.2885C26.3242 18.8421 25.7023 18.5334 25.0337 18.3909Z" fill="#2780F1" style="fill:#2780F1;fill:color(display-p3 0.1539 0.5021 0.9459);fill-opacity:1;"/>
<path id="Vector_5" d="M8.02601 6.79465C8.46036 7.68603 9.20985 8.38459 10.1294 8.75517C11.049 9.1257 12.0733 9.14199 13.0042 8.80079C13.7872 8.52724 14.6113 8.39041 15.4407 8.39626C17.4629 8.39626 19.2088 9.17901 20.3367 10.8431C20.7997 11.5501 21.4675 12.0986 22.2509 12.4155C23.0342 12.7323 23.8955 12.8021 24.7197 12.6157L25.0485 12.5336C25.7093 12.3759 26.3201 12.0553 26.8253 11.601C27.3306 11.1468 27.7141 10.5732 27.9409 9.93274C28.1677 9.29226 28.2307 8.60523 28.1241 7.93417C28.0175 7.26313 27.7447 6.62944 27.3305 6.09087C24.6013 2.5752 20.2347 0.5 15.4309 0.5C13.7169 0.503041 12.0135 0.769244 10.3803 1.2893C9.83971 1.46426 9.3429 1.75311 8.92336 2.13636C8.50382 2.5196 8.17129 2.98834 7.94819 3.511C7.72509 4.03365 7.61659 4.59806 7.63002 5.16619C7.64344 5.73433 7.77847 6.29299 8.02601 6.80451V6.79465Z" fill="#2780F1" style="fill:#2780F1;fill:color(display-p3 0.1539 0.5021 0.9459);fill-opacity:1;"/>
<g id="Group_3" style="mix-blend-mode:multiply" opacity="0.5">
<g id="Group_4" style="mix-blend-mode:multiply" opacity="0.5">
<path id="Vector_6" d="M24.9692 18.3912L24.7456 18.3419C23.9518 18.1687 23.1243 18.2375 22.37 18.5395C21.6157 18.8414 20.9691 19.3625 20.5139 20.0356C19.3236 21.8049 17.5283 22.6106 15.437 22.6106C14.6025 22.6176 13.7729 22.482 12.9841 22.2094C12.2817 21.9567 11.5228 21.9044 10.7923 22.0583C10.0618 22.2122 9.38849 22.5663 8.84766 23.081C10.1089 24.1738 11.6237 24.9333 13.2539 25.2899C14.8841 25.6466 16.5777 25.5892 18.1799 25.1228C19.7821 24.6563 21.2421 23.796 22.4263 22.6201C23.6105 21.4442 24.4815 19.9903 24.9593 18.3912H24.9692Z" fill="#2780F1" style="fill:#2780F1;fill:color(display-p3 0.1539 0.5021 0.9459);fill-opacity:1;"/>
</g>
<g id="Group_5" style="mix-blend-mode:multiply" opacity="0.5">
<path id="Vector_7" d="M8.87109 7.95256C9.4145 8.46081 10.0877 8.80901 10.8165 8.95876C11.5452 9.10844 12.3012 9.05394 13.001 8.80105C13.784 8.52751 14.6081 8.39068 15.4374 8.39653C17.4597 8.39653 19.2056 9.17923 20.3334 10.8434C20.7964 11.5503 21.4643 12.099 22.2476 12.4157C23.0309 12.7325 23.8923 12.8024 24.7165 12.616L24.9401 12.5634C24.4489 10.9788 23.5709 9.54148 22.3855 8.38115C21.2 7.22081 19.7444 6.37399 18.1498 5.91712C16.5552 5.46023 14.8721 5.40768 13.2522 5.76418C11.6323 6.12068 10.1266 6.87503 8.87109 7.95914V7.95256Z" fill="#2780F1" style="fill:#2780F1;fill:color(display-p3 0.1539 0.5021 0.9459);fill-opacity:1;"/>
</g>
</g>
<g id="Group_6" style="mix-blend-mode:overlay" opacity="0.3">
<g id="Group_7" style="mix-blend-mode:overlay" opacity="0.3">
<path id="Vector_8" d="M15.402 29.3881C12.7073 29.3913 10.0704 28.6059 7.81641 27.1287C8.00263 27.7369 8.33403 28.2907 8.782 28.7422C9.22997 29.1936 9.78106 29.5293 10.3877 29.7202C12.0246 30.2309 13.7301 30.4882 15.4448 30.4832C20.377 30.4832 24.76 28.3652 27.4464 24.8003C27.8314 24.2908 28.0885 23.6963 28.1961 23.0667C28.3037 22.4372 28.2586 21.7911 28.0645 21.1826C26.9712 23.627 25.1938 25.7027 22.9468 27.1587C20.6998 28.6148 18.0794 29.3891 15.402 29.3881Z" fill="#2780F1" style="fill:#2780F1;fill:color(display-p3 0.1539 0.5021 0.9459);fill-opacity:1;"/>
</g>
<g id="Group_8" style="mix-blend-mode:overlay" opacity="0.3">
<path id="Vector_9" d="M15.4029 1.64448C18.0592 1.64454 20.6598 2.40762 22.8952 3.84299C25.1306 5.27836 26.9068 7.32564 28.0127 9.7414C28.2066 9.12511 28.248 8.47092 28.1335 7.83509C28.0189 7.19925 27.7519 6.60072 27.3551 6.09087C24.6261 2.5752 20.2594 0.5 15.4555 0.5C13.7327 0.500346 12.0202 0.766568 10.3786 1.2893C9.76607 1.48252 9.21046 1.82362 8.76087 2.28247C8.31129 2.74131 7.98156 3.30381 7.80078 3.9203C10.0569 2.43257 12.7006 1.64115 15.4029 1.64448Z" fill="#2780F1" style="fill:#2780F1;fill:color(display-p3 0.1539 0.5021 0.9459);fill-opacity:1;"/>
</g>
</g>
</g>
</svg>
