<svg width="17" height="17" viewBox="0 0 17 17" fill="none" xmlns="http://www.w3.org/2000/svg">
<g clip-path="url(#clip0_8000_27731)">
<path d="M13.4583 6.72656H7.45833C6.72195 6.72656 6.125 7.32352 6.125 8.0599V14.0599C6.125 14.7963 6.72195 15.3932 7.45833 15.3932H13.4583C14.1947 15.3932 14.7917 14.7963 14.7917 14.0599V8.0599C14.7917 7.32352 14.1947 6.72656 13.4583 6.72656Z" stroke="#FCFCFC" stroke-width="2" stroke-linecap="round" stroke-linejoin="round"/>
<path d="M3.45801 10.7265H2.79134C2.43772 10.7265 2.09858 10.586 1.84853 10.336C1.59848 10.0859 1.45801 9.74677 1.45801 9.39315V3.39315C1.45801 3.03953 1.59848 2.70039 1.84853 2.45034C2.09858 2.20029 2.43772 2.05981 2.79134 2.05981H8.79134C9.14496 2.05981 9.4841 2.20029 9.73415 2.45034C9.9842 2.70039 10.1247 3.03953 10.1247 3.39315V4.05981" stroke="#FCFCFC" stroke-width="2" stroke-linecap="round" stroke-linejoin="round"/>
</g>
<defs>
<clipPath id="clip0_8000_27731">
<rect width="16" height="16" fill="white" transform="translate(0.125 0.726562)"/>
</clipPath>
</defs>
</svg>
