<svg width="103" height="21" viewBox="0 0 103 21" fill="none" xmlns="http://www.w3.org/2000/svg">
<path d="M74.8112 6.0243C74.8112 2.64236 72.2605 0.222656 68.9887 0.222656H61.394V20.5645H63.5145V11.8573H68.9978C72.3453 11.8573 74.8112 9.36549 74.8112 6.0243ZM68.8918 9.96105H63.5055V2.12519H68.8918C69.8937 2.12519 70.8545 2.53698 71.563 3.26997C72.2714 4.00296 72.6694 4.9971 72.6694 6.0337C72.6694 7.0703 72.2714 8.06445 71.563 8.79743C70.8545 9.53042 69.8937 9.94225 68.8918 9.94225V9.96105Z" fill="#6B7280"/>
<path d="M81.6911 0.222656H79.6341L72.4302 20.5645H74.6447L76.7653 14.4682H85.393L87.5136 20.5645H89.719L82.5181 0.222656H81.6911ZM77.4166 12.5876L79.7735 5.80803L81.0731 2.02489L82.3667 5.78609L84.7357 12.5814L77.4166 12.5876Z" fill="#6B7280"/>
<path d="M100.201 0.222656L94.4782 10.0958L88.7678 0.222656H86.3867L93.421 12.3839V20.5645H95.5355V12.3839L102.582 0.222656H100.201Z" fill="#6B7280"/>
<path d="M50.6396 4.48218C49.1855 4.48218 47.8374 5.10904 46.8013 5.55098C45.6102 6.09251 44.2964 6.27817 43.0085 6.08695V11.898C43.0085 12.1142 42.9873 12.3368 42.9873 12.5656V20.3669H47.7102V12.5656C47.7102 10.1866 48.9038 9.18053 50.6669 9.18053C52.43 9.18053 53.6236 10.1866 53.6236 12.5656V20.3669H58.3464V12.5656C58.3555 7.47546 55.2443 4.48218 50.6396 4.48218Z" fill="#6B7280"/>
<path d="M40.9848 12.4026C40.9848 7.83277 37.916 4.48218 33.4416 4.48218C29.1671 4.48218 26.0952 7.54128 25.8317 11.8008C25.8317 11.9983 25.8135 12.202 25.8135 12.4026C25.8037 13.6075 26.0412 14.8008 26.5103 15.9037C27.6796 18.5866 30.2183 20.3262 33.4416 20.3262C36.9678 20.3262 39.664 18.2544 40.5849 15.1451H36.1377C35.5924 15.9695 34.6745 16.2453 33.4416 16.2453C31.8935 16.2453 30.6303 15.4523 30.2849 13.6845H40.9848V12.4026ZM30.3819 10.7884C30.812 9.26516 31.9602 8.56307 33.4506 8.56307C34.9411 8.56307 36.0893 9.23382 36.577 10.7884H30.3819Z" fill="#6B7280"/>
<path d="M26.1438 18.9721C25.235 20.0659 23.9323 20.7837 21.9026 20.7837C19.7154 20.7837 16.6314 19.2165 16.6708 14.1859C16.6708 14.1138 16.6708 9.35597 16.6708 5.37224C16.6712 5.17552 16.634 4.98067 16.5613 4.79888C16.4887 4.6171 16.382 4.45198 16.2474 4.31302C16.1128 4.17407 15.953 4.06403 15.7771 3.98922C15.6013 3.91442 15.4129 3.87634 15.2228 3.87716H4.44112V7.97059H11.6935V11.8195H4.44112V16.5053H13.293V20.3825H3.86474e-06V1.22866C-0.000394135 1.06745 0.0299519 0.907757 0.0892999 0.758707C0.148648 0.609658 0.235835 0.474186 0.345866 0.360053C0.455896 0.245921 0.586609 0.15537 0.730517 0.0935863C0.874425 0.0318023 1.02869 -4.99994e-07 1.1845 0H16.8405V0.0219402C17.9798 0.0649673 19.0586 0.563711 19.8497 1.41317C20.6407 2.26262 21.0824 3.39651 21.0816 4.57612V13.8474C21.0816 14.023 21.0816 14.1859 21.0968 14.3364C21.0968 14.4304 21.0968 14.5244 21.121 14.6091C21.1181 14.6393 21.1181 14.6697 21.121 14.7C21.154 15.0801 21.2813 15.4451 21.4906 15.7594C21.8331 16.3575 22.3629 16.8165 22.9921 17.0605C23.6212 17.3045 24.3121 17.3187 24.9502 17.1009C25.2993 17.7565 25.6984 18.3822 26.1438 18.9721Z" fill="#6B7280"/>
</svg>
