<svg width="40" height="40" viewBox="0 0 40 40" fill="none" xmlns="http://www.w3.org/2000/svg">
<g id="Frame">
<path id="Vector" d="M21.2539 0.799805C18.1133 0.799805 15.5289 3.30606 15.5289 6.3998C15.5289 7.7873 16.0601 8.85918 16.9039 10.0498C17.5914 11.0217 17.5539 11.5467 17.4789 11.6998C17.4039 11.8529 17.1226 12.0498 16.3789 11.9998C14.4351 11.8686 8.2039 11.1498 8.2039 11.1498V11.1748C7.45077 11.0717 6.69765 11.3936 6.3039 11.9248C5.92265 12.4404 5.7789 13.0467 5.7039 13.6748V13.7248C5.70077 13.7436 5.68202 13.7561 5.6789 13.7748H5.7039C5.69452 13.8092 5.35702 15.3654 4.8539 21.9748C4.84765 22.0779 4.83827 21.9967 4.8289 22.0998H4.8539C4.81327 22.4092 4.84765 22.6873 4.8539 22.7248C4.9539 23.2342 5.23515 23.7404 5.7039 23.9748C6.17265 24.2092 6.64765 24.1467 7.0539 24.0248C7.86952 23.7811 8.63827 23.2373 9.4289 22.6748C10.3633 22.0123 11.2414 21.5998 12.2539 21.5998C14.5508 21.5998 16.3789 23.3904 16.3789 25.5998C16.3789 27.8092 14.5508 29.5998 12.2539 29.5998C11.1133 29.5998 10.4664 29.3061 9.3789 28.4498C8.77265 27.9748 8.06327 27.4592 7.3039 27.1748C6.92265 27.0342 6.5164 26.9498 6.0539 27.0498C5.5914 27.1498 5.14452 27.5311 4.9539 27.9998C4.75702 28.4811 4.7664 28.8186 4.8289 29.2248C4.83202 29.2654 4.82577 29.2342 4.8289 29.2748C5.30077 34.1717 5.53827 34.6498 5.7039 35.3748C5.82265 35.8936 6.03515 36.4217 6.4289 36.8498C6.82265 37.2779 7.44452 37.5998 8.1289 37.5998H33.7539C34.6445 37.5998 35.4508 37.3061 36.0039 36.7498C36.557 36.1936 36.8039 35.4217 36.8039 34.5998V13.8998C36.8039 13.1311 36.5195 12.4748 36.0789 12.0248C35.6383 11.5748 35.0945 11.3279 34.5789 11.1748C34.482 11.1467 34.3789 11.1404 34.2789 11.1498C34.2789 11.1498 28.257 11.7467 26.0789 11.9998C25.4445 12.0717 25.2258 11.9311 25.1289 11.7248C25.032 11.5186 24.9914 10.9342 25.5789 9.9998C26.0226 9.29356 26.3633 8.77793 26.6039 8.2248C26.8445 7.67168 26.9539 7.09043 26.9539 6.3998C26.9539 3.30606 24.3945 0.799805 21.2539 0.799805ZM21.2539 2.3998C23.5508 2.3998 25.3539 4.19043 25.3539 6.3998C25.3539 6.93106 25.2914 7.22793 25.1289 7.5998C24.9664 7.97168 24.6758 8.4373 24.2289 9.1498C23.4789 10.3436 23.2414 11.4748 23.6789 12.3998C24.1164 13.3248 25.1883 13.7217 26.2539 13.5998C28.3226 13.3592 33.9133 12.8061 34.2289 12.7748C34.5414 12.8811 34.8164 12.9842 34.9539 13.1248C35.1101 13.2842 35.2039 13.4592 35.2039 13.8998V34.5998C35.2039 35.1029 35.0633 35.4123 34.8539 35.6248C34.6445 35.8373 34.3258 35.9998 33.7539 35.9998H8.1289C7.90702 35.9998 7.78202 35.9436 7.6289 35.7748C7.47577 35.6061 7.32265 35.3186 7.2539 35.0248C7.04765 34.1311 6.90702 34.0498 6.4289 29.0748C6.42265 29.0592 6.41327 29.0404 6.4039 29.0248C6.38827 28.9373 6.46952 28.4998 6.4289 28.5998C6.45702 28.5998 6.56327 28.6029 6.7539 28.6748C7.18827 28.8373 7.8289 29.2904 8.3789 29.7248C9.6039 30.6873 10.782 31.1998 12.2539 31.1998C15.3945 31.1998 17.9789 28.6936 17.9789 25.5998C17.9789 22.5061 15.3945 19.9998 12.2539 19.9998C10.7945 19.9998 9.5664 20.6186 8.5039 21.3748C7.74452 21.9154 6.99765 22.3811 6.6039 22.4998C6.5289 22.5217 6.4914 22.5217 6.4539 22.5248C6.45077 22.5029 6.44452 22.4967 6.4289 22.4248C6.41952 22.3748 6.4289 22.3373 6.4289 22.3248C6.43202 22.2904 6.43202 22.2592 6.4289 22.2248C6.94765 15.3061 7.2539 14.0498 7.2539 14.0498C7.26327 14.0186 7.27265 13.9842 7.2789 13.9498C7.33515 13.4311 7.46327 13.0342 7.5789 12.8748C7.69452 12.7154 7.67265 12.6998 7.9789 12.7498C7.99452 12.7498 8.01327 12.7498 8.0289 12.7498C8.0289 12.7498 14.182 13.4592 16.2789 13.5998C17.3789 13.6748 18.4664 13.3467 18.9289 12.3998C19.3914 11.4529 19.0539 10.3279 18.2039 9.1248C17.4195 8.01856 17.1289 7.41856 17.1289 6.3998C17.1289 4.19043 18.957 2.3998 21.2539 2.3998Z" fill="black" style="fill:black;fill-opacity:1;"/>
</g>
</svg>
