<svg width="40" height="40" viewBox="0 0 40 40" fill="none" xmlns="http://www.w3.org/2000/svg">
<g id="Frame">
<path id="Vector" d="M4.6501 0C4.26885 0.071875 3.99385 0.409375 4.0001 0.8V35.2C4.0001 35.6406 4.35948 36 4.8001 36H20.6751C22.3564 37.0063 24.3032 37.6 26.4001 37.6C29.2032 37.6 31.7595 36.5563 33.7251 34.85L38.8751 40L40.0001 38.875L34.8501 33.725C36.5564 31.7594 37.6001 29.2031 37.6001 26.4C37.6001 22.6031 35.697 19.2531 32.8001 17.225V0.8C32.8001 0.359375 32.4407 0 32.0001 0H4.8001C4.7751 0 4.7501 0 4.7251 0C4.7001 0 4.6751 0 4.6501 0ZM5.6001 1.6H31.2001V16.3C29.7407 15.6031 28.122 15.2 26.4001 15.2C23.7876 15.2 21.3814 16.0969 19.4751 17.6H11.2001V19.2H17.8251C17.0314 20.1438 16.4001 21.2281 15.9501 22.4H11.2001V24H15.4751C15.3032 24.775 15.2001 25.5719 15.2001 26.4C15.2001 26.6719 15.2064 26.9344 15.2251 27.2H11.2001V28.8H15.4501C15.922 30.9625 17.0251 32.9031 18.5501 34.4H5.6001V1.6ZM11.2001 8V9.6H26.4001V8H11.2001ZM11.2001 12.8V14.4H26.4001V12.8H11.2001ZM26.4001 16.8C28.297 16.8 30.0626 17.3313 31.5501 18.275C31.5751 18.2938 31.6001 18.3094 31.6251 18.325C34.2626 20.0344 36.0001 23.0156 36.0001 26.4C36.0001 31.7125 31.7126 36 26.4001 36C24.472 36 22.6782 35.45 21.1751 34.475C18.5376 32.7656 16.8001 29.7844 16.8001 26.4C16.8001 21.0875 21.0876 16.8 26.4001 16.8ZM20.0001 21.6C19.4407 22.3188 19.0407 23.1188 18.8001 24H30.4001V21.6H20.0001ZM18.5501 28C18.7095 28.8813 19.0501 29.6813 19.4501 30.4H30.4001V28H18.5501Z" fill="black" style="fill:black;fill-opacity:1;"/>
</g>
</svg>
