<svg width="51" height="28" viewBox="0 0 51 28" fill="none" xmlns="http://www.w3.org/2000/svg">
<g id="cwFrK38JncVPnkPT8EYW1pjE 1" clip-path="url(#clip0_3057_7418)">
<path id="Vector" fill-rule="evenodd" clip-rule="evenodd" d="M39.1051 13.9942C39.1051 16.4298 38.4829 18.7201 37.3888 20.7147C33.1878 20.233 28.3759 19.3135 23.3341 17.9625C20.7921 17.2814 18.3556 16.5345 16.0671 15.7456L16.0667 15.7448L16.0368 15.7351C15.9416 15.7022 15.8464 15.6692 15.7514 15.6362C13.138 14.6723 11.4461 12.4382 11.6306 10.2237L11.663 10.2324L11.6356 10.2052C13.2879 4.31728 18.6952 0 25.1109 0C32.8397 0 39.1051 6.2654 39.1051 13.9942ZM11.5938 17.6304C12.7226 16.8485 14.228 16.4907 15.7914 16.7093C18.1081 17.4847 20.5495 18.2209 23.0829 18.8997C27.9174 20.195 32.5661 21.1421 36.7702 21.7365C34.2627 25.505 29.9768 27.9884 25.111 27.9884C18.6398 27.9884 13.1946 23.5962 11.5938 17.6304Z" fill="black" style="fill:black;fill-opacity:1;"/>
<path id="Vector_2" fill-rule="evenodd" clip-rule="evenodd" d="M43.9175 13.7038C42.4442 12.9078 40.7418 12.1039 38.8539 11.3159C38.7658 10.8619 38.6552 10.4125 38.5224 9.96951C40.7468 10.8695 42.7442 11.7973 44.4498 12.7188C46.5766 13.868 48.2781 15.0222 49.4004 16.1195C50.485 17.1799 51.1921 18.3517 50.8869 19.491C50.5816 20.6301 49.3833 21.2913 47.9137 21.6674C46.3933 22.0565 44.3425 22.2054 41.9261 22.1371C40.3636 22.093 38.6348 21.9576 36.7779 21.7323C37.0049 21.3909 37.2168 21.0397 37.4129 20.6798C39.0476 20.866 40.572 20.9789 41.9578 21.018C44.3281 21.085 46.2607 20.9348 47.6362 20.5828C49.0626 20.2178 49.673 19.6955 49.8054 19.2012C49.9379 18.7068 49.6705 17.9492 48.6177 16.92C47.6024 15.9273 46.0039 14.8311 43.9175 13.7038ZM9.03216 3.22878C10.9644 3.28332 13.1511 3.47747 15.5196 3.80859C15.1827 4.12603 14.8618 4.45988 14.5578 4.80893C12.5373 4.549 10.6684 4.39487 9.00046 4.34785C6.6301 4.28089 4.69744 4.43106 3.32201 4.78304C1.89559 5.1481 1.28527 5.67032 1.1528 6.16468C1.02033 6.65904 1.28778 7.41649 2.34055 8.44589C3.35569 9.43857 4.95433 10.5348 7.04072 11.6619L7.14361 11.7174C6.97363 11.8163 6.85463 11.9409 6.79123 12.0922C6.70406 12.3004 6.72652 12.5484 6.84895 12.8289C6.73418 12.7682 6.62072 12.7077 6.50846 12.6471C4.38165 11.4979 2.68012 10.3437 1.55787 9.2464C0.473271 8.18583 -0.233861 7.01419 0.0713651 5.87491C0.376592 4.73562 1.57491 4.07459 3.04425 3.69844C4.56484 3.30947 6.61557 3.16062 9.03203 3.22891L9.03216 3.22878Z" fill="black" style="fill:black;fill-opacity:1;"/>
<path id="Vector_3" d="M5.77629 12.2632C7.62231 13.2984 9.2473 13.9084 9.40581 13.6258C9.56433 13.3431 8.19633 12.2748 6.35032 11.2396C4.5043 10.2044 2.87931 9.59439 2.7208 9.87706C2.56228 10.1597 3.93028 11.2281 5.77629 12.2632Z" fill="black" style="fill:black;fill-opacity:1;"/>
</g>
<defs>
<clipPath id="clip0_3057_7418">
<rect width="50.9811" height="28" fill="white" style="fill:white;fill-opacity:1;"/>
</clipPath>
</defs>
</svg>
