<svg width="851" height="402" viewBox="0 0 851 402" fill="none" xmlns="http://www.w3.org/2000/svg">
<line x1="850" y1="40.5" x2="6.09914e-05" y2="40.4999" stroke="#E7E7E7" stroke-opacity="0.3" style="stroke:#E7E7E7;stroke:color(display-p3 0.9068 0.9068 0.9068);stroke-opacity:0.3;"/>
<line x1="850.5" y1="2.18557e-08" x2="850.5" y2="402" stroke="#E7E7E7" stroke-opacity="0.3" style="stroke:#E7E7E7;stroke:color(display-p3 0.9068 0.9068 0.9068);stroke-opacity:0.3;"/>
<line x1="810.5" y1="2.18557e-08" x2="810.5" y2="402" stroke="#E7E7E7" stroke-opacity="0.3" style="stroke:#E7E7E7;stroke:color(display-p3 0.9068 0.9068 0.9068);stroke-opacity:0.3;"/>
<line x1="770.5" y1="2.18557e-08" x2="770.5" y2="402" stroke="#E7E7E7" stroke-opacity="0.3" style="stroke:#E7E7E7;stroke:color(display-p3 0.9068 0.9068 0.9068);stroke-opacity:0.3;"/>
<line x1="730.5" y1="2.18557e-08" x2="730.5" y2="402" stroke="#E7E7E7" stroke-opacity="0.3" style="stroke:#E7E7E7;stroke:color(display-p3 0.9068 0.9068 0.9068);stroke-opacity:0.3;"/>
<line x1="690.5" y1="2.18557e-08" x2="690.5" y2="402" stroke="#E7E7E7" stroke-opacity="0.3" style="stroke:#E7E7E7;stroke:color(display-p3 0.9068 0.9068 0.9068);stroke-opacity:0.3;"/>
<line x1="650.5" y1="2.18557e-08" x2="650.5" y2="402" stroke="#E7E7E7" stroke-opacity="0.3" style="stroke:#E7E7E7;stroke:color(display-p3 0.9068 0.9068 0.9068);stroke-opacity:0.3;"/>
<line x1="610.5" y1="2.18557e-08" x2="610.5" y2="402" stroke="#E7E7E7" stroke-opacity="0.3" style="stroke:#E7E7E7;stroke:color(display-p3 0.9068 0.9068 0.9068);stroke-opacity:0.3;"/>
<line x1="570.5" y1="2.18557e-08" x2="570.5" y2="402" stroke="#E7E7E7" stroke-opacity="0.3" style="stroke:#E7E7E7;stroke:color(display-p3 0.9068 0.9068 0.9068);stroke-opacity:0.3;"/>
<line x1="530.5" y1="2.18557e-08" x2="530.5" y2="402" stroke="#E7E7E7" stroke-opacity="0.3" style="stroke:#E7E7E7;stroke:color(display-p3 0.9068 0.9068 0.9068);stroke-opacity:0.3;"/>
<line x1="490.5" y1="2.18557e-08" x2="490.5" y2="402" stroke="#E7E7E7" stroke-opacity="0.3" style="stroke:#E7E7E7;stroke:color(display-p3 0.9068 0.9068 0.9068);stroke-opacity:0.3;"/>
<line x1="450.5" y1="2.18557e-08" x2="450.5" y2="402" stroke="#E7E7E7" stroke-opacity="0.3" style="stroke:#E7E7E7;stroke:color(display-p3 0.9068 0.9068 0.9068);stroke-opacity:0.3;"/>
<line x1="410.5" y1="2.18557e-08" x2="410.5" y2="402" stroke="#E7E7E7" stroke-opacity="0.3" style="stroke:#E7E7E7;stroke:color(display-p3 0.9068 0.9068 0.9068);stroke-opacity:0.3;"/>
<line x1="370.5" y1="2.18557e-08" x2="370.5" y2="402" stroke="#E7E7E7" stroke-opacity="0.3" style="stroke:#E7E7E7;stroke:color(display-p3 0.9068 0.9068 0.9068);stroke-opacity:0.3;"/>
<line x1="330.5" y1="2.18557e-08" x2="330.5" y2="402" stroke="#E7E7E7" stroke-opacity="0.3" style="stroke:#E7E7E7;stroke:color(display-p3 0.9068 0.9068 0.9068);stroke-opacity:0.3;"/>
<line x1="290.5" y1="2.18557e-08" x2="290.5" y2="402" stroke="#E7E7E7" stroke-opacity="0.3" style="stroke:#E7E7E7;stroke:color(display-p3 0.9068 0.9068 0.9068);stroke-opacity:0.3;"/>
<line x1="250.5" y1="2.18557e-08" x2="250.5" y2="402" stroke="#E7E7E7" stroke-opacity="0.3" style="stroke:#E7E7E7;stroke:color(display-p3 0.9068 0.9068 0.9068);stroke-opacity:0.3;"/>
<line x1="210.5" y1="2.18557e-08" x2="210.5" y2="402" stroke="#E7E7E7" stroke-opacity="0.3" style="stroke:#E7E7E7;stroke:color(display-p3 0.9068 0.9068 0.9068);stroke-opacity:0.3;"/>
<line x1="170.5" y1="2.18557e-08" x2="170.5" y2="402" stroke="#E7E7E7" stroke-opacity="0.3" style="stroke:#E7E7E7;stroke:color(display-p3 0.9068 0.9068 0.9068);stroke-opacity:0.3;"/>
<line x1="130.5" y1="2.18557e-08" x2="130.5" y2="402" stroke="#E7E7E7" stroke-opacity="0.3" style="stroke:#E7E7E7;stroke:color(display-p3 0.9068 0.9068 0.9068);stroke-opacity:0.3;"/>
<line x1="90.5" y1="2.18557e-08" x2="90.5" y2="402" stroke="#E7E7E7" stroke-opacity="0.3" style="stroke:#E7E7E7;stroke:color(display-p3 0.9068 0.9068 0.9068);stroke-opacity:0.3;"/>
<line x1="50.5" y1="2.18557e-08" x2="50.5" y2="402" stroke="#E7E7E7" stroke-opacity="0.3" style="stroke:#E7E7E7;stroke:color(display-p3 0.9068 0.9068 0.9068);stroke-opacity:0.3;"/>
<line x1="850" y1="80.5" x2="6.09914e-05" y2="80.4999" stroke="#E7E7E7" stroke-opacity="0.3" style="stroke:#E7E7E7;stroke:color(display-p3 0.9068 0.9068 0.9068);stroke-opacity:0.3;"/>
<line x1="850" y1="120.5" x2="6.09914e-05" y2="120.5" stroke="#E7E7E7" stroke-opacity="0.3" style="stroke:#E7E7E7;stroke:color(display-p3 0.9068 0.9068 0.9068);stroke-opacity:0.3;"/>
<line x1="850" y1="160.5" x2="6.09914e-05" y2="160.5" stroke="#E7E7E7" stroke-opacity="0.3" style="stroke:#E7E7E7;stroke:color(display-p3 0.9068 0.9068 0.9068);stroke-opacity:0.3;"/>
<line x1="850" y1="201.5" x2="6.09914e-05" y2="201.5" stroke="#E7E7E7" stroke-opacity="0.3" style="stroke:#E7E7E7;stroke:color(display-p3 0.9068 0.9068 0.9068);stroke-opacity:0.3;"/>
<line x1="850" y1="240.5" x2="6.09914e-05" y2="240.5" stroke="#E7E7E7" stroke-opacity="0.3" style="stroke:#E7E7E7;stroke:color(display-p3 0.9068 0.9068 0.9068);stroke-opacity:0.3;"/>
<line x1="850" y1="280.5" x2="6.09914e-05" y2="280.5" stroke="#E7E7E7" stroke-opacity="0.3" style="stroke:#E7E7E7;stroke:color(display-p3 0.9068 0.9068 0.9068);stroke-opacity:0.3;"/>
<line x1="850" y1="320.5" x2="6.09914e-05" y2="320.5" stroke="#E7E7E7" stroke-opacity="0.3" style="stroke:#E7E7E7;stroke:color(display-p3 0.9068 0.9068 0.9068);stroke-opacity:0.3;"/>
<line x1="850" y1="360.5" x2="6.09914e-05" y2="360.5" stroke="#E7E7E7" stroke-opacity="0.3" style="stroke:#E7E7E7;stroke:color(display-p3 0.9068 0.9068 0.9068);stroke-opacity:0.3;"/>
</svg>
