<svg width="40" height="40" viewBox="0 0 40 40" fill="none" xmlns="http://www.w3.org/2000/svg">
<g id="Frame" clip-path="url(#clip0_3127_4430)">
<path id="Vector" d="M27.2 0C20.1438 0 14.4 5.74063 14.4 12.8C14.4 14.3688 14.7063 15.8594 15.225 17.25L0.225 32.225L0 32.475V37.925L0.225 38.175L1.825 39.775L2.075 40H7.525L7.775 39.775L10.175 37.375L10.4 37.125V35.2H12.325L12.575 34.975L14.975 32.575L15.2 32.325V31.2H16.325L16.575 30.975L18.175 29.375L18.4 29.125V28H19.525L19.775 27.775L22.75 24.775C24.1406 25.2938 25.6313 25.6 27.2 25.6C34.2563 25.6 40 19.8563 40 12.8C40 5.74063 34.2563 0 27.2 0ZM27.2 1.6C33.3906 1.6 38.4 6.60625 38.4 12.8C38.4 18.9906 33.3906 24 27.2 24C25.6625 24 24.2063 23.7094 22.875 23.15C22.8656 23.1406 22.8594 23.1344 22.85 23.125C18.8281 21.425 16 17.4438 16 12.8C16 6.60625 21.0094 1.6 27.2 1.6ZM27.2 4C24.9469 4 22.6906 4.85938 20.975 6.575L20.4 7.15L20.975 7.7L32.3 19.025L32.85 19.6L33.425 19.025C36.8563 15.5969 36.8563 10.0031 33.425 6.575C31.7094 4.85938 29.4531 4 27.2 4ZM27.2 5.6C29.0406 5.6 30.8906 6.29062 32.3 7.7C34.9188 10.3188 35 14.3969 32.75 17.225L22.775 7.25C24.0813 6.2125 25.6188 5.6 27.2 5.6ZM15.9 18.825C17.0969 21.0625 18.9375 22.9031 21.175 24.1L18.85 26.4H16.8V28.45L15.65 29.6H13.6V31.65L11.65 33.6H8.8V36.45L6.85 38.4H2.75L1.95 37.6L15.2 24.35C15.4875 24.1031 15.5656 23.6906 15.3844 23.3594C15.2031 23.025 14.8125 22.8656 14.45 22.975C14.2969 23.0094 14.1594 23.0875 14.05 23.2L1.6 35.675V33.15L15.9 18.825Z" fill="black" style="fill:black;fill-opacity:1;"/>
</g>
<defs>
<clipPath id="clip0_3127_4430">
<rect width="40" height="40" fill="white" style="fill:white;fill-opacity:1;"/>
</clipPath>
</defs>
</svg>
