<svg width="40" height="40" viewBox="0 0 40 40" fill="none" xmlns="http://www.w3.org/2000/svg">
<g id="Frame">
<path id="Vector" d="M19.9848 1.58896C19.7729 1.59228 19.571 1.67953 19.4234 1.83156C19.2757 1.9836 19.1944 2.188 19.1973 2.3999V14.8687L14.963 10.6343C14.8884 10.5576 14.7992 10.4967 14.7008 10.4551C14.6023 10.4135 14.4964 10.3921 14.3895 10.3921C14.2304 10.3921 14.0749 10.4396 13.9428 10.5285C13.8108 10.6174 13.7083 10.7437 13.6485 10.8911C13.5886 11.0386 13.574 11.2005 13.6067 11.3563C13.6393 11.512 13.7177 11.6545 13.8317 11.7655L19.3614 17.2952C19.4053 17.353 19.4568 17.4045 19.5145 17.4483L19.9973 17.9312L20.4833 17.4452C20.5404 17.4017 20.5913 17.3507 20.6348 17.2937L26.163 11.7655C26.2397 11.6918 26.301 11.6035 26.3433 11.5058C26.3855 11.4081 26.4078 11.303 26.4089 11.1965C26.41 11.0901 26.3898 10.9845 26.3496 10.886C26.3093 10.7874 26.2499 10.6979 26.1746 10.6226C26.0993 10.5474 26.0098 10.4879 25.9113 10.4477C25.8127 10.4074 25.7071 10.3873 25.6007 10.3883C25.4943 10.3894 25.3891 10.4117 25.2914 10.454C25.1937 10.4962 25.1054 10.5575 25.0317 10.6343L20.7973 14.8687V2.3999C20.7988 2.29287 20.7788 2.18663 20.7384 2.08748C20.6981 1.98833 20.6383 1.89828 20.5625 1.82266C20.4868 1.74704 20.3966 1.6874 20.2974 1.64726C20.1981 1.60711 20.0919 1.58729 19.9848 1.58896ZM2.39733 16.7999C2.29132 16.7984 2.18607 16.818 2.0877 16.8575C1.98932 16.8971 1.89979 16.9557 1.82429 17.0302C1.74879 17.1046 1.68885 17.1933 1.64793 17.2911C1.60701 17.3889 1.58594 17.4939 1.58594 17.5999C1.58594 17.7059 1.60701 17.8109 1.64793 17.9087C1.68885 18.0065 1.74879 18.0952 1.82429 18.1696C1.89979 18.2441 1.98932 18.3028 2.0877 18.3423C2.18607 18.3818 2.29132 18.4014 2.39733 18.3999H7.19733C8.97363 18.3999 10.3973 19.8236 10.3973 21.5999V27.6687L6.96296 24.2343C6.8884 24.1576 6.79925 24.0967 6.70076 24.0551C6.60227 24.0135 6.49644 23.9921 6.38952 23.9921C6.23037 23.9921 6.07485 24.0396 5.94285 24.1285C5.81084 24.2174 5.70834 24.3437 5.64845 24.4911C5.58857 24.6386 5.57402 24.8005 5.60666 24.9563C5.6393 25.112 5.71766 25.2545 5.83171 25.3655L10.5614 30.0952C10.6053 30.153 10.6568 30.2045 10.7145 30.2483L11.1973 30.7312L11.6833 30.2452C11.739 30.203 11.7889 30.1536 11.8317 30.0983C11.8328 30.0968 11.8338 30.0952 11.8348 30.0937L16.563 25.3655C16.6791 25.2538 16.7589 25.1096 16.7917 24.9518C16.8245 24.794 16.8089 24.6299 16.747 24.4812C16.685 24.3324 16.5795 24.2058 16.4443 24.1179C16.3092 24.0301 16.1507 23.9852 15.9895 23.989C15.7785 23.994 15.578 24.0821 15.4317 24.2343L11.9973 27.6687V21.5999C11.9973 18.9586 9.83863 16.7999 7.19733 16.7999H2.39733ZM32.7973 16.7999C30.156 16.7999 27.9973 18.9586 27.9973 21.5999V27.6687L24.563 24.2343C24.4884 24.1576 24.3992 24.0967 24.3008 24.0551C24.2023 24.0135 24.0964 23.9921 23.9895 23.9921C23.8304 23.9921 23.6749 24.0396 23.5428 24.1285C23.4108 24.2174 23.3083 24.3437 23.2485 24.4911C23.1886 24.6386 23.174 24.8005 23.2067 24.9563C23.2393 25.112 23.3177 25.2545 23.4317 25.3655L28.1614 30.0952C28.2053 30.153 28.2568 30.2045 28.3145 30.2483L28.7973 30.7312L29.2833 30.2452C29.339 30.203 29.3889 30.1536 29.4317 30.0983C29.4328 30.0968 29.4338 30.0952 29.4348 30.0937L34.163 25.3655C34.2397 25.2918 34.301 25.2035 34.3433 25.1058C34.3855 25.0081 34.4078 24.903 34.4089 24.7965C34.41 24.6901 34.3898 24.5845 34.3496 24.486C34.3093 24.3874 34.2499 24.2979 34.1746 24.2226C34.0993 24.1474 34.0098 24.0879 33.9113 24.0477C33.8127 24.0074 33.7071 23.9873 33.6007 23.9883C33.4943 23.9894 33.3891 24.0117 33.2914 24.054C33.1937 24.0962 33.1054 24.1575 33.0317 24.2343L29.5973 27.6687V21.5999C29.5973 19.8236 31.021 18.3999 32.7973 18.3999H37.5973C37.7033 18.4014 37.8086 18.3818 37.907 18.3423C38.0053 18.3028 38.0949 18.2441 38.1704 18.1696C38.2459 18.0952 38.3058 18.0065 38.3467 17.9087C38.3877 17.8109 38.4087 17.7059 38.4087 17.5999C38.4087 17.4939 38.3877 17.3889 38.3467 17.2911C38.3058 17.1933 38.2459 17.1046 38.1704 17.0302C38.0949 16.9557 38.0053 16.8971 37.907 16.8575C37.8086 16.818 37.7033 16.7984 37.5973 16.7999H32.7973ZM2.38483 30.389C2.17293 30.3923 1.971 30.4795 1.82336 30.6316C1.67572 30.7836 1.59443 30.988 1.59733 31.1999V38.3999H38.3973V31.1999C38.3988 31.0939 38.3792 30.9886 38.3397 30.8903C38.3002 30.7919 38.2415 30.7024 38.1671 30.6269C38.0926 30.5514 38.0039 30.4914 37.9061 30.4505C37.8083 30.4096 37.7034 30.3885 37.5973 30.3885C37.4913 30.3885 37.3863 30.4096 37.2885 30.4505C37.1907 30.4914 37.102 30.5514 37.0276 30.6269C36.9532 30.7024 36.8945 30.7919 36.855 30.8903C36.8154 30.9886 36.7958 31.0939 36.7973 31.1999V36.7999H3.19733V31.1999C3.1988 31.0929 3.17877 30.9866 3.13844 30.8875C3.09811 30.7883 3.03829 30.6983 2.96252 30.6227C2.88676 30.547 2.7966 30.4874 2.69737 30.4473C2.59814 30.4071 2.49186 30.3873 2.38483 30.389Z" fill="black" style="fill:black;fill-opacity:1;"/>
</g>
</svg>
