<svg width="88" height="24" viewBox="0 0 88 24" fill="none" xmlns="http://www.w3.org/2000/svg">
<g id="Logo.svg">
<path id="Vector" fill-rule="evenodd" clip-rule="evenodd" d="M6.58276 5.27547C6.47706 5.39163 6.48406 5.56986 6.5951 5.68092L20.3191 19.4049C20.4301 19.5159 20.6084 19.5229 20.7245 19.4172C22.7369 17.5861 24 14.946 24 12.0109C24 6.48205 19.518 2 13.9891 2C11.054 2 8.41387 3.26314 6.58276 5.27547ZM4.86747 7.88005C4.81676 7.99187 4.84233 8.12298 4.92914 8.20979L17.7902 21.0709C17.877 21.1577 18.0081 21.1832 18.12 21.1325C18.4171 20.9978 18.7064 20.8489 18.9872 20.6868C19.154 20.5905 19.1796 20.3628 19.0433 20.2266L5.77343 6.95667C5.63719 6.82042 5.40951 6.84599 5.31317 7.01285C5.15108 7.29359 5.00223 7.58294 4.86747 7.88005ZM4.08723 11.5627C4.02701 11.5025 3.99497 11.4195 4.00064 11.3345C4.02719 10.9366 4.077 10.545 4.14871 10.1611C4.19171 9.93093 4.47298 9.85106 4.63856 10.0166L15.9834 21.3614C16.1489 21.527 16.0691 21.8083 15.8389 21.8513C15.455 21.923 15.0634 21.9728 14.6655 21.9994C14.5805 22.005 14.4975 21.973 14.4373 21.9128L4.08723 11.5627ZM4.78344 14.3563C4.57674 14.1496 4.24318 14.3277 4.31888 14.6101C5.24115 18.05 7.95002 20.7589 11.3899 21.6811C11.6723 21.7568 11.8504 21.4233 11.6437 21.2166L4.78344 14.3563ZM44.3318 7.50903C45.0494 7.50903 45.631 6.92522 45.631 6.20505C45.631 5.48489 45.0494 4.90107 44.3318 4.90107C43.6143 4.90107 43.0327 5.48489 43.0327 6.20505C43.0327 6.92522 43.6143 7.50903 44.3318 7.50903ZM33.2035 18.8811V4.90185H35.5123V16.8359H41.7376V18.8811H33.2035ZM49.6367 13.1768V18.8811H47.4027V8.97367H49.6087V10.6718L49.6367 10.6531C49.861 10.1214 50.2225 9.67733 50.7211 9.3208C51.2195 8.95803 51.8551 8.77664 52.628 8.77664C53.3135 8.77664 53.9365 8.9299 54.4975 9.23637C55.0583 9.5366 55.5069 9.97754 55.8434 10.5592C56.1799 11.1409 56.3482 11.854 56.3482 12.6983V18.8811H54.1142V13.008C54.1142 12.2574 53.9147 11.6882 53.5159 11.3004C53.1234 10.9064 52.5968 10.7094 51.9362 10.7094C51.5124 10.7094 51.1261 10.7969 50.7771 10.972C50.4282 11.1472 50.1509 11.4161 49.9452 11.7789C49.7396 12.1417 49.6367 12.6077 49.6367 13.1768ZM69.8652 18.7123C70.3762 18.9312 70.962 19.0406 71.6224 19.0406C72.1646 19.0406 72.6288 18.9718 73.0151 18.8342C73.4017 18.6904 73.7194 18.4996 73.9687 18.2619C74.2242 18.0243 74.4267 17.7647 74.5763 17.4832H74.6137V18.8811H76.7543V12.0604C76.7543 11.5788 76.6607 11.1378 76.4738 10.7375C76.2869 10.3372 76.0158 9.99007 75.6605 9.6961C75.3116 9.40211 74.8878 9.17695 74.3893 9.02059C73.8909 8.85795 73.3298 8.77664 72.7068 8.77664C71.8531 8.77664 71.1146 8.92363 70.4914 9.2176C69.8744 9.50533 69.3916 9.89311 69.0425 10.381C68.6935 10.8689 68.5035 11.4193 68.4723 12.0322H70.6317C70.6565 11.7445 70.7563 11.4881 70.9308 11.2629C71.1052 11.0377 71.3421 10.8626 71.6412 10.7375C71.9403 10.6062 72.2861 10.5405 72.6788 10.5405C73.0714 10.5405 73.4047 10.6062 73.679 10.7375C73.9593 10.8689 74.1744 11.0471 74.3238 11.2723C74.4735 11.4974 74.5483 11.7601 74.5483 12.0604V12.1354C74.5483 12.3606 74.4703 12.5263 74.3146 12.6327C74.165 12.739 73.9095 12.8172 73.5481 12.8672C73.1928 12.9173 72.7068 12.9767 72.0898 13.0455C71.585 13.1018 71.099 13.1862 70.6317 13.2988C70.1643 13.4114 69.7467 13.5772 69.379 13.7961C69.0177 14.015 68.731 14.3058 68.5191 14.6686C68.3072 15.0314 68.2014 15.4973 68.2014 16.0665C68.2014 16.7233 68.3508 17.2737 68.6499 17.7178C68.949 18.1556 69.3542 18.4871 69.8652 18.7123ZM73.4827 17.0516C73.1212 17.2455 72.6756 17.3425 72.146 17.3425C71.61 17.3425 71.1831 17.2299 70.8653 17.0047C70.5474 16.7733 70.3886 16.4574 70.3886 16.0571C70.3886 15.7444 70.4758 15.4911 70.6503 15.2972C70.8311 15.1033 71.0678 14.9501 71.3607 14.8375C71.6536 14.7249 71.9714 14.6467 72.3141 14.6029C72.5634 14.5654 72.8065 14.5279 73.0434 14.4903C73.28 14.4466 73.5013 14.4059 73.707 14.3684C73.9127 14.3246 74.0871 14.2808 74.2304 14.237C74.38 14.1932 74.4891 14.1463 74.5575 14.0963V15.2034C74.5575 15.5912 74.4673 15.9477 74.2864 16.2729C74.1119 16.5919 73.844 16.8515 73.4827 17.0516ZM78.7034 18.8811V8.97367H80.8532V10.6062H80.8814C81.0621 10.0432 81.3456 9.61479 81.732 9.3208C82.1245 9.02059 82.6387 8.87047 83.2743 8.87047C83.4302 8.87047 83.5704 8.87672 83.6949 8.88924C83.8259 8.89548 83.935 8.90175 84.0222 8.90799V10.9251C83.9412 10.9126 83.7977 10.897 83.5922 10.8782C83.3866 10.8595 83.1685 10.8501 82.9378 10.8501C82.5701 10.8501 82.2337 10.9345 81.9282 11.1034C81.6229 11.2723 81.3798 11.5319 81.1992 11.8821C81.0247 12.2261 80.9375 12.6608 80.9375 13.1862V18.8811H78.7034ZM43.2101 18.8811V8.97367H45.4442V18.8811H43.2101ZM60.064 18.4402C60.7806 18.8843 61.6313 19.1063 62.6159 19.1063C63.3762 19.1063 64.0678 18.9687 64.6911 18.6935C65.3205 18.412 65.8439 18.0274 66.2614 17.5395C66.679 17.0454 66.9501 16.4762 67.0747 15.832H64.9716C64.8779 16.1259 64.7253 16.3855 64.5134 16.6107C64.3079 16.8296 64.0492 17.0016 63.7377 17.1267C63.426 17.2518 63.0647 17.3143 62.6533 17.3143C62.0987 17.3143 61.6219 17.1892 61.2232 16.9391C60.8306 16.6889 60.5315 16.3417 60.3259 15.8976C60.1392 15.4889 60.0372 15.026 60.0199 14.5091H67.2056V13.9086C67.2056 13.1456 67.0934 12.4513 66.8691 11.8258C66.6448 11.1941 66.3269 10.6499 65.9155 10.1933C65.5044 9.73049 65.009 9.37398 64.4294 9.12379C63.856 8.8736 63.2173 8.74851 62.5131 8.74851C61.5971 8.74851 60.787 8.97055 60.0828 9.41464C59.3785 9.85872 58.8271 10.4717 58.4282 11.2535C58.0294 12.0354 57.8299 12.9298 57.8299 13.9368C57.8299 14.9375 58.0232 15.8288 58.4095 16.6107C58.7959 17.3863 59.3475 17.9961 60.064 18.4402ZM64.7659 11.8821C64.5602 11.4568 64.2673 11.1284 63.8872 10.897C63.507 10.6656 63.0585 10.5499 62.5411 10.5499C62.0301 10.5499 61.5845 10.6656 61.2044 10.897C60.8306 11.1284 60.5377 11.4568 60.3259 11.8821C60.1746 12.1901 60.079 12.5404 60.039 12.9329H65.0526C65.0126 12.5404 64.917 12.1901 64.7659 11.8821Z" fill="#222326" style="fill:#222326;fill:color(display-p3 0.1333 0.1373 0.1490);fill-opacity:1;"/>
</g>
</svg>
