<svg width="18" height="19" viewBox="0 0 18 19" fill="none" xmlns="http://www.w3.org/2000/svg">
<path d="M7.49988 13.9975L6.17238 15.2875C5.82428 15.6356 5.35216 15.8312 4.85988 15.8312C4.36759 15.8312 3.89547 15.6356 3.54738 15.2875C3.19928 14.9394 3.00372 14.4673 3.00372 13.975C3.00372 13.4827 3.19928 13.0106 3.54738 12.6625L6.95238 9.25003C7.28659 8.91474 7.73689 8.72074 8.21014 8.70818C8.68338 8.69561 9.14335 8.86544 9.49488 9.18253L9.58488 9.25753C9.7271 9.39677 9.91881 9.47381 10.1178 9.4717C10.3169 9.46959 10.5069 9.3885 10.6461 9.24628C10.7854 9.10406 10.8624 8.91235 10.8603 8.71333C10.8582 8.5143 10.7771 8.32427 10.6349 8.18503C10.5925 8.1303 10.5475 8.07773 10.4999 8.02753C9.85964 7.47052 9.03163 7.17767 8.18355 7.2083C7.33548 7.23894 6.53075 7.59077 5.93238 8.19253L2.48238 11.605C1.89614 12.2431 1.57909 13.083 1.59743 13.9493C1.61577 14.8157 1.96809 15.6414 2.5808 16.2541C3.19351 16.8668 4.01925 17.2191 4.88556 17.2375C5.75188 17.2558 6.59178 16.9388 7.22988 16.3525L8.52738 15.085C8.65549 14.9453 8.72592 14.7622 8.72448 14.5726C8.72305 14.383 8.64987 14.201 8.51966 14.0632C8.38945 13.9254 8.21188 13.842 8.02268 13.8298C7.83347 13.8176 7.64668 13.8775 7.49988 13.9975V13.9975ZM15.5174 3.31753C14.8865 2.69054 14.0331 2.33862 13.1436 2.33862C12.2541 2.33862 11.4008 2.69054 10.7699 3.31753L9.47238 4.58503C9.34426 4.72479 9.27384 4.90789 9.27527 5.09748C9.2767 5.28707 9.34989 5.46908 9.48009 5.6069C9.6103 5.74471 9.78787 5.82809 9.97708 5.84027C10.1663 5.85245 10.3531 5.79251 10.4999 5.67253L11.7974 4.38253C12.1455 4.03444 12.6176 3.83888 13.1099 3.83888C13.6022 3.83888 14.0743 4.03444 14.4224 4.38253C14.7705 4.73063 14.966 5.20275 14.966 5.69503C14.966 6.18732 14.7705 6.65943 14.4224 7.00753L11.0174 10.42C10.6832 10.7553 10.2329 10.9493 9.75962 10.9619C9.28637 10.9745 8.82641 10.8046 8.47488 10.4875L8.38488 10.4125C8.24266 10.2733 8.05095 10.1963 7.85192 10.1984C7.6529 10.2005 7.46287 10.2816 7.32363 10.4238C7.18439 10.566 7.10735 10.7577 7.10946 10.9567C7.11157 11.1558 7.19265 11.3458 7.33488 11.485C7.38936 11.5407 7.44695 11.5933 7.50738 11.6425C8.14838 12.1979 8.97605 12.4896 9.8236 12.459C10.6712 12.4284 11.4756 12.0777 12.0749 11.4775L15.4874 8.06503C16.1184 7.43809 16.4757 6.58695 16.4813 5.69747C16.4869 4.80798 16.1404 3.9524 15.5174 3.31753V3.31753Z" fill="#667085"/>
</svg>
