<svg width="40" height="40" viewBox="0 0 40 40" fill="none" xmlns="http://www.w3.org/2000/svg">
<g id="Frame">
<path id="Vector" d="M19.9969 5.59961C18.5156 5.59961 17.2719 6.62773 16.9125 7.99961H2.39688C2.10938 7.99648 1.84063 8.14648 1.69375 8.39648C1.55 8.64648 1.55 8.95273 1.69375 9.20273C1.84063 9.45273 2.10938 9.60273 2.39688 9.59961H16.9125C17.2719 10.9715 18.5156 11.9996 19.9969 11.9996C21.4781 11.9996 22.7219 10.9715 23.0813 9.59961H37.5969C37.8844 9.60273 38.1531 9.45273 38.3 9.20273C38.4438 8.95273 38.4438 8.64648 38.3 8.39648C38.1531 8.14648 37.8844 7.99648 37.5969 7.99961H23.0813C22.7219 6.62773 21.4781 5.59961 19.9969 5.59961ZM19.9969 7.19961C20.8656 7.19961 21.55 7.86836 21.5875 8.72773C21.5844 8.77461 21.5844 8.82461 21.5875 8.87461C21.55 9.73086 20.8656 10.3996 19.9969 10.3996C19.1281 10.3996 18.4438 9.73086 18.4063 8.87148C18.4094 8.82461 18.4094 8.77461 18.4063 8.72461C18.4438 7.86836 19.1281 7.19961 19.9969 7.19961ZM31.1969 16.7996C29.7156 16.7996 28.4719 17.8277 28.1125 19.1996H2.39688C2.10938 19.1965 1.84063 19.3465 1.69375 19.5965C1.55 19.8465 1.55 20.1527 1.69375 20.4027C1.84063 20.6527 2.10938 20.8027 2.39688 20.7996H28.1125C28.4719 22.1715 29.7156 23.1996 31.1969 23.1996C32.6781 23.1996 33.9219 22.1715 34.2813 20.7996H37.5969C37.8844 20.8027 38.1531 20.6527 38.3 20.4027C38.4438 20.1527 38.4438 19.8465 38.3 19.5965C38.1531 19.3465 37.8844 19.1965 37.5969 19.1996H34.2813C33.9219 17.8277 32.6781 16.7996 31.1969 16.7996ZM31.1969 18.3996C32.0656 18.3996 32.75 19.0684 32.7875 19.9277C32.7844 19.9746 32.7844 20.0246 32.7875 20.0746C32.75 20.9309 32.0656 21.5996 31.1969 21.5996C30.3281 21.5996 29.6438 20.9309 29.6063 20.0715C29.6094 20.0246 29.6094 19.9746 29.6063 19.9246C29.6438 19.0684 30.3281 18.3996 31.1969 18.3996ZM11.1969 27.9996C9.71563 27.9996 8.47188 29.0277 8.1125 30.3996H2.39688C2.10938 30.3965 1.84063 30.5465 1.69375 30.7965C1.55 31.0465 1.55 31.3527 1.69375 31.6027C1.84063 31.8527 2.10938 32.0027 2.39688 31.9996H8.1125C8.47188 33.3715 9.71563 34.3996 11.1969 34.3996C12.6781 34.3996 13.9219 33.3715 14.2813 31.9996H37.5969C37.8844 32.0027 38.1531 31.8527 38.3 31.6027C38.4438 31.3527 38.4438 31.0465 38.3 30.7965C38.1531 30.5465 37.8844 30.3965 37.5969 30.3996H14.2813C13.9219 29.0277 12.6781 27.9996 11.1969 27.9996ZM11.1969 29.5996C12.0656 29.5996 12.75 30.2684 12.7875 31.1277C12.7844 31.1746 12.7844 31.2246 12.7875 31.2746C12.75 32.1309 12.0656 32.7996 11.1969 32.7996C10.3281 32.7996 9.64375 32.1309 9.60625 31.2715C9.60937 31.2246 9.60937 31.1746 9.60625 31.1246C9.64375 30.2684 10.3281 29.5996 11.1969 29.5996Z" fill="black" style="fill:black;fill-opacity:1;"/>
</g>
</svg>
