<svg width="129" height="34" viewBox="0 0 129 34" fill="none" xmlns="http://www.w3.org/2000/svg">
<path d="M20.7411 14.0371L25.8855 4.42631V16.7572C25.9147 16.7537 25.9442 16.7513 25.974 16.7499L25.9918 16.7492L26.0081 16.7488L26.0301 16.7486C26.2159 16.7486 26.3919 16.7905 26.5494 16.8653L33.2021 10.1862C33.0697 9.99145 32.9923 9.75614 32.9923 9.50271C32.9923 8.83136 33.5355 8.28709 34.2056 8.28709C34.8758 8.28709 35.419 8.83136 35.419 9.50271C35.419 10.1741 34.8758 10.7183 34.2056 10.7183C34.0867 10.7183 33.9717 10.7011 33.863 10.6691L33.3602 12.3665L40.9855 9.99347L38.6811 17.6285L38.6796 17.6294L41.4849 16.7902L28.0662 30.2368H22.3618L23.3135 33.9778H18.1689L19.1207 30.2368H14.7287V30.2399C14.7287 30.9114 14.1855 31.4558 13.5155 31.4558C12.8455 31.4558 12.3023 30.9114 12.3023 30.2399C12.3023 29.9287 12.4189 29.6448 12.6108 29.4297L-0.00219727 16.7902L2.84003 17.6403L0.497166 9.99347L8.11808 12.3513L7.27318 9.49933L15.5968 17.8404V4.42631L17.0087 7.06373L20.7439 0L24.4733 7.06373L20.7411 14.0371Z" fill="#6B7280"/>
<path d="M65.5664 17.2075L65.5936 28.6942H69.742L69.6874 9.54967H66.0576L59.0166 21.4467L51.8663 9.54967H48.2092V28.6942H52.3574V17.4537L57.9523 26.6703H59.9444L65.5664 17.2075Z" fill="#6B7280"/>
<path fill-rule="evenodd" clip-rule="evenodd" d="M79.0752 13.7614C81.3496 13.7614 83.0962 14.3039 84.3152 15.3888C85.5343 16.4736 86.1438 18.11 86.1438 20.298V28.6942H82.1593V26.8618C81.3586 28.2293 79.8667 28.913 77.6834 28.913C76.5554 28.913 75.5774 28.7216 74.7496 28.3387C73.9219 27.9558 73.2897 27.427 72.853 26.7524C72.4163 26.0778 72.198 25.312 72.198 24.4551C72.198 23.0876 72.7118 22.0119 73.7399 21.2279C74.7678 20.4438 76.3553 20.0518 78.5022 20.0518H81.8861C81.8861 19.1219 81.6043 18.4063 81.0403 17.9049C80.4762 17.4035 79.6301 17.1528 78.5022 17.1528C77.7199 17.1528 76.9511 17.2758 76.1961 17.522C75.441 17.7682 74.7997 18.1009 74.2721 18.5203L72.7437 15.5392C73.5444 14.9739 74.5041 14.5364 75.6231 14.2264C76.7418 13.9164 77.8927 13.7614 79.0752 13.7614ZM78.7477 26.0413C79.4756 26.0413 80.1214 25.8727 80.6855 25.5354C81.2496 25.1981 81.6498 24.7012 81.8861 24.0449V22.5406H78.9662C77.2196 22.5406 76.3462 23.115 76.3462 24.2637C76.3462 24.8106 76.56 25.2437 76.9876 25.5627C77.4151 25.8818 78.0019 26.0413 78.7477 26.0413Z" fill="#6B7280"/>
<path fill-rule="evenodd" clip-rule="evenodd" d="M101.577 14.705C100.458 14.076 99.2164 13.7614 97.8518 13.7614C95.8322 13.7614 94.2949 14.3996 93.2397 15.6759V13.9804H89.1732V34H93.4306V27.1353C94.5041 28.3205 95.9779 28.913 97.8518 28.913C99.2164 28.913 100.458 28.5985 101.577 27.9695C102.696 27.3404 103.574 26.4562 104.211 25.3166C104.847 24.1771 105.166 22.8506 105.166 21.3373C105.166 19.8239 104.847 18.4975 104.211 17.3579C103.574 16.2184 102.696 15.3341 101.577 14.705ZM99.8032 24.3047C99.1026 25.0431 98.2067 25.4123 97.115 25.4123C96.0233 25.4123 95.1272 25.0431 94.4268 24.3047C93.7262 23.5662 93.376 22.5771 93.376 21.3373C93.376 20.0974 93.7262 19.1083 94.4268 18.3699C95.1272 17.6314 96.0233 17.2622 97.115 17.2622C98.2067 17.2622 99.1026 17.6314 99.8032 18.3699C100.504 19.1083 100.854 20.0974 100.854 21.3373C100.854 22.5771 100.504 23.5662 99.8032 24.3047Z" fill="#6B7280"/>
<path d="M111.443 8.40102H107.185V28.6943H111.443V8.40102Z" fill="#6B7280"/>
<path fill-rule="evenodd" clip-rule="evenodd" d="M128.882 22.5406C128.936 21.8295 128.963 21.4467 128.963 21.392C128.963 19.8604 128.631 18.5157 127.967 17.3579C127.303 16.2002 126.389 15.3113 125.225 14.6914C124.06 14.0714 122.759 13.7614 121.322 13.7614C119.848 13.7614 118.516 14.0852 117.324 14.7323C116.132 15.3797 115.195 16.2822 114.513 17.44C113.83 18.5978 113.489 19.8969 113.489 21.3373C113.489 22.7959 113.835 24.0996 114.527 25.2482C115.218 26.3969 116.2 27.2948 117.474 27.9421C118.747 28.5894 120.212 28.913 121.868 28.913C124.524 28.913 126.544 28.1199 127.926 26.5336L125.661 24.0722C125.152 24.5645 124.601 24.9246 124.01 25.1525C123.419 25.3804 122.741 25.4944 121.977 25.4944C120.867 25.4944 119.939 25.2299 119.193 24.7012C118.447 24.1725 117.974 23.4523 117.774 22.5406H128.882ZM118.92 17.8092C119.575 17.2622 120.385 16.9887 121.349 16.9887C122.295 16.9887 123.096 17.2667 123.751 17.8229C124.406 18.379 124.806 19.1219 124.952 20.0518H117.72C117.865 19.1037 118.265 18.3562 118.92 17.8092Z" fill="#6B7280"/>
</svg>
