<svg width="109" height="28" viewBox="0 0 109 28" fill="none" xmlns="http://www.w3.org/2000/svg">
<g clip-path="url(#clip0_1457_3234)">
<path fill-rule="evenodd" clip-rule="evenodd" d="M21.5054 3.646L14.6841 16.3627L17.2598 20.5324L21.5054 14.6928V3.646Z" fill="#9698EF" style="fill:#9698EF;fill:color(display-p3 0.5882 0.5961 0.9373);fill-opacity:1;"/>
<path fill-rule="evenodd" clip-rule="evenodd" d="M32.066 14.5177L21.6821 20.5317L27.6744 10.1844L33.9678 8.22998L32.066 14.5177Z" fill="#6669E7" style="fill:#6669E7;fill:color(display-p3 0.4000 0.4118 0.9059);fill-opacity:1;"/>
<path fill-rule="evenodd" clip-rule="evenodd" d="M2.48677 14.5274L11.4193 19.1121L6.84266 10.1718L0.553223 8.22998L2.48677 14.5274Z" fill="#6669E7" style="fill:#6669E7;fill:color(display-p3 0.4000 0.4118 0.9059);fill-opacity:1;"/>
<path fill-rule="evenodd" clip-rule="evenodd" d="M0.141113 13.8271L17.2603 18.9375L34.3798 13.8271L23.3056 24.9008H11.2151L0.141113 13.8271Z" fill="#9698EF" style="fill:#9698EF;fill:color(display-p3 0.5882 0.5961 0.9373);fill-opacity:1;"/>
<path fill-rule="evenodd" clip-rule="evenodd" d="M6.14502 7.82422L17.2599 18.9388L28.3752 7.82422L23.3052 24.9021H11.2147L6.14502 7.82422Z" fill="#7E80EB" style="fill:#7E80EB;fill:color(display-p3 0.4941 0.5020 0.9216);fill-opacity:1;"/>
<path fill-rule="evenodd" clip-rule="evenodd" d="M20.3407 5.81771L17.2605 11.5604L14.1802 5.81771L17.2628 0.000488281L20.3407 5.81771Z" fill="#6669E7" style="fill:#6669E7;fill:color(display-p3 0.4000 0.4118 0.9059);fill-opacity:1;"/>
<path fill-rule="evenodd" clip-rule="evenodd" d="M13.0142 3.646L17.2597 11.5607L14.6824 17.4533L13.0142 15.7641V3.646Z" fill="#7E80EB" style="fill:#7E80EB;fill:color(display-p3 0.4941 0.5020 0.9216);fill-opacity:1;"/>
<path fill-rule="evenodd" clip-rule="evenodd" d="M17.2595 18.9565L23.2039 24.901H11.3149L17.2595 18.9565Z" fill="#6669E7" style="fill:#6669E7;fill:color(display-p3 0.4000 0.4118 0.9059);fill-opacity:1;"/>
<path fill-rule="evenodd" clip-rule="evenodd" d="M19.3849 27.9817H15.1392L16.2005 23.8188H18.3235L19.3849 27.9817Z" fill="#6669E7" style="fill:#6669E7;fill:color(display-p3 0.4000 0.4118 0.9059);fill-opacity:1;"/>
<path fill-rule="evenodd" clip-rule="evenodd" d="M11.4717 24.9742L14.823 16.5248C15.6447 16.3332 21.4596 14.9786 21.4596 14.9786C21.4937 14.9707 21.5251 14.953 21.5503 14.9279L28.5055 7.96007C28.5791 7.88595 28.5783 7.76678 28.505 7.69322C28.4314 7.61984 28.3117 7.61984 28.2387 7.69322L21.321 14.6235C20.6928 14.77 14.6414 16.1799 14.6414 16.1799C14.5812 16.1935 14.5316 16.2363 14.5089 16.2939L11.1212 24.8352C11.0829 24.9315 11.1302 25.0415 11.2269 25.0797C11.3237 25.1179 11.4333 25.0706 11.4717 24.9742Z" fill="black" style="fill:black;fill-opacity:1;"/>
<path d="M11.2967 25.9051C11.8496 25.9051 12.2979 25.4568 12.2979 24.9037C12.2979 24.3507 11.8496 23.9023 11.2967 23.9023C10.7437 23.9023 10.2954 24.3507 10.2954 24.9037C10.2954 25.4568 10.7437 25.9051 11.2967 25.9051Z" fill="black" style="fill:black;fill-opacity:1;"/>
<path d="M14.6873 17.3635C15.2402 17.3635 15.6885 16.9153 15.6885 16.3624C15.6885 15.8095 15.2402 15.3613 14.6873 15.3613C14.1343 15.3613 13.686 15.8095 13.686 16.3624C13.686 16.9153 14.1343 17.3635 14.6873 17.3635Z" fill="black" style="fill:black;fill-opacity:1;"/>
<path d="M21.6249 15.7952C22.1779 15.7952 22.6263 15.347 22.6263 14.7941C22.6263 14.2412 22.1779 13.793 21.6249 13.793C21.0719 13.793 20.6235 14.2412 20.6235 14.7941C20.6235 15.347 21.0719 15.7952 21.6249 15.7952Z" fill="black" style="fill:black;fill-opacity:1;"/>
<path d="M28.373 8.82733C28.926 8.82733 29.3743 8.37914 29.3743 7.82626C29.3743 7.27339 28.926 6.8252 28.373 6.8252C27.8199 6.8252 27.3716 7.27339 27.3716 7.82626C27.3716 8.37914 27.8199 8.82733 28.373 8.82733Z" fill="black" style="fill:black;fill-opacity:1;"/>
<path d="M54.2753 23.6313L54.2528 14.1717L49.6131 21.9646H47.969L43.3516 14.3744V23.6313H39.9282V7.86523H42.9464L48.8474 17.6628L54.6583 7.86523H57.6539L57.6989 23.6313H54.2753Z" fill="black" style="fill:black;fill-opacity:1;"/>
<path d="M65.4008 11.333C67.2778 11.333 68.7192 11.7798 69.7253 12.6732C70.7313 13.5666 71.2344 14.9142 71.2344 16.7161V23.6306H67.946V22.1216C67.2852 23.2478 66.0539 23.8108 64.2521 23.8108C63.3212 23.8108 62.5141 23.6532 61.831 23.3378C61.1478 23.0225 60.626 22.5871 60.2656 22.0315C59.9052 21.476 59.7251 20.8453 59.7251 20.1395C59.7251 19.0134 60.1491 18.1275 60.9976 17.4819C61.8459 16.8362 63.1561 16.5134 64.9279 16.5134H67.7206C67.7206 15.7476 67.488 15.1582 67.0225 14.7453C66.557 14.3324 65.8587 14.1259 64.9279 14.1259C64.2822 14.1259 63.6478 14.2273 63.0247 14.43C62.4016 14.6327 61.8722 14.9067 61.4368 15.2521L60.1755 12.7971C60.8362 12.3316 61.6283 11.9712 62.5518 11.716C63.4751 11.4607 64.4249 11.333 65.4008 11.333ZM65.1305 21.4459C65.7312 21.4459 66.2642 21.307 66.7297 21.0292C67.1953 20.7514 67.5255 20.3423 67.7206 19.8017V18.563H65.3108C63.8693 18.563 63.1485 19.0359 63.1485 19.9819C63.1485 20.4324 63.325 20.789 63.6779 21.0517C64.0307 21.3145 64.515 21.4459 65.1305 21.4459Z" fill="black" style="fill:black;fill-opacity:1;"/>
<path d="M80.8992 11.333C82.0253 11.333 83.0501 11.5921 83.9736 12.1101C84.8971 12.6281 85.6215 13.3564 86.1471 14.2948C86.6726 15.2333 86.9353 16.3257 86.9353 17.5719C86.9353 18.8182 86.6726 19.9106 86.1471 20.849C85.6215 21.7875 84.8971 22.5157 83.9736 23.0338C83.0501 23.5518 82.0253 23.8108 80.8992 23.8108C79.3527 23.8108 78.1364 23.3228 77.2504 22.3468V28.0001H73.7368V11.5133H77.0928V12.9097C77.9637 11.8586 79.2324 11.333 80.8992 11.333ZM80.2911 20.9278C81.192 20.9278 81.9314 20.6238 82.5096 20.0157C83.0876 19.4076 83.3767 18.593 83.3767 17.5719C83.3767 16.5509 83.0876 15.7363 82.5096 15.1282C81.9314 14.5201 81.192 14.216 80.2911 14.216C79.3901 14.216 78.6506 14.5201 78.0725 15.1282C77.4944 15.7363 77.2053 16.5509 77.2053 17.5719C77.2053 18.593 77.4944 19.4076 78.0725 20.0157C78.6506 20.6238 79.3901 20.9278 80.2911 20.9278Z" fill="black" style="fill:black;fill-opacity:1;"/>
<path d="M92.1137 6.91895H88.6001V23.631H92.1137V6.91895Z" fill="black" style="fill:black;fill-opacity:1;"/>
<path d="M106.576 17.617C106.576 17.662 106.553 17.9773 106.508 18.563H97.3413C97.5064 19.3137 97.8968 19.9068 98.5125 20.3423C99.128 20.7777 99.8939 20.9954 100.81 20.9954C101.44 20.9954 102 20.9016 102.488 20.7139C102.976 20.5262 103.43 20.2297 103.85 19.8242L105.72 21.8513C104.579 23.1577 102.912 23.8108 100.72 23.8108C99.3533 23.8108 98.1445 23.5443 97.0935 23.0112C96.0424 22.4782 95.2316 21.7387 94.661 20.7927C94.0904 19.8468 93.8052 18.7731 93.8052 17.5719C93.8052 16.3857 94.0866 15.3159 94.6497 14.3624C95.2129 13.4089 95.9862 12.6657 96.9697 12.1326C97.9532 11.5997 99.053 11.333 100.269 11.333C101.455 11.333 102.529 11.5883 103.49 12.0989C104.451 12.6094 105.206 13.3414 105.754 14.2948C106.302 15.2483 106.576 16.3557 106.576 17.617ZM100.292 13.9908C99.496 13.9908 98.8278 14.216 98.2873 14.6664C97.7466 15.1169 97.4163 15.7326 97.2962 16.5134H103.265C103.145 15.7476 102.814 15.1357 102.274 14.6777C101.733 14.2198 101.072 13.9908 100.292 13.9908Z" fill="black" style="fill:black;fill-opacity:1;"/>
</g>
<defs>
<clipPath id="clip0_1457_3234">
<rect width="107.893" height="28" fill="white" style="fill:white;fill-opacity:1;" transform="translate(0.137695)"/>
</clipPath>
</defs>
</svg>
