<svg width="108" height="28" viewBox="0 0 108 28" fill="none" xmlns="http://www.w3.org/2000/svg">
<g id="maple.155883b9 1">
<g id="maple-4021">
<path id="Vector" fill-rule="evenodd" clip-rule="evenodd" d="M21.3681 3.64551L14.5469 16.3622L17.1226 20.5319L21.3681 14.6923V3.64551Z" fill="#9698EF" style="fill:#9698EF;fill:color(display-p3 0.5882 0.5961 0.9373);fill-opacity:1;"/>
<path id="Vector_2" fill-rule="evenodd" clip-rule="evenodd" d="M31.9229 14.5172L21.5391 20.5312L27.5313 10.1839L33.8247 8.22949L31.9229 14.5172Z" fill="#6669E7" style="fill:#6669E7;fill:color(display-p3 0.4000 0.4118 0.9059);fill-opacity:1;"/>
<path id="Vector_3" fill-rule="evenodd" clip-rule="evenodd" d="M2.34761 14.5269L11.2801 19.1116L6.7035 10.1713L0.414062 8.22949L2.34761 14.5269Z" fill="#6669E7" style="fill:#6669E7;fill:color(display-p3 0.4000 0.4118 0.9059);fill-opacity:1;"/>
<path id="Vector_4" fill-rule="evenodd" clip-rule="evenodd" d="M0 13.8262L17.1192 18.9366L34.2387 13.8262L23.1645 24.8998H11.074L0 13.8262Z" fill="#9698EF" style="fill:#9698EF;fill:color(display-p3 0.5882 0.5961 0.9373);fill-opacity:1;"/>
<path id="Vector_5" fill-rule="evenodd" clip-rule="evenodd" d="M6 7.82422L17.1149 18.9388L28.2302 7.82422L23.1602 24.9021H11.0697L6 7.82422Z" fill="#7E80EB" style="fill:#7E80EB;fill:color(display-p3 0.4941 0.5020 0.9216);fill-opacity:1;"/>
<path id="Vector_6" fill-rule="evenodd" clip-rule="evenodd" d="M20.1995 5.81722L17.1194 11.5599L14.0391 5.81722L17.1217 0L20.1995 5.81722Z" fill="#6669E7" style="fill:#6669E7;fill:color(display-p3 0.4000 0.4118 0.9059);fill-opacity:1;"/>
<path id="Vector_7" fill-rule="evenodd" clip-rule="evenodd" d="M12.875 3.64551L17.1205 11.5602L14.5433 17.4528L12.875 15.7636V3.64551Z" fill="#7E80EB" style="fill:#7E80EB;fill:color(display-p3 0.4941 0.5020 0.9216);fill-opacity:1;"/>
<path id="Vector_8" fill-rule="evenodd" clip-rule="evenodd" d="M17.1164 18.9561L23.0609 24.9005H11.1719L17.1164 18.9561Z" fill="#6669E7" style="fill:#6669E7;fill:color(display-p3 0.4000 0.4118 0.9059);fill-opacity:1;"/>
<path id="Vector_9" fill-rule="evenodd" clip-rule="evenodd" d="M19.2458 27.9813H15L16.0614 23.8184H18.1844L19.2458 27.9813Z" fill="#6669E7" style="fill:#6669E7;fill:color(display-p3 0.4000 0.4118 0.9059);fill-opacity:1;"/>
<path id="Vector_10" fill-rule="evenodd" clip-rule="evenodd" d="M11.3325 24.9737L14.6838 16.5243C15.5056 16.3327 21.3205 14.9781 21.3205 14.9781C21.3545 14.9702 21.3859 14.9525 21.4112 14.9274L28.3664 7.95959C28.4399 7.88546 28.4392 7.7663 28.3658 7.69274C28.2923 7.61935 28.1726 7.61935 28.0995 7.69274L21.1818 14.623C20.5537 14.7695 14.5023 16.1794 14.5023 16.1794C14.442 16.193 14.3925 16.2358 14.3697 16.2934L10.9821 24.8347C10.9437 24.931 10.9911 25.041 11.0877 25.0792C11.1845 25.1174 11.2941 25.0701 11.3325 24.9737Z" fill="black" style="fill:black;fill-opacity:1;"/>
<path id="Vector_11" d="M11.1575 25.9051C11.7105 25.9051 12.1587 25.4568 12.1587 24.9037C12.1587 24.3507 11.7105 23.9023 11.1575 23.9023C10.6045 23.9023 10.1562 24.3507 10.1562 24.9037C10.1562 25.4568 10.6045 25.9051 11.1575 25.9051Z" fill="black" style="fill:black;fill-opacity:1;"/>
<path id="Vector_12" d="M14.5481 17.3635C15.1011 17.3635 15.5494 16.9153 15.5494 16.3624C15.5494 15.8095 15.1011 15.3613 14.5481 15.3613C13.9951 15.3613 13.5469 15.8095 13.5469 16.3624C13.5469 16.9153 13.9951 17.3635 14.5481 17.3635Z" fill="black" style="fill:black;fill-opacity:1;"/>
<path id="Vector_13" d="M21.4857 15.7952C22.0388 15.7952 22.4871 15.347 22.4871 14.7941C22.4871 14.2412 22.0388 13.793 21.4857 13.793C20.9327 13.793 20.4844 14.2412 20.4844 14.7941C20.4844 15.347 20.9327 15.7952 21.4857 15.7952Z" fill="black" style="fill:black;fill-opacity:1;"/>
<path id="Vector_14" d="M28.2357 8.82635C28.7888 8.82635 29.2371 8.37816 29.2371 7.82529C29.2371 7.27241 28.7888 6.82422 28.2357 6.82422C27.6827 6.82422 27.2344 7.27241 27.2344 7.82529C27.2344 8.37816 27.6827 8.82635 28.2357 8.82635Z" fill="black" style="fill:black;fill-opacity:1;"/>
</g>
</g>
</svg>
