<svg width="28" height="28" viewBox="0 0 28 28" fill="none" xmlns="http://www.w3.org/2000/svg">
<g id="647dfdadb4fe047c3207afb1_Logo" clip-path="url(#clip0_3057_7449)">
<path id="Vector" d="M25.0262 0H2.97383C1.33143 0 0 1.33143 0 2.97383V25.0262C0 26.6686 1.33143 28 2.97383 28H25.0262C26.6686 28 28 26.6686 28 25.0262V2.97383C28 1.33143 26.6686 0 25.0262 0Z" fill="#5A50FA" style="fill:#5A50FA;fill:color(display-p3 0.3529 0.3137 0.9804);fill-opacity:1;"/>
<path id="Vector_2" d="M22.8645 10.9251L21.0601 15.6543V10.4679L17.9217 9.68374L15.5676 17.0657V9.09427L12.4273 8.31013L10.0731 17.9178V7.72255L6.93475 6.93652L4.59375 13.9992L5.18703 14.003L6.93475 8.68232V21.0638L10.0731 20.2778L12.4273 10.6625V19.6902L15.5676 18.9041L17.9217 11.5203V18.3165L21.0601 17.5324L23.4068 11.0611L22.8645 10.9251Z" fill="white" style="fill:white;fill-opacity:1;"/>
</g>
<defs>
<clipPath id="clip0_3057_7449">
<rect width="28" height="28" fill="white" style="fill:white;fill-opacity:1;"/>
</clipPath>
</defs>
</svg>
