<svg width="171" height="40" viewBox="0 0 171 40" fill="none" xmlns="http://www.w3.org/2000/svg">
<g clip-path="url(#clip0_10016_20803)">
<path d="M35.7517 0H4.24833C1.90204 0 0 1.90204 0 4.24833V35.7517C0 38.098 1.90204 40 4.24833 40H35.7517C38.098 40 40 38.098 40 35.7517V4.24833C40 1.90204 38.098 0 35.7517 0Z" fill="#D1D5DB"/>
<path d="M32.6631 15.607L30.0854 22.363V14.9538L25.602 13.8336L22.2389 24.3793V12.9915L17.7528 11.8713L14.3897 25.5966V11.0319L9.9063 9.909L6.56201 19.9985L7.40956 20.0039L9.9063 12.403V30.0908L14.3897 28.9679L17.7528 15.2318V28.1285L22.2389 27.0056L25.602 16.4572V26.1661L30.0854 25.046L33.4378 15.8013L32.6631 15.607Z" fill="#6B7280"/>
</g>
<g clip-path="url(#clip1_10016_20803)">
<path d="M52.0044 11.9785H55.9724C58.1097 15.7232 60.2295 19.4854 62.3493 23.2475H62.3887C64.5085 19.4854 66.6239 15.7232 68.7612 11.9785H72.7292V28.0171H69.4795V17.694H69.3787C67.4473 21.1278 65.5114 24.5834 63.5581 28.0171H61.1536C59.2003 24.5834 57.2688 21.1278 55.333 17.694H55.2497V28.0171H52V11.9785H52.0044Z" fill="#6B7280"/>
<path d="M84.9048 11.9785H88.6057L96.0293 28.0171H92.635C91.9562 26.6199 91.2773 25.2184 90.5766 23.8213H82.8464C82.1675 25.2184 81.4886 26.6199 80.7923 28.0171H77.4812L84.9048 11.9785ZM89.1838 20.8606C88.3604 19.1525 87.5195 17.3875 86.7574 15.6575H86.6961C86.0173 17.1597 85.1326 19.0518 84.2479 20.8606H89.1838Z" fill="#6B7280"/>
<path d="M100.777 11.9785H108.034C109.865 11.9785 114.634 12.4296 114.634 17.1378C114.634 20.1598 112.497 21.557 110.132 22.0344V22.0563C111.757 24.0315 113.399 26.0243 115.024 28.0214H111.424L106.738 22.284H103.983V28.0214H100.777V11.9785ZM107.5 19.5686C109.226 19.5686 111.284 19.135 111.284 17.2035C111.284 15.2721 109.186 14.7553 107.5 14.7553H103.983V19.5686H107.5Z" fill="#6B7280"/>
<path d="M120.516 11.9785H128.29C132.114 11.9785 134.234 13.7698 134.234 16.1305C134.234 17.6721 133.204 19.2576 131.045 19.77V19.8095C133.371 20.1992 134.912 21.4124 134.912 23.633C134.912 26.9659 131.435 28.0127 128.474 28.0127H120.516V11.9785ZM127.366 18.6007C129.175 18.6007 130.883 18.189 130.883 16.7086C130.883 15.2283 129.074 14.7947 127.327 14.7947H123.727V18.6007H127.366ZM127.778 25.2009C129.587 25.2009 131.501 24.7892 131.501 23.2256C131.501 21.6621 129.547 21.2329 127.778 21.2329H123.727V25.2009H127.778Z" fill="#6B7280"/>
<path d="M140.584 11.9785H143.79V25.179H152.593V28.0171H140.584V11.9785Z" fill="#6B7280"/>
<path d="M157.547 11.9785H170.007V14.7947H160.753V18.3948H169.512V21.3555H160.753V25.179H170.253V28.0171H157.543V11.9785H157.547Z" fill="#6B7280"/>
</g>
<defs>
<clipPath id="clip0_10016_20803">
<rect width="40" height="40" fill="white"/>
</clipPath>
<clipPath id="clip1_10016_20803">
<rect width="119" height="18" fill="white" transform="translate(52 11)"/>
</clipPath>
</defs>
</svg>
