<svg width="223" height="28" viewBox="0 0 223 28" fill="none" xmlns="http://www.w3.org/2000/svg">
<g clip-path="url(#clip0_1457_3364)">
<g clip-path="url(#clip1_1457_3364)">
<path d="M25.0987 0H3.04634C1.40394 0 0.0725098 1.33143 0.0725098 2.97383V25.0262C0.0725098 26.6686 1.40394 28 3.04634 28H25.0987C26.7411 28 28.0725 26.6686 28.0725 25.0262V2.97383C28.0725 1.33143 26.7411 0 25.0987 0Z" fill="#5A50FA" style="fill:#5A50FA;fill:color(display-p3 0.3529 0.3137 0.9804);fill-opacity:1;"/>
<path d="M22.937 10.9251L21.1326 15.6543V10.4679L17.9942 9.68374L15.6401 17.0657V9.09427L12.4998 8.31013L10.1456 17.9178V7.72255L7.00726 6.93652L4.66626 13.9992L5.25954 14.003L7.00726 8.68232V21.0638L10.1456 20.2778L12.4998 10.6625V19.6902L15.6401 18.9041L17.9942 11.5203V18.3165L21.1326 17.5324L23.4793 11.0611L22.937 10.9251Z" fill="white" style="fill:white;fill-opacity:1;"/>
</g>
<path d="M39.2785 1.52148H45.4406C48.7597 7.34652 52.0517 13.1988 55.3436 19.051H55.4048C58.6967 13.1988 61.9818 7.34652 65.3009 1.52148H71.463V26.4704H66.4164V10.4123H66.2598C63.2605 15.7537 60.2541 21.1291 57.2208 26.4704H53.4867C50.4533 21.1291 47.4539 15.7537 44.4476 10.4123H44.3184V26.4704H39.2717V1.52148H39.2785Z" fill="black" style="fill:black;fill-opacity:1;"/>
<path d="M90.3666 1.52148H96.1138L107.642 26.4704H102.371C101.317 24.297 100.263 22.1169 99.1745 19.9436H87.17C86.1157 22.1169 85.0614 24.297 83.9801 26.4704H78.8381L90.3666 1.52148ZM97.0116 15.338C95.7329 12.681 94.427 9.93541 93.2435 7.24432H93.1483C92.0942 9.58115 90.7203 12.5243 89.3464 15.338H97.0116Z" fill="black" style="fill:black;fill-opacity:1;"/>
<path d="M115.018 1.52148H126.288C129.131 1.52148 136.538 2.22322 136.538 9.54708C136.538 14.248 133.218 16.4213 129.546 17.164V17.198C132.069 20.2706 134.62 23.3705 137.143 26.4771H131.552L124.275 17.5522H119.996V26.4771H115.018V1.52148ZM125.458 13.3282C128.138 13.3282 131.334 12.6538 131.334 9.64927C131.334 6.64479 128.077 5.84086 125.458 5.84086H119.996V13.3282H125.458Z" fill="black" style="fill:black;fill-opacity:1;"/>
<path d="M145.674 1.52148H157.747C163.684 1.52148 166.976 4.30796 166.976 7.98011C166.976 10.3782 165.378 12.8445 162.025 13.6416V13.703C165.636 14.3093 168.03 16.1964 168.03 19.6507C168.03 24.8352 162.63 26.4635 158.032 26.4635H145.674V1.52148ZM156.311 11.8226C159.121 11.8226 161.773 11.1822 161.773 8.87942C161.773 6.57666 158.964 5.90218 156.25 5.90218H150.659V11.8226H156.311ZM156.951 22.0896C159.76 22.0896 162.732 21.4492 162.732 19.0169C162.732 16.5848 159.699 15.9172 156.951 15.9172H150.659V22.0896H156.951Z" fill="black" style="fill:black;fill-opacity:1;"/>
<path d="M176.838 1.52148H181.817V22.0556H195.487V26.4704H176.838V1.52148Z" fill="black" style="fill:black;fill-opacity:1;"/>
<path d="M203.18 1.52148H222.53V5.90218H208.159V11.5024H221.761V16.1079H208.159V22.0556H222.912V26.4704H203.174V1.52148H203.18Z" fill="black" style="fill:black;fill-opacity:1;"/>
</g>
<defs>
<clipPath id="clip0_1457_3364">
<rect width="222.84" height="28" fill="white" style="fill:white;fill-opacity:1;" transform="translate(0.072998)"/>
</clipPath>
<clipPath id="clip1_1457_3364">
<rect width="28" height="28" fill="white" style="fill:white;fill-opacity:1;" transform="translate(0.0727539)"/>
</clipPath>
</defs>
</svg>
