<svg width="162" height="24" viewBox="0 0 162 24" fill="none" xmlns="http://www.w3.org/2000/svg">
<path d="M73.4462 1.72883C74.8793 0.584051 76.6664 -0.025687 78.5003 0.00454787C80.6395 0.00454787 82.3243 0.681576 83.5546 2.03545C84.7849 3.38933 85.399 5.40474 85.3972 8.08166V23.4841H79.3981V8.36681C79.3981 7.01339 79.154 6.04501 78.6659 5.46174C78.1776 4.87841 77.3352 4.5871 76.1387 4.58758C75.4227 4.55297 74.7088 4.68914 74.056 4.98486C73.4031 5.28057 72.8298 5.72726 72.3836 6.28821C71.486 7.42199 71.0217 9.02814 70.9902 11.1065V23.4804H64.9911V8.36326C64.9911 7.00985 64.7471 6.04153 64.2588 5.45819C63.7706 4.8749 62.9282 4.58354 61.7317 4.58403C61.0199 4.55446 60.311 4.69294 59.6628 4.9884C59.0143 5.28386 58.4448 5.72801 58.0002 6.28467C57.087 7.41844 56.6147 9.0245 56.5833 11.1029V23.4804H50.5807V0.571491H55.3518C55.5959 1.08568 55.786 1.62383 55.9186 2.17734C56.3124 3.41404 56.5051 4.70599 56.4892 6.00376V6.33452C56.859 4.52201 57.8228 2.88465 59.2281 1.68173C60.597 0.558633 62.3232 -0.0364253 64.0935 0.00454787C68.0296 0.00454787 70.1552 2.20899 70.4703 6.6177C70.887 4.70094 71.9349 2.97937 73.4462 1.72883Z" fill="#6B7280"/>
<path fill-rule="evenodd" clip-rule="evenodd" d="M99.7663 0.0078979C96.3655 0.00599118 93.6023 1.05174 91.477 3.1453C89.3514 5.23895 88.2888 8.08116 88.2888 11.6717V11.7657C88.2912 15.7965 89.3942 18.8433 91.5982 20.906C93.8614 22.8994 96.7737 23.9995 99.7897 24C102.806 24.0007 105.718 22.902 107.982 20.9095C110.187 18.8473 111.289 15.7848 111.289 11.7223V11.6282C111.291 8.03805 110.221 5.20373 108.08 3.12539C105.939 1.047 103.168 0.00787403 99.7663 0.0078979ZM105.202 12.4261C105.201 17.5273 103.39 20.0779 99.7693 20.0779C96.1773 20.0779 94.3824 17.5287 94.3849 12.4274V10.7268C94.3853 8.58568 94.8655 6.93253 95.8253 5.76738C96.3025 5.19063 96.9071 4.73263 97.5916 4.42934C98.2759 4.12605 99.0215 3.98578 99.7693 4.01965C100.52 3.98652 101.269 4.12693 101.958 4.43003C102.646 4.73315 103.255 5.19078 103.738 5.76738C104.714 6.93441 105.202 8.58756 105.202 10.7268V12.4261Z" fill="#6B7280"/>
<path d="M123.018 1.72843C124.508 0.553264 126.365 -0.057413 128.262 0.00425228C130.591 0.00425228 132.402 0.681173 133.694 2.03506C134.986 3.38892 135.631 5.40434 135.631 8.08127V23.4837H129.678V8.36651C129.678 5.84697 128.403 4.58719 125.853 4.58719C125.101 4.56225 124.353 4.7039 123.663 5.002C122.973 5.3001 122.357 5.74732 121.86 6.31147C120.836 7.46093 120.324 9.05912 120.324 11.1061V23.4802H114.317V0.571096H119.094C119.34 1.08515 119.531 1.6234 119.665 2.17704C120.058 3.41369 120.25 4.70572 120.232 6.00336V6.47542C120.58 4.6171 121.565 2.93832 123.018 1.72843Z" fill="#6B7280"/>
<path fill-rule="evenodd" clip-rule="evenodd" d="M158.309 3.12539C156.168 1.04701 153.398 0.00787403 149.997 0.0078979C146.595 0.00599118 143.831 1.05174 141.706 3.1453C139.58 5.23895 138.518 8.08116 138.518 11.6717V11.7657C138.518 15.7965 139.621 18.8433 141.824 20.906C144.09 22.8999 147.002 24 150.02 24C153.037 24 155.951 22.8999 158.215 20.906C160.42 18.8437 161.522 15.7813 161.522 11.7187V11.6246C161.522 8.03683 160.451 5.20372 158.309 3.12539ZM155.429 12.4261C155.428 17.5273 153.617 20.0779 149.997 20.0779C146.406 20.0779 144.612 17.5287 144.612 12.4274V10.7268C144.613 8.58568 145.093 6.93253 146.053 5.76738C146.53 5.19055 147.134 4.73243 147.819 4.42914C148.504 4.12584 149.249 3.98567 149.997 4.01965C150.747 3.98668 151.497 4.12723 152.184 4.43033C152.873 4.73342 153.481 5.1909 153.964 5.76738C154.941 6.93441 155.429 8.58756 155.429 10.7268V12.4261Z" fill="#6B7280"/>
<path d="M29.6357 0.00691259C29.7891 0.0190795 29.9358 0.073392 30.0602 0.16397L43.434 9.97324C43.5402 10.0505 43.6267 10.1518 43.6866 10.2687C43.7464 10.3857 43.7779 10.5152 43.7783 10.6466V23.1652C43.7787 23.3189 43.7364 23.4699 43.6562 23.6011C43.5761 23.7323 43.4612 23.8387 43.3241 23.9086C43.1872 23.9784 43.0336 24.009 42.8802 23.9968C42.7269 23.9846 42.5799 23.9303 42.4558 23.8396L29.4526 14.3038V23.1652C29.4529 23.3189 29.4108 23.4699 29.3306 23.6011C29.2505 23.7323 29.1355 23.8387 28.9985 23.9086C28.8614 23.9784 28.7078 24.009 28.5544 23.9968C28.4012 23.9846 28.2543 23.9303 28.13 23.8396L15.1295 14.3042V23.1652C15.1298 23.3189 15.0875 23.4698 15.0072 23.6011C14.927 23.7322 14.812 23.8385 14.6749 23.9084C14.5379 23.9782 14.3842 24.0088 14.231 23.9967C14.0777 23.9844 13.9307 23.9301 13.8064 23.8396L0.43273 14.0304C0.326909 13.9531 0.240645 13.8521 0.181084 13.7354C0.121522 13.6188 0.0903131 13.4896 0.089845 13.3586V0.838409C0.0895741 0.684613 0.131967 0.533816 0.21222 0.40261C0.292448 0.271405 0.407432 0.164937 0.544463 0.0950971C0.68147 0.0252569 0.835103 -0.00525435 0.98844 0.00691259C1.14175 0.0190788 1.28871 0.073392 1.41301 0.16397L14.4134 9.69933V0.838409C14.4131 0.684614 14.4556 0.533815 14.5357 0.40261C14.6161 0.271406 14.731 0.164936 14.868 0.0950971C15.0051 0.0252585 15.1587 -0.00525435 15.3121 0.00691259C15.4653 0.0190795 15.6123 0.073392 15.7366 0.16397L28.737 9.69933V0.838409C28.7367 0.684614 28.7791 0.533815 28.8595 0.40261C28.9397 0.271406 29.0546 0.164936 29.1915 0.0950971C29.3286 0.0252585 29.4823 -0.00525435 29.6357 0.00691259Z" fill="#6B7280"/>
</svg>
