<svg width="189" height="28" viewBox="0 0 189 28" fill="none" xmlns="http://www.w3.org/2000/svg">
<g clip-path="url(#clip0_1457_3290)">
<g clip-path="url(#clip1_1457_3290)">
<path d="M91.5233 0.000108978C89.3835 -0.035175 87.2981 0.676143 85.6259 2.01177C83.8624 3.47103 82.6397 5.47987 82.1535 7.71657C81.7858 2.57226 79.3054 0.000108978 74.7122 0.000108978C72.6466 -0.0478554 70.6323 0.646358 69.0349 1.95674C67.395 3.36052 66.2703 5.27127 65.8389 7.38639V7.00057C65.8575 5.48609 65.6329 3.97843 65.1736 2.53517C65.0187 1.88942 64.7969 1.26155 64.512 0.661695H58.9448V27.3929H65.9489V12.9506C65.9856 10.5252 66.5367 8.65107 67.6023 7.3283C68.1211 6.67872 68.7857 6.16052 69.5422 5.81569C70.2987 5.47087 71.1257 5.30911 71.9564 5.34355C73.3525 5.34314 74.3355 5.68331 74.9054 6.36405C75.4753 7.0448 75.76 8.17475 75.7596 9.75391V27.3929H82.7607V12.9548C82.7969 10.5294 83.3387 8.65535 84.3859 7.33258C84.9065 6.67797 85.5753 6.15659 86.3372 5.81148C87.0991 5.46638 87.9321 5.30745 88.7675 5.34783C90.1637 5.34742 91.1467 5.68738 91.7165 6.36772C92.286 7.04846 92.5709 8.17842 92.5713 9.75758V27.3978H99.5712V9.42495C99.5732 6.30128 98.8566 3.94965 97.4213 2.37008C95.9857 0.790099 94.0197 0.000108978 91.5233 0.000108978ZM116.339 0.00438911C112.371 0.00194332 109.146 1.22219 106.666 3.66512C104.186 6.10847 102.946 9.42496 102.946 13.6146V13.7247C102.949 18.4279 104.236 21.9829 106.808 24.3895C109.449 26.7154 112.847 27.9989 116.366 27.9997C119.885 28.0005 123.284 26.7185 125.926 24.3938C128.498 21.9875 129.784 18.414 129.784 13.6733V13.5632C129.786 9.37441 128.538 6.0673 126.04 3.64189C123.541 1.21648 120.308 0.00377766 116.339 0.00377766V0.00438911ZM122.681 14.4951C122.68 20.4473 120.568 23.4234 116.343 23.4234V23.4253C112.151 23.4253 110.056 20.4489 110.059 14.4963V12.5122C110.06 10.0134 110.62 8.08426 111.74 6.7248C112.297 6.05185 113.003 5.51739 113.801 5.16353C114.6 4.80967 115.47 4.64607 116.343 4.68563C117.219 4.64705 118.093 4.81094 118.896 5.16458C119.699 5.51822 120.409 6.0521 120.972 6.7248C122.111 8.08629 122.681 10.0154 122.681 12.5122V14.4951ZM149.589 0.000108978C147.376 -0.0720711 145.208 0.640467 143.47 2.01177C141.775 3.42373 140.625 5.3828 140.218 7.55148V7.00057C140.239 5.4862 140.016 3.97835 139.557 2.53517C139.401 1.88929 139.178 1.26142 138.892 0.661695H133.316V27.3929H140.327V12.9548C140.326 10.5661 140.923 8.70121 142.118 7.3601C142.698 6.7018 143.417 6.17999 144.222 5.8321C145.028 5.4842 145.9 5.31882 146.777 5.34783C149.753 5.34783 151.242 6.81774 151.242 9.75758V27.3978H158.188V9.42495C158.188 6.30128 157.435 3.94965 155.927 2.37008C154.419 0.790099 152.306 0.000108978 149.589 0.000108978ZM184.651 3.64189C182.152 1.21648 178.919 0.00377766 174.95 0.00377766C170.982 0.0017395 167.757 1.22219 165.277 3.66512C162.797 6.10847 161.557 9.42496 161.557 13.6146V13.7247C161.557 18.4279 162.843 21.9829 165.415 24.3895C168.057 26.7164 171.457 28 174.978 28C178.499 28 181.899 26.7164 184.541 24.3895C187.113 21.9833 188.399 18.41 188.399 13.6696V13.5596C188.399 9.37319 187.15 6.0673 184.651 3.64189ZM181.289 14.4951C181.289 20.4473 179.176 23.4234 174.95 23.4234V23.4253C170.762 23.4253 168.667 20.4489 168.667 14.4963V12.5122C168.669 10.0134 169.229 8.08426 170.349 6.7248C170.905 6.05182 171.611 5.51734 172.409 5.16347C173.208 4.80961 174.078 4.64603 174.95 4.68563C175.827 4.64705 176.701 4.81094 177.503 5.16458C178.306 5.51822 179.017 6.0521 179.58 6.7248C180.72 8.08629 181.289 10.0154 181.289 12.5122V14.4951ZM35.0005 0.1866C34.8554 0.08112 34.684 0.0178333 34.5052 0.00374318C34.3264 -0.010347 34.1471 0.0253087 33.9873 0.106765C33.8275 0.188221 33.6934 0.312302 33.5997 0.465278C33.506 0.618253 33.4565 0.79416 33.4566 0.973533V11.3131L18.2866 0.1866C18.1415 0.08112 17.9701 0.0178333 17.7913 0.00374318C17.6125 -0.010347 17.4332 0.0253087 17.2734 0.106765C17.1136 0.188221 16.9795 0.312302 16.8858 0.465278C16.7921 0.618253 16.7426 0.79416 16.7427 0.973533V11.3131L1.57271 0.1866C1.42763 0.08112 1.2562 0.0178333 1.07738 0.00374318C0.898559 -0.010347 0.719329 0.0253087 0.559518 0.106765C0.399706 0.188221 0.265546 0.312302 0.171881 0.465278C0.0782166 0.618253 0.0286994 0.79416 0.0288088 0.973533V15.5828C0.0293212 15.7357 0.0657834 15.8863 0.13525 16.0225C0.204716 16.1586 0.305238 16.2766 0.428695 16.3667L16.034 27.813C16.1791 27.9187 16.3506 27.9821 16.5295 27.9963C16.7085 28.0105 16.8878 27.9748 17.0477 27.8934C17.2076 27.8119 17.3419 27.6877 17.4356 27.5347C17.5293 27.3816 17.5788 27.2055 17.5786 27.0261V16.6865L32.7486 27.813C32.8935 27.9186 33.0649 27.982 33.2437 27.9961C33.4225 28.0103 33.6017 27.9746 33.7615 27.8931C33.9213 27.8116 34.0553 27.6875 34.1488 27.5344C34.2423 27.3814 34.2916 27.2054 34.2912 27.0261V16.6859L49.4643 27.813C49.6093 27.9188 49.7807 27.9823 49.9596 27.9965C50.1385 28.0108 50.3178 27.9752 50.4777 27.8936C50.6376 27.8121 50.7717 27.6879 50.8653 27.5347C50.9588 27.3816 51.0081 27.2055 51.0076 27.0261V12.4186C51.0072 12.2652 50.9706 12.114 50.9008 11.9774C50.831 11.8408 50.7299 11.7225 50.6059 11.6323L35.0005 0.1866Z" fill="black" style="fill:black;fill-opacity:1;"/>
</g>
</g>
<defs>
<clipPath id="clip0_1457_3290">
<rect width="188.533" height="28" fill="white" style="fill:white;fill-opacity:1;" transform="translate(0.03125)"/>
</clipPath>
<clipPath id="clip1_1457_3290">
<rect width="188.37" height="28" fill="white" style="fill:white;fill-opacity:1;" transform="translate(0.0290527)"/>
</clipPath>
</defs>
</svg>
