<svg width="40" height="40" viewBox="0 0 40 40" fill="none" xmlns="http://www.w3.org/2000/svg">
<g id="Frame">
<path id="Vector" d="M20.0016 0.799805C17.473 0.799805 15.3602 1.2547 13.8094 2.06074C12.2585 2.86679 11.2016 4.11589 11.2016 5.5998V10.3998V13.5998H12.8016V13.2936C13.1056 13.531 13.4426 13.7483 13.8094 13.9389C15.3602 14.7449 17.473 15.1998 20.0016 15.1998C22.5301 15.1998 24.6429 14.7449 26.1938 13.9389C26.5605 13.7483 26.8975 13.531 27.2016 13.2936V13.5998H28.8016V10.3998V5.5998C28.8016 4.11589 27.7446 2.86679 26.1938 2.06074C24.6429 1.2547 22.5301 0.799805 20.0016 0.799805ZM20.0016 2.3998C22.3338 2.3998 24.2207 2.8397 25.4547 3.48105C26.6887 4.12241 27.2016 4.87332 27.2016 5.5998C27.2016 6.32629 26.6887 7.0772 25.4547 7.71855C24.2207 8.35991 22.3338 8.7998 20.0016 8.7998C17.6693 8.7998 15.7824 8.35991 14.5484 7.71855C13.3145 7.0772 12.8016 6.32629 12.8016 5.5998C12.8016 4.87332 13.3145 4.12241 14.5484 3.48105C15.7824 2.8397 17.6693 2.3998 20.0016 2.3998ZM12.8016 8.49356C13.1056 8.73097 13.4426 8.94825 13.8094 9.13887C15.3602 9.94491 17.473 10.3998 20.0016 10.3998C22.5301 10.3998 24.6429 9.94491 26.1938 9.13887C26.5605 8.94825 26.8975 8.73097 27.2016 8.49356V10.3998C27.2016 11.1263 26.6887 11.8772 25.4547 12.5186C24.2207 13.1599 22.3338 13.5998 20.0016 13.5998C17.6693 13.5998 15.7824 13.1599 14.5484 12.5186C13.3145 11.8772 12.8016 11.1263 12.8016 10.3998V8.49356ZM10.4016 15.1998C7.87298 15.1998 5.76021 15.6547 4.20938 16.4607C2.65854 17.2668 1.60156 18.5159 1.60156 19.9998V24.7998V34.3998C1.60156 35.8837 2.65854 37.1328 4.20938 37.9389C5.76021 38.7449 7.87298 39.1998 10.4016 39.1998C12.9301 39.1998 15.0429 38.7449 16.5938 37.9389C18.1446 37.1328 19.2016 35.8837 19.2016 34.3998V24.7998V19.9998C19.2016 18.5159 18.1446 17.2668 16.5938 16.4607C15.0429 15.6547 12.9301 15.1998 10.4016 15.1998ZM29.6016 15.1998C27.073 15.1998 24.9602 15.6547 23.4094 16.4607C21.8585 17.2668 20.8016 18.5159 20.8016 19.9998V24.7998V34.3998C20.8016 35.8837 21.8585 37.1328 23.4094 37.9389C24.9602 38.7449 27.073 39.1998 29.6016 39.1998C32.1301 39.1998 34.2429 38.7449 35.7938 37.9389C37.3446 37.1328 38.4016 35.8837 38.4016 34.3998V24.7998V19.9998C38.4016 18.5159 37.3446 17.2668 35.7938 16.4607C34.2429 15.6547 32.1301 15.1998 29.6016 15.1998ZM10.4016 16.7998C12.7338 16.7998 14.6207 17.2397 15.8547 17.8811C17.0887 18.5224 17.6016 19.2733 17.6016 19.9998C17.6016 20.7263 17.0887 21.4772 15.8547 22.1186C14.6207 22.7599 12.7338 23.1998 10.4016 23.1998C8.06934 23.1998 6.1824 22.7599 4.94844 22.1186C3.71447 21.4772 3.20156 20.7263 3.20156 19.9998C3.20156 19.2733 3.71447 18.5224 4.94844 17.8811C6.1824 17.2397 8.06934 16.7998 10.4016 16.7998ZM29.6016 16.7998C31.9338 16.7998 33.8207 17.2397 35.0547 17.8811C36.2887 18.5224 36.8016 19.2733 36.8016 19.9998C36.8016 20.7263 36.2887 21.4772 35.0547 22.1186C33.8207 22.7599 31.9338 23.1998 29.6016 23.1998C27.2693 23.1998 25.3824 22.7599 24.1484 22.1186C22.9145 21.4772 22.4016 20.7263 22.4016 19.9998C22.4016 19.2733 22.9145 18.5224 24.1484 17.8811C25.3824 17.2397 27.2693 16.7998 29.6016 16.7998ZM3.20156 22.8936C3.50562 23.131 3.84263 23.3483 4.20938 23.5389C5.76021 24.3449 7.87298 24.7998 10.4016 24.7998C12.9301 24.7998 15.0429 24.3449 16.5938 23.5389C16.9605 23.3483 17.2975 23.131 17.6016 22.8936V24.7998C17.6016 25.5263 17.0887 26.2772 15.8547 26.9186C14.6207 27.5599 12.7338 27.9998 10.4016 27.9998C8.06934 27.9998 6.1824 27.5599 4.94844 26.9186C3.71447 26.2772 3.20156 25.5263 3.20156 24.7998V22.8936ZM22.4016 22.8936C22.7056 23.131 23.0426 23.3483 23.4094 23.5389C24.9602 24.3449 27.073 24.7998 29.6016 24.7998C32.1301 24.7998 34.2429 24.3449 35.7938 23.5389C36.1605 23.3483 36.4975 23.131 36.8016 22.8936V24.7998C36.8016 25.5263 36.2887 26.2772 35.0547 26.9186C33.8207 27.5599 31.9338 27.9998 29.6016 27.9998C27.2693 27.9998 25.3824 27.5599 24.1484 26.9186C22.9145 26.2772 22.4016 25.5263 22.4016 24.7998V22.8936ZM3.20156 27.6936C3.50562 27.931 3.84263 28.1483 4.20938 28.3389C5.76021 29.1449 7.87298 29.5998 10.4016 29.5998C12.9301 29.5998 15.0429 29.1449 16.5938 28.3389C16.9605 28.1483 17.2975 27.931 17.6016 27.6936V29.5998C17.6016 30.3263 17.0887 31.0772 15.8547 31.7186C14.6207 32.3599 12.7338 32.7998 10.4016 32.7998C8.06934 32.7998 6.1824 32.3599 4.94844 31.7186C3.71447 31.0772 3.20156 30.3263 3.20156 29.5998V27.6936ZM22.4016 27.6936C22.7056 27.931 23.0426 28.1483 23.4094 28.3389C24.9602 29.1449 27.073 29.5998 29.6016 29.5998C32.1301 29.5998 34.2429 29.1449 35.7938 28.3389C36.1605 28.1483 36.4975 27.931 36.8016 27.6936V29.5998C36.8016 30.3263 36.2887 31.0772 35.0547 31.7186C33.8207 32.3599 31.9338 32.7998 29.6016 32.7998C27.2693 32.7998 25.3824 32.3599 24.1484 31.7186C22.9145 31.0772 22.4016 30.3263 22.4016 29.5998V27.6936ZM3.20156 32.4936C3.50562 32.731 3.84263 32.9483 4.20938 33.1389C5.76021 33.9449 7.87298 34.3998 10.4016 34.3998C12.9301 34.3998 15.0429 33.9449 16.5938 33.1389C16.9605 32.9483 17.2975 32.731 17.6016 32.4936V34.3998C17.6016 35.1263 17.0887 35.8772 15.8547 36.5186C14.6207 37.1599 12.7338 37.5998 10.4016 37.5998C8.06934 37.5998 6.1824 37.1599 4.94844 36.5186C3.71447 35.8772 3.20156 35.1263 3.20156 34.3998V32.4936ZM22.4016 32.4936C22.7056 32.731 23.0426 32.9483 23.4094 33.1389C24.9602 33.9449 27.073 34.3998 29.6016 34.3998C32.1301 34.3998 34.2429 33.9449 35.7938 33.1389C36.1605 32.9483 36.4975 32.731 36.8016 32.4936V34.3998C36.8016 35.1263 36.2887 35.8772 35.0547 36.5186C33.8207 37.1599 31.9338 37.5998 29.6016 37.5998C27.2693 37.5998 25.3824 37.1599 24.1484 36.5186C22.9145 35.8772 22.4016 35.1263 22.4016 34.3998V32.4936Z" fill="black" style="fill:black;fill-opacity:1;"/>
</g>
</svg>
