<svg width="219" height="30" viewBox="0 0 219 30" fill="none" xmlns="http://www.w3.org/2000/svg">
<path d="M13.4587 15.852C13.4587 22.8673 19.1457 28.5543 26.161 28.5543C33.1762 28.5543 38.8632 22.8673 38.8632 15.852C38.8632 8.83677 33.1762 3.14978 26.161 3.14978C19.1457 3.14978 13.4587 8.83677 13.4587 15.852Z" fill="white"/>
<path fill-rule="evenodd" clip-rule="evenodd" d="M26.161 27.8367C19.5419 27.8367 14.1762 22.471 14.1762 15.852C14.1762 9.23307 19.5419 3.8673 26.161 3.8673C32.7799 3.8673 38.1457 9.23307 38.1457 15.852C38.1457 22.471 32.7799 27.8367 26.161 27.8367ZM26.161 28.5543C19.1457 28.5543 13.4587 22.8673 13.4587 15.852C13.4587 8.83677 19.1457 3.14978 26.161 3.14978C33.1762 3.14978 38.8632 8.83677 38.8632 15.852C38.8632 22.8673 33.1762 28.5543 26.161 28.5543Z" fill="#667085"/>
<path fill-rule="evenodd" clip-rule="evenodd" d="M13.4639 16.2153C16.9481 17.6251 20.7603 18.9057 24.7988 19.9878C29.0226 21.1195 33.1406 21.9395 37.0123 22.4582C34.782 26.1138 30.7565 28.5542 26.161 28.5542C19.2673 28.5542 13.6562 23.0626 13.4639 16.2153Z" fill="white"/>
<path fill-rule="evenodd" clip-rule="evenodd" d="M13.4639 16.2153C16.9481 17.6251 20.7603 18.9057 24.7988 19.9878C29.0226 21.1195 33.1406 21.9395 37.0123 22.4582C34.782 26.1138 30.7565 28.5542 26.161 28.5542C19.2673 28.5542 13.6562 23.0626 13.4639 16.2153Z" fill="#667085"/>
<path fill-rule="evenodd" clip-rule="evenodd" d="M13.4639 16.2153C13.4714 16.4815 13.487 16.7457 13.5106 17.0075C14.0944 23.4813 19.5353 28.5542 26.161 28.5542C30.4719 28.5542 34.2812 26.4068 36.5776 23.1232C36.7292 22.9064 36.8741 22.6846 37.0123 22.4582C36.7536 22.4235 36.4938 22.3875 36.2329 22.3502C32.5897 21.8286 28.7403 21.0439 24.7988 19.9878C21.0405 18.9807 17.4782 17.8018 14.1938 16.5069C13.949 16.4104 13.7056 16.3131 13.4639 16.2153ZM14.2634 17.3048C14.9803 23.2385 20.0338 27.8367 26.161 27.8367C30.0964 27.8367 33.5895 25.9402 35.7752 23.0088C32.2083 22.4834 28.4532 21.7098 24.6131 20.6808C20.9559 19.7009 17.4812 18.5588 14.2634 17.3048Z" fill="#667085"/>
<path fill-rule="evenodd" clip-rule="evenodd" d="M15.7653 8.26036C13.4061 7.92004 11.2424 7.71628 9.34822 7.65014C6.98215 7.56757 5.12445 7.70337 3.8571 8.0106C3.22256 8.16448 2.81667 8.34251 2.58247 8.49726C2.48118 8.56413 2.43043 8.6136 2.40688 8.64138C2.41339 8.67716 2.4326 8.74547 2.48686 8.85406C2.61235 9.10511 2.87482 9.46222 3.34742 9.91274C4.29134 10.8125 5.83228 11.859 7.92263 12.9705C12.081 15.1815 18.1061 17.4893 25.0049 19.3378C31.9037 21.1863 38.2755 22.2003 42.9821 22.3647C45.3482 22.4473 47.2063 22.3115 48.4733 22.0042C49.1078 21.8504 49.5137 21.6723 49.748 21.5176C49.8495 21.4507 49.8999 21.4012 49.9235 21.3734C49.9172 21.3376 49.898 21.2694 49.8437 21.1608C49.718 20.9097 49.4556 20.5526 48.9833 20.1021C48.0392 19.2023 46.4984 18.1559 44.4079 17.0443C42.8537 16.2181 41.039 15.3782 39.0154 14.554C38.9903 14.3057 38.958 14.058 38.9184 13.8111C38.8613 13.4547 38.7893 13.1014 38.7028 12.7521C46.8208 15.9459 52.0502 19.4788 51.4344 21.7783C50.5708 25.0003 38.5577 24.5808 24.602 20.8414C10.6462 17.1019 0.0327081 11.4586 0.896077 8.23656C1.52423 5.89212 8.05569 5.47563 16.9433 6.86327C16.519 7.29959 16.1252 7.76632 15.7653 8.26036ZM2.40407 8.61029C2.40388 8.61014 2.40356 8.61277 2.40387 8.61819C2.40445 8.61308 2.40432 8.61034 2.40407 8.61029ZM49.9414 21.3479C49.9414 21.3479 49.9395 21.3501 49.9375 21.3549C49.9408 21.3503 49.942 21.348 49.9414 21.3479ZM49.9267 21.3966C49.9261 21.4018 49.9261 21.4045 49.9261 21.4045C49.9267 21.4046 49.9267 21.4021 49.9267 21.3966ZM2.39271 8.65997C2.38971 8.66456 2.38869 8.66689 2.38888 8.66699C2.38913 8.66699 2.3906 8.66472 2.39271 8.65997Z" fill="white"/>
<path fill-rule="evenodd" clip-rule="evenodd" d="M16.1495 9.17134L16.45 8.75894C16.7862 8.29737 17.1541 7.86126 17.5505 7.4536L18.6925 6.27926L17.074 6.02656C12.5971 5.32758 8.6699 5.07521 5.75556 5.3062C4.30357 5.42129 3.05122 5.66 2.09523 6.05522C1.15725 6.44295 0.335748 7.05611 0.0781925 8.01735C-0.0983624 8.67632 0.0395106 9.33301 0.337024 9.92837C0.631348 10.5174 1.1035 11.0941 1.68921 11.6524C2.86126 12.7696 4.61978 13.9363 6.79441 15.0926C11.156 17.4117 17.362 19.7781 24.3829 21.6593C31.4038 23.5406 37.9616 24.5943 42.8984 24.7667C45.3597 24.8526 47.4661 24.7215 49.0396 24.34C49.826 24.1493 50.5236 23.886 51.0725 23.523C51.6279 23.1561 52.0761 22.6564 52.2522 21.9974C52.5052 21.0544 52.12 20.1298 51.5232 19.3375C50.9162 18.5319 49.9862 17.7154 48.8296 16.9065C46.5081 15.2833 43.1029 13.5731 39.0129 11.964L37.4865 11.3636L37.8809 12.9557C37.9617 13.282 38.0289 13.6121 38.0824 13.9451C38.1194 14.1758 38.1495 14.4072 38.173 14.6391L38.2243 15.146L38.6961 15.3382C40.6984 16.1538 42.4864 16.9817 44.0103 17.792C46.0708 18.8878 47.5351 19.8919 48.3987 20.715C48.5302 20.8401 48.6387 20.9529 48.7287 21.0532C48.6004 21.0951 48.4498 21.1385 48.2736 21.1812C47.1145 21.4623 45.3444 21.5998 43.0118 21.5183C38.3862 21.3569 32.08 20.3569 25.2242 18.5198C18.3683 16.6828 12.4069 14.3957 8.32033 12.2228C6.25952 11.127 4.79532 10.1229 3.93182 9.29976C3.80059 9.1747 3.69182 9.06188 3.60214 8.9616C3.72992 8.91962 3.88056 8.8763 4.05674 8.8336C5.21608 8.5525 6.98618 8.41499 9.31885 8.49647C11.1764 8.56133 13.3092 8.76162 15.6446 9.09849L16.1495 9.17134ZM2.84524 9.38036C2.97711 9.53956 3.14256 9.71739 3.34752 9.91272C4.29144 10.8125 5.83239 11.859 7.92274 12.9705C12.081 15.1815 18.1062 17.4892 25.005 19.3378C31.9038 21.1863 38.2756 22.2003 42.9823 22.3647C45.3483 22.4472 47.2064 22.3114 48.4734 22.0042C48.7485 21.9375 48.9809 21.8663 49.1749 21.7942C49.1877 21.7894 49.2004 21.7846 49.2132 21.7798C49.4468 21.6905 49.6223 21.6007 49.7481 21.5176C49.8151 21.4734 49.8598 21.4368 49.8892 21.409C49.8936 21.4052 49.8974 21.4015 49.9006 21.3981C49.9019 21.3967 49.9032 21.3954 49.9045 21.3942C49.9122 21.3863 49.9185 21.3793 49.9236 21.3734C49.9223 21.3658 49.9204 21.3566 49.9172 21.3459C49.9172 21.3442 49.9166 21.3424 49.916 21.3406C49.9147 21.3359 49.9134 21.3308 49.9115 21.3255C49.9 21.2866 49.8796 21.2325 49.8438 21.1608C49.7761 21.0259 49.6696 20.8605 49.5113 20.6664C49.503 20.6558 49.4941 20.6451 49.4851 20.6344C49.3536 20.4753 49.1883 20.2974 48.9834 20.1021C48.0393 19.2023 46.4985 18.1558 44.4081 17.0443C42.8538 16.218 41.0391 15.3782 39.0155 14.5539C38.9904 14.3057 38.9581 14.058 38.9185 13.8111C38.9149 13.7889 38.9113 13.7668 38.9076 13.7447C38.8524 13.4107 38.784 13.0797 38.7029 12.7521C39.0254 12.879 39.3432 13.0063 39.6564 13.1342C47.2274 16.2246 52.026 19.57 51.4345 21.7783C50.5709 25.0002 38.5578 24.5808 24.6021 20.8413C10.6463 17.1019 0.0328091 11.4586 0.896179 8.23654C1.50021 5.98231 7.56196 5.51052 15.9283 6.71114C16.2631 6.75911 16.6015 6.80987 16.9434 6.8632C16.7081 7.10511 16.4823 7.35637 16.2665 7.61651C16.0929 7.82548 15.9259 8.04017 15.7654 8.26035C13.4062 7.92002 11.2425 7.71627 9.34833 7.65012C6.98225 7.56751 5.12455 7.70336 3.8572 8.01059C3.58203 8.0773 3.34988 8.14856 3.15609 8.22054C3.143 8.22534 3.13011 8.23019 3.11741 8.23505C2.88373 8.32422 2.70839 8.41412 2.58258 8.4972C2.51594 8.54124 2.47113 8.57775 2.44158 8.60548C2.43743 8.60935 2.43353 8.61312 2.42996 8.61673C2.42862 8.61802 2.42734 8.61931 2.42606 8.6206M2.40398 8.61069C2.40404 8.61038 2.4041 8.61017 2.40417 8.61028C2.40443 8.61033 2.40455 8.61307 2.40398 8.61818C2.40378 8.61415 2.40385 8.61167 2.40398 8.61069ZM2.41451 8.6742C2.41406 8.67234 2.41355 8.67059 2.41311 8.66883C2.41036 8.65814 2.40838 8.649 2.40698 8.64136M3.02287 9.16365L3.03558 9.17444C3.03456 9.17568 3.03347 9.17687 3.03239 9.17811L3.02287 9.16365ZM2.81907 9.34845C2.82768 9.35899 2.83636 9.36962 2.84524 9.38036L2.81907 9.34845ZM49.9268 21.404C49.9268 21.4044 49.9268 21.4045 49.9262 21.4045C49.9262 21.4045 49.9262 21.4017 49.9268 21.3966C49.9268 21.4006 49.9268 21.4031 49.9268 21.404ZM2.38898 8.66692C2.38891 8.66687 2.38898 8.66677 2.38911 8.66635C2.38949 8.66548 2.39057 8.66331 2.39281 8.6599C2.3907 8.6647 2.38923 8.66692 2.38898 8.66692ZM2.81907 9.34845C2.66128 9.15436 2.55436 8.98892 2.48696 8.85405C2.45102 8.78207 2.43047 8.72785 2.41878 8.68902C2.41719 8.68381 2.41579 8.6789 2.41451 8.6742M49.9415 21.3478C49.9415 21.3478 49.9396 21.3501 49.9377 21.3548L49.9415 21.3478ZM49.9377 21.3548C49.9402 21.3514 49.9415 21.3493 49.9415 21.3484L49.9377 21.3548Z" fill="#667085"/>
<path d="M83.7053 5.98499V24.0103H81.5929L71.7703 9.85762H71.5948V24.0103H69.4116V5.98499H71.524L81.3817 20.1729H81.5577V5.98499H83.7053ZM94.765 24.0103V5.98499H105.643V7.9213H96.9476V14.0119H105.08V15.9482H96.9476V22.074H105.784V24.0103H94.765ZM114.72 5.98499H117.22L122.219 14.3992H122.431L127.43 5.98499H129.93L123.416 16.5819V24.0103H121.234V16.5819L114.72 5.98499ZM153.738 5.98499V24.0103H151.626L141.803 9.85762H141.627V24.0103H139.444V5.98499H141.557L151.414 20.1729H151.59V5.98499H153.738ZM165.537 24.0103H163.249L169.867 5.98499H172.121L178.739 24.0103H176.451L171.064 8.83664H170.924L165.537 24.0103ZM166.382 16.9692H175.606V18.9055H166.382V16.9692ZM188.238 24.0103V5.98499H194.329C195.737 5.98499 196.894 6.22555 197.797 6.70669C198.701 7.18199 199.369 7.83621 199.804 8.66944C200.238 9.50263 200.455 10.4502 200.455 11.5123C200.455 12.5743 200.238 13.5161 199.804 14.3375C199.369 15.159 198.703 15.8045 197.806 16.2738C196.908 16.7374 195.761 16.9692 194.364 16.9692H189.436V14.9977H194.294C195.256 14.9977 196.031 14.8568 196.618 14.5752C197.21 14.2935 197.639 13.8946 197.903 13.3782C198.173 12.856 198.307 12.234 198.307 11.5123C198.307 10.7906 198.173 10.1598 197.903 9.61999C197.633 9.08015 197.201 8.66356 196.609 8.37017C196.016 8.07094 195.233 7.9213 194.259 7.9213H190.422V24.0103H188.238ZM196.723 15.913L201.159 24.0103H198.624L194.259 15.913H196.723Z" fill="#667085"/>
</svg>
