<svg width="139" height="28" viewBox="0 0 139 28" fill="none" xmlns="http://www.w3.org/2000/svg">
<path d="M76.9693 8.4043V21.5H75.4049L68.2858 11.2168H68.1451V21.5H66.5631V8.4043H68.0924L75.2643 18.7051H75.3873V8.4043H76.9693ZM79.3545 21.5V8.4043H87.2646V9.81055H80.9365V14.1875H86.8427V15.5938H80.9365V20.0938H87.3525V21.5H79.3545ZM88.2083 8.4043H90.0189L93.6575 14.5215H93.8157L97.4368 8.4043H99.265L94.5189 16.1035V21.5H92.9368V16.1035L88.2083 8.4043ZM110.931 8.4043V21.5H109.367L102.248 11.2168H102.107V21.5H100.525V8.4043H102.054L109.226 18.7051H109.349V8.4043H110.931ZM113.861 21.5H112.191L117.008 8.4043H118.643L123.441 21.5H121.789L117.869 10.4785H117.764L113.861 21.5ZM114.477 16.3848H121.174V17.791H114.477V16.3848ZM124.702 21.5V8.4043H129.131C130.157 8.4043 130.995 8.58008 131.645 8.93164C132.301 9.27734 132.787 9.75488 133.104 10.3643C133.42 10.9678 133.579 11.6562 133.579 12.4297C133.579 13.1973 133.42 13.8799 133.104 14.4775C132.793 15.0752 132.31 15.5439 131.654 15.8838C131.003 16.2178 130.168 16.3848 129.149 16.3848H125.58V14.9609H129.096C129.799 14.9609 130.365 14.8584 130.792 14.6533C131.22 14.4482 131.531 14.1582 131.724 13.7832C131.917 13.4023 132.014 12.9512 132.014 12.4297C132.014 11.9023 131.914 11.4424 131.715 11.0498C131.522 10.6572 131.211 10.3525 130.784 10.1357C130.356 9.91895 129.787 9.81055 129.079 9.81055H126.284V21.5H124.702ZM132.243 21.5L129.079 15.6113H130.871L134.088 21.5H132.243Z" fill="black" style="fill:black;fill-opacity:1;"/>
<g clip-path="url(#clip0_1457_3326)">
<path fill-rule="evenodd" clip-rule="evenodd" d="M39.4327 13.9942C39.4327 16.4298 38.8105 18.7201 37.7164 20.7147C33.5155 20.233 28.7036 19.3135 23.6617 17.9625C21.1198 17.2814 18.6833 16.5345 16.3948 15.7456L16.3944 15.7448L16.3644 15.7351C16.2692 15.7022 16.1741 15.6692 16.079 15.6362C13.4656 14.6723 11.7737 12.4382 11.9582 10.2237L11.9906 10.2324L11.9633 10.2052C13.6155 4.31728 19.0228 0 25.4385 0C33.1673 0 39.4327 6.2654 39.4327 13.9942ZM11.9214 17.6304C13.0502 16.8485 14.5556 16.4907 16.119 16.7093C18.4357 17.4847 20.8772 18.2209 23.4105 18.8997C28.245 20.195 32.8938 21.1421 37.0979 21.7365C34.5903 25.505 30.3044 27.9884 25.4387 27.9884C18.9675 27.9884 13.5223 23.5962 11.9214 17.6304Z" fill="black" style="fill:black;fill-opacity:1;"/>
<path fill-rule="evenodd" clip-rule="evenodd" d="M44.2412 13.7033C42.7679 12.9073 41.0655 12.1034 39.1776 11.3154C39.0896 10.8614 38.9789 10.412 38.8461 9.96902C41.0705 10.869 43.0679 11.7968 44.7735 12.7183C46.9003 13.8675 48.6019 15.0217 49.7241 16.119C50.8087 17.1794 51.5158 18.3512 51.2106 19.4905C50.9054 20.6296 49.7071 21.2908 48.2375 21.6669C46.717 22.056 44.6663 22.2049 42.2498 22.1366C40.6874 22.0925 38.9585 21.9571 37.1016 21.7318C37.3286 21.3904 37.5405 21.0393 37.7367 20.6793C39.3714 20.8655 40.8958 20.9784 42.2815 21.0175C44.6519 21.0845 46.5844 20.9343 47.96 20.5823C49.3864 20.2173 49.9967 19.6951 50.1292 19.2007C50.2616 18.7063 49.9942 17.9488 48.9414 16.9195C47.9262 15.9268 46.3276 14.8306 44.2412 13.7033ZM9.35589 3.22829C11.2882 3.28283 13.4748 3.47699 15.8433 3.8081C15.5065 4.12554 15.1855 4.45939 14.8815 4.80844C12.861 4.54851 10.9922 4.39438 9.32419 4.34736C6.95383 4.2804 5.02117 4.43057 3.64574 4.78255C2.21932 5.14761 1.609 5.66983 1.47653 6.16419C1.34406 6.65855 1.61151 7.416 2.66428 8.4454C3.67942 9.43808 5.27806 10.5343 7.36445 11.6614L7.46734 11.7169C7.29736 11.8158 7.17836 11.9404 7.11496 12.0917C7.02779 12.2999 7.05025 12.5479 7.17268 12.8285C7.05791 12.7677 6.94445 12.7072 6.83219 12.6466C4.70538 11.4974 3.00385 10.3432 1.8816 9.24591C0.797001 8.18534 0.0898691 7.0137 0.395096 5.87442C0.700322 4.73514 1.89864 4.0741 3.36798 3.69795C4.88857 3.30899 6.9393 3.16014 9.35576 3.22842L9.35589 3.22829Z" fill="black" style="fill:black;fill-opacity:1;"/>
<path d="M6.10002 12.2637C7.94604 13.2989 9.57103 13.9089 9.72954 13.6262C9.88806 13.3436 8.52006 12.2752 6.67405 11.2401C4.82803 10.2049 3.20304 9.59488 3.04453 9.87755C2.88602 10.1602 4.25401 11.2286 6.10002 12.2637Z" fill="black" style="fill:black;fill-opacity:1;"/>
</g>
<defs>
<clipPath id="clip0_1457_3326">
<rect width="50.9811" height="28" fill="white" style="fill:white;fill-opacity:1;" transform="translate(0.325928)"/>
</clipPath>
</defs>
</svg>
