<svg width="104" height="24" viewBox="0 0 104 24" fill="none" xmlns="http://www.w3.org/2000/svg">
<g id="pagerduty_logo.svg">
<g id="PagerDuty Logo Wrapper">
<path id="Vector" d="M6.43207 13.5596H4.12891V17.7595H6.43207V13.5596Z" fill="black" style="fill:black;fill-opacity:1;"/>
<path id="Vector_2" d="M12.7856 2.75999C11.5149 2.12 10.681 2 8.65581 2H4.12891V11.5598H8.65581C10.4428 11.5598 11.7929 11.4398 12.9842 10.6799C14.2549 9.83987 14.93 8.39989 14.93 6.71992C14.93 4.91995 14.096 3.51997 12.7856 2.75999ZM9.17204 9.55988H6.43207V4.03997L9.0132 3.99997C11.3561 3.95997 12.5474 4.79995 12.5474 6.71992C12.5474 8.79989 11.0781 9.55988 9.17204 9.55988Z" fill="black" style="fill:black;fill-opacity:1;"/>
<g id="PagerDuty Logo">
<path id="Vector_3" d="M98.4822 6.20016L96.2982 12.4401C95.9011 13.56 95.7025 14.2 95.3452 15.28H95.3055C95.0275 14.36 94.7495 13.6 94.3921 12.4801L92.2875 6.16016H89.7461L94.1539 17.76C94.0744 18 93.9553 18.28 93.8362 18.56C93.4788 19.4399 92.6052 20.0399 91.6124 20.0399H90.5006V21.9999H91.6124C93.4391 21.9999 95.0672 20.8799 95.7423 19.1999C97.1321 15.68 99.5147 9.6401 100.865 6.20016H98.4822Z" fill="black" style="fill:black;fill-opacity:1;"/>
<path id="Vector_4" d="M37.5243 15.5197C37.5243 19.7196 35.6182 21.9996 31.7664 21.9996C28.9073 21.9996 27.1601 20.4796 26.5644 18.1996H28.8676C29.2647 19.2796 30.0986 20.1996 31.8061 20.1996C34.4269 20.1996 35.38 18.5596 35.38 15.3997C35.3403 15.3997 35.3403 15.3997 35.3403 15.3997C34.7843 16.3997 33.5136 17.2797 31.4884 17.2797C28.2322 17.2797 26.207 14.9197 26.207 11.5997C26.207 8.1598 28.4308 5.83984 31.5281 5.83984C33.5136 5.83984 34.7446 6.67983 35.38 7.63981C35.3403 7.39982 35.3403 7.15982 35.3403 6.91983V6.19984H37.4846L37.5243 15.5197ZM28.5499 11.5597C28.5499 13.7997 29.7809 15.3997 31.9252 15.3997C33.8313 15.3997 35.3403 14.0397 35.3403 11.4798C35.3403 9.19979 34.0298 7.67981 31.9252 7.67981C29.8206 7.67981 28.5499 9.23979 28.5499 11.5597Z" fill="black" style="fill:black;fill-opacity:1;"/>
<path id="Vector_5" d="M41.1417 12.5598C41.2211 14.5997 42.5316 16.1997 44.7553 16.1997C46.3437 16.1997 47.0982 15.4397 47.6938 14.4397H49.9176C49.2425 16.5197 47.4556 18.0397 44.6759 18.0397C41.1417 18.0397 38.918 15.6397 38.918 12.0398C38.918 8.43984 41.1814 5.87988 44.6362 5.87988C48.3689 5.87988 50.1161 8.75984 50.1161 11.8398V12.5598H41.1417ZM47.8129 10.7998C47.6144 8.95983 46.4628 7.67985 44.5965 7.67985C42.8095 7.67985 41.4197 8.87983 41.1814 10.7998H47.8129Z" fill="black" style="fill:black;fill-opacity:1;"/>
<path id="Vector_6" d="M53.6873 6.19992V7.67989C54.0447 6.59991 55.1963 5.91992 56.467 5.91992C56.6655 5.91992 56.8244 5.91992 57.0229 5.95992V7.99989C56.7847 7.95989 56.5067 7.91989 56.2684 7.91989C54.2035 7.91989 53.8064 9.47986 53.8064 11.7598V17.7597H51.5827V8.27988C51.5827 7.55989 51.5827 6.91991 51.543 6.19992H53.6873Z" fill="black" style="fill:black;fill-opacity:1;"/>
<path id="Vector_7" d="M79.7375 16.12C79.1419 17.12 78.03 18.04 76.0843 18.04C73.4237 18.04 72.1133 16.4 72.1133 13.4001V6.2002H74.2973V12.5601C74.2973 14.8401 75.0518 16.2 76.8387 16.2C79.1816 16.2 79.6184 14.0401 79.6184 11.4801V6.2002H81.8422V16.04C81.8422 16.64 81.8422 17.2 81.8819 17.76H79.7375V16.12Z" fill="black" style="fill:black;fill-opacity:1;"/>
<path id="Vector_8" d="M86.8069 6.20003H88.9512V7.92H86.8069V14.8799C86.8069 15.9999 87.3628 16.3199 88.1968 16.3199C88.3556 16.3199 88.5541 16.3199 88.7527 16.2799V17.9198C88.4747 17.9598 88.1968 17.9998 87.9188 17.9998C85.8936 17.9998 84.5832 17.3198 84.5832 14.9999V7.92H82.8359V6.20003H84.5832V3.08008H86.8069V6.20003Z" fill="black" style="fill:black;fill-opacity:1;"/>
<path id="Vector_9" d="M58.3756 2H62.1878C67.906 2.04 70.6857 4.87995 70.6857 9.91987C70.7254 14.2398 68.5016 17.7197 62.5452 17.7597H58.3359L58.3756 2ZM60.6788 15.7998H62.0289C66.1985 15.7998 68.3428 14.1998 68.3428 9.91987C68.3428 6.15993 66.1985 3.99997 62.2275 3.99997C61.473 3.99997 60.6788 4.03997 60.6788 4.03997V15.7998Z" fill="black" style="fill:black;fill-opacity:1;"/>
<path id="Vector_10" d="M22.953 17.7598C22.8736 17.2798 22.8736 16.9998 22.8339 16.1598C21.9603 17.4398 20.8087 17.9998 18.982 17.9998C16.5597 17.9998 14.8125 16.7998 14.8125 14.6398C14.8125 12.1599 17.1554 11.3199 20.2527 10.9199C21.0072 10.7999 21.8808 10.7199 22.6353 10.6799C22.6353 8.39992 21.3646 7.71993 20.0542 7.71993C18.7438 7.71993 17.751 8.63992 17.751 9.8799H15.6067C15.6067 7.51994 17.4333 5.95996 20.0939 5.95996C22.7544 5.95996 24.7796 7.07994 24.7796 11.2799V13.5198C24.7796 15.3998 24.8591 16.7598 25.0576 17.8398L22.953 17.7598ZM17.1951 14.5998C17.1951 15.6798 18.0687 16.3598 19.4585 16.3598C21.5234 16.3598 22.6353 15.0798 22.6353 12.8398C22.6353 12.6399 22.6353 12.4399 22.6353 12.2399C18.9026 12.6399 17.1951 12.9998 17.1951 14.5998Z" fill="black" style="fill:black;fill-opacity:1;"/>
</g>
</g>
</g>
</svg>
