<svg width="83" height="14" viewBox="0 0 83 14" fill="none" xmlns="http://www.w3.org/2000/svg">
<g clip-path="url(#clip0_8502_2649)">
<path d="M2.78723 13.587V7.35441C3.03654 8.8694 3.70773 10.2118 5.6638 10.2118C7.96501 10.2118 9.38413 8.42836 9.38413 5.32165C9.38413 2.19581 7.96501 0.412354 5.77886 0.412354C3.82279 0.412354 3.05571 1.77392 2.78723 3.28891V0.623302H0.0449219V13.587H2.78723ZM2.78723 5.82027V4.80389C2.78723 3.26973 3.42008 2.56018 4.5707 2.56018C5.8172 2.56018 6.60346 3.5382 6.60346 5.32165C6.60346 7.10514 5.8172 8.08314 4.5707 8.08314C3.42008 8.08314 2.78723 7.35445 2.78723 5.82027Z" fill="#B5BCC3"/>
<path d="M12.8823 10.2315C14.8 10.2315 15.6246 8.81235 15.9315 7.58504V8.21786C15.9315 9.56027 16.852 10.0205 17.8683 10.0205H19.4792V7.83435H18.9231C18.5779 7.83435 18.4245 7.7001 18.4245 7.27821V4.05646C18.4245 1.69769 17.0437 0.432007 14.6658 0.432007C12.6522 0.432007 11.0989 1.37168 10.1592 2.38806L11.5399 4.38247C12.1919 3.4428 13.285 2.7716 14.474 2.7716C15.5096 2.7716 15.8739 3.21267 15.9698 3.99893L13.0933 5.07282C11.3098 5.6865 10.4085 6.51114 10.4085 7.93022C10.4085 9.44521 11.4249 10.2315 12.8823 10.2315ZM12.9399 7.52751C12.9399 7.16315 13.1892 6.89465 13.937 6.58781L15.9315 5.76322V6.41523C15.9315 7.56585 15.2027 8.21786 13.8987 8.21786C13.2467 8.21786 12.9399 7.96856 12.9399 7.52751Z" fill="#B5BCC3"/>
<path d="M22.9101 13.4724C24.6744 13.4724 25.8442 12.6861 26.5729 10.5958L29.9481 0.623779H26.8606L25.5373 5.05368L24.8278 8.19867L24.1375 5.05368L22.795 0.623779H19.7651L22.8142 9.40683H24.4826L24.2908 9.90544C23.984 10.8068 23.5621 11.0561 22.8334 11.0561C22.0088 11.0561 21.3184 10.5766 20.7239 9.88625L19.6309 12.1875C20.2829 12.8587 21.491 13.4724 22.9101 13.4724Z" fill="#B5BCC3"/>
<path d="M34.8077 10.2123C37.7418 10.2123 39.602 8.19867 39.602 5.32213C39.602 2.46477 37.7418 0.432007 34.8077 0.432007C31.9504 0.432007 30.1094 2.46477 30.1094 5.32213C30.1094 8.19867 31.9504 10.2123 34.8077 10.2123ZM34.8461 7.98775C33.6955 7.98775 32.8901 7.23983 32.8901 5.32213C32.8901 3.38527 33.6955 2.65654 34.8461 2.65654C36.0159 2.65654 36.8214 3.38527 36.8214 5.32213C36.8214 7.23983 36.0159 7.98775 34.8461 7.98775Z" fill="#B5BCC3"/>
<path d="M43.9523 10.2123C45.8507 10.2123 46.7523 8.88907 47.0782 7.39327V10.0205H49.8207V0.623779H47.0782V5.82075C47.0782 7.35493 46.6755 8.08361 45.3716 8.08361C44.106 8.08361 43.799 7.37408 43.799 6.22345V0.623779H41.0566V7.1823C41.0566 9.11918 42.1689 10.2123 43.9523 10.2123Z" fill="#B5BCC3"/>
<path d="M54.4945 10.0205V5.05367C54.4945 3.50033 55.3767 2.48395 56.3161 2.48395C56.9107 2.48395 57.1601 2.88666 57.1601 3.42362C57.1601 3.96057 56.8343 4.63178 56.4891 4.97695H59.1354C59.3656 4.61259 59.6721 3.80716 59.6721 2.79078C59.6721 1.31415 58.9053 0.432007 57.5246 0.432007C55.7219 0.432007 54.8014 2.00452 54.4945 3.57704V0.623777H51.752V10.0205H54.4945Z" fill="#B5BCC3"/>
<path d="M64.7892 10.2118C66.9753 10.2118 68.5097 9.17621 68.5097 7.35438C68.5097 5.91611 67.6082 5.1107 65.5371 4.55456L64.4823 4.2669C63.2359 3.92172 62.8332 3.72995 62.8332 3.23135C62.8332 2.7711 63.2359 2.5218 63.907 2.5218C65 2.5218 66.1511 3.03958 67.0715 3.99843L68.2985 2.15744C67.6468 1.33282 66.1699 0.450684 64.1371 0.450684C61.8359 0.450684 60.3402 1.54377 60.3402 3.38476C60.3402 5.03398 61.5676 5.70518 63.2553 6.14627L64.5209 6.45306C65.5178 6.70237 66.0549 6.89415 66.0549 7.39276C66.0549 7.89138 65.614 8.12149 64.8661 8.12149C63.4467 8.12149 62.0854 7.29685 61.2988 6.45306L60.0332 8.31327C60.8386 9.44471 62.6989 10.2118 64.7892 10.2118Z" fill="#B5BCC3"/>
<path d="M74.1388 10.2123C76.248 10.2123 77.5141 9.29177 78.2233 8.27539L76.555 6.60701C76.2098 7.41246 75.5001 7.98775 74.177 7.98775C72.95 7.98775 72.0677 7.35493 71.8951 6.03171H78.3002C78.3577 5.82074 78.3959 5.28379 78.3959 4.88109C78.3959 2.42641 76.9002 0.432007 73.9086 0.432007C71.1472 0.432007 69.3252 2.42641 69.3252 5.32213C69.3252 8.21786 71.1472 10.2123 74.1388 10.2123ZM73.928 2.54148C75.155 2.54148 75.8264 3.21267 75.9222 4.45919H71.8951C72.0295 3.1935 72.7581 2.54148 73.928 2.54148Z" fill="#B5BCC3"/>
<path d="M82.6553 7.07666H79.7119V10.02H82.6553V7.07666Z" fill="#B5BCC3"/>
</g>
<defs>
<clipPath id="clip0_8502_2649">
<rect width="83" height="13.6138" fill="white"/>
</clipPath>
</defs>
</svg>
