<svg width="92" height="18" viewBox="0 0 92 18" fill="none" xmlns="http://www.w3.org/2000/svg">
<g clip-path="url(#clip0_8502_2637)">
<path d="M24.621 14.1745V17.4785H22.5488V6.72265H24.621V7.23724C25.2382 6.83598 25.9571 6.61949 26.6932 6.61328C29.0463 6.61328 30.7766 8.48402 30.7766 10.7128C30.7766 12.9416 29.0624 14.8123 26.6932 14.8123C25.954 14.8135 25.2316 14.5912 24.621 14.1745ZM24.621 9.73194V11.6338C24.7845 11.9818 25.0385 12.2795 25.3565 12.4957C25.6745 12.7118 26.0448 12.8386 26.4286 12.8625C26.8123 12.8865 27.1955 12.8069 27.5379 12.632C27.8803 12.457 28.1695 12.1933 28.375 11.8683C28.5805 11.5433 28.6949 11.1691 28.7061 10.7847C28.7174 10.4003 28.6251 10.02 28.4389 9.6836C28.2527 9.34715 27.9795 9.06694 27.6479 8.87231C27.3163 8.67767 26.9384 8.57577 26.5539 8.57727C26.1564 8.57166 25.7651 8.67667 25.4238 8.88057C25.0825 9.08447 24.8045 9.37923 24.621 9.73194Z" fill="#B5BCC3"/>
<path d="M31.8995 4.55576C31.8927 4.39891 31.9181 4.24232 31.9741 4.09564C32.0301 3.94895 32.1155 3.81527 32.225 3.7028C32.3346 3.59034 32.466 3.50147 32.6111 3.44167C32.7563 3.38186 32.9122 3.35238 33.0692 3.35504C33.2283 3.35228 33.3864 3.38134 33.5342 3.44051C33.6819 3.49969 33.8164 3.58779 33.9296 3.69964C34.0429 3.81149 34.1326 3.94484 34.1936 4.09186C34.2546 4.23887 34.2856 4.3966 34.2848 4.55576C34.2815 4.87588 34.1519 5.18173 33.9243 5.4068C33.6966 5.63188 33.3893 5.75796 33.0692 5.75764C32.913 5.75692 32.7586 5.72509 32.6149 5.66404C32.4712 5.60298 32.3411 5.5139 32.2323 5.40201C32.1234 5.29013 32.0379 5.15767 31.9807 5.01237C31.9236 4.86707 31.896 4.71185 31.8995 4.55576ZM32.025 6.72352H34.1294V14.6888H32.025V6.72352Z" fill="#B5BCC3"/>
<path d="M35.3751 10.6821C35.3709 10.146 35.4739 9.61447 35.6781 9.11874C35.8823 8.62301 36.1835 8.1731 36.564 7.79546C36.9446 7.41781 37.3968 7.12005 37.894 6.91967C38.3913 6.7193 38.9236 6.62035 39.4597 6.62866C40.1926 6.62903 40.914 6.81097 41.5595 7.15822V6.7219H43.6179V14.2348C43.6179 16.307 41.8243 17.4306 39.5805 17.4306C38.115 17.4306 36.7117 16.9943 35.7919 16.2794L36.6495 14.7989C37.5237 15.3589 38.5424 15.6514 39.5805 15.6404C41.0299 15.6404 41.4824 15.0648 41.5445 14.1289C40.9202 14.5282 40.1962 14.744 39.4551 14.7517C37.0697 14.7494 35.3751 12.973 35.3751 10.6821ZM41.5595 11.5697V9.79337C41.3854 9.42273 41.11 9.10889 40.7651 8.88808C40.4202 8.66727 40.02 8.54848 39.6105 8.54544C39.3277 8.54271 39.0472 8.59589 38.785 8.70193C38.5229 8.80797 38.2843 8.96478 38.083 9.16334C37.8816 9.3619 37.7215 9.59829 37.6118 9.85894C37.5022 10.1196 37.4451 10.3993 37.4439 10.6821C37.4439 11.9128 38.3787 12.7704 39.5955 12.7704C40.0038 12.7811 40.4065 12.6734 40.755 12.4603C41.1034 12.2473 41.3828 11.938 41.5595 11.5697Z" fill="#B5BCC3"/>
<path d="M44.8663 10.6821C44.8621 10.146 44.9651 9.61447 45.1693 9.11874C45.3735 8.62301 45.6747 8.1731 46.0552 7.79546C46.4358 7.41781 46.888 7.12005 47.3852 6.91967C47.8825 6.7193 48.4148 6.62035 48.9509 6.62866C49.6854 6.62841 50.4084 6.81036 51.0553 7.15822V6.7219H53.1125V14.2348C53.1125 16.307 51.3201 17.4306 49.0764 17.4306C47.6108 17.4306 46.2075 16.9943 45.2877 16.2794L46.1453 14.7989C47.0194 15.3591 48.0382 15.6516 49.0764 15.6404C50.5257 15.6404 50.9782 15.0648 51.0403 14.1289C50.4159 14.5281 49.6919 14.7439 48.9509 14.7517C46.5655 14.7494 44.8663 12.973 44.8663 10.6821ZM51.0553 11.5697V9.79337C50.8811 9.42282 50.6057 9.10905 50.2608 8.88826C49.916 8.66746 49.5157 8.54862 49.1063 8.54544C48.8235 8.54271 48.543 8.59589 48.2809 8.70193C48.0187 8.80797 47.7801 8.96478 47.5788 9.16334C47.3774 9.3619 47.2173 9.59829 47.1076 9.85894C46.998 10.1196 46.9409 10.3993 46.9397 10.6821C46.9397 11.9128 47.8745 12.7704 49.0913 12.7704C49.4996 12.7809 49.9022 12.6732 50.2507 12.4601C50.5991 12.2471 50.8785 11.9379 51.0553 11.5697Z" fill="#B5BCC3"/>
<path d="M56.135 6.72266L58.2245 12.0379L60.375 6.72266H62.5623L57.9747 17.4785H56.0268L57.178 14.6108L53.8291 6.72266H56.135Z" fill="#B5BCC3"/>
<path d="M62.166 6.72266H64.3948L66.4255 12.1012L68.4367 6.72266H70.624L67.4283 14.688H65.3319L62.166 6.72266Z" fill="#B5BCC3"/>
<path d="M70.7715 10.6502C70.7715 8.40643 72.3763 6.55066 74.886 6.55066C77.2091 6.55066 78.9739 8.29706 79.0165 10.5915C79.0327 10.7887 79.0327 10.987 79.0165 11.1843H72.7355C72.7976 12.3068 73.8729 13.039 75.0264 13.039C75.9773 13.039 76.538 12.7742 77.193 12.2331L78.3316 13.4338C77.4106 14.3997 76.4896 14.8521 75.0264 14.8521C72.3302 14.8441 70.7715 12.8329 70.7715 10.6502ZM72.8437 9.69925H76.8661C76.6634 8.95211 75.9451 8.29706 74.8549 8.29706C73.592 8.29706 73.0624 8.93599 72.8437 9.69925Z" fill="#B5BCC3"/>
<path d="M79.4521 13.8302L80.471 12.1771C81.3854 12.7866 82.4574 13.1169 83.5563 13.128C84.6016 13.128 85.1311 12.8632 85.1311 12.4119C85.1311 12.1149 84.8813 11.8973 84.3518 11.7879L82.1644 11.3205C80.5596 10.9752 79.8263 10.2142 79.8263 8.96745C79.8263 7.64239 80.9487 6.53491 83.2719 6.53491C84.6741 6.53491 85.9197 6.94129 86.7785 7.47086L85.8276 9.06069C85.1265 8.68655 84.1917 8.28132 83.2086 8.28132C82.321 8.28132 81.8064 8.50005 81.8064 8.90413C81.8064 9.17006 81.994 9.34159 82.5075 9.43484L84.3494 9.78021C86.3445 10.1693 87.1124 11.0581 87.1124 12.2588C87.1124 13.9856 85.3856 14.8928 83.4952 14.8928C82.0751 14.9202 80.6753 14.5523 79.4521 13.8302Z" fill="#B5BCC3"/>
<path d="M87.5265 6.72325H88.7111V4.52557L90.7834 3.18555V6.72325H91.999V8.53183H90.7845V14.6897H88.7123V8.53183H87.5254V6.72325H87.5265Z" fill="#B5BCC3"/>
<path d="M17.3604 8.0036C17.3259 7.49798 17.243 6.99684 17.1129 6.50701C16.5201 4.31969 15.271 2.59861 13.3669 1.37025C12.1675 0.590244 10.7899 0.127211 9.3629 0.0244741C8.76338 -0.0193152 8.16099 -0.00311772 7.56469 0.0728254C6.93649 0.155973 6.31898 0.306103 5.72273 0.520651C4.13498 1.09338 2.74924 2.1177 1.73599 3.46762C0.722726 4.81755 0.126127 6.4342 0.0195708 8.11872C0 8.4284 0 8.74038 0 9.05121V16.6078C0 16.8042 0.077989 16.9924 0.21681 17.1313C0.355632 17.2701 0.543914 17.3481 0.740236 17.3481H3.65974C3.84244 17.347 4.01838 17.2788 4.15419 17.1566C4.29 17.0344 4.37622 16.8665 4.39652 16.685C4.41573 16.614 4.42579 16.5409 4.42645 16.4674V16.2924C4.42473 16.279 4.42473 16.2655 4.42645 16.2521V16.2325C4.44637 16.2378 4.46511 16.2468 4.48171 16.259C5.57374 16.8629 6.78315 17.2241 8.02748 17.3181C8.52588 17.355 9.0265 17.35 9.52407 17.3032C10.6954 17.1953 11.8322 16.8488 12.8645 16.2849C13.8969 15.721 14.8028 14.9518 15.5265 14.0245C16.5582 12.7268 17.1894 11.1566 17.3432 9.50595C17.3953 9.00677 17.401 8.50384 17.3604 8.0036ZM10.2459 12.8318C10.2407 12.8584 10.2264 12.8824 10.2053 12.8994C10.1843 12.9165 10.1579 12.9256 10.1308 12.9251H7.25271C7.22561 12.9256 7.19921 12.9165 7.17815 12.8994C7.15709 12.8824 7.14273 12.8584 7.13758 12.8318V12.8134V12.7063C7.13695 12.5742 7.15163 12.4425 7.18133 12.3138C7.19975 12.27 7.21126 12.2182 7.22968 12.1699C7.2481 12.1215 7.26652 12.0766 7.28494 12.0294C7.30336 11.9822 7.33329 11.9396 7.35862 11.8993L7.40006 11.8372C7.42712 11.7969 7.45673 11.7585 7.48871 11.722C7.52209 11.6806 7.55548 11.6449 7.58886 11.6069C7.76207 11.4366 7.97254 11.3089 8.20362 11.2339C8.00455 11.1255 7.84721 10.954 7.75638 10.7463C7.66554 10.5387 7.64638 10.3067 7.70191 10.0869C7.75745 9.86719 7.88451 9.67216 8.0631 9.53258C8.24168 9.393 8.46162 9.3168 8.68828 9.31599C8.95889 9.31804 9.21797 9.42588 9.4101 9.61646C9.52132 9.7284 9.60506 9.86461 9.65472 10.0144C9.70439 10.1642 9.71862 10.3234 9.6963 10.4797C9.67399 10.6359 9.61573 10.7848 9.52612 10.9147C9.4365 11.0445 9.31797 11.1519 9.17985 11.2282C9.49073 11.3306 9.76125 11.5288 9.95271 11.7943C10.1442 12.0598 10.2468 12.379 10.2459 12.7063V12.8318ZM15.2077 6.56227H2.18042C2.156 6.5621 2.13197 6.55614 2.1103 6.54488C2.08864 6.53361 2.06995 6.51736 2.05579 6.49747C2.04163 6.47758 2.0324 6.45461 2.02884 6.43045C2.02529 6.40629 2.02753 6.38163 2.03536 6.3585C2.52145 4.98095 3.42286 3.78808 4.61534 2.94432C5.80782 2.10056 7.23266 1.64745 8.69346 1.64745C10.1543 1.64745 11.5791 2.10056 12.7716 2.94432C13.9641 3.78808 14.8655 4.98095 15.3516 6.3585C15.3594 6.38154 15.3616 6.40609 15.3581 6.43017C15.3546 6.45424 15.3455 6.47714 15.3315 6.49701C15.3174 6.51688 15.2989 6.53315 15.2774 6.54449C15.2559 6.55583 15.232 6.56192 15.2077 6.56227Z" fill="#B5BCC3"/>
</g>
<defs>
<clipPath id="clip0_8502_2637">
<rect width="92" height="17.4779" fill="white"/>
</clipPath>
</defs>
</svg>
