<svg width="150" height="28" viewBox="0 0 150 28" fill="none" xmlns="http://www.w3.org/2000/svg">
<path fill-rule="evenodd" clip-rule="evenodd" d="M40.2848 22.7061V28H36.9153V10.769H40.2848V11.5927C41.2218 10.993 42.413 10.594 43.6542 10.594C47.479 10.594 50.2909 13.5908 50.2909 17.1615C50.2909 20.7072 47.5044 23.7289 43.6542 23.7289C42.3623 23.7298 41.2226 23.3299 40.2848 22.7061ZM40.2848 15.589V18.6357C40.8677 19.8092 42.0329 20.5838 43.4008 20.5838C45.377 20.5838 46.9222 19.0855 46.9222 17.1623C46.9222 15.2141 45.4022 13.7407 43.426 13.7407C42.0582 13.7407 40.8677 14.4654 40.2848 15.589Z" fill="#6B7280"/>
<path d="M54.0134 5.37218C52.9235 5.37218 52.1133 6.19675 52.1133 7.29535C52.1133 8.34394 52.9235 9.21768 54.0134 9.21852C55.1033 9.21852 55.9896 8.34394 55.9896 7.29535C55.9896 6.19595 55.1025 5.37218 54.0134 5.37218Z" fill="#6B7280"/>
<path d="M55.7362 10.7685H52.316V23.5293H55.7362V10.7685Z" fill="#6B7280"/>
<path fill-rule="evenodd" clip-rule="evenodd" d="M57.7615 17.1121C57.7615 13.5906 60.5479 10.6196 64.3981 10.6196C65.6646 10.6196 66.8297 10.9444 67.8182 11.4683V10.7687H71.1623V22.8049C71.1623 26.1265 68.2491 27.9239 64.6017 27.9239C62.2208 27.9239 59.9404 27.2251 58.4458 26.0757L59.839 23.7037C61.0802 24.5274 62.7776 25.0521 64.6017 25.0521C66.9573 25.0521 67.6923 24.1284 67.7937 22.6301C66.7807 23.2547 65.6155 23.6287 64.3989 23.6287C60.5226 23.6295 57.7615 20.7826 57.7615 17.1121ZM67.8182 18.5354V15.6886C67.2353 14.4901 66.0195 13.6905 64.6516 13.6905C62.6754 13.6905 61.1301 15.2388 61.1301 17.1121C61.1301 19.0852 62.65 20.4586 64.6262 20.4586C66.0701 20.4578 67.2099 19.734 67.8182 18.5354Z" fill="#6B7280"/>
<path fill-rule="evenodd" clip-rule="evenodd" d="M79.8233 10.6196C75.9728 10.6196 73.1864 13.5906 73.1864 17.1121C73.1864 20.7826 75.9474 23.6295 79.824 23.6287C81.04 23.6287 82.2051 23.2547 83.2183 22.6301C83.1173 24.1284 82.382 25.0521 80.0268 25.0521C78.2025 25.0521 76.5051 24.5274 75.2639 23.7037L73.8707 26.0757C75.3653 27.2251 77.6456 27.9239 80.0268 27.9239C83.674 27.9239 86.5867 26.1265 86.5867 22.8049V10.7687H83.2433V11.4683C82.2544 10.9444 81.0893 10.6196 79.8233 10.6196ZM83.2433 15.6886V18.5354C82.6349 19.734 81.495 20.4578 80.0511 20.4586C78.0749 20.4586 76.5549 19.0852 76.5549 17.1121C76.5549 15.2388 78.0999 13.6905 80.0762 13.6905C81.4441 13.6905 82.66 14.4901 83.2433 15.6886Z" fill="#6B7280"/>
<path d="M91.4992 10.7685L94.8935 19.284L98.3895 10.7685H104.923L108.216 19.384L111.484 10.7685H115.031L109.838 23.5293H106.443L101.607 11.5296L94.4887 27.9995H91.3222L93.1975 23.4044L87.7511 10.7685H91.4992Z" fill="#6B7280"/>
<path fill-rule="evenodd" clip-rule="evenodd" d="M115.282 17.0623C115.282 13.4666 117.891 10.4948 121.969 10.4948C125.743 10.4948 128.606 13.2917 128.682 16.9623C128.708 17.2621 128.708 17.587 128.682 17.911H118.473C118.574 19.7093 120.323 20.8828 122.196 20.8828C123.742 20.8828 124.653 20.458 125.718 19.5843L127.568 21.5074C126.073 23.0558 124.578 23.7796 122.197 23.7796C117.815 23.7796 115.282 20.558 115.282 17.0623ZM118.65 15.5389H125.186C124.856 14.3403 123.691 13.2917 121.918 13.2917C119.866 13.2917 119.006 14.3153 118.65 15.5389Z" fill="#6B7280"/>
<path d="M131.035 19.5089L129.389 22.1559C131.517 23.3545 133.493 23.8542 135.95 23.855C139.015 23.855 141.827 22.4066 141.827 19.6347C141.827 17.7124 140.586 16.2889 137.342 15.6642L134.354 15.1146C133.518 14.9654 133.214 14.6906 133.214 14.2658C133.214 13.617 134.049 13.2671 135.493 13.2671C137.09 13.2671 138.609 13.9159 139.749 14.5156L141.294 11.9687C139.901 11.1199 137.874 10.4703 135.595 10.4703C131.821 10.4703 129.996 12.2436 129.996 14.3657C129.996 16.3631 131.187 17.5866 133.796 18.1364L137.342 18.8851C138.204 19.06 138.609 19.409 138.609 19.8837C138.609 20.6075 137.748 21.0323 136.051 21.0323C134.253 21.0323 132.505 20.4576 131.035 19.5089Z" fill="#6B7280"/>
<path d="M144.435 7.248L147.804 5.10074V10.7695H149.779V13.6663H147.803V23.5304H144.434V13.6656H142.509V10.7687H144.435V7.248Z" fill="#6B7280"/>
<path fill-rule="evenodd" clip-rule="evenodd" d="M28.0839 10.4141C28.3005 11.2023 28.4264 12.0028 28.4869 12.8208C28.5532 13.6269 28.5474 14.4273 28.4632 15.2349C28.186 17.9262 27.2122 20.3515 25.51 22.4737C23.5313 24.9401 20.9934 26.5586 17.92 27.359C17.2045 27.5428 16.4826 27.6556 15.7549 27.7266C14.9373 27.8031 14.1254 27.8095 13.3192 27.7499C11.2744 27.5952 9.35532 27.0262 7.55744 26.0541C7.54404 26.0472 7.53037 26.0365 7.51349 26.0275C7.50482 26.0228 7.49528 26.0187 7.48459 26.0157C7.47922 26.0142 7.47358 26.013 7.46752 26.0121V26.0299C7.46646 26.0343 7.46578 26.0384 7.46541 26.0424C7.465 26.0465 7.46486 26.0506 7.46495 26.0545L7.46513 26.059L7.46559 26.0657L7.46642 26.0751C7.46701 26.0815 7.46752 26.0881 7.46752 26.0951V26.374C7.46752 26.4925 7.44944 26.6111 7.41926 26.7239V26.7294C7.35301 27.3227 6.84206 27.791 6.22229 27.791H1.47756C0.810394 27.791 0.274902 27.2574 0.274902 26.6053V14.499C0.274902 14.0009 0.274856 13.5027 0.30509 13.0046C0.371339 12.0382 0.527508 11.0895 0.79241 10.1586C2.01883 5.84237 5.3033 2.36273 9.57288 0.83291C10.541 0.488742 11.5393 0.251775 12.5678 0.115557C13.5425 -0.00373256 14.5105 -0.0327277 15.4909 0.0382059C17.8423 0.221977 20.0254 0.921616 21.9975 2.18545C25.0947 4.15375 27.1215 6.90466 28.0839 10.4141ZM16.736 20.7054C16.8268 20.7054 16.8988 20.6457 16.9168 20.557C16.9225 20.4925 16.9282 20.4208 16.9291 20.3555C16.9291 19.2464 16.2013 18.3163 15.1973 17.9898C15.7083 17.7174 16.0632 17.1717 16.0632 16.5552C16.0632 16.1045 15.8767 15.6959 15.5759 15.3993C15.2757 15.1083 14.8605 14.919 14.4034 14.919C13.4893 14.9246 12.7493 15.654 12.7493 16.5552C12.7493 17.1717 13.0977 17.7174 13.6152 17.9898C13.2367 18.1083 12.8932 18.3219 12.6169 18.5887C12.5621 18.6484 12.5082 18.7072 12.4542 18.7725L12.4402 18.7895L12.4378 18.7923L12.4297 18.8022L12.3924 18.8483L12.3704 18.8763C12.3611 18.8884 12.3519 18.9006 12.343 18.9129C12.3312 18.9291 12.32 18.9455 12.3095 18.9619L12.2895 18.9921L12.2764 19.0123C12.2658 19.0286 12.2551 19.0449 12.2433 19.0626C12.2171 19.1031 12.1928 19.1463 12.1681 19.1905L12.1434 19.2344L12.1231 19.2698L12.1154 19.2895L12.1071 19.3097C12.1003 19.3261 12.0933 19.3423 12.0864 19.3585C12.0781 19.3777 12.0698 19.3969 12.0619 19.4162C12.0569 19.4283 12.0522 19.4405 12.0476 19.4528C12.0425 19.4668 12.0376 19.4811 12.0331 19.4955C12.019 19.5316 12.0075 19.569 11.9963 19.6057C11.9834 19.6478 11.9707 19.689 11.9546 19.7268C11.9063 19.9347 11.8827 20.1362 11.8827 20.3555V20.5272L11.8884 20.557C11.9063 20.6457 11.9848 20.7054 12.069 20.7054H16.736ZM3.81763 10.5028H24.9875C25.1559 10.5028 25.2761 10.3367 25.2213 10.1763C23.6524 5.78273 19.4007 2.62872 14.4026 2.62872C9.40441 2.62872 5.15282 5.78353 3.583 10.1763C3.52905 10.3367 3.64921 10.5028 3.81763 10.5028Z" fill="#6B7280"/>
</svg>
