<svg width="147" height="28" viewBox="0 0 147 28" fill="none" xmlns="http://www.w3.org/2000/svg">
<g clip-path="url(#clip0_1457_3375)">
<path d="M40.2829 22.5128V27.7022H37.0264V10.8111H40.2829V11.6186C41.1885 11.0307 42.3399 10.6396 43.5395 10.6396C47.2362 10.6396 49.9537 13.5773 49.9537 17.0775C49.9537 20.5533 47.2607 23.5154 43.5395 23.5154C42.2909 23.5162 41.1893 23.1243 40.2829 22.5128ZM40.2829 15.536V18.5227C40.8463 19.6731 41.9725 20.4324 43.2945 20.4324C45.2045 20.4324 46.698 18.9636 46.698 17.0784C46.698 15.1686 45.2289 13.7243 43.319 13.7243C41.9969 13.7243 40.8463 14.4346 40.2829 15.536Z" fill="#0C1825" style="fill:#0C1825;fill:color(display-p3 0.0471 0.0941 0.1451);fill-opacity:1;"/>
<path d="M51.7139 7.40573C51.7139 6.3288 52.497 5.52051 53.5504 5.52051C54.6029 5.52051 55.4603 6.32801 55.4603 7.40573C55.4603 8.43364 54.6037 9.29096 53.5504 9.29096C52.497 9.29013 51.7139 8.43364 51.7139 7.40573ZM51.9099 10.8104H55.2154V23.3195H51.9099V10.8104Z" fill="#0C1825" style="fill:#0C1825;fill:color(display-p3 0.0471 0.0941 0.1451);fill-opacity:1;"/>
<path d="M57.1709 17.029C57.1709 13.5769 59.864 10.6646 63.5852 10.6646C64.8092 10.6646 65.9353 10.9829 66.8907 11.4965V10.8107H70.1227V22.6095C70.1227 25.8656 67.3071 27.6276 63.7819 27.6276C61.4808 27.6276 59.2768 26.9425 57.8323 25.8158L59.1788 23.4905C60.3784 24.298 62.0189 24.8123 63.7819 24.8123C66.0586 24.8123 66.769 23.9069 66.867 22.4381C65.8879 23.0504 64.7618 23.417 63.5859 23.417C59.8395 23.4178 57.1709 20.6271 57.1709 17.029ZM66.8907 18.4243V15.6336C66.3273 14.4587 65.1522 13.6749 63.8301 13.6749C61.9202 13.6749 60.4266 15.1927 60.4266 17.029C60.4266 18.9631 61.8956 20.3095 63.8056 20.3095C65.2011 20.3087 66.3028 19.5992 66.8907 18.4243Z" fill="#0C1825" style="fill:#0C1825;fill:color(display-p3 0.0471 0.0941 0.1451);fill-opacity:1;"/>
<path d="M72.0811 17.029C72.0811 13.5769 74.7741 10.6646 78.4956 10.6646C79.7193 10.6646 80.8454 10.9829 81.8011 11.4965V10.8107H85.0325V22.6095C85.0325 25.8656 82.2174 27.6276 78.6924 27.6276C76.3909 27.6276 74.187 26.9425 72.7425 25.8158L74.089 23.4905C75.2886 24.298 76.9291 24.8123 78.6924 24.8123C80.9687 24.8123 81.6793 23.9069 81.7769 22.4381C80.7977 23.0504 79.6716 23.417 78.4964 23.417C74.7497 23.4178 72.0811 20.6271 72.0811 17.029ZM81.8011 18.4243V15.6336C81.2374 14.4587 80.0621 13.6749 78.7401 13.6749C76.83 13.6749 75.3368 15.1927 75.3368 17.029C75.3368 18.9631 76.8058 20.3095 78.7158 20.3095C80.1113 20.3087 81.2131 19.5992 81.8011 18.4243Z" fill="#0C1825" style="fill:#0C1825;fill:color(display-p3 0.0471 0.0941 0.1451);fill-opacity:1;"/>
<path d="M89.7779 10.8105L93.0584 19.1581L96.4373 10.8105H99.8654L92.6672 27.7017H89.6068L91.4193 23.1971L86.1553 10.8105H89.7779Z" fill="#0C1825" style="fill:#0C1825;fill:color(display-p3 0.0471 0.0941 0.1451);fill-opacity:1;"/>
<path d="M99.2568 10.8105H102.758L105.941 19.2561L109.099 10.8105H112.527L107.509 23.3197H104.227L99.2568 10.8105Z" fill="#0C1825" style="fill:#0C1825;fill:color(display-p3 0.0471 0.0941 0.1451);fill-opacity:1;"/>
<path d="M112.769 16.9799C112.769 13.4551 115.29 10.542 119.232 10.542C122.88 10.542 125.646 13.2837 125.72 16.8819C125.745 17.1758 125.745 17.4942 125.72 17.8119H115.853C115.951 19.5746 117.641 20.7251 119.451 20.7251C120.945 20.7251 121.826 20.3086 122.855 19.4521L124.643 21.3374C123.198 22.8552 121.754 23.5647 119.452 23.5647C115.217 23.5647 112.769 20.4066 112.769 16.9799ZM116.024 15.4866H122.341C122.022 14.3116 120.896 13.2837 119.182 13.2837C117.199 13.2837 116.368 14.2871 116.024 15.4866Z" fill="#0C1825" style="fill:#0C1825;fill:color(display-p3 0.0471 0.0941 0.1451);fill-opacity:1;"/>
<path d="M126.401 21.9737L127.993 19.3789C129.413 20.3089 131.102 20.8722 132.84 20.8722C134.481 20.8722 135.313 20.4558 135.313 19.7463C135.313 19.281 134.921 18.9388 134.089 18.7674L130.66 18.0334C128.139 17.4945 126.989 16.2951 126.989 14.3371C126.989 12.2568 128.752 10.5186 132.399 10.5186C134.602 10.5186 136.562 11.1554 137.908 11.9873L136.414 14.4841C135.313 13.8963 133.844 13.2602 132.301 13.2602C130.906 13.2602 130.098 13.6032 130.098 14.2392C130.098 14.6556 130.392 14.925 131.2 15.0712L134.089 15.61C137.223 16.2224 138.422 17.6178 138.422 19.5022C138.422 22.2194 135.705 23.6392 132.742 23.6392C130.368 23.6384 128.458 23.1486 126.401 21.9737Z" fill="#0C1825" style="fill:#0C1825;fill:color(display-p3 0.0471 0.0941 0.1451);fill-opacity:1;"/>
<path d="M140.947 10.811V7.35976L144.203 5.25488V10.8118H146.112V13.6515H144.202V23.3209H140.946V13.6507H139.085V10.811H140.947Z" fill="#0C1825" style="fill:#0C1825;fill:color(display-p3 0.0471 0.0941 0.1451);fill-opacity:1;"/>
<path d="M28.8791 12.8223C28.8206 12.0203 28.699 11.2357 28.4896 10.463C27.5594 7.02284 25.6005 4.32618 22.6071 2.39671C20.7011 1.15781 18.5912 0.471985 16.3185 0.291838C15.371 0.222307 14.4354 0.250751 13.4934 0.367689C12.4993 0.501219 11.5344 0.733514 10.5988 1.07089C6.47221 2.57053 3.29786 5.98147 2.11252 10.2125C1.85648 11.1251 1.70556 12.0551 1.64154 13.0025C1.61231 13.4907 1.6123 13.9791 1.6123 14.4673V26.3349C1.6123 26.9741 2.12991 27.4972 2.77473 27.4972H7.36043C7.95942 27.4972 8.45331 27.0381 8.51732 26.4565C8.51732 26.4565 8.51732 26.4565 8.51732 26.451C8.54653 26.3405 8.56393 26.2243 8.56393 26.1081V25.8347C8.56393 25.8119 8.55841 25.7945 8.56393 25.7708V25.7534C8.60427 25.7589 8.62796 25.7826 8.65089 25.7945C10.3886 26.7474 12.2433 27.3052 14.2196 27.4568C14.9988 27.5153 15.7835 27.509 16.5737 27.434C17.277 27.3644 17.9748 27.2538 18.6663 27.0737C21.6367 26.2891 24.0896 24.7025 26.002 22.2848C27.6471 20.2044 28.5883 17.8269 28.8562 15.1887C28.9376 14.397 28.9432 13.6124 28.8791 12.8223ZM17.6966 20.4058C17.6792 20.4928 17.6097 20.5513 17.522 20.5513H13.0113C12.93 20.5513 12.8541 20.4928 12.8367 20.4058L12.8312 20.3766V20.2083C12.8312 19.9934 12.8541 19.7959 12.9008 19.592C12.93 19.5225 12.9474 19.4411 12.9766 19.3653C12.9995 19.2894 13.0351 19.2199 13.0635 19.144C13.1038 19.0745 13.1394 19.0042 13.1797 18.941C13.2026 18.9062 13.2208 18.8769 13.2437 18.8422C13.284 18.7782 13.337 18.7142 13.3836 18.6565C13.4357 18.5926 13.4878 18.5349 13.5408 18.4764C13.8079 18.2149 14.1398 18.0055 14.5057 17.8893C14.0055 17.6222 13.6688 17.0874 13.6688 16.4829C13.6688 15.5996 14.384 14.8845 15.2674 14.879C15.7092 14.879 16.1106 15.0646 16.4007 15.3499C16.6914 15.6407 16.8716 16.0412 16.8716 16.4829C16.8716 17.0874 16.5286 17.6222 16.0348 17.8893C17.0052 18.2093 17.7085 19.1211 17.7085 20.2083C17.7077 20.2723 17.7022 20.3426 17.6966 20.4058ZM25.497 10.55H5.03637C4.87358 10.55 4.75742 10.3872 4.80957 10.2299C6.32681 5.92379 10.436 2.83127 15.2667 2.83127C20.0974 2.83127 24.2066 5.923 25.7229 10.2299C25.7759 10.3872 25.6597 10.55 25.497 10.55Z" fill="#0C1825" style="fill:#0C1825;fill:color(display-p3 0.0471 0.0941 0.1451);fill-opacity:1;"/>
</g>
<defs>
<clipPath id="clip0_1457_3375">
<rect width="145.297" height="28" fill="white" style="fill:white;fill-opacity:1;" transform="translate(0.91333)"/>
</clipPath>
</defs>
</svg>
