<svg width="105" height="28" viewBox="0 0 105 28" fill="none" xmlns="http://www.w3.org/2000/svg">
<path d="M31.2582 13.9398H32.8644C34.6436 13.9398 35.5332 13.1641 35.5332 11.6127C35.5332 10.0613 34.6436 9.2856 32.8644 9.2856H31.2582V13.9398ZM31.2582 24.0405H26.4148V5.37402H34.1247C36.2169 5.37402 37.8149 5.9187 38.9187 7.00796C40.0389 8.09727 40.599 9.63217 40.599 11.6127C40.599 13.5933 40.0389 15.1282 38.9187 16.2174C37.8149 17.3067 36.2169 17.8514 34.1247 17.8514H31.2582V24.0405Z" fill="#667085"/>
<path d="M46.7209 11.3405V24.0406H42.248V11.3405H46.7209ZM41.9517 6.46341C41.9517 6.1168 42.0176 5.79499 42.1495 5.4979C42.2813 5.18434 42.4624 4.912 42.6931 4.68093C42.9238 4.44985 43.1874 4.26834 43.4838 4.13629C43.7967 4.00425 44.1264 3.93823 44.472 3.93823C44.8181 3.93823 45.1394 4.00425 45.4358 4.13629C45.7491 4.26834 46.0207 4.44985 46.2514 4.68093C46.4821 4.912 46.6632 5.18434 46.795 5.4979C46.9268 5.79499 46.9929 6.1168 46.9929 6.46341C46.9929 6.81002 46.9268 7.14009 46.795 7.45369C46.6632 7.75074 46.4821 8.01482 46.2514 8.2459C46.0207 8.47697 45.7491 8.65849 45.4358 8.79053C45.1394 8.92257 44.8181 8.98859 44.472 8.98859C44.1264 8.98859 43.7967 8.92257 43.4838 8.79053C43.1874 8.65849 42.9238 8.47697 42.6931 8.2459C42.4624 8.01482 42.2813 7.75074 42.1495 7.45369C42.0176 7.14009 41.9517 6.81002 41.9517 6.46341Z" fill="#667085"/>
<path d="M49.2834 11.3405H53.7559V12.9497C54.3656 12.207 54.9832 11.7119 55.6093 11.4643C56.2354 11.2002 56.9685 11.0682 57.8085 11.0682C58.6982 11.0682 59.4561 11.2167 60.0822 11.5138C60.7247 11.7944 61.2683 12.1988 61.7129 12.7269C62.0755 13.156 62.3226 13.6346 62.4544 14.1628C62.5862 14.6909 62.6519 15.2934 62.6519 15.97V24.0407H58.1794V17.6287C58.1794 17.0016 58.1298 16.4982 58.0312 16.1186C57.9487 15.7225 57.7921 15.4089 57.5613 15.1778C57.3639 14.9798 57.1416 14.8395 56.8944 14.757C56.6472 14.6744 56.3837 14.6332 56.1037 14.6332C55.3458 14.6332 54.7609 14.8642 54.3491 15.3263C53.9538 15.772 53.7559 16.4156 53.7559 17.2574V24.0407H49.2834V11.3405Z" fill="#667085"/>
<path d="M68.8559 17.6534C68.8559 18.066 68.93 18.4539 69.0782 18.8169C69.2264 19.1635 69.4243 19.4689 69.6715 19.7329C69.9351 19.997 70.2399 20.2033 70.5856 20.3519C70.9481 20.5004 71.3355 20.5747 71.7473 20.5747C72.1427 20.5747 72.5132 20.5004 72.8593 20.3519C73.2218 20.2033 73.5262 19.997 73.7734 19.7329C74.037 19.4689 74.2429 19.1635 74.3915 18.8169C74.5561 18.4704 74.6382 18.099 74.6382 17.7029C74.6382 17.3068 74.5561 16.9355 74.3915 16.5888C74.2429 16.2257 74.037 15.9122 73.7734 15.6481C73.5262 15.384 73.2218 15.1777 72.8593 15.0292C72.5132 14.8806 72.1427 14.8064 71.7473 14.8064C71.3355 14.8064 70.9481 14.8806 70.5856 15.0292C70.2399 15.1777 69.9351 15.384 69.6715 15.6481C69.4243 15.9122 69.2264 16.2175 69.0782 16.5641C68.93 16.8942 68.8559 17.2573 68.8559 17.6534ZM74.49 11.3404H78.9877V24.0406H74.49V22.6295C73.5347 23.8343 72.2416 24.4367 70.6104 24.4367C69.6879 24.4367 68.8395 24.2717 68.0652 23.9416C67.2909 23.595 66.6155 23.1163 66.0391 22.5057C65.4622 21.895 65.0092 21.1771 64.6799 20.3519C64.3667 19.5266 64.2104 18.6272 64.2104 17.6534C64.2104 16.7456 64.3667 15.8874 64.6799 15.0787C64.9928 14.2535 65.4294 13.5355 65.9894 12.9248C66.5494 12.3142 67.2168 11.8356 67.9911 11.489C68.7654 11.1259 69.6218 10.9443 70.5612 10.9443C72.1427 10.9443 73.4521 11.4972 74.49 12.603V11.3404Z" fill="#667085"/>
<path d="M86.5289 15.0787V24.0406H82.056V15.0787H80.5735V11.3405H82.056V7.52795H86.5289V11.3405H89.0741V15.0787H86.5289Z" fill="#667085"/>
<path d="M94.6542 17.6534C94.6542 18.066 94.7283 18.4539 94.8765 18.8169C95.0247 19.1635 95.2226 19.4689 95.4698 19.7329C95.7334 19.997 96.0378 20.2033 96.3839 20.3519C96.7464 20.5004 97.1334 20.5747 97.5451 20.5747C97.9409 20.5747 98.3115 20.5004 98.6576 20.3519C99.0197 20.2033 99.3245 19.997 99.5717 19.7329C99.8353 19.4689 100.041 19.1635 100.189 18.8169C100.354 18.4704 100.437 18.099 100.437 17.7029C100.437 17.3068 100.354 16.9355 100.189 16.5888C100.041 16.2257 99.8353 15.9122 99.5717 15.6481C99.3245 15.384 99.0197 15.1777 98.6576 15.0292C98.3115 14.8806 97.9409 14.8064 97.5451 14.8064C97.1334 14.8064 96.7464 14.8806 96.3839 15.0292C96.0378 15.1777 95.7334 15.384 95.4698 15.6481C95.2226 15.9122 95.0247 16.2175 94.8765 16.5641C94.7283 16.8942 94.6542 17.2573 94.6542 17.6534ZM100.288 11.3404H104.786V24.0406H100.288V22.6295C99.3329 23.8343 98.0395 24.4367 96.4087 24.4367C95.4862 24.4367 94.6378 24.2717 93.8635 23.9416C93.0891 23.595 92.4138 23.1163 91.8369 22.5057C91.2605 21.895 90.8075 21.1771 90.4778 20.3519C90.1649 19.5266 90.0083 18.6272 90.0083 17.6534C90.0083 16.7456 90.1649 15.8874 90.4778 15.0787C90.791 14.2535 91.2277 13.5355 91.7877 12.9248C92.3477 12.3142 93.015 11.8356 93.7894 11.489C94.5637 11.1259 95.4201 10.9443 96.359 10.9443C97.9409 10.9443 99.2504 11.4972 100.288 12.603V11.3404Z" fill="#667085"/>
<mask id="mask0_9977_39136" style="mask-type:luminance" maskUnits="userSpaceOnUse" x="0" y="0" width="19" height="28">
<path d="M18.8768 0H0V28H18.8768V0Z" fill="white"/>
</mask>
<g mask="url(#mask0_9977_39136)">
<path d="M11.3494 25.0952H15.077V26.1C15.077 27.1276 14.2419 27.9619 13.2132 27.9619C12.1845 27.9619 11.3494 27.1276 11.3494 26.1V25.0952Z" fill="#344054"/>
<path d="M15.5203 23.1133L16.0313 25.1571L10.3015 25.1429L11.0356 23.1019L10.3015 23.1L11.0366 21.0571H15.5174L16.0313 23.1143L15.5203 23.1133Z" fill="#667085"/>
<path d="M2.97534 25.0952H6.703V26.1C6.703 27.1276 5.86789 27.9619 4.83917 27.9619C3.8105 27.9619 2.97534 27.1276 2.97534 26.1V25.0952Z" fill="#344054"/>
<path d="M7.1448 23.1133L7.65579 25.1571L1.92603 25.1429L2.66012 23.1019L1.92603 23.1L2.66108 21.0571H7.14194L7.65579 23.1143L7.1448 23.1133Z" fill="#667085"/>
<path d="M15.2254 19.1825L16.1378 21.1767L2.16138 21.0529L3.3569 19.0767L2.16138 19.0663L3.45128 16.9339L2.53319 16.9234L3.65817 14.6567L7.29051 15.152H14.9842L15.766 17.0758L15.1682 17.0691L16.1378 19.1901L15.2254 19.1825Z" fill="#94A3B8"/>
<path d="M14.8958 13.1618L15.5803 15.1808H7.37939L8.17354 13.1618H7.37939L8.18878 11.1046H14.8824L15.5803 13.1618H14.8958Z" fill="#D0D5DD"/>
<path d="M15.8262 11.1142H7.24585L8.3613 8.81893L7.4365 8.79986L9.11444 5.46655L15.8357 6.95228L15.8262 11.1142Z" fill="#9CA3AF"/>
<path d="M3.658 14.657C3.658 14.0484 3.54645 13.2474 3.26045 12.7903C2.8791 12.1808 2.19267 11.7618 0.857948 11.7522L0.838883 12.5141C1.31556 12.4951 1.77319 12.5427 2.16407 12.7903C2.49775 12.9998 2.77423 13.3427 2.98397 13.9141C1.82085 13.5141 1.15349 13.6379 0.686344 13.9427C0.438466 14.1046 0.247791 14.3046 0.0666504 14.5236L0.591005 15.0093C0.619607 14.9618 0.657742 14.9236 0.686344 14.8855C1.25837 14.2093 1.91619 14.2284 2.61215 14.5998C1.09629 15.3236 0.857948 16.5998 0.934218 17.5236C1.00095 17.5332 1.67785 17.5236 1.67785 17.5236C1.61111 16.6284 2.14405 15.3951 3.47877 15.0332L3.658 14.657Z" fill="#344054"/>
<path d="M13.7093 6.48565C15.9498 3.38089 17.0557 1.84755 16.169 1.09517C15.5875 0.599935 14.7313 1.01803 13.4538 1.97041C13.4061 2.98945 13.2346 4.38565 12.9104 6.30944L13.7084 6.48565H13.7093Z" fill="#98A2B3"/>
<path d="M12.7749 0.0853625C11.5642 -0.209875 10.8682 1.71393 9.11401 5.4663L13.0143 6.33202C13.3384 4.40823 13.5167 3.00441 13.509 1.91393C13.5567 0.818696 13.3661 0.22822 12.7749 0.0853625Z" fill="#D0D5DD"/>
<path d="M13.9579 19.1324L13.8445 19.1247L13.8435 19.1238L13.9579 19.1324Z" fill="#F99D2A"/>
<path d="M13.185 9.27413C13.6957 9.27413 14.1098 8.86054 14.1098 8.35035C14.1098 7.84011 13.6957 7.42651 13.185 7.42651C12.6743 7.42651 12.2603 7.84011 12.2603 8.35035C12.2603 8.86054 12.6743 9.27413 13.185 9.27413Z" fill="white"/>
<path d="M13.9579 19.1324L13.8445 19.1247L13.8435 19.1238L13.9579 19.1324Z" fill="#FFE600"/>
<path d="M15.8259 11.1142L15.8355 6.95227C15.8355 6.95227 18.2875 7.50558 18.8167 8.87509C18.8548 8.97416 18.871 9.07985 18.871 9.18558C18.9701 11.0475 15.8259 11.1142 15.8259 11.1142Z" fill="#667085"/>
<path d="M15.826 10.9553V11.1144H15.3179L14.2167 10.6392C14.1318 10.6048 14.0203 10.481 14.0661 10.3925C14.0937 10.3372 14.2034 10.2715 14.3816 10.341L15.826 10.9553Z" fill="#000006"/>
<path d="M3.26595 17.2411L4.06964 17.9964L5.40436 16.7393L6.70095 18.025L8.02613 16.7678L9.35131 18.025L10.6479 16.7393L11.9731 17.9964L13.3078 16.7297L13.5547 16.9764L14.4051 17.7783L15.1688 17.0697L15.409 17.5945L14.4147 18.5878L14.408 18.5811L13.2887 17.4726L11.9636 18.7964L10.6384 17.4726L9.31316 18.7964L8.01661 17.5011L6.69139 18.7583L5.40436 17.4821L4.07917 18.8059L2.97803 17.7145" fill="#000006"/>
<path d="M13.2137 8.81161C13.473 8.79258 13.6656 8.57161 13.6465 8.32113C13.6275 8.0621 13.4063 7.86972 13.1555 7.88875C12.8963 7.90782 12.7037 8.12875 12.7227 8.37923C12.7323 8.62875 12.9534 8.83064 13.2137 8.81161Z" fill="#000006"/>
</g>
</svg>
