<svg width="99" height="28" viewBox="0 0 99 28" fill="none" xmlns="http://www.w3.org/2000/svg">
<g clip-path="url(#clip0_1457_3256)">
<path d="M3.7555 14.3898C3.65729 13.8101 3.53103 13.2444 3.24576 12.7956C2.85761 12.1832 2.17952 11.7672 0.832681 11.7578L0.813974 12.5245C1.29098 12.5105 1.74928 12.5572 2.13743 12.8003C2.46946 13.0107 2.75005 13.3566 2.96049 13.9316C1.79137 13.5343 1.1273 13.6558 0.654973 13.955C0.411795 14.1139 0.220057 14.3243 0.0283203 14.5347L0.561443 15.0209C0.594178 14.9741 0.626914 14.9367 0.654973 14.8993C1.22551 14.2215 1.88957 14.2448 2.58637 14.6188C1.07118 15.3481 0.828004 16.629 0.907504 17.5546C0.977652 17.564 1.65107 17.5546 1.65107 17.5546C1.5856 16.6571 2.22628 15.451 3.55909 15.0863L3.76018 14.6796L3.7555 14.3898Z" fill="#8000DB" style="fill:#8000DB;fill:color(display-p3 0.5020 0.0000 0.8588);fill-opacity:1;"/>
<path d="M13.7295 6.46575C15.9742 3.3523 17.0826 1.80491 16.194 1.05694C15.6048 0.566076 14.8145 0.912016 13.5331 1.87036C13.4863 2.89416 13.2432 4.34804 12.9111 6.28344L13.7295 6.46575Z" fill="#008298" style="fill:#008298;fill:color(display-p3 0.0000 0.5098 0.5961);fill-opacity:1;"/>
<path d="M15.1527 25.1372H14.3297C14.311 26.3153 14.339 27.5261 13.0811 27.9141C13.1231 27.9188 13.1652 27.9234 13.2167 27.9281C13.3523 27.9421 13.4832 27.9328 13.6095 27.9047C15.1668 27.5074 15.1294 26.3059 15.1527 25.1372Z" fill="#580098" style="fill:#580098;fill:color(display-p3 0.3451 0.0000 0.5961);fill-opacity:1;"/>
<path d="M16.0401 25.1374L15.1703 23.0805H15.9793L15.3012 21.1357H14.1742L14.6979 23.0805H14.0713L14.74 25.1374H15.1422H16.0401Z" fill="#98005E" style="fill:#98005E;fill:color(display-p3 0.5961 0.0000 0.3686);fill-opacity:1;"/>
<path d="M13.0801 27.9146C14.3381 27.5266 14.3054 26.3204 14.3287 25.1377H11.3451C11.3264 26.8908 11.9578 27.7463 13.0801 27.9146Z" fill="#8000DB" style="fill:#8000DB;fill:color(display-p3 0.5020 0.0000 0.8588);fill-opacity:1;"/>
<path d="M14.0717 23.0798H14.6937L14.1699 21.1444L11.1349 21.1304L10.4287 23.1406L11.1957 23.1967L10.4287 25.1321H14.7451L14.0717 23.0798Z" fill="#FF009E" style="fill:#FF009E;fill:color(display-p3 1.0000 0.0000 0.6196);fill-opacity:1;"/>
<path d="M7.7775 23.1552L6.97314 21.117L5.8461 21.1123L6.40261 23.1131H5.7666L6.45405 25.1888L7.88038 25.2028L6.88896 23.1459L7.7775 23.1552Z" fill="#98005E" style="fill:#98005E;fill:color(display-p3 0.5961 0.0000 0.3686);fill-opacity:1;"/>
<path d="M5.76367 23.1086H6.39968L5.84785 21.1078L2.76603 21.0938L2.02246 23.1694L2.80811 23.2255L2.02246 25.1796L6.45112 25.1889L5.76367 23.1086Z" fill="#FF009E" style="fill:#FF009E;fill:color(display-p3 1.0000 0.0000 0.6196);fill-opacity:1;"/>
<path d="M12.7904 0.028538C11.5792 -0.261304 10.8777 1.66474 9.12402 5.43736L12.912 6.27883C13.2394 4.34811 13.4872 2.88956 13.534 1.86576C13.5807 0.776517 13.389 0.182808 12.7904 0.028538Z" fill="#00BEDD" style="fill:#00BEDD;fill:color(display-p3 0.0000 0.7451 0.8667);fill-opacity:1;"/>
<path d="M15.1057 19.1535L16.1065 19.2189L15.0402 17.0919H15.9147L15.1244 15.1611H14.4463H13.8571L14.5679 17.0919H13.7822L14.7409 19.2189L13.843 19.1535L14.8017 21.145L16.1672 21.1496L15.1057 19.1535Z" fill="#FF9900" style="fill:#FF9900;fill:color(display-p3 1.0000 0.6000 0.0000);fill-opacity:1;"/>
<path d="M16.1078 13.1697L15.3736 11.1128H13.9519L14.5552 13.1697H13.6807L14.4476 15.1659H15.9722L15.0369 13.1697H16.1078Z" fill="#008298" style="fill:#008298;fill:color(display-p3 0.0000 0.5098 0.5961);fill-opacity:1;"/>
<path d="M9.12939 5.44238C9.12472 5.44238 9.12472 5.45173 9.12939 5.44238L7.44585 8.78958L8.37647 8.80828L7.25879 11.113H15.3585L14.311 10.6689C14.152 10.6034 14.0584 10.4772 14.0958 10.3931C14.1005 10.3837 14.1052 10.379 14.1099 10.3744C14.1566 10.3042 14.3016 10.2949 14.4466 10.3557L14.4934 10.3744L15.2276 10.6876L15.8636 10.954V6.94301L9.12939 5.44238Z" fill="#FFE001" style="fill:#FFE001;fill:color(display-p3 1.0000 0.8784 0.0039);fill-opacity:1;"/>
<path d="M13.2004 9.2561C13.7101 9.2561 14.1263 8.84472 14.1263 8.32581C14.1263 7.81625 13.7148 7.39551 13.2004 7.39551C12.6906 7.39551 12.2744 7.8069 12.2744 8.32581C12.2791 8.84472 12.6953 9.2561 13.2004 9.2561ZM13.2004 7.86767C13.4529 7.86767 13.6633 8.07804 13.6633 8.33048C13.6633 8.58292 13.4529 8.79329 13.2004 8.79329C12.9478 8.79329 12.7374 8.58292 12.7374 8.33048C12.7421 8.07804 12.9478 7.86767 13.2004 7.86767Z" fill="black" style="fill:black;fill-opacity:1;"/>
<path d="M13.2345 8.79402C13.4871 8.77999 13.6788 8.56027 13.6694 8.30316C13.6554 8.05071 13.4356 7.84969 13.1784 7.86839C12.9259 7.88242 12.7341 8.10214 12.7435 8.35926C12.7575 8.6117 12.982 8.80804 13.2345 8.79402Z" fill="black" style="fill:black;fill-opacity:1;"/>
<path d="M15.8594 11.1129V10.9493L14.4892 10.3602L14.4424 10.3415C14.2975 10.2854 14.1618 10.2948 14.1057 10.3602C14.1011 10.3649 14.0964 10.3742 14.0917 10.3789C14.059 10.4631 14.1478 10.594 14.3068 10.6547L15.3544 11.0989H15.3731L15.8594 11.1129Z" fill="black" style="fill:black;fill-opacity:1;"/>
<path d="M13.6826 13.1697H14.5525L13.9492 11.1128H8.23918L7.37402 13.1697H8.24385L7.42079 15.1612H7.43014V15.1659C7.44885 15.1659 7.47223 15.1659 7.48626 15.1659H13.851H14.4402L13.6826 13.1697Z" fill="#00BEDD" style="fill:#00BEDD;fill:color(display-p3 0.0000 0.7451 0.8667);fill-opacity:1;"/>
<path d="M7.42023 15.1613L3.76319 14.6704L2.64551 16.9471H3.38907C3.31893 17.0406 3.23943 17.1481 3.16928 17.2556L4.19811 18.2186L5.53092 16.9564L6.83099 18.2467L8.16379 16.9845L9.4966 18.2467L10.7967 16.9564L10.8388 16.9985L12.1248 18.214L13.4576 16.9517L13.9673 17.452L13.8083 17.0967H14.5987L13.8878 15.1613H10.8294H7.44829H7.43893" fill="#FFE001" style="fill:#FFE001;fill:color(display-p3 1.0000 0.8784 0.0039);fill-opacity:1;"/>
<path d="M13.8453 19.153L14.7431 19.2091L14.5561 18.807L13.4337 17.6851L12.1103 19.0174L10.7775 17.6851L9.45401 19.0221L8.15394 17.7225L6.82114 18.9847L5.5351 17.7038L4.21164 19.0361L2.88819 17.7131C2.80402 17.858 2.28492 18.7603 2.10254 19.1015L3.11734 19.1576L2.20542 21.093L14.818 21.1491L13.8453 19.153Z" fill="#FFE001" style="fill:#FFE001;fill:color(display-p3 1.0000 0.8784 0.0039);fill-opacity:1;"/>
<path d="M13.9534 17.4519L13.4437 16.9424L12.1109 18.2046L10.7781 16.9424L9.4827 18.2326L8.1499 16.9704L6.82177 18.2326L5.5217 16.9424L4.18889 18.2046L3.16006 17.2416C3.06653 17.3865 2.95897 17.5314 2.87012 17.6997L4.19357 19.0227L5.51702 17.6904L6.80306 18.9713L8.13587 17.7091L9.43594 19.0087L10.7687 17.6763L12.1016 19.0087L13.425 17.6763L14.5474 18.7983L13.9534 17.4519Z" fill="black" style="fill:black;fill-opacity:1;"/>
<path d="M6.03867 25.1792C6.01996 26.3666 6.0527 27.5821 4.79004 27.9748C4.86486 27.9841 4.94436 27.9935 5.02386 27.9981C5.08934 28.0028 5.16416 27.9981 5.22495 27.9841C5.28107 27.9701 5.34654 27.9514 5.39799 27.9374C5.47749 27.914 5.56166 27.8906 5.63181 27.8626C5.67858 27.8439 5.72534 27.8205 5.77678 27.8065C5.80952 27.7924 5.8329 27.7737 5.86096 27.7597C5.88902 27.7457 5.91708 27.727 5.94046 27.713C5.98255 27.6896 6.01996 27.6662 6.06205 27.6382C6.08543 27.6242 6.10881 27.6055 6.1322 27.5914C6.17896 27.5494 6.2304 27.512 6.27717 27.4699C6.32393 27.4231 6.36602 27.3764 6.41279 27.325C6.42682 27.3063 6.44552 27.2922 6.45955 27.2689C6.47826 27.2455 6.49229 27.2221 6.50632 27.1941C6.53905 27.1473 6.56244 27.0912 6.5905 27.0398C6.60453 27.0164 6.61388 26.9837 6.63258 26.9603C6.63726 26.9463 6.64661 26.9276 6.65129 26.9136C6.66064 26.8949 6.66532 26.8668 6.67467 26.8481C6.67935 26.8388 6.68403 26.8294 6.68403 26.8154C6.69806 26.7687 6.71676 26.7266 6.72611 26.6752C6.72611 26.6658 6.73079 26.6565 6.73079 26.6518C6.74014 26.6191 6.74482 26.5957 6.7495 26.563C6.7495 26.5583 6.75417 26.5489 6.75417 26.5443C6.75885 26.5115 6.7682 26.4741 6.77288 26.4367C6.77756 26.418 6.77756 26.3947 6.78223 26.3806C6.78691 26.3619 6.78691 26.3339 6.79159 26.3152C6.80562 26.2123 6.81497 26.1142 6.82432 26.0066C6.83367 25.8758 6.83835 25.7542 6.83835 25.6233C6.84303 25.4831 6.84303 25.3475 6.8477 25.2119L6.03867 25.1792Z" fill="#580098" style="fill:#580098;fill:color(display-p3 0.3451 0.0000 0.5961);fill-opacity:1;"/>
<path d="M3.04862 25.1792C3.04395 25.5205 3.06265 25.8337 3.10474 26.1095C3.11877 26.2217 3.13748 26.3199 3.16086 26.418C3.17489 26.4835 3.19359 26.5489 3.20762 26.605C3.46483 27.4278 4.00263 27.8626 4.77425 27.9794C6.03691 27.5868 5.9995 26.3713 6.02288 25.1839H3.04395V25.1792H3.04862Z" fill="#8000DB" style="fill:#8000DB;fill:color(display-p3 0.5020 0.0000 0.8588);fill-opacity:1;"/>
<path d="M18.8658 9.0791C18.5618 9.84578 17.561 10.4675 15.8447 10.6171V10.949V11.1127C15.9663 11.108 16.0692 11.0986 16.1814 11.094C16.3171 11.0846 16.4386 11.0706 16.5649 11.0472C16.6771 11.0332 16.7847 11.0145 16.8876 10.9911C17.3506 10.8976 17.734 10.7527 18.0427 10.5704C18.1082 10.5283 18.1783 10.4909 18.2297 10.4488C18.2625 10.4301 18.2859 10.4068 18.3139 10.3834C18.3934 10.3179 18.4729 10.2431 18.5384 10.173C18.5852 10.1263 18.6179 10.0795 18.66 10.0234C18.7442 9.89253 18.8143 9.76631 18.8517 9.63073C18.9032 9.45776 18.9078 9.27077 18.8658 9.0791Z" fill="#98005E" style="fill:#98005E;fill:color(display-p3 0.5961 0.0000 0.3686);fill-opacity:1;"/>
<path d="M16.2278 7.03121C16.1063 6.99848 15.9893 6.96576 15.8584 6.94238V7.98488V9.02737V10.6215C17.57 10.4672 18.5708 9.8408 18.8794 9.08347C18.7204 8.29809 17.8412 7.47999 16.2278 7.03121Z" fill="#FF009E" style="fill:#FF009E;fill:color(display-p3 1.0000 0.0000 0.6196);fill-opacity:1;"/>
<path d="M37.5365 7.34394C38.6002 8.27221 39.132 9.55492 39.132 11.2089C39.132 12.8545 38.6086 14.1372 37.5365 15.0739C36.4728 16.0022 35.004 16.4748 33.1383 16.4748H29.7025V22.247H26.292V5.95996H33.1383C35.0124 5.95996 36.4728 6.4241 37.5365 7.34394ZM35.6709 11.2089C35.6709 9.49584 34.6494 8.64352 32.6149 8.64352H29.7025V13.7828H32.6149C34.6494 13.7828 35.6709 12.922 35.6709 11.2089Z" fill="black" style="fill:black;fill-opacity:1;"/>
<path d="M40.752 6.33123C40.752 5.1076 41.4526 4.5 42.854 4.5C44.2553 4.5 44.956 5.1076 44.956 6.33123C44.956 7.52955 44.2553 8.13715 42.854 8.13715C41.4526 8.13715 40.752 7.52111 40.752 6.33123ZM44.5339 22.2469H41.1572V9.90087H44.5339V22.2469Z" fill="black" style="fill:black;fill-opacity:1;"/>
<path d="M57.9599 10.8124C58.7788 11.5803 59.184 12.6942 59.184 14.1457V22.247H55.8073V15.1078C55.8073 13.2512 55.0644 12.3229 53.5786 12.3229C52.7935 12.3229 52.1266 12.6014 51.5779 13.1499C51.0292 13.7069 50.7591 14.5592 50.7591 15.7069V22.247H47.3823V9.90098H50.4214L50.548 12.1963C50.9448 11.3525 51.4935 10.728 52.2279 10.2976C52.9539 9.86722 53.7897 9.65625 54.752 9.65625C56.069 9.66469 57.1411 10.0444 57.9599 10.8124Z" fill="black" style="fill:black;fill-opacity:1;"/>
<path d="M73.9911 20.052L73.797 22.1533C73.3664 22.3727 72.8346 22.474 72.193 22.474C71.467 22.4571 70.8508 22.3052 70.3274 22.0098C69.804 21.7145 69.4579 21.2841 69.2806 20.7271C68.9007 21.2841 68.352 21.7229 67.6344 22.0352C66.9084 22.3474 66.1487 22.4993 65.3636 22.4993C64.0804 22.4993 63.0758 22.2124 62.3583 21.6385C61.6407 21.0647 61.2777 20.2377 61.2777 19.1744C61.2777 18.2714 61.5732 17.5288 62.1557 16.9465C62.7382 16.3642 63.5908 15.9507 64.7135 15.7229L68.9682 14.8621V14.398C68.9682 13.706 68.7741 13.1575 68.3689 12.7524C67.9637 12.3473 67.4403 12.1533 66.7734 12.1533C65.4227 12.1533 64.5447 12.8199 64.1564 14.1786L61.2693 13.2925C61.5648 12.1701 62.1894 11.2925 63.1434 10.6427C64.0889 10.0013 65.3551 9.68066 66.9169 9.68066C68.5799 9.68066 69.8884 10.0773 70.8761 10.8621C71.8469 11.6469 72.3281 12.7693 72.3281 14.2545V19.2335C72.3281 19.8579 72.6236 20.1786 73.2145 20.1786C73.4846 20.1786 73.7548 20.128 73.9911 20.052ZM68.1831 19.5373C68.7065 19.1575 68.9682 18.5499 68.9682 17.706V16.9465L66.3766 17.4697C65.7688 17.5879 65.3298 17.7398 65.0681 17.9339C64.8064 18.128 64.6713 18.4318 64.6713 18.8537C64.6713 19.2503 64.8233 19.5541 65.1188 19.7735C65.4142 19.993 65.7857 20.1111 66.2246 20.1111C67.0097 20.1027 67.6682 19.9086 68.1831 19.5373Z" fill="black" style="fill:black;fill-opacity:1;"/>
<path d="M83.8928 21.4869C83.4792 21.7992 82.9896 22.0439 82.3902 22.2295C81.8077 22.4068 81.1915 22.4996 80.5245 22.4996C77.7303 22.4996 76.329 21.2506 76.329 18.7696V12.4236H74.0581V9.90038H76.329V7.05648L79.7057 6.11133V9.8835H83.6649V12.4152H79.7057V18.2211C79.7057 19.3603 80.2713 19.9257 81.4109 19.9257C82.1538 19.9257 82.7954 19.6895 83.3357 19.2338L83.8928 21.4869Z" fill="black" style="fill:black;fill-opacity:1;"/>
<path d="M97.9164 20.052L97.7223 22.1533C97.2917 22.3727 96.7599 22.474 96.1183 22.474C95.3923 22.4571 94.7761 22.3052 94.2527 22.0098C93.7293 21.7145 93.3831 21.2841 93.2059 20.7271C92.826 21.2841 92.2773 21.7229 91.5597 22.0352C90.8337 22.3474 90.074 22.4993 89.2889 22.4993C88.0057 22.4993 87.0011 22.2124 86.2836 21.6385C85.566 21.0647 85.203 20.2377 85.203 19.1744C85.203 18.2714 85.4985 17.5288 86.081 16.9465C86.6635 16.3642 87.5161 15.9507 88.6388 15.7229L92.8935 14.8621V14.398C92.8935 13.706 92.6994 13.1575 92.2942 12.7524C91.889 12.3473 91.3656 12.1533 90.6987 12.1533C89.348 12.1533 88.47 12.8199 88.0817 14.1786L85.1946 13.2925C85.49 12.1701 86.1147 11.2925 87.0687 10.6427C88.0141 10.0013 89.2804 9.68066 90.8422 9.68066C92.5052 9.68066 93.8137 10.0773 94.8014 10.8621C95.7722 11.6469 96.2534 12.7693 96.2534 14.2545V19.2335C96.2534 19.8579 96.5488 20.1786 97.1398 20.1786C97.4099 20.1786 97.6716 20.128 97.9164 20.052ZM92.1084 19.5373C92.6318 19.1575 92.8935 18.5499 92.8935 17.706V16.9465L90.3019 17.4697C89.6941 17.5879 89.2551 17.7398 88.9934 17.9339C88.7317 18.128 88.5966 18.4318 88.5966 18.8537C88.5966 19.2503 88.7486 19.5541 89.0441 19.7735C89.3395 19.993 89.711 20.1111 90.1499 20.1111C90.9266 20.1027 91.585 19.9086 92.1084 19.5373Z" fill="black" style="fill:black;fill-opacity:1;"/>
</g>
<defs>
<clipPath id="clip0_1457_3256">
<rect width="98" height="28" fill="white" style="fill:white;fill-opacity:1;" transform="translate(0.03125)"/>
</clipPath>
</defs>
</svg>
