<svg width="118" height="118" viewBox="0 0 118 118" fill="none" xmlns="http://www.w3.org/2000/svg">
<g filter="url(#filter0_d_3057_6999)">
<rect x="16" y="14" width="85.2517" height="85.4128" rx="42.6259" fill="#2780F1" style="fill:#2780F1;fill:color(display-p3 0.1539 0.5021 0.9459);fill-opacity:1;"/>
</g>
<g clip-path="url(#clip0_3057_6999)">
<path d="M68.0781 36.3936C67.6637 36.3936 67.2663 36.5582 66.9733 36.8512C66.6802 37.1442 66.5156 37.5417 66.5156 37.9561C66.5156 38.3705 66.6802 38.7679 66.9733 39.0609C67.2663 39.3539 67.6637 39.5186 68.0781 39.5186C68.4925 39.5186 68.89 39.3539 69.183 39.0609C69.476 38.7679 69.6406 38.3705 69.6406 37.9561C69.6406 37.5417 69.476 37.1442 69.183 36.8512C68.89 36.5582 68.4925 36.3936 68.0781 36.3936ZM63.3906 36.3936C62.9762 36.3936 62.5788 36.5582 62.2858 36.8512C61.9927 37.1442 61.8281 37.5417 61.8281 37.9561C61.8281 38.3705 61.9927 38.7679 62.2858 39.0609C62.5788 39.3539 62.9762 39.5186 63.3906 39.5186C63.805 39.5186 64.2025 39.3539 64.4955 39.0609C64.7885 38.7679 64.9531 38.3705 64.9531 37.9561C64.9531 37.5417 64.7885 37.1442 64.4955 36.8512C64.2025 36.5582 63.805 36.3936 63.3906 36.3936ZM58.7031 36.3936C58.2887 36.3936 57.8913 36.5582 57.5983 36.8512C57.3052 37.1442 57.1406 37.5417 57.1406 37.9561C57.1406 38.3705 57.3052 38.7679 57.5983 39.0609C57.8913 39.3539 58.2887 39.5186 58.7031 39.5186C59.1175 39.5186 59.515 39.3539 59.808 39.0609C60.101 38.7679 60.2656 38.3705 60.2656 37.9561C60.2656 37.5417 60.101 37.1442 59.808 36.8512C59.515 36.5582 59.1175 36.3936 58.7031 36.3936ZM49.3281 36.3936C48.9137 36.3936 48.5163 36.5582 48.2233 36.8512C47.9302 37.1442 47.7656 37.5417 47.7656 37.9561C47.7656 38.3705 47.9302 38.7679 48.2233 39.0609C48.5163 39.3539 48.9137 39.5186 49.3281 39.5186C49.7425 39.5186 50.14 39.3539 50.433 39.0609C50.726 38.7679 50.8906 38.3705 50.8906 37.9561C50.8906 37.5417 50.726 37.1442 50.433 36.8512C50.14 36.5582 49.7425 36.3936 49.3281 36.3936ZM63.3906 31.7061C62.9762 31.7061 62.5788 31.8707 62.2858 32.1637C61.9927 32.4567 61.8281 32.8542 61.8281 33.2686C61.8281 33.683 61.9927 34.0804 62.2858 34.3734C62.5788 34.6664 62.9762 34.8311 63.3906 34.8311C63.805 34.8311 64.2025 34.6664 64.4955 34.3734C64.7885 34.0804 64.9531 33.683 64.9531 33.2686C64.9531 32.8542 64.7885 32.4567 64.4955 32.1637C64.2025 31.8707 63.805 31.7061 63.3906 31.7061ZM54.0156 78.5811C53.6012 78.5811 53.2038 78.7457 52.9108 79.0387C52.6177 79.3317 52.4531 79.7292 52.4531 80.1436C52.4531 80.558 52.6177 80.9554 52.9108 81.2484C53.2038 81.5414 53.6012 81.7061 54.0156 81.7061C54.43 81.7061 54.8275 81.5414 55.1205 81.2484C55.4135 80.9554 55.5781 80.558 55.5781 80.1436C55.5781 79.7292 55.4135 79.3317 55.1205 79.0387C54.8275 78.7457 54.43 78.5811 54.0156 78.5811ZM35.2656 50.4561C34.8512 50.4561 34.4538 50.6207 34.1608 50.9137C33.8677 51.2067 33.7031 51.6042 33.7031 52.0186C33.7031 52.433 33.8677 52.8304 34.1608 53.1234C34.4538 53.4164 34.8512 53.5811 35.2656 53.5811C35.68 53.5811 36.0775 53.4164 36.3705 53.1234C36.6635 52.8304 36.8281 52.433 36.8281 52.0186C36.8281 51.6042 36.6635 51.2067 36.3705 50.9137C36.0775 50.6207 35.68 50.4561 35.2656 50.4561ZM82.1406 59.8311C81.7262 59.8311 81.3288 59.9957 81.0358 60.2887C80.7427 60.5817 80.5781 60.9792 80.5781 61.3936C80.5781 61.808 80.7427 62.2054 81.0358 62.4984C81.3288 62.7914 81.7262 62.9561 82.1406 62.9561C82.555 62.9561 82.9525 62.7914 83.2455 62.4984C83.5385 62.2054 83.7031 61.808 83.7031 61.3936C83.7031 60.9792 83.5385 60.5817 83.2455 60.2887C82.9525 59.9957 82.555 59.8311 82.1406 59.8311ZM72.7656 41.0811C72.3512 41.0811 71.9538 41.2457 71.6608 41.5387C71.3677 41.8317 71.2031 42.2292 71.2031 42.6436C71.2031 43.058 71.3677 43.4554 71.6608 43.7484C71.9538 44.0414 72.3512 44.2061 72.7656 44.2061C73.18 44.2061 73.5775 44.0414 73.8705 43.7484C74.1635 43.4554 74.3281 43.058 74.3281 42.6436C74.3281 42.2292 74.1635 41.8317 73.8705 41.5387C73.5775 41.2457 73.18 41.0811 72.7656 41.0811ZM63.3906 41.0811C62.9762 41.0811 62.5788 41.2457 62.2858 41.5387C61.9927 41.8317 61.8281 42.2292 61.8281 42.6436C61.8281 43.058 61.9927 43.4554 62.2858 43.7484C62.5788 44.0414 62.9762 44.2061 63.3906 44.2061C63.805 44.2061 64.2025 44.0414 64.4955 43.7484C64.7885 43.4554 64.9531 43.058 64.9531 42.6436C64.9531 42.2292 64.7885 41.8317 64.4955 41.5387C64.2025 41.2457 63.805 41.0811 63.3906 41.0811ZM44.6406 41.0811C44.2262 41.0811 43.8288 41.2457 43.5358 41.5387C43.2427 41.8317 43.0781 42.2292 43.0781 42.6436C43.0781 43.058 43.2427 43.4554 43.5358 43.7484C43.8288 44.0414 44.2262 44.2061 44.6406 44.2061C45.055 44.2061 45.4525 44.0414 45.7455 43.7484C46.0385 43.4554 46.2031 43.058 46.2031 42.6436C46.2031 42.2292 46.0385 41.8317 45.7455 41.5387C45.4525 41.2457 45.055 41.0811 44.6406 41.0811ZM39.9531 45.7686C39.5387 45.7686 39.1413 45.9332 38.8483 46.2262C38.5552 46.5192 38.3906 46.9167 38.3906 47.3311C38.3906 47.7455 38.5552 48.1429 38.8483 48.4359C39.1413 48.7289 39.5387 48.8936 39.9531 48.8936C40.3675 48.8936 40.765 48.7289 41.058 48.4359C41.351 48.1429 41.5156 47.7455 41.5156 47.3311C41.5156 46.9167 41.351 46.5192 41.058 46.2262C40.765 45.9332 40.3675 45.7686 39.9531 45.7686ZM39.9531 50.4561C39.5387 50.4561 39.1413 50.6207 38.8483 50.9137C38.5552 51.2067 38.3906 51.6042 38.3906 52.0186C38.3906 52.433 38.5552 52.8304 38.8483 53.1234C39.1413 53.4164 39.5387 53.5811 39.9531 53.5811C40.3675 53.5811 40.765 53.4164 41.058 53.1234C41.351 52.8304 41.5156 52.433 41.5156 52.0186C41.5156 51.6042 41.351 51.2067 41.058 50.9137C40.765 50.6207 40.3675 50.4561 39.9531 50.4561ZM39.9531 55.1436C39.5387 55.1436 39.1413 55.3082 38.8483 55.6012C38.5552 55.8942 38.3906 56.2917 38.3906 56.7061C38.3906 57.1205 38.5552 57.5179 38.8483 57.8109C39.1413 58.1039 39.5387 58.2686 39.9531 58.2686C40.3675 58.2686 40.765 58.1039 41.058 57.8109C41.351 57.5179 41.5156 57.1205 41.5156 56.7061C41.5156 56.2917 41.351 55.8942 41.058 55.6012C40.765 55.3082 40.3675 55.1436 39.9531 55.1436ZM39.9531 64.5186C39.5387 64.5186 39.1413 64.6832 38.8483 64.9762C38.5552 65.2692 38.3906 65.6667 38.3906 66.0811C38.3906 66.4955 38.5552 66.8929 38.8483 67.1859C39.1413 67.4789 39.5387 67.6436 39.9531 67.6436C40.3675 67.6436 40.765 67.4789 41.058 67.1859C41.351 66.8929 41.5156 66.4955 41.5156 66.0811C41.5156 65.6667 41.351 65.2692 41.058 64.9762C40.765 64.6832 40.3675 64.5186 39.9531 64.5186ZM77.4531 45.7686C77.0387 45.7686 76.6413 45.9332 76.3483 46.2262C76.0552 46.5192 75.8906 46.9167 75.8906 47.3311C75.8906 47.7455 76.0552 48.1429 76.3483 48.4359C76.6413 48.7289 77.0387 48.8936 77.4531 48.8936C77.8675 48.8936 78.265 48.7289 78.558 48.4359C78.851 48.1429 79.0156 47.7455 79.0156 47.3311C79.0156 46.9167 78.851 46.5192 78.558 46.2262C78.265 45.9332 77.8675 45.7686 77.4531 45.7686ZM77.4531 55.1436C77.0387 55.1436 76.6413 55.3082 76.3483 55.6012C76.0552 55.8942 75.8906 56.2917 75.8906 56.7061C75.8906 57.1205 76.0552 57.5179 76.3483 57.8109C76.6413 58.1039 77.0387 58.2686 77.4531 58.2686C77.8675 58.2686 78.265 58.1039 78.558 57.8109C78.851 57.5179 79.0156 57.1205 79.0156 56.7061C79.0156 56.2917 78.851 55.8942 78.558 55.6012C78.265 55.3082 77.8675 55.1436 77.4531 55.1436ZM77.4531 59.8311C77.0387 59.8311 76.6413 59.9957 76.3483 60.2887C76.0552 60.5817 75.8906 60.9792 75.8906 61.3936C75.8906 61.808 76.0552 62.2054 76.3483 62.4984C76.6413 62.7914 77.0387 62.9561 77.4531 62.9561C77.8675 62.9561 78.265 62.7914 78.558 62.4984C78.851 62.2054 79.0156 61.808 79.0156 61.3936C79.0156 60.9792 78.851 60.5817 78.558 60.2887C78.265 59.9957 77.8675 59.8311 77.4531 59.8311ZM77.4531 64.5186C77.0387 64.5186 76.6413 64.6832 76.3483 64.9762C76.0552 65.2692 75.8906 65.6667 75.8906 66.0811C75.8906 66.4955 76.0552 66.8929 76.3483 67.1859C76.6413 67.4789 77.0387 67.6436 77.4531 67.6436C77.8675 67.6436 78.265 67.4789 78.558 67.1859C78.851 66.8929 79.0156 66.4955 79.0156 66.0811C79.0156 65.6667 78.851 65.2692 78.558 64.9762C78.265 64.6832 77.8675 64.5186 77.4531 64.5186ZM44.6406 50.4561C44.2262 50.4561 43.8288 50.6207 43.5358 50.9137C43.2427 51.2067 43.0781 51.6042 43.0781 52.0186C43.0781 52.433 43.2427 52.8304 43.5358 53.1234C43.8288 53.4164 44.2262 53.5811 44.6406 53.5811C45.055 53.5811 45.4525 53.4164 45.7455 53.1234C46.0385 52.8304 46.2031 52.433 46.2031 52.0186C46.2031 51.6042 46.0385 51.2067 45.7455 50.9137C45.4525 50.6207 45.055 50.4561 44.6406 50.4561ZM44.6406 69.2061C44.2262 69.2061 43.8288 69.3707 43.5358 69.6637C43.2427 69.9567 43.0781 70.3542 43.0781 70.7686C43.0781 71.183 43.2427 71.5804 43.5358 71.8734C43.8288 72.1664 44.2262 72.3311 44.6406 72.3311C45.055 72.3311 45.4525 72.1664 45.7455 71.8734C46.0385 71.5804 46.2031 71.183 46.2031 70.7686C46.2031 70.3542 46.0385 69.9567 45.7455 69.6637C45.4525 69.3707 45.055 69.2061 44.6406 69.2061ZM54.0156 69.2061C53.6012 69.2061 53.2038 69.3707 52.9108 69.6637C52.6177 69.9567 52.4531 70.3542 52.4531 70.7686C52.4531 71.183 52.6177 71.5804 52.9108 71.8734C53.2038 72.1664 53.6012 72.3311 54.0156 72.3311C54.43 72.3311 54.8275 72.1664 55.1205 71.8734C55.4135 71.5804 55.5781 71.183 55.5781 70.7686C55.5781 70.3542 55.4135 69.9567 55.1205 69.6637C54.8275 69.3707 54.43 69.2061 54.0156 69.2061ZM72.7656 59.8311C72.3512 59.8311 71.9538 59.9957 71.6608 60.2887C71.3677 60.5817 71.2031 60.9792 71.2031 61.3936C71.2031 61.808 71.3677 62.2054 71.6608 62.4984C71.9538 62.7914 72.3512 62.9561 72.7656 62.9561C73.18 62.9561 73.5775 62.7914 73.8705 62.4984C74.1635 62.2054 74.3281 61.808 74.3281 61.3936C74.3281 60.9792 74.1635 60.5817 73.8705 60.2887C73.5775 59.9957 73.18 59.8311 72.7656 59.8311ZM72.7656 69.2061C72.3512 69.2061 71.9538 69.3707 71.6608 69.6637C71.3677 69.9567 71.2031 70.3542 71.2031 70.7686C71.2031 71.183 71.3677 71.5804 71.6608 71.8734C71.9538 72.1664 72.3512 72.3311 72.7656 72.3311C73.18 72.3311 73.5775 72.1664 73.8705 71.8734C74.1635 71.5804 74.3281 71.183 74.3281 70.7686C74.3281 70.3542 74.1635 69.9567 73.8705 69.6637C73.5775 69.3707 73.18 69.2061 72.7656 69.2061ZM68.0781 73.8936C67.6637 73.8936 67.2663 74.0582 66.9733 74.3512C66.6802 74.6442 66.5156 75.0417 66.5156 75.4561C66.5156 75.8705 66.6802 76.2679 66.9733 76.5609C67.2663 76.8539 67.6637 77.0186 68.0781 77.0186C68.4925 77.0186 68.89 76.8539 69.183 76.5609C69.476 76.2679 69.6406 75.8705 69.6406 75.4561C69.6406 75.0417 69.476 74.6442 69.183 74.3512C68.89 74.0582 68.4925 73.8936 68.0781 73.8936ZM58.7031 73.8936C58.2887 73.8936 57.8913 74.0582 57.5983 74.3512C57.3052 74.6442 57.1406 75.0417 57.1406 75.4561C57.1406 75.8705 57.3052 76.2679 57.5983 76.5609C57.8913 76.8539 58.2887 77.0186 58.7031 77.0186C59.1175 77.0186 59.515 76.8539 59.808 76.5609C60.101 76.2679 60.2656 75.8705 60.2656 75.4561C60.2656 75.0417 60.101 74.6442 59.808 74.3512C59.515 74.0582 59.1175 73.8936 58.7031 73.8936ZM54.0156 73.8936C53.6012 73.8936 53.2038 74.0582 52.9108 74.3512C52.6177 74.6442 52.4531 75.0417 52.4531 75.4561C52.4531 75.8705 52.6177 76.2679 52.9108 76.5609C53.2038 76.8539 53.6012 77.0186 54.0156 77.0186C54.43 77.0186 54.8275 76.8539 55.1205 76.5609C55.4135 76.2679 55.5781 75.8705 55.5781 75.4561C55.5781 75.0417 55.4135 74.6442 55.1205 74.3512C54.8275 74.0582 54.43 73.8936 54.0156 73.8936ZM49.3281 73.8936C48.9137 73.8936 48.5163 74.0582 48.2233 74.3512C47.9302 74.6442 47.7656 75.0417 47.7656 75.4561C47.7656 75.8705 47.9302 76.2679 48.2233 76.5609C48.5163 76.8539 48.9137 77.0186 49.3281 77.0186C49.7425 77.0186 50.14 76.8539 50.433 76.5609C50.726 76.2679 50.8906 75.8705 50.8906 75.4561C50.8906 75.0417 50.726 74.6442 50.433 74.3512C50.14 74.0582 49.7425 73.8936 49.3281 73.8936Z" fill="white" style="fill:white;fill-opacity:1;"/>
</g>
<defs>
<filter id="filter0_d_3057_6999" x="0" y="0" width="117.25" height="117.413" filterUnits="userSpaceOnUse" color-interpolation-filters="sRGB">
<feFlood flood-opacity="0" result="BackgroundImageFix"/>
<feColorMatrix in="SourceAlpha" type="matrix" values="0 0 0 0 0 0 0 0 0 0 0 0 0 0 0 0 0 0 127 0" result="hardAlpha"/>
<feMorphology radius="4" operator="dilate" in="SourceAlpha" result="effect1_dropShadow_3057_6999"/>
<feOffset dy="2"/>
<feGaussianBlur stdDeviation="6"/>
<feComposite in2="hardAlpha" operator="out"/>
<feColorMatrix type="matrix" values="0 0 0 0 0.152941 0 0 0 0 0.501961 0 0 0 0 0.945098 0 0 0 0.08 0"/>
<feBlend mode="normal" in2="BackgroundImageFix" result="effect1_dropShadow_3057_6999"/>
<feBlend mode="normal" in="SourceGraphic" in2="effect1_dropShadow_3057_6999" result="shape"/>
</filter>
<clipPath id="clip0_3057_6999">
<rect width="50" height="50" fill="white" style="fill:white;fill-opacity:1;" transform="translate(33.7031 31.7061)"/>
</clipPath>
</defs>
</svg>
