<svg width="40" height="40" viewBox="0 0 40 40" fill="none" xmlns="http://www.w3.org/2000/svg">
<g id="Frame" clip-path="url(#clip0_3127_4164)">
<path id="Vector" d="M4 0C2.79375 0 1.75938 0.75 1.075 1.775C0.390625 2.8 0 4.13438 0 5.6C0 7.06562 0.390625 8.4 1.075 9.425C1.75938 10.45 2.79375 11.2 4 11.2H6.4V32.8C6.4 37.1313 9.12812 40 12 40H36C36.025 40 36.05 40 36.075 40C36.0844 40 36.0906 40 36.1 40C36.1406 40 36.1844 39.9781 36.225 39.975C37.3344 39.8875 38.2844 39.1875 38.925 38.225C39.6094 37.2 40 35.8656 40 34.4C40 32.9344 39.6094 31.6 38.925 30.575C38.2406 29.55 37.2063 28.8 36 28.8H32V21.725C32.0031 21.6844 32.0031 21.6406 32 21.6V10.4C32.0063 10.35 32.0063 10.3 32 10.25V7.2C32 2.86875 29.2719 0 26.4 0H4ZM4 1.6H23.65C23.6 1.66875 23.5219 1.70312 23.475 1.775C22.7906 2.8 22.4 4.13438 22.4 5.6C22.4 7.06562 22.7906 8.4 23.475 9.425C23.5219 9.49688 23.6 9.53125 23.65 9.6H7.375C7.29375 9.57812 7.20938 9.56875 7.125 9.575C7.1 9.58125 7.075 9.59062 7.05 9.6H4C3.44688 9.6 2.875 9.26562 2.4 8.55C1.925 7.83438 1.6 6.775 1.6 5.6C1.6 4.425 1.925 3.36562 2.4 2.65C2.875 1.93438 3.44688 1.6 4 1.6ZM26.375 1.6C26.3844 1.6 26.3906 1.6 26.4 1.6C28.1688 1.6 30.4 3.53125 30.4 7.2V10.25C30.3938 10.3 30.3938 10.35 30.4 10.4V21.6C30.4 21.625 30.4 21.65 30.4 21.675V29.225C30.2938 29.4469 30.2938 29.7031 30.4 29.925V32.8C30.4 35.1875 31.225 37.1375 32.45 38.4H12C10.2313 38.4 8 36.4688 8 32.8V11.2H26.4V9.6C25.8469 9.6 25.275 9.26562 24.8 8.55C24.325 7.83438 24 6.775 24 5.6C24 4.425 24.325 3.36562 24.8 2.65C25.2688 1.94688 25.8281 1.60938 26.375 1.6ZM11.775 16.8C11.3344 16.8625 11.025 17.2719 11.0875 17.7125C11.15 18.1531 11.5594 18.4625 12 18.4H13.6C13.8875 18.4031 14.1563 18.2531 14.3031 18.0031C14.4469 17.7531 14.4469 17.4469 14.3031 17.1969C14.1563 16.9469 13.8875 16.7969 13.6 16.8H12C11.975 16.8 11.95 16.8 11.925 16.8C11.9 16.8 11.875 16.8 11.85 16.8C11.825 16.8 11.8 16.8 11.775 16.8ZM16.575 16.8C16.1344 16.8625 15.825 17.2719 15.8875 17.7125C15.95 18.1531 16.3594 18.4625 16.8 18.4H26.4C26.6875 18.4031 26.9563 18.2531 27.1031 18.0031C27.2469 17.7531 27.2469 17.4469 27.1031 17.1969C26.9563 16.9469 26.6875 16.7969 26.4 16.8H16.8C16.775 16.8 16.75 16.8 16.725 16.8C16.7 16.8 16.675 16.8 16.65 16.8C16.625 16.8 16.6 16.8 16.575 16.8ZM11.775 21.6C11.3344 21.6625 11.025 22.0719 11.0875 22.5125C11.15 22.9531 11.5594 23.2625 12 23.2H13.6C13.8875 23.2031 14.1563 23.0531 14.3031 22.8031C14.4469 22.5531 14.4469 22.2469 14.3031 21.9969C14.1563 21.7469 13.8875 21.5969 13.6 21.6H12C11.975 21.6 11.95 21.6 11.925 21.6C11.9 21.6 11.875 21.6 11.85 21.6C11.825 21.6 11.8 21.6 11.775 21.6ZM16.575 21.6C16.1344 21.6625 15.825 22.0719 15.8875 22.5125C15.95 22.9531 16.3594 23.2625 16.8 23.2H26.4C26.6875 23.2031 26.9563 23.0531 27.1031 22.8031C27.2469 22.5531 27.2469 22.2469 27.1031 21.9969C26.9563 21.7469 26.6875 21.5969 26.4 21.6H16.8C16.775 21.6 16.75 21.6 16.725 21.6C16.7 21.6 16.675 21.6 16.65 21.6C16.625 21.6 16.6 21.6 16.575 21.6ZM11.775 26.4C11.3344 26.4625 11.025 26.8719 11.0875 27.3125C11.15 27.7531 11.5594 28.0625 12 28H13.6C13.8875 28.0031 14.1563 27.8531 14.3031 27.6031C14.4469 27.3531 14.4469 27.0469 14.3031 26.7969C14.1563 26.5469 13.8875 26.3969 13.6 26.4H12C11.975 26.4 11.95 26.4 11.925 26.4C11.9 26.4 11.875 26.4 11.85 26.4C11.825 26.4 11.8 26.4 11.775 26.4ZM16.575 26.4C16.1344 26.4625 15.825 26.8719 15.8875 27.3125C15.95 27.7531 16.3594 28.0625 16.8 28H26.4C26.6875 28.0031 26.9563 27.8531 27.1031 27.6031C27.2469 27.3531 27.2469 27.0469 27.1031 26.7969C26.9563 26.5469 26.6875 26.3969 26.4 26.4H16.8C16.775 26.4 16.75 26.4 16.725 26.4C16.7 26.4 16.675 26.4 16.65 26.4C16.625 26.4 16.6 26.4 16.575 26.4ZM32 30.4H36C36.5531 30.4 37.125 30.7344 37.6 31.45C38.075 32.1656 38.4 33.225 38.4 34.4C38.4 35.575 38.075 36.6344 37.6 37.35C37.1375 38.0438 36.5875 38.3813 36.05 38.4C36.0344 38.4 36.0156 38.4 36 38.4C34.2313 38.4 32 36.4688 32 32.8V30.4ZM11.775 31.2C11.3344 31.2625 11.025 31.6719 11.0875 32.1125C11.15 32.5531 11.5594 32.8625 12 32.8H13.6C13.8875 32.8031 14.1563 32.6531 14.3031 32.4031C14.4469 32.1531 14.4469 31.8469 14.3031 31.5969C14.1563 31.3469 13.8875 31.1969 13.6 31.2H12C11.975 31.2 11.95 31.2 11.925 31.2C11.9 31.2 11.875 31.2 11.85 31.2C11.825 31.2 11.8 31.2 11.775 31.2ZM16.575 31.2C16.1344 31.2625 15.825 31.6719 15.8875 32.1125C15.95 32.5531 16.3594 32.8625 16.8 32.8H26.4C26.6875 32.8031 26.9563 32.6531 27.1031 32.4031C27.2469 32.1531 27.2469 31.8469 27.1031 31.5969C26.9563 31.3469 26.6875 31.1969 26.4 31.2H16.8C16.775 31.2 16.75 31.2 16.725 31.2C16.7 31.2 16.675 31.2 16.65 31.2C16.625 31.2 16.6 31.2 16.575 31.2Z" fill="black" style="fill:black;fill-opacity:1;"/>
</g>
<defs>
<clipPath id="clip0_3127_4164">
<rect width="40" height="40" fill="white" style="fill:white;fill-opacity:1;"/>
</clipPath>
</defs>
</svg>
