<svg width="40" height="40" viewBox="0 0 40 40" fill="none" xmlns="http://www.w3.org/2000/svg">
<g id="Frame">
<path id="Vector" d="M2.25167 4.79983C1.87042 4.8717 1.59542 5.2092 1.60167 5.59983V34.3998C1.60167 34.8405 1.96104 35.1998 2.40167 35.1998H37.6017C38.0423 35.1998 38.4017 34.8405 38.4017 34.3998V5.59983C38.4017 5.57483 38.4017 5.54983 38.4017 5.52483C38.3642 5.11233 38.0173 4.7967 37.6017 4.79983H2.40167C2.37667 4.79983 2.35167 4.79983 2.32667 4.79983C2.30167 4.79983 2.27667 4.79983 2.25167 4.79983ZM3.20167 6.39983H36.8017V33.5998H3.20167V6.39983ZM29.5267 12.7748C29.4923 12.7811 29.4579 12.7905 29.4267 12.7998H28.4017C28.3767 12.7998 28.3517 12.7998 28.3267 12.7998C27.886 12.8217 27.5423 13.1967 27.5642 13.6373C27.586 14.078 27.961 14.4217 28.4017 14.3998H28.8017V24.7998H28.4017C28.3767 24.7998 28.3517 24.7998 28.3267 24.7998C28.3017 24.7998 28.2767 24.7998 28.2517 24.7998C27.811 24.8405 27.486 25.2342 27.5267 25.6748C27.5673 26.1155 27.961 26.4405 28.4017 26.3998H30.8017C31.0892 26.403 31.3579 26.253 31.5048 26.003C31.6485 25.753 31.6485 25.4467 31.5048 25.1967C31.3579 24.9467 31.0892 24.7967 30.8017 24.7998H30.4017V14.3998H30.8017C31.0892 14.403 31.3579 14.253 31.5048 14.003C31.6485 13.753 31.6485 13.4467 31.5048 13.1967C31.3579 12.9467 31.0892 12.7967 30.8017 12.7998H29.7517C29.6798 12.7811 29.6017 12.7717 29.5267 12.7748ZM11.5017 12.7998C11.1798 12.8373 10.9142 13.0655 10.8267 13.3748L7.22667 25.0748C7.20792 25.1467 7.19854 25.2248 7.20167 25.2998V25.5998C7.19854 25.8873 7.34854 26.1561 7.59854 26.303C7.84854 26.4467 8.15479 26.4467 8.40479 26.303C8.65479 26.1561 8.80479 25.8873 8.80167 25.5998V25.4748L9.50167 23.1998H13.7017L14.4017 25.4748V25.5998C14.3985 25.8873 14.5485 26.1561 14.7985 26.303C15.0485 26.4467 15.3548 26.4467 15.6048 26.303C15.8548 26.1561 16.0048 25.8873 16.0017 25.5998V25.2998C16.0048 25.2248 15.9954 25.1467 15.9767 25.0748L12.3767 13.3748C12.2673 12.9936 11.8954 12.7467 11.5017 12.7998ZM19.0517 12.7998C18.6704 12.8717 18.3954 13.2092 18.4017 13.5998V20.6498C18.3798 20.7561 18.3798 20.8686 18.4017 20.9748V25.5998C18.3985 25.8873 18.5485 26.1561 18.7985 26.303C19.0485 26.4467 19.3548 26.4467 19.6048 26.303C19.8548 26.1561 20.0048 25.8873 20.0017 25.5998V21.5998H22.4017C24.161 21.5998 25.6017 20.1592 25.6017 18.3998V15.9998C25.6017 14.2405 24.161 12.7998 22.4017 12.7998H19.2017C19.1767 12.7998 19.1517 12.7998 19.1267 12.7998C19.1017 12.7998 19.0767 12.7998 19.0517 12.7998ZM20.0017 14.3998H22.4017C23.2954 14.3998 24.0017 15.1061 24.0017 15.9998V18.3998C24.0017 19.2936 23.2954 19.9998 22.4017 19.9998H20.0017V14.3998ZM11.6017 16.3498L13.2017 21.5998H10.0017L11.6017 16.3498Z" fill="black" style="fill:black;fill-opacity:1;"/>
</g>
</svg>
