<svg width="40" height="40" viewBox="0 0 40 40" fill="none" xmlns="http://www.w3.org/2000/svg">
<g id="Frame">
<path id="Vector" d="M27.9221 1.59961C26.2909 1.59961 24.8784 2.04023 23.9002 2.47461C22.9409 2.15273 21.3502 1.60273 19.4409 1.99961C18.3284 2.19336 17.3065 2.65273 16.369 3.35586C14.8252 2.61211 13.2127 2.15586 11.5221 2.08086C10.4815 1.99961 6.24087 2.48086 4.71899 4.71836C4.15962 5.59961 3.60024 6.71836 3.35962 8.07773C3.11899 9.27773 3.11899 10.6402 3.51899 13.4402C3.75962 15.359 4.08149 16.6402 4.80024 19.2777C4.88149 19.5184 5.28149 20.7996 6.48149 24.3215C6.71899 24.959 7.20024 26.159 8.15962 27.2777C8.80024 28.0777 9.44087 28.559 10.2409 28.559C11.2815 28.559 12.0002 27.8402 12.6409 27.0402C12.6877 26.9871 12.7377 26.9277 12.7846 26.8746C12.7252 26.9684 12.6721 27.0715 12.6409 27.1996C12.4815 27.9996 13.4409 28.6402 14.2409 28.959C14.8815 29.2777 15.6002 29.359 16.1596 29.359C16.8784 29.359 17.4409 29.1996 17.7596 29.1215C18.0346 29.0277 18.6284 28.7715 19.2627 28.3496C19.2909 30.3934 19.3096 32.8059 19.3596 33.359C19.6002 35.4402 20.1596 36.8777 21.2002 37.6777C22.0002 38.3184 23.4409 38.3996 23.5221 38.3996C24.9596 38.3996 27.2002 37.4402 28.1596 35.9215C28.6409 35.1996 28.8002 34.559 28.9596 33.6777C29.119 33.1996 29.2784 30.3996 29.3596 29.8402C29.469 28.9559 29.5534 28.084 29.6377 27.2371C30.1659 27.3746 30.8159 27.5215 31.5221 27.5215C32.8002 27.5215 34.4815 26.6402 34.8002 26.4777C35.4409 25.9996 36.719 24.8809 36.1596 23.9215C35.8409 23.359 35.3596 23.359 34.1596 23.5215C34.1596 23.5215 32.2409 23.759 32.0784 23.6777C31.9627 23.634 31.7846 23.5215 31.5846 23.3746C32.0002 22.7309 32.369 22.0934 32.8002 21.5215C33.7596 19.6809 34.3221 18.2402 34.7221 17.1215C35.4409 15.1215 35.8409 13.5184 36.0784 12.3996C36.6409 9.99961 36.8002 8.88086 36.4784 7.59961C35.8409 5.35898 33.519 3.44023 32.5596 2.88086C31.919 2.55898 30.3221 1.59961 27.9221 1.59961ZM27.9221 3.19961C29.9221 3.19961 31.2815 3.99961 32.0002 4.31836C32.8815 4.79961 34.8815 6.39961 35.0409 7.91836C35.1221 8.79961 35.2002 9.68086 34.6409 11.9996C34.3221 13.1184 34.0002 14.559 33.2784 16.559C32.8784 17.6777 32.4002 19.0402 31.4409 20.7215C31.4159 20.7621 31.3877 20.8059 31.3627 20.8496C31.4565 20.5121 31.5221 20.2402 31.5221 20.2402C31.6815 19.4402 31.6815 18.7996 31.6002 17.8402C31.519 17.359 31.4409 16.159 31.4409 15.6777C31.4409 15.4402 31.6784 12.959 31.7596 12.0777C31.8409 10.6402 30.9596 8.87773 30.7221 8.55898C29.5221 6.71836 28.8815 5.68086 27.6002 4.64023C27.2815 4.36836 26.7346 3.91523 25.9909 3.45898C26.5784 3.31523 27.2284 3.19961 27.9221 3.19961ZM20.8534 3.52773C21.8971 3.55273 22.7815 3.84023 23.4409 4.08086C25.1221 4.64023 26.1596 5.51836 26.6409 5.91836C27.6815 6.79961 28.2409 7.68086 29.4409 9.52148C29.5284 9.69648 29.7565 10.0684 29.9377 10.5871C28.3002 10.4371 27.2127 11.0121 26.5596 11.5996C25.6002 12.3996 25.6784 13.5996 25.7596 14.4777C25.7596 15.1184 25.9221 15.9215 27.1221 18.6402C27.6002 19.8402 28.0784 21.1184 28.5596 21.9996C28.8096 22.4965 29.1159 22.9527 29.444 23.359C29.2534 23.4559 29.0596 23.5809 28.8784 23.759C28.4002 24.3184 28.319 24.8809 28.1596 25.9215C28.0002 26.7215 27.8409 28.3996 27.7596 29.759C27.7596 30.3184 27.5221 33.0402 27.4409 33.4402C27.2002 34.2402 27.119 34.6402 26.8002 35.1215C26.2409 35.9996 24.4815 36.7215 23.4409 36.6402C23.1221 36.6402 22.6409 36.6402 22.2409 36.3215C21.3596 35.6809 21.0409 34.2402 20.9596 33.1215C20.8784 32.3215 20.9596 26.559 20.8002 25.2777C20.719 24.959 20.6409 24.159 20.0002 23.5996C19.7315 23.3746 19.1752 23.259 18.6502 23.1809C18.6565 22.9121 18.6721 22.6434 18.7221 22.3996C18.8002 21.9184 18.9596 21.6777 19.1221 21.2777C19.2002 21.0402 19.3596 20.7215 19.5221 20.3215C20.2409 18.0809 20.0784 15.1184 19.6784 13.2777C19.6002 13.1184 19.2784 11.8402 18.1596 11.1215C16.9596 10.3996 15.6784 10.7996 14.9596 11.0402C14.6627 11.1215 14.369 11.2496 14.0752 11.3996C14.1252 11.0652 14.169 10.7277 14.2409 10.3996C14.5596 8.79961 14.8815 7.44023 15.9221 6.08086C17.0409 4.71836 18.319 3.84023 19.7596 3.59961C20.1409 3.54023 20.5065 3.51836 20.8534 3.52773ZM10.9752 3.66836C11.1627 3.66523 11.3221 3.66836 11.4409 3.68086C12.6909 3.74648 13.8877 4.04023 15.0752 4.54023C14.9284 4.70273 14.7815 4.86523 14.6409 5.04023C13.2815 6.64023 12.9596 8.31836 12.6409 9.99961C12.2409 11.9996 12.1596 14.0777 12.4784 16.159L12.3221 17.6777C12.2409 18.4777 12.0784 19.9996 12.9596 21.5996C13.269 22.1309 13.6096 22.5809 13.9846 22.9652C13.1721 24.0402 12.3096 25.0559 11.4409 25.9996C10.9596 26.559 10.5596 26.959 10.2409 26.959C10.1596 26.959 9.84087 26.7996 9.35962 26.2402C8.47837 25.2809 8.15962 24.2402 8.00024 23.8402C7.04087 20.959 6.48149 19.1184 6.40024 18.8777C5.75962 16.3184 5.44087 15.0402 5.11899 13.1996C4.71899 10.6402 4.71899 9.35898 4.95962 8.32148C5.20024 7.19961 5.60024 6.31836 6.00024 5.68086C6.98149 4.14023 9.67524 3.70273 10.9752 3.66836ZM29.3315 12.0996C29.5877 12.0996 29.8659 12.1309 30.1596 12.1934C30.1502 12.9402 29.8409 15.284 29.8409 15.5996C29.8409 16.2402 30.0002 17.5184 30.0002 17.9996C30.0815 18.8809 30.0815 19.359 30.0002 19.9996C30.0002 19.9996 29.8815 20.5715 29.7596 20.9777C29.3877 20.1371 28.9752 19.134 28.4784 17.9996C27.2784 15.2809 27.2002 14.7215 27.2002 14.3215C27.2002 13.759 27.2002 13.0402 27.6784 12.7215C28.1284 12.3215 28.6752 12.1059 29.3315 12.0996ZM16.9127 12.334C17.0721 12.3527 17.219 12.3996 17.3596 12.4777C18.0002 12.7996 18.1596 13.5996 18.1596 13.5996C18.5596 15.359 18.719 17.9996 18.0784 19.759C18.0002 20.0777 17.8409 20.3184 17.7596 20.559C17.6002 20.959 17.4409 21.359 17.2784 22.0777C17.2377 22.3746 17.219 22.6684 17.2096 22.9621C16.6565 22.8465 16.1346 22.6496 15.7596 22.3996C15.119 22.0809 14.6409 21.5184 14.3221 20.8777C13.7596 19.6777 13.8409 18.559 13.9221 17.9215L14.0784 16.0777C13.9659 15.1777 13.9127 14.2746 13.9252 13.3777C14.294 13.0621 14.7752 12.7402 15.4409 12.559C15.9221 12.4402 16.4471 12.2746 16.9127 12.334ZM28.7096 12.8715C28.5002 12.8809 28.2784 12.9184 28.1596 12.959C27.8409 13.0402 27.7596 13.0402 27.6784 13.1996C27.6002 13.359 27.8409 13.5996 27.9221 13.759C28.0002 13.759 28.2409 13.9996 28.5596 13.9215C28.8002 13.8402 28.9596 13.6809 29.0409 13.5996C29.1221 13.5184 29.4409 13.1184 29.2002 12.959C29.119 12.8777 28.919 12.859 28.7096 12.8715ZM16.7315 13.4527C16.644 13.459 16.5596 13.4809 16.4784 13.5215C16.4002 13.5215 16.2409 13.5996 16.1596 13.759C16.0784 13.9184 16.1596 14.0777 16.2409 14.159C16.4002 14.3996 16.6409 14.6402 17.0409 14.6402C17.1221 14.6402 17.4409 14.6402 17.6784 14.3996C17.6784 14.3996 17.9221 14.159 17.9221 13.9215C17.8409 13.759 17.6815 13.6809 17.4409 13.5996C17.2596 13.5402 16.9909 13.434 16.7315 13.4527ZM15.2596 23.9215C15.7502 24.184 16.3409 24.3965 16.9877 24.5434C16.8159 24.8871 16.569 25.1715 16.3221 25.359C15.7596 25.759 15.0409 25.9996 14.3221 26.159C14.1596 26.159 14.0815 26.2402 13.9221 26.2402C13.5346 26.3496 13.1596 26.4715 12.9034 26.7371C13.6877 25.8652 14.4752 24.9027 15.2596 23.9215ZM30.6846 24.5621C31.0346 24.8246 31.3784 25.0184 31.6784 25.1215C32.1596 25.2809 32.5596 25.2809 34.0002 25.1215C33.7596 25.359 33.0409 25.759 32.0002 25.9215C31.3315 25.9871 30.5002 25.8277 29.8252 25.634C29.8877 25.1809 29.9596 24.9215 30.0784 24.7996C30.1221 24.759 30.3877 24.6777 30.6846 24.5621ZM18.6377 24.8027C18.8034 24.8309 18.9346 24.8527 18.9596 24.8777C19.119 25.0402 19.2002 25.4402 19.2002 25.5996C19.2096 25.7371 19.2159 26.084 19.2221 26.3246C18.5627 27.0965 17.5034 27.5246 17.2784 27.5996C16.9596 27.759 16.0002 27.9184 15.0409 27.5996C15.8409 27.359 16.6409 27.1215 17.2784 26.6402C17.8377 26.2402 18.319 25.6027 18.6377 24.8027Z" fill="black" style="fill:black;fill-opacity:1;"/>
</g>
</svg>
