<svg width="40" height="40" viewBox="0 0 40 40" fill="none" xmlns="http://www.w3.org/2000/svg">
<g id="Frame">
<path id="Vector" d="M1.53125 19.5271V19.5271C1.52404 29.664 9.64361 37.8591 19.6733 37.866C29.9582 37.8732 38.164 29.7875 38.1769 19.6797C38.1892 10.1587 30.6486 2.24592 21.1974 1.57105L20.5369 3.27761C20.0947 4.4202 20.5301 5.39226 21.1107 6.6886L21.1204 6.71027C21.1204 6.7103 21.1204 6.71034 21.1204 6.71037C21.5126 7.58583 21.8225 8.47568 22.0617 9.37811C22.3468 8.07836 22.8288 6.73444 23.938 5.63766L25.7616 3.83456L25.1969 6.33611C24.7534 8.30095 25.5497 9.94228 26.5872 11.8447L26.5872 11.8448C27.9524 14.3486 28.3678 17.0579 27.3959 19.8637L27.3957 19.8642C27.2817 20.1924 27.1388 20.5019 26.9887 20.7951L31.4587 19.9196L32.7006 19.6764L32.3177 20.8826C31.6972 22.8371 30.7037 24.3915 29.4165 25.7445C29.214 25.9578 28.9588 26.0383 28.8127 26.0729C28.6468 26.1123 28.4833 26.1237 28.3554 26.1238C22.6773 26.1313 16.999 26.1325 11.3207 26.1213C11.1457 26.1211 10.9552 26.0913 10.778 26.0328C10.6146 25.9788 10.3735 25.8713 10.19 25.6541L10.1899 25.6541C9.10313 24.3679 8.08339 22.9475 7.49907 21.2308L7.49833 21.2286C7.45056 21.0868 7.44737 20.9571 7.44613 20.9069L7.446 20.9018C7.44547 20.8814 7.44516 20.8639 7.44487 20.8473C7.44421 20.8101 7.44362 20.7771 7.44078 20.7246L7.3881 19.749L8.34415 19.9502L12.2569 20.7736C11.5802 19.5298 11.2157 18.1998 11.3759 16.7235L11.376 16.7232C11.5019 15.5661 11.813 14.4232 12.1039 13.3545C12.1531 13.1737 12.2017 12.995 12.2488 12.8187L1.53125 19.5271ZM1.53125 19.5271C1.53785 9.64264 9.79423 1.52231 19.8911 1.52441C20.2544 1.52449 20.6153 1.53527 20.9735 1.55644L1.53125 19.5271ZM29.4975 27.1097V26.3597H28.7475H10.94H10.19V27.1097V30.2029V30.9529H10.94H28.7475H29.4975V30.2029V27.1097ZM14.4713 31.0522H13.7254L13.7213 31.798C13.7035 34.9777 16.8826 37.0558 20.3543 36.9068L20.3545 36.9068C21.8787 36.8411 23.3087 36.2119 24.3375 35.2925C25.3586 34.3801 26.0625 33.1027 25.931 31.7306L25.8659 31.0522H25.1844H14.4713Z" stroke="black" style="stroke:black;stroke-opacity:1;" stroke-width="1.5"/>
</g>
</svg>
