<svg width="16" height="17" viewBox="0 0 16 17" fill="none" xmlns="http://www.w3.org/2000/svg">
<g id="Icon" clip-path="url(#clip0_3006_3260)">
<g id="Container">
<g id="Container_2">
<path id="Vector" d="M8 0.5C3.582 0.5 0 4.082 0 8.5C0 12.918 3.582 16.5 8 16.5C12.418 16.5 16 12.918 16 8.5C16 4.082 12.418 0.5 8 0.5ZM8 13.5C7.448 13.5 7 13.052 7 12.5C7 11.948 7.448 11.5 8 11.5C8.552 11.5 9 11.948 9 12.5C9 13.052 8.552 13.5 8 13.5ZM9.37867 8.83333C8.93733 9.24067 8.66667 9.508 8.66667 9.83333H7.33333C7.33333 8.90733 7.966 8.32333 8.474 7.85333C9.00667 7.36133 9.33333 7.03267 9.33333 6.5C9.33333 5.76467 8.73533 5.16667 8 5.16667C7.26467 5.16667 6.66667 5.76467 6.66667 6.5H5.33333C5.33333 5.02933 6.52933 3.83333 8 3.83333C9.47067 3.83333 10.6667 5.02933 10.6667 6.5C10.6667 7.64333 9.95267 8.30267 9.37867 8.83333Z" fill="#FF8316" style="fill:#FF8316;fill:color(display-p3 0.9990 0.5130 0.0877);fill-opacity:1;"/>
</g>
</g>
</g>
<defs>
<clipPath id="clip0_3006_3260">
<rect width="16" height="16" fill="white" style="fill:white;fill-opacity:1;" transform="translate(0 0.5)"/>
</clipPath>
</defs>
</svg>
