<svg width="40" height="40" viewBox="0 0 40 40" fill="none" xmlns="http://www.w3.org/2000/svg">
<g id="Frame">
<path id="Vector" d="M20.0016 1.59961C9.8852 1.59961 1.60156 9.88325 1.60156 19.9996C1.60156 30.116 9.8852 38.3996 20.0016 38.3996C30.1179 38.3996 38.4016 30.116 38.4016 19.9996C38.4016 9.88325 30.1179 1.59961 20.0016 1.59961ZM20.0016 3.19961C29.2452 3.19961 36.8016 10.756 36.8016 19.9996C36.8016 29.2432 29.2452 36.7996 20.0016 36.7996C10.7579 36.7996 3.20156 29.2432 3.20156 19.9996C3.20156 10.756 10.7579 3.19961 20.0016 3.19961ZM19.9891 4.70273C19.884 4.70437 19.7803 4.72669 19.6839 4.76841C19.5874 4.81013 19.5002 4.87043 19.427 4.94588C19.3539 5.02133 19.2964 5.11044 19.2577 5.20813C19.219 5.30582 19.1999 5.41018 19.2016 5.51523V7.16211C19.2001 7.26812 19.2196 7.37337 19.2592 7.47174C19.2987 7.57012 19.3574 7.65966 19.4318 7.73515C19.5063 7.81065 19.595 7.8706 19.6928 7.91151C19.7906 7.95243 19.8955 7.9735 20.0016 7.9735C20.1076 7.9735 20.2125 7.95243 20.3104 7.91151C20.4082 7.8706 20.4969 7.81065 20.5713 7.73515C20.6457 7.65966 20.7044 7.57012 20.7439 7.47174C20.7835 7.37337 20.8031 7.26812 20.8016 7.16211V5.51523C20.8032 5.40807 20.7834 5.30167 20.7431 5.20233C20.7029 5.103 20.6431 5.01276 20.5673 4.93697C20.4915 4.86119 20.4013 4.8014 20.302 4.76117C20.2026 4.72093 20.0962 4.70106 19.9891 4.70273ZM12.7156 6.64023C12.577 6.64789 12.4428 6.69148 12.3261 6.76672C12.2095 6.84195 12.1144 6.94625 12.0502 7.06935C11.9861 7.19245 11.9551 7.33012 11.9602 7.46884C11.9654 7.60756 12.0066 7.74255 12.0797 7.86055L12.9391 9.29336C12.9924 9.38488 13.0634 9.46489 13.1479 9.52876C13.2324 9.59262 13.3288 9.63907 13.4314 9.6654C13.534 9.69174 13.6408 9.69743 13.7456 9.68216C13.8505 9.66689 13.9512 9.63095 14.042 9.57643C14.1329 9.52191 14.212 9.4499 14.2747 9.36458C14.3375 9.27925 14.3827 9.18231 14.4077 9.07937C14.4327 8.97644 14.4371 8.86956 14.4205 8.76494C14.4038 8.66032 14.3666 8.56004 14.3109 8.46992L13.4516 7.03711C13.3774 6.90952 13.2694 6.80493 13.1396 6.73489C13.0097 6.66485 12.863 6.63209 12.7156 6.64023ZM27.2641 6.64023C27.1206 6.63642 26.9788 6.67125 26.8534 6.74107C26.7281 6.81089 26.6238 6.91314 26.5516 7.03711L25.6922 8.46992C25.6365 8.56004 25.5993 8.66032 25.5827 8.76494C25.5661 8.86956 25.5704 8.97644 25.5954 9.07937C25.6204 9.18231 25.6656 9.27925 25.7284 9.36458C25.7912 9.4499 25.8703 9.52191 25.9611 9.57643C26.0519 9.63095 26.1527 9.66689 26.2575 9.68216C26.3623 9.69743 26.4691 9.69174 26.5717 9.6654C26.6743 9.63907 26.7707 9.59262 26.8552 9.52876C26.9397 9.46489 27.0107 9.38488 27.0641 9.29336L27.9234 7.86055C27.9974 7.74088 28.0384 7.60384 28.0425 7.46324C28.0466 7.32264 28.0135 7.18344 27.9467 7.05969C27.8798 6.93594 27.7815 6.83201 27.6617 6.75836C27.5418 6.68472 27.4047 6.64398 27.2641 6.64023ZM7.48906 11.8746C7.31667 11.8829 7.15158 11.9467 7.01843 12.0565C6.88528 12.1663 6.79121 12.3163 6.75026 12.4839C6.70931 12.6516 6.72367 12.828 6.79121 12.9868C6.85875 13.1457 6.97584 13.2784 7.125 13.3652L8.55781 14.2246C8.64798 14.2829 8.74896 14.3225 8.85473 14.3409C8.9605 14.3594 9.06891 14.3563 9.17348 14.332C9.27806 14.3077 9.37667 14.2625 9.46344 14.1993C9.55021 14.1361 9.62337 14.056 9.67855 13.9639C9.73373 13.8718 9.7698 13.7695 9.78463 13.6632C9.79945 13.5568 9.79272 13.4486 9.76483 13.3449C9.73694 13.2412 9.68847 13.1442 9.6223 13.0597C9.55614 12.9751 9.47363 12.9047 9.37969 12.8527L7.94688 11.9934C7.80973 11.9085 7.65015 11.8672 7.48906 11.8746ZM32.0234 11.9996C31.9178 11.9967 31.8127 12.0148 31.7141 12.0527L18.9234 16.9824C18.7717 17.0411 18.6414 17.1447 18.55 17.2793C17.5471 17.8131 16.8016 18.7793 16.8016 19.9996C16.8016 21.7675 18.2337 23.1996 20.0016 23.1996C20.5543 23.1996 21.008 22.9444 21.4578 22.7043C21.6593 22.712 21.8563 22.6434 22.0094 22.5121L32.525 13.4043C32.6469 13.2988 32.7341 13.1588 32.7751 13.0029C32.8161 12.8469 32.8091 12.6822 32.7548 12.5303C32.7006 12.3785 32.6018 12.2465 32.4712 12.1518C32.3407 12.0571 32.1846 12.0041 32.0234 11.9996ZM28.0156 15.1934L21.0563 21.2215C21.0342 21.235 21.0128 21.2496 20.9922 21.2652C20.7201 21.4754 20.3936 21.5996 20.0016 21.5996C19.0494 21.5996 18.4016 20.9518 18.4016 19.9996C18.4016 19.2453 18.8259 18.7069 19.4656 18.4949C19.5077 18.4806 19.5484 18.4629 19.5875 18.4418L28.0156 15.1934ZM5.60156 19.1152C5.49555 19.1137 5.3903 19.1333 5.29193 19.1729C5.19355 19.2124 5.10402 19.2711 5.02852 19.3455C4.95303 19.4199 4.89308 19.5086 4.85216 19.6064C4.81124 19.7043 4.79017 19.8092 4.79017 19.9152C4.79017 20.0213 4.81124 20.1262 4.85216 20.224C4.89308 20.3218 4.95303 20.4105 5.02852 20.485C5.10402 20.5594 5.19355 20.6181 5.29193 20.6576C5.3903 20.6971 5.49555 20.7167 5.60156 20.7152H7.25C7.35601 20.7167 7.46126 20.6971 7.55963 20.6576C7.65801 20.6181 7.74755 20.5594 7.82304 20.485C7.89854 20.4105 7.95849 20.3218 7.9994 20.224C8.04032 20.1262 8.06139 20.0213 8.06139 19.9152C8.06139 19.8092 8.04032 19.7043 7.9994 19.6064C7.95849 19.5086 7.89854 19.4199 7.82304 19.3455C7.74755 19.2711 7.65801 19.2124 7.55963 19.1729C7.46126 19.1333 7.35601 19.1137 7.25 19.1152H5.60156ZM32.7531 19.1152C32.6471 19.1137 32.5419 19.1333 32.4435 19.1729C32.3451 19.2124 32.2556 19.2711 32.1801 19.3455C32.1046 19.4199 32.0446 19.5086 32.0037 19.6064C31.9628 19.7043 31.9417 19.8092 31.9417 19.9152C31.9417 20.0213 31.9628 20.1262 32.0037 20.224C32.0446 20.3218 32.1046 20.4105 32.1801 20.485C32.2556 20.5594 32.3451 20.6181 32.4435 20.6576C32.5419 20.6971 32.6471 20.7167 32.7531 20.7152H34.4016C34.5076 20.7167 34.6128 20.6971 34.7112 20.6576C34.8096 20.6181 34.8991 20.5594 34.9746 20.485C35.0501 20.4105 35.11 20.3218 35.151 20.224C35.1919 20.1262 35.213 20.0213 35.213 19.9152C35.213 19.8092 35.1919 19.7043 35.151 19.6064C35.11 19.5086 35.0501 19.4199 34.9746 19.3455C34.8991 19.2711 34.8096 19.2124 34.7112 19.1729C34.6128 19.1333 34.5076 19.1137 34.4016 19.1152H32.7531ZM8.99063 25.4855C8.83798 25.483 8.6878 25.5242 8.55781 25.6043L7.125 26.4652C7.03348 26.5186 6.95347 26.5896 6.8896 26.6741C6.82574 26.7586 6.77929 26.855 6.75296 26.9576C6.72662 27.0602 6.72093 27.167 6.7362 27.2718C6.75147 27.3766 6.78741 27.4774 6.84193 27.5682C6.89644 27.659 6.96845 27.7381 7.05378 27.8009C7.13911 27.8637 7.23605 27.9089 7.33898 27.9339C7.44192 27.9589 7.5488 27.9632 7.65342 27.9466C7.75804 27.93 7.85832 27.8928 7.94844 27.8371L9.38125 26.9762C9.53198 26.888 9.64973 26.753 9.71655 26.5917C9.78336 26.4304 9.79557 26.2516 9.75131 26.0827C9.70705 25.9138 9.60875 25.764 9.4714 25.6562C9.33406 25.5484 9.16521 25.4884 8.99063 25.4855ZM30.9891 25.4855C30.8164 25.4932 30.6509 25.5566 30.5173 25.6662C30.3836 25.7758 30.2891 25.9257 30.2477 26.0935C30.2064 26.2613 30.2205 26.438 30.288 26.5971C30.3554 26.7562 30.4725 26.8892 30.6219 26.9762L32.0547 27.8371C32.1448 27.8928 32.2451 27.93 32.3497 27.9466C32.4543 27.9632 32.5612 27.9589 32.6641 27.9339C32.7671 27.9089 32.864 27.8637 32.9493 27.8009C33.0347 27.7381 33.1067 27.659 33.1612 27.5682C33.2157 27.4774 33.2516 27.3766 33.2669 27.2718C33.2822 27.167 33.2765 27.0602 33.2502 26.9576C33.2238 26.855 33.1774 26.7586 33.1135 26.6741C33.0497 26.5896 32.9696 26.5186 32.8781 26.4652L31.4453 25.6043C31.3086 25.5198 31.1496 25.4784 30.9891 25.4855Z" fill="black" style="fill:black;fill-opacity:1;"/>
</g>
</svg>
