<svg width="40" height="40" viewBox="0 0 40 40" fill="none" xmlns="http://www.w3.org/2000/svg">
<g id="Frame">
<path id="Vector" d="M6.39844 4V6.4H7.99844V4H6.39844ZM12.7984 4V6.4H14.3984V4H12.7984ZM19.1984 4V6.4H20.7984V4H19.1984ZM25.5984 4V6.4H27.1984V4H25.5984ZM31.9984 4V6.4H33.5984V4H31.9984ZM4.94844 7.2C3.55469 7.2 2.39844 8.35625 2.39844 9.75V30.25C2.39844 31.6438 3.55469 32.8 4.94844 32.8H35.0484C36.4422 32.8 37.5984 31.6438 37.5984 30.25V9.75C37.5984 8.35625 36.4422 7.2 35.0484 7.2H4.94844ZM4.94844 8.8H35.0484C35.5766 8.8 35.9984 9.22188 35.9984 9.75V30.25C35.9984 30.7781 35.5797 31.2 35.0484 31.2H4.94844C4.42031 31.2 3.99844 30.7813 3.99844 30.25V9.75C3.99844 9.22188 4.42031 8.8 4.94844 8.8ZM7.19844 11.2C6.75781 11.2 6.39844 11.5594 6.39844 12C6.39844 12.4406 6.75781 12.8 7.19844 12.8C7.63906 12.8 7.99844 12.4406 7.99844 12C7.99844 11.5594 7.63906 11.2 7.19844 11.2ZM10.3984 11.2C9.95781 11.2 9.59844 11.5594 9.59844 12C9.59844 12.4406 9.95781 12.8 10.3984 12.8C10.8391 12.8 11.1984 12.4406 11.1984 12C11.1984 11.5594 10.8391 11.2 10.3984 11.2ZM13.5984 11.2C13.1578 11.2 12.7984 11.5594 12.7984 12C12.7984 12.4406 13.1578 12.8 13.5984 12.8C14.0391 12.8 14.3984 12.4406 14.3984 12C14.3984 11.5594 14.0391 11.2 13.5984 11.2ZM16.7984 11.2C16.3578 11.2 15.9984 11.5594 15.9984 12C15.9984 12.4406 16.3578 12.8 16.7984 12.8C17.2391 12.8 17.5984 12.4406 17.5984 12C17.5984 11.5594 17.2391 11.2 16.7984 11.2ZM19.9984 11.2C19.5578 11.2 19.1984 11.5594 19.1984 12C19.1984 12.4406 19.5578 12.8 19.9984 12.8C20.4391 12.8 20.7984 12.4406 20.7984 12C20.7984 11.5594 20.4391 11.2 19.9984 11.2ZM23.1984 11.2C22.7578 11.2 22.3984 11.5594 22.3984 12C22.3984 12.4406 22.7578 12.8 23.1984 12.8C23.6391 12.8 23.9984 12.4406 23.9984 12C23.9984 11.5594 23.6391 11.2 23.1984 11.2ZM26.3984 11.2C25.9578 11.2 25.5984 11.5594 25.5984 12C25.5984 12.4406 25.9578 12.8 26.3984 12.8C26.8391 12.8 27.1984 12.4406 27.1984 12C27.1984 11.5594 26.8391 11.2 26.3984 11.2ZM29.5984 11.2C29.1578 11.2 28.7984 11.5594 28.7984 12C28.7984 12.4406 29.1578 12.8 29.5984 12.8C30.0391 12.8 30.3984 12.4406 30.3984 12C30.3984 11.5594 30.0391 11.2 29.5984 11.2ZM32.7984 11.2C32.3578 11.2 31.9984 11.5594 31.9984 12C31.9984 12.4406 32.3578 12.8 32.7984 12.8C33.2391 12.8 33.5984 12.4406 33.5984 12C33.5984 11.5594 33.2391 11.2 32.7984 11.2ZM7.19844 14.4C6.75781 14.4 6.39844 14.7594 6.39844 15.2C6.39844 15.6406 6.75781 16 7.19844 16C7.63906 16 7.99844 15.6406 7.99844 15.2C7.99844 14.7594 7.63906 14.4 7.19844 14.4ZM32.7984 14.4C32.3578 14.4 31.9984 14.7594 31.9984 15.2C31.9984 15.6406 32.3578 16 32.7984 16C33.2391 16 33.5984 15.6406 33.5984 15.2C33.5984 14.7594 33.2391 14.4 32.7984 14.4ZM7.19844 17.6C6.75781 17.6 6.39844 17.9594 6.39844 18.4C6.39844 18.8406 6.75781 19.2 7.19844 19.2C7.63906 19.2 7.99844 18.8406 7.99844 18.4C7.99844 17.9594 7.63906 17.6 7.19844 17.6ZM32.7984 17.6C32.3578 17.6 31.9984 17.9594 31.9984 18.4C31.9984 18.8406 32.3578 19.2 32.7984 19.2C33.2391 19.2 33.5984 18.8406 33.5984 18.4C33.5984 17.9594 33.2391 17.6 32.7984 17.6ZM7.19844 20.8C6.75781 20.8 6.39844 21.1594 6.39844 21.6C6.39844 22.0406 6.75781 22.4 7.19844 22.4C7.63906 22.4 7.99844 22.0406 7.99844 21.6C7.99844 21.1594 7.63906 20.8 7.19844 20.8ZM32.7984 20.8C32.3578 20.8 31.9984 21.1594 31.9984 21.6C31.9984 22.0406 32.3578 22.4 32.7984 22.4C33.2391 22.4 33.5984 22.0406 33.5984 21.6C33.5984 21.1594 33.2391 20.8 32.7984 20.8ZM7.19844 24C6.75781 24 6.39844 24.3594 6.39844 24.8C6.39844 25.2406 6.75781 25.6 7.19844 25.6C7.63906 25.6 7.99844 25.2406 7.99844 24.8C7.99844 24.3594 7.63906 24 7.19844 24ZM32.7984 24C32.3578 24 31.9984 24.3594 31.9984 24.8C31.9984 25.2406 32.3578 25.6 32.7984 25.6C33.2391 25.6 33.5984 25.2406 33.5984 24.8C33.5984 24.3594 33.2391 24 32.7984 24ZM7.19844 27.2C6.75781 27.2 6.39844 27.5594 6.39844 28C6.39844 28.4406 6.75781 28.8 7.19844 28.8C7.63906 28.8 7.99844 28.4406 7.99844 28C7.99844 27.5594 7.63906 27.2 7.19844 27.2ZM10.3984 27.2C9.95781 27.2 9.59844 27.5594 9.59844 28C9.59844 28.4406 9.95781 28.8 10.3984 28.8C10.8391 28.8 11.1984 28.4406 11.1984 28C11.1984 27.5594 10.8391 27.2 10.3984 27.2ZM13.5984 27.2C13.1578 27.2 12.7984 27.5594 12.7984 28C12.7984 28.4406 13.1578 28.8 13.5984 28.8C14.0391 28.8 14.3984 28.4406 14.3984 28C14.3984 27.5594 14.0391 27.2 13.5984 27.2ZM16.7984 27.2C16.3578 27.2 15.9984 27.5594 15.9984 28C15.9984 28.4406 16.3578 28.8 16.7984 28.8C17.2391 28.8 17.5984 28.4406 17.5984 28C17.5984 27.5594 17.2391 27.2 16.7984 27.2ZM19.9984 27.2C19.5578 27.2 19.1984 27.5594 19.1984 28C19.1984 28.4406 19.5578 28.8 19.9984 28.8C20.4391 28.8 20.7984 28.4406 20.7984 28C20.7984 27.5594 20.4391 27.2 19.9984 27.2ZM23.1984 27.2C22.7578 27.2 22.3984 27.5594 22.3984 28C22.3984 28.4406 22.7578 28.8 23.1984 28.8C23.6391 28.8 23.9984 28.4406 23.9984 28C23.9984 27.5594 23.6391 27.2 23.1984 27.2ZM26.3984 27.2C25.9578 27.2 25.5984 27.5594 25.5984 28C25.5984 28.4406 25.9578 28.8 26.3984 28.8C26.8391 28.8 27.1984 28.4406 27.1984 28C27.1984 27.5594 26.8391 27.2 26.3984 27.2ZM29.5984 27.2C29.1578 27.2 28.7984 27.5594 28.7984 28C28.7984 28.4406 29.1578 28.8 29.5984 28.8C30.0391 28.8 30.3984 28.4406 30.3984 28C30.3984 27.5594 30.0391 27.2 29.5984 27.2ZM32.7984 27.2C32.3578 27.2 31.9984 27.5594 31.9984 28C31.9984 28.4406 32.3578 28.8 32.7984 28.8C33.2391 28.8 33.5984 28.4406 33.5984 28C33.5984 27.5594 33.2391 27.2 32.7984 27.2ZM6.39844 33.6V36H7.99844V33.6H6.39844ZM12.7984 33.6V36H14.3984V33.6H12.7984ZM19.1984 33.6V36H20.7984V33.6H19.1984ZM25.5984 33.6V36H27.1984V33.6H25.5984ZM31.9984 33.6V36H33.5984V33.6H31.9984Z" fill="black" style="fill:black;fill-opacity:1;"/>
</g>
</svg>
