<svg width="40" height="40" viewBox="0 0 40 40" fill="none" xmlns="http://www.w3.org/2000/svg">
<g id="Frame">
<path id="Vector" d="M25.0266 4.22461L21.0266 8.22461L20.4766 8.79961L21.0266 9.37461L25.0266 13.3746L26.1766 12.2246L23.5516 9.59961H31.2016C32.0953 9.59961 32.8016 10.3059 32.8016 11.1996V28.7996C32.8016 29.6934 32.0953 30.3996 31.2016 30.3996H21.6016V31.9996H31.2016C32.9609 31.9996 34.4016 30.559 34.4016 28.7996V11.1996C34.4016 9.44023 32.9609 7.99961 31.2016 7.99961H23.5516L26.1766 5.37461L25.0266 4.22461ZM8.80156 7.99961C7.04219 7.99961 5.60156 9.44023 5.60156 11.1996V28.7996C5.60156 30.559 7.04219 31.9996 8.80156 31.9996H16.4516L13.8266 34.6246L14.9766 35.7746L18.9766 31.7746L19.5266 31.1996L18.9766 30.6246L14.9766 26.6246L13.8266 27.7746L16.4516 30.3996H8.80156C7.90781 30.3996 7.20156 29.6934 7.20156 28.7996V11.1996C7.20156 10.3059 7.90781 9.59961 8.80156 9.59961H18.4016V7.99961H8.80156Z" fill="black" style="fill:black;fill-opacity:1;"/>
</g>
</svg>
