<svg width="428" height="100" viewBox="0 0 428 100" fill="none" xmlns="http://www.w3.org/2000/svg">
<path d="M50 0C45.0938 0 40.9531 2.71094 34.8125 5.875C28.6719 9.03906 20.4297 12.8594 7.5625 15.6875L6 16.0625V17.625C6 48.2656 16.7422 68.7422 27.5 81.4375C38.2578 94.1328 49.1875 99.1875 49.1875 99.1875L50.0625 99.625L50.9375 99.1875C50.9375 99.1875 94 76.9375 94 17.625V16.0625L92.4375 15.6875C79.5703 12.8594 71.3281 9.03906 65.1875 5.875C59.0469 2.71094 54.9062 0 50 0ZM50 4C53.2891 4 57.1016 6.21094 63.375 9.4375C69.3359 12.5 77.7188 16.2578 89.875 19.125C89.1406 73.3594 52.5078 93.7031 49.9375 95.0625C48.6953 94.4609 40.0391 90.1328 30.5 78.875C20.4453 67.0078 10.4922 47.9219 10.125 19.125C22.2812 16.2578 30.6641 12.5 36.625 9.4375C42.8984 6.21094 46.7109 4 50 4ZM65.375 29.25L64.3125 30.9375L48.0625 56.1875L37.3125 46.5L35.875 45.1875L33.1875 48.125L34.6875 49.5L47.0625 60.75L48.8125 62.3125L50.125 60.3125L67.6875 33.0625L68.75 31.375L65.375 29.25Z" fill="black" style="fill:black;fill-opacity:1;"/>
<path d="M172.656 51.3047C172.898 52.3906 173.867 53.125 174.938 53.125C175.109 53.125 175.289 53.1094 175.461 53.0625C217.18 43.5234 241.492 20.3047 250.719 9.77344V20.3125C250.719 21.6094 251.766 22.6562 253.062 22.6562C254.359 22.6562 255.406 21.6094 255.406 20.3125V3.125C255.406 1.82813 254.359 0.78125 253.062 0.78125H235.875C234.578 0.78125 233.531 1.82813 233.531 3.125C233.531 4.42187 234.578 5.46875 235.875 5.46875H248.18C240.219 14.7422 216.086 38.9688 174.414 48.5C173.156 48.7813 172.367 50.0391 172.656 51.3047ZM168.688 82.0312V88.2812C168.688 94.3125 173.594 99.2188 179.625 99.2188C185.656 99.2188 190.562 94.3125 190.562 88.2812V82.0312C190.562 76 185.656 71.0938 179.625 71.0938C173.594 71.0938 168.688 76 168.688 82.0312ZM173.375 82.0312C173.375 78.5859 176.18 75.7812 179.625 75.7812C183.07 75.7812 185.875 78.5859 185.875 82.0312V88.2812C185.875 91.7266 183.07 94.5312 179.625 94.5312C176.18 94.5312 173.375 91.7266 173.375 88.2812V82.0312ZM237.438 50.7812V88.2812C237.438 94.3125 242.344 99.2188 248.375 99.2188C254.406 99.2188 259.312 94.3125 259.312 88.2812V50.7812C259.312 44.75 254.406 39.8438 248.375 39.8438C242.344 39.8438 237.438 44.75 237.438 50.7812ZM254.625 50.7812V88.2812C254.625 91.7266 251.82 94.5312 248.375 94.5312C244.93 94.5312 242.125 91.7266 242.125 88.2812V50.7812C242.125 47.3359 244.93 44.5312 248.375 44.5312C251.82 44.5312 254.625 47.3359 254.625 50.7812ZM203.062 66.4062V88.2812C203.062 94.3125 207.969 99.2188 214 99.2188C220.031 99.2188 224.938 94.3125 224.938 88.2812V66.4062C224.938 60.375 220.031 55.4688 214 55.4688C207.969 55.4688 203.062 60.375 203.062 66.4062ZM220.25 66.4062V88.2812C220.25 91.7266 217.445 94.5312 214 94.5312C210.555 94.5312 207.75 91.7266 207.75 88.2812V66.4062C207.75 62.9609 210.555 60.1562 214 60.1562C217.445 60.1562 220.25 62.9609 220.25 66.4062Z" fill="black" style="fill:black;fill-opacity:1;"/>
<path d="M356.292 5C350.616 5 346 9.45375 346 14.9371V72.2484C346 77.7318 350.616 82.1855 356.292 82.1855H357.288C356.649 80.8653 355.914 78.8457 355.648 77.3614H355.645C352.929 77.1509 350.953 74.9488 350.953 72.2484V14.9371C350.953 12.0909 353.349 9.77699 356.292 9.77699H400.029C402.972 9.77699 405.368 12.0909 405.368 14.9371V72.2484C405.368 75.0946 402.972 77.4085 400.029 77.4085H389.241C389 79.097 388.501 80.7061 387.777 82.1855H400.029C405.706 82.1855 410.321 77.7318 410.321 72.2484V14.9371C410.321 9.45375 405.706 5 400.029 5H356.292ZM359.668 21.944C358.337 21.944 357.256 23.023 357.256 24.3561C357.256 25.6891 358.337 26.7681 359.668 26.7681H393.437C394.768 26.7681 395.849 25.6891 395.849 24.3561C395.849 23.023 394.768 21.944 393.437 21.944H359.668ZM359.668 33.9446C358.337 33.9446 357.256 35.0236 357.256 36.3566C357.256 37.6897 358.337 38.7687 359.668 38.7687H383.789C385.12 38.7687 386.201 37.6897 386.201 36.3566C386.201 35.0236 385.12 33.9446 383.789 33.9446H359.668ZM372.533 62.8892C365.875 62.8892 360.472 68.2921 360.472 74.9494C360.472 78.1333 361.709 81.0264 363.735 83.1811C363.752 86.7027 363.735 94.2929 363.735 94.2929C363.735 94.6467 364.622 95.1289 365.007 94.9681C369.365 93.1671 372.58 91.8023 372.58 91.8023C372.58 91.8023 375.766 93.1836 380.108 94.9524C380.494 95.1132 381.377 94.6309 381.377 94.2772V83.1183C383.387 80.9636 384.593 78.1011 384.593 74.9494C384.593 68.2921 379.19 62.8892 372.533 62.8892ZM372.564 69.4972C375.555 69.4972 377.985 71.927 377.985 74.918C377.985 77.9089 375.555 80.3357 372.564 80.3357C369.557 80.3357 367.131 77.9089 367.131 74.918C367.131 71.927 369.557 69.4972 372.564 69.4972Z" fill="black" style="fill:black;fill-opacity:1;"/>
</svg>
