<svg width="86" height="24" viewBox="0 0 86 24" fill="none" xmlns="http://www.w3.org/2000/svg">
<g clip-path="url(#clip0_2953_1335)">
<path d="M19.0079 4.5456C18.9916 4.42639 18.8874 4.36025 18.801 4.35305C18.7152 4.34585 17.0347 4.32031 17.0347 4.32031C17.0347 4.32031 15.6292 2.95544 15.4903 2.8166C15.3515 2.67775 15.0804 2.71967 14.9749 2.7511C14.9736 2.75176 14.711 2.83297 14.2689 2.96985C14.1949 2.73015 14.0862 2.43543 13.931 2.1394C13.4306 1.18452 12.6977 0.679574 11.8123 0.678268C11.811 0.678268 11.8103 0.678268 11.809 0.678268C11.7474 0.678268 11.6865 0.684161 11.625 0.689398C11.5988 0.657962 11.5726 0.627183 11.5451 0.597053C11.1593 0.184452 10.6649 -0.0166104 10.0721 0.00107257C8.92864 0.0338189 7.78975 0.85968 6.8663 2.32671C6.2166 3.35887 5.72213 4.65565 5.58198 5.65963C4.26885 6.06633 3.35064 6.35056 3.33034 6.35713C2.66755 6.56538 2.6466 6.58568 2.56015 7.21051C2.49596 7.68268 0.761719 21.093 0.761719 21.093L15.2952 23.6066L21.5942 22.0406C21.5942 22.0406 19.0243 4.66481 19.0079 4.5456ZM13.5413 3.19514C13.2066 3.29862 12.8261 3.41651 12.4135 3.54422C12.405 2.96527 12.3362 2.15971 12.0664 1.46352C12.9342 1.62791 13.3612 2.60964 13.5413 3.19514ZM11.6531 3.77999C10.8914 4.01575 10.0603 4.27314 9.22664 4.5312C9.46109 3.63329 9.9058 2.73932 10.452 2.15316C10.655 1.93507 10.9393 1.69209 11.2759 1.55324C11.5922 2.21341 11.661 3.14799 11.6531 3.77999ZM10.095 0.762094C10.3636 0.756201 10.5895 0.815146 10.7827 0.942201C10.4736 1.10266 10.175 1.33319 9.89466 1.6338C9.16833 2.41316 8.61165 3.62281 8.38963 4.78989C7.69736 5.00404 7.02017 5.2143 6.39668 5.40685C6.79032 3.56976 8.33002 0.813179 10.095 0.762094Z" fill="#95BF47" style="fill:#95BF47;fill:color(display-p3 0.5843 0.7490 0.2784);fill-opacity:1;"/>
<path d="M18.8027 4.35372C18.7169 4.34652 17.0364 4.32098 17.0364 4.32098C17.0364 4.32098 15.6309 2.95611 15.4921 2.81726C15.4403 2.76552 15.3703 2.73867 15.2969 2.72754L15.2975 23.6059L21.596 22.0407C21.596 22.0407 19.026 4.66548 19.0097 4.54627C18.9933 4.42705 18.8885 4.36092 18.8027 4.35372Z" fill="#5E8E3E" style="fill:#5E8E3E;fill:color(display-p3 0.3686 0.5569 0.2431);fill-opacity:1;"/>
<path d="M11.8036 7.59265L11.0721 10.3296C11.0721 10.3296 10.256 9.95823 9.2887 10.0191C7.8701 10.1089 7.85503 11.0035 7.86947 11.2281C7.94674 12.4522 11.167 12.7194 11.3478 15.5867C11.4899 17.8422 10.1512 19.3852 8.22247 19.507C5.9073 19.6531 4.63281 18.2876 4.63281 18.2876L5.12336 16.201C5.12336 16.201 6.40634 17.169 7.43326 17.1041C8.10392 17.0616 8.34361 16.516 8.31937 16.1302C8.21853 14.5335 5.5962 14.6278 5.43052 12.0042C5.29101 9.79648 6.74104 7.55925 9.94032 7.35753C11.1729 7.27829 11.8036 7.59265 11.8036 7.59265Z" fill="white" style="fill:white;fill-opacity:1;"/>
<path d="M29.8908 13.3235C29.1665 12.9305 28.7942 12.5992 28.7942 12.1438C28.7942 11.5644 29.3113 11.1922 30.1188 11.1922C31.0587 11.1922 31.8979 11.5852 31.8979 11.5852L32.5599 9.5572C32.5599 9.5572 31.9512 9.08105 30.1597 9.08105C27.6665 9.08105 25.9387 10.5088 25.9387 12.516C25.9387 13.6541 26.7455 14.5233 27.8218 15.1436C28.6909 15.6399 29.0015 15.992 29.0015 16.5091C29.0015 17.0469 28.5669 17.4815 27.7601 17.4815C26.5577 17.4815 25.4222 16.8605 25.4222 16.8605L24.7188 18.8885C24.7188 18.8885 25.7678 19.592 27.5327 19.592C30.0986 19.592 31.9402 18.3298 31.9402 16.0537C31.9395 14.8338 31.0087 13.9646 29.8908 13.3235Z" fill="black" style="fill:black;fill-opacity:1;"/>
<path d="M40.1094 9.06112C38.8471 9.06112 37.8539 9.66136 37.0887 10.5714L37.0471 10.5506L38.1436 4.81934H35.2881L32.5156 19.4064H35.3712L36.3229 14.4202C36.695 12.5371 37.6675 11.3789 38.5782 11.3789C39.2193 11.3789 39.4682 11.8134 39.4682 12.4344C39.4682 12.8274 39.4266 13.3036 39.3441 13.6966L38.2683 19.4071H41.1241L42.2411 13.5101C42.3654 12.8891 42.4484 12.1447 42.4484 11.6478C42.4472 10.0336 41.599 9.06112 40.1094 9.06112Z" fill="black" style="fill:black;fill-opacity:1;"/>
<path d="M48.9057 9.06055C45.4706 9.06055 43.1953 12.1643 43.1953 15.6194C43.1953 17.8332 44.5606 19.6124 47.1266 19.6124C50.4992 19.6124 52.7752 16.5919 52.7752 13.0536C52.7752 11.0054 51.5749 9.06055 48.9057 9.06055ZM47.4988 17.4201C46.5262 17.4201 46.1123 16.5925 46.1123 15.5577C46.1123 13.9233 46.961 11.2542 48.5127 11.2542C49.5266 11.2542 49.8571 12.1233 49.8571 12.9717C49.8571 14.7301 49.0096 17.4201 47.4988 17.4201Z" fill="black" style="fill:black;fill-opacity:1;"/>
<path d="M60.0763 9.06055C58.1489 9.06055 57.0551 10.7573 57.0551 10.7573H57.0142L57.1798 9.22619H54.6555C54.5315 10.261 54.3034 11.833 54.0763 13.0126L52.0898 23.4612H54.9454L55.7312 19.2402H55.7937C55.7937 19.2402 56.3795 19.6124 57.4698 19.6124C60.8215 19.6124 63.0146 16.1781 63.0146 12.7015C63.0146 10.7781 62.1659 9.06055 60.0763 9.06055ZM57.3451 17.461C56.6038 17.461 56.1651 17.0472 56.1651 17.0472L56.6412 14.3781C56.9725 12.5989 57.9034 11.4192 58.8968 11.4192C59.7659 11.4192 60.0346 12.226 60.0346 12.9919C60.0346 14.8334 58.9381 17.461 57.3451 17.461Z" fill="black" style="fill:black;fill-opacity:1;"/>
<path d="M67.0914 4.96387C66.1814 4.96387 65.457 5.68816 65.457 6.619C65.457 7.46738 65.9949 8.04681 66.8018 8.04681H66.8431C67.7331 8.04681 68.4983 7.44657 68.5192 6.39167C68.5192 5.56406 67.9605 4.96387 67.0914 4.96387Z" fill="black" style="fill:black;fill-opacity:1;"/>
<path d="M63.0977 19.4064H65.9525L67.8981 9.28906H65.0216L63.0977 19.4064Z" fill="black" style="fill:black;fill-opacity:1;"/>
<path d="M75.1622 9.26787H73.1757L73.2788 8.79173C73.4444 7.81929 74.024 6.95014 74.9757 6.95014C75.4837 6.95014 75.8858 7.09501 75.8858 7.09501L76.4445 4.86045C76.4445 4.86045 75.9479 4.6123 74.8923 4.6123C73.8784 4.6123 72.8653 4.902 72.0993 5.56392C71.1267 6.39153 70.6715 7.59129 70.4441 8.79173L70.3618 9.26787H69.0371L68.6232 11.42H69.9479L68.4375 19.4066H71.2931L72.8035 11.42H74.7692L75.1622 9.26787Z" fill="black" style="fill:black;fill-opacity:1;"/>
<path d="M82.0331 9.28875C82.0331 9.28875 80.2481 13.7858 79.4466 16.2406H79.4049C79.3506 15.4501 78.7014 9.28875 78.7014 9.28875H75.701L77.4192 18.5784C77.4609 18.785 77.4401 18.9098 77.357 19.0546C77.0254 19.6957 76.4671 20.3168 75.8049 20.7721C75.2671 21.1651 74.6671 21.4132 74.1914 21.5789L74.9775 23.9999C75.557 23.8758 76.7567 23.3997 77.7706 22.448C79.0744 21.2275 80.274 19.3443 81.5153 16.7784L85.0123 9.28809H82.0331V9.28875Z" fill="black" style="fill:black;fill-opacity:1;"/>
</g>
<defs>
<clipPath id="clip0_2953_1335">
<rect width="84.5902" height="24" fill="white" style="fill:white;fill-opacity:1;" transform="translate(0.761719)"/>
</clipPath>
</defs>
</svg>
