<svg width="109" height="28" viewBox="0 0 109 28" fill="none" xmlns="http://www.w3.org/2000/svg">
<g clip-path="url(#clip0_1457_3303)">
<path d="M3.95173 13.4639C0.509209 11.4716 -0.670167 7.05695 1.32207 3.61431C3.31419 0.15589 7.71309 -1.02349 11.1715 0.968638C14.6141 2.96087 15.7935 7.37567 13.8013 10.8182C11.8091 14.2767 7.41027 15.4561 3.95173 13.4639ZM19.6345 13.4639C16.1919 11.4716 15.0126 7.05695 17.0048 3.61431C18.997 0.15589 23.4117 -1.02349 26.8542 0.968638C30.2969 2.96087 31.4763 7.37567 29.484 10.8342C27.4918 14.2767 23.093 15.4561 19.6345 13.4639ZM11.7613 27.0429C8.31873 25.0506 7.12334 20.6358 9.11558 17.1774C11.1078 13.7189 15.5226 12.5395 18.9651 14.5317C22.4077 16.5239 23.603 20.9387 21.6108 24.3972C19.6345 27.8397 15.2198 29.0191 11.7613 27.0429Z" fill="#00F899" style="fill:#00F899;fill:color(display-p3 0.0000 0.9725 0.6000);fill-opacity:1;"/>
<path d="M43.6511 27.268C41.0054 27.268 38.8857 26.7102 37.3079 25.6264C35.7301 24.5267 34.9969 22.7895 35.1085 20.4148H40.1289C40.352 22.3592 41.627 23.3472 43.938 23.3472C44.9102 23.3472 45.6912 23.1401 46.2968 22.7416C46.9024 22.3432 47.2053 21.8014 47.2053 21.1319C47.2053 20.5901 46.9183 20.2075 46.3287 19.9525C45.739 19.6816 44.7508 19.3947 43.3642 19.1079C42.8702 19.0123 42.5036 18.9326 42.2486 18.8688C40.607 18.4862 39.332 17.9444 38.4076 17.2273C37.4991 16.4941 37.0529 15.3943 37.0529 13.9281C37.0529 12.6211 37.4195 11.4896 38.1367 10.5333C38.8539 9.56114 39.842 8.82799 41.101 8.31796C42.3761 7.77612 43.8105 7.50521 45.3883 7.50521C47.6834 7.50521 49.5003 8.07895 50.855 9.22642C52.2097 10.3739 52.9428 11.9837 53.0543 14.0715H48.2252C48.1137 13.179 47.7631 12.5096 47.1733 12.0952C46.5837 11.649 45.8506 11.4259 44.9421 11.4259C44.0336 11.4259 43.3483 11.6012 42.7746 11.9677C42.2326 12.3183 41.9617 12.7806 41.9617 13.3543C41.9617 13.7846 42.1689 14.1193 42.5673 14.3584C42.9658 14.5975 43.428 14.7887 43.922 14.9322C44.4321 15.0437 45.3564 15.219 46.6633 15.474C48.4324 15.8247 49.819 16.3666 50.8072 17.0837C51.8113 17.785 52.3213 18.9326 52.3213 20.5423C52.3213 21.9767 51.9228 23.2038 51.11 24.2398C50.3291 25.2439 49.2612 26.0089 47.9384 26.5349C46.6633 27.013 45.2289 27.2839 43.6511 27.268ZM57.2141 26.8536C54.712 26.8536 53.4529 25.8654 53.4529 23.9051C53.4529 23.5864 53.4847 23.2516 53.5485 22.901L57.3735 1.25759H62.4418L58.8876 21.2594C58.8656 21.3911 58.855 21.5244 58.8557 21.6579C58.8557 22.3592 59.2222 22.6938 59.9554 22.6938H61.2623L60.561 26.8536H57.2141ZM61.7883 26.8536L65.1511 7.93554H70.2194L66.9042 26.8535H61.7883V26.8536ZM67.9721 6.24613C67.2071 6.24613 66.6014 6.03891 66.1233 5.64048C65.6612 5.21005 65.4221 4.65232 65.4221 3.96697C65.4221 3.04261 65.7727 2.29356 66.458 1.68792C67.1753 1.06628 68.004 0.747559 68.9443 0.747559C69.6774 0.747559 70.2831 0.954774 70.7612 1.3851C71.2234 1.78353 71.4624 2.32536 71.4624 2.99481C71.4624 3.93507 71.1118 4.71602 70.4265 5.33766C69.7252 5.94331 68.9125 6.24613 67.9721 6.24613ZM72.7375 7.93543H77.8376L77.742 8.33396C77.6942 8.66858 77.6145 8.9555 77.4711 9.21052C77.3594 9.44953 77.1841 9.70455 76.9291 9.94367L77.3275 10.2783C78.1723 9.27422 79.033 8.57297 79.9095 8.15854C80.7861 7.72832 81.7582 7.52111 82.858 7.52111C85.8702 7.52111 87.703 8.58898 88.3246 10.7405C88.4833 11.344 88.5637 11.9654 88.5637 12.5893C88.5637 13.0515 88.5159 13.6093 88.4362 14.2308C88.3406 14.8365 88.245 15.4581 88.1334 16.1116L86.2527 26.8536H81.1526L83.0651 16.0478C83.1926 15.2668 83.2723 14.6134 83.2723 14.1033C83.2723 13.3384 83.1448 12.7806 82.8739 12.4299C82.4436 11.9199 81.7423 11.6649 80.7542 11.6649C79.5429 11.6649 78.5866 12.0315 77.8695 12.7328C77.4869 13.1153 77.1682 13.6252 76.8972 14.2469C76.6582 14.8684 76.4351 15.6971 76.2598 16.7331L74.4748 26.8695H69.4065L72.7375 7.93543ZM94.1418 18.9007C94.1578 19.2513 94.2215 19.6178 94.3172 19.9525C94.4129 20.3031 94.5244 20.6538 94.5882 20.7813C95.1938 22.1679 96.3572 22.8691 98.0785 22.8691C99.0029 22.8691 99.8316 22.646 100.565 22.1998C101.33 21.7375 101.919 21.1319 102.35 20.4148H107.482C106.525 22.4229 105.155 24.0804 103.386 25.3395C101.617 26.6145 99.5129 27.252 97.0744 27.252C95.3691 27.252 93.9028 26.9333 92.6756 26.2798C91.4484 25.6264 90.4921 24.7179 89.8228 23.5704C89.1693 22.391 88.8506 21.0204 88.8506 19.4744C88.8506 17.3547 89.3605 15.3784 90.3646 13.5296C91.4006 11.6968 92.7872 10.2465 94.5563 9.16272C96.3254 8.06294 98.2697 7.521 100.389 7.521C102.732 7.521 104.677 8.15865 106.191 9.43363C107.737 10.6926 108.502 12.5733 108.502 15.1075C108.502 15.8247 108.438 16.6056 108.295 17.4503L108.135 18.4544H94.11L94.1418 18.9007ZM94.8113 15.2031C95.5284 14.8843 96.1819 14.7409 96.7557 14.7409H101.76C102.382 14.7409 103.003 14.9003 103.609 15.2031L103.944 14.6931C103.784 14.6294 103.689 14.5497 103.641 14.4541C103.593 14.3584 103.561 14.2308 103.545 14.0555C103.545 14.0077 103.529 13.8802 103.481 13.689C103.386 13.434 103.322 13.2587 103.115 13.0196C102.461 11.9837 101.394 11.4737 99.8954 11.4737C98.3972 11.4737 97.1063 11.9837 96.1023 13.0196C95.8154 13.2906 95.6081 13.5296 95.4966 13.7527C95.385 13.9599 95.3213 14.0715 95.2894 14.0874C95.1938 14.2628 95.1141 14.4062 95.0185 14.4859C94.9547 14.5497 94.8272 14.6134 94.6519 14.6931L94.8113 15.2031Z" fill="#0C2A1A" style="fill:#0C2A1A;fill:color(display-p3 0.0471 0.1647 0.1020);fill-opacity:1;"/>
</g>
<defs>
<clipPath id="clip0_1457_3303">
<rect width="108.108" height="28" fill="white" style="fill:white;fill-opacity:1;" transform="translate(0.539307)"/>
</clipPath>
</defs>
</svg>
