<svg width="110" height="28" viewBox="0 0 110 28" fill="none" xmlns="http://www.w3.org/2000/svg">
<g id="Frame" clip-path="url(#clip0_3057_7467)">
<g id="Logo">
<path id="Vector_7" d="M20.07 5.20201C18.1387 4.41066 15.928 4.01497 13.4382 4.01497C10.9483 4.01497 8.70283 4.39901 6.70165 5.16709C8.07455 1.72236 10.3201 0 13.4382 0C16.6029 0 18.8134 1.734 20.07 5.20201ZM6.70165 5.16709C5.81741 7.44806 5.37528 10.3924 5.37528 14.0001C5.37528 17.6543 5.8872 20.6567 6.91107 23.0075C4.70046 22.3093 2.99015 21.2037 1.78013 19.6908C0.593375 18.1779 0 16.281 0 14.0001C0 11.9983 0.581741 10.2411 1.74522 8.7282C2.93196 7.19203 4.58411 6.005 6.70165 5.16709ZM26.6321 14.0001C26.6321 16.281 26.0504 18.1779 24.8868 19.6908C23.7233 21.1804 22.0596 22.286 19.8954 23.0075C20.8497 20.6103 21.3266 17.6077 21.3266 14.0001C21.3266 10.3458 20.9077 7.41316 20.07 5.20201C22.1177 6.01663 23.7233 7.19203 24.8868 8.7282C26.0504 10.2644 26.6321 12.0216 26.6321 14.0001ZM6.91107 23.0075C8.72611 23.6127 10.9018 23.9152 13.4382 23.9152C15.8583 23.9152 18.0106 23.6127 19.8954 23.0075C19.2672 24.5902 18.4063 25.8122 17.3126 26.6734C16.2421 27.5579 14.9508 28 13.4382 28C11.9257 28 10.6226 27.5579 9.52891 26.6734C8.4585 25.8122 7.58589 24.5902 6.91107 23.0075Z" fill="black" style="fill:black;fill-opacity:1;"/>
</g>
</g>
<defs>
<clipPath id="clip0_3057_7467">
<rect width="109.349" height="28" fill="white" style="fill:white;fill-opacity:1;"/>
</clipPath>
</defs>
</svg>
