<svg width="117" height="30" viewBox="0 0 117 30" fill="none" xmlns="http://www.w3.org/2000/svg">
<path d="M42.1536 25.2514C40.557 25.2514 39.1533 24.9487 37.9421 24.343C36.7494 23.7376 35.8226 22.8658 35.162 21.7283C34.5198 20.5904 34.1894 19.26 34.1711 17.7369H37.1989C37.2174 19.2417 37.667 20.416 38.5477 21.2602C39.4285 22.1044 40.6489 22.5263 42.2086 22.5263C43.6031 22.5263 44.7319 22.2053 45.5943 21.5631C46.4751 20.9024 46.9155 20.0491 46.9155 19.003C46.9155 18.104 46.5851 17.4067 45.9246 16.9112C45.2823 16.3973 44.3831 16.1406 43.227 16.1406H40.6672C39.4376 16.1406 38.3551 15.9111 37.4191 15.4523C36.4833 14.9935 35.7493 14.3513 35.2172 13.5256C34.7034 12.6815 34.4464 11.718 34.4464 10.6354C34.4464 9.46097 34.7491 8.42413 35.3547 7.52495C35.9786 6.6258 36.8503 5.93765 37.9697 5.46055C39.089 4.96507 40.3827 4.71735 41.8508 4.71735C44.218 4.71735 46.0897 5.34127 47.4659 6.58908C48.8424 7.83691 49.5762 9.58941 49.668 11.8464H46.6403C46.5669 10.3968 46.1172 9.30495 45.2915 8.57093C44.484 7.81857 43.3189 7.44239 41.7957 7.44239C40.4561 7.44239 39.401 7.71764 38.6303 8.26816C37.8595 8.81866 37.4742 9.56185 37.4742 10.4978C37.4742 11.3419 37.7678 12.0116 38.3551 12.5071C38.9606 12.9842 39.768 13.2227 40.7772 13.2227H43.3372C45.3924 13.2227 47.0072 13.7273 48.1817 14.7367C49.356 15.7459 49.9434 17.1222 49.9434 18.8655C49.9434 20.1316 49.6222 21.2511 48.9799 22.2236C48.3377 23.1778 47.4294 23.9211 46.2549 24.4532C45.0804 24.9854 43.7134 25.2514 42.1536 25.2514Z" fill="#667085"/>
<path d="M58.3321 25.0037C57.0476 25.0037 55.8824 24.7101 54.8363 24.1228C53.7903 23.5174 52.9647 22.7007 52.3591 21.673C51.7719 20.6271 51.4783 19.4619 51.4783 18.1774C51.4783 16.8929 51.7719 15.7276 52.3591 14.6816C52.9647 13.6355 53.7903 12.819 54.8363 12.2318C55.8824 11.6262 57.0476 11.3235 58.3321 11.3235C59.6166 11.3235 60.7819 11.6262 61.8278 12.2318C62.8921 12.819 63.7179 13.6355 64.3051 14.6816C64.9107 15.7276 65.2134 16.8929 65.2134 18.1774C65.2134 19.4619 64.9107 20.6271 64.3051 21.673C63.7179 22.7007 62.9013 23.5174 61.8553 24.1228C60.8094 24.7101 59.635 25.0037 58.3321 25.0037ZM58.3321 22.1961C59.4148 22.1961 60.314 21.8199 61.0296 21.0676C61.7453 20.2968 62.1031 19.3334 62.1031 18.1774C62.1031 17.0029 61.7453 16.0395 61.0296 15.2871C60.314 14.5164 59.4148 14.1311 58.3321 14.1311C57.2494 14.1311 56.3503 14.5164 55.6347 15.2871C54.9373 16.0395 54.5886 17.0029 54.5886 18.1774C54.5886 19.3517 54.9373 20.3152 55.6347 21.0676C56.3503 21.8199 57.2494 22.1961 58.3321 22.1961Z" fill="#667085"/>
<path d="M72.8338 25.0037C71.0721 25.0037 69.6591 24.4808 68.5948 23.4348C67.5305 22.3889 66.9983 20.985 66.9983 19.2233V11.5988H70.1087V19.0031C70.1087 20.0308 70.3381 20.8107 70.7969 21.3428C71.274 21.875 71.9529 22.141 72.8338 22.141C73.6779 22.141 74.3202 21.875 74.7606 21.3428C75.2193 20.8107 75.4487 20.0399 75.4487 19.0306V11.5988H78.5591V19.2508C78.5591 20.3703 78.3114 21.3704 77.8158 22.2512C77.3388 23.1136 76.669 23.7926 75.8065 24.2881C74.9441 24.7652 73.953 25.0037 72.8338 25.0037Z" fill="#667085"/>
<path d="M80.7605 16.691C80.7605 15.0577 81.2192 13.7549 82.1368 12.7822C83.0727 11.8098 84.3297 11.3235 85.9078 11.3235H88.4952V14.3513H86.4582C85.5591 14.3513 84.8985 14.5806 84.4764 15.0395C84.0727 15.4799 83.8709 16.1955 83.8709 17.1863V24.7284H80.7605V16.691Z" fill="#667085"/>
<path d="M96.2861 22.1961C97.0202 22.1961 97.653 22.0126 98.1855 21.6455C98.7358 21.2601 99.1586 20.7096 99.452 19.994L102.287 21.095C101.829 22.2878 101.057 23.242 99.9751 23.9577C98.8923 24.6549 97.653 25.0037 96.2589 25.0037C94.9558 25.0037 93.7811 24.7101 92.7356 24.1228C91.7079 23.5356 90.9005 22.7283 90.3133 21.7006C89.7444 20.6546 89.46 19.4802 89.46 18.1774C89.46 16.8744 89.7537 15.7001 90.3408 14.654C90.928 13.6081 91.7354 12.7914 92.7631 12.2043C93.7905 11.617 94.9558 11.3235 96.2589 11.3235C97.7083 11.3235 98.9842 11.7088 100.085 12.4795C101.204 13.2503 101.975 14.2686 102.397 15.5349L99.6723 16.9112C99.4698 16.0853 99.048 15.4248 98.4058 14.9293C97.7636 14.4155 97.0567 14.1587 96.2861 14.1587C95.2033 14.1587 94.3136 14.5348 93.6164 15.2871C92.9191 16.0395 92.5704 17.0029 92.5704 18.1774C92.5704 19.3517 92.9191 20.3152 93.6164 21.0676C94.3136 21.8199 95.2033 22.1961 96.2861 22.1961Z" fill="#667085"/>
<path d="M116.674 18.1774C116.674 18.6178 116.664 19.003 116.646 19.3334H106.764C106.966 20.2509 107.379 20.9666 108.003 21.4804C108.627 21.9942 109.388 22.2511 110.287 22.2511C111.058 22.2511 111.692 22.1226 112.187 21.8658C112.683 21.5905 113.068 21.1775 113.343 20.6271L115.986 21.673C115.472 22.7007 114.711 23.5174 113.701 24.1228C112.692 24.7101 111.563 25.0037 110.316 25.0037C109.012 25.0037 107.856 24.7192 106.847 24.1504C105.838 23.5631 105.049 22.7557 104.48 21.7281C103.911 20.6822 103.626 19.4986 103.626 18.1774C103.626 16.8561 103.911 15.6816 104.48 14.654C105.049 13.6081 105.838 12.7914 106.847 12.2043C107.856 11.617 109.003 11.3235 110.287 11.3235C111.481 11.3235 112.564 11.6262 113.536 12.2318C114.508 12.8374 115.27 13.6631 115.821 14.7091C116.39 15.755 116.674 16.9112 116.674 18.1774ZM113.563 16.9112C113.453 16.1038 113.086 15.434 112.462 14.9017C111.857 14.3513 111.132 14.076 110.287 14.076C109.407 14.076 108.646 14.3329 108.003 14.8468C107.379 15.3422 106.966 16.0303 106.764 16.9112H113.563Z" fill="#667085"/>
<path d="M21.5088 5.57358C19.439 4.7257 17.0698 4.30176 14.4015 4.30176C11.7332 4.30176 9.3267 4.71323 7.18207 5.53616C8.65338 1.84538 11.0599 0 14.4015 0C17.7931 0 20.1621 1.85786 21.5088 5.57358ZM7.18207 5.53616C6.23443 7.98007 5.76061 11.1347 5.76061 15.0001C5.76061 18.9153 6.30923 22.1322 7.40649 24.6509C5.03742 23.9028 3.2045 22.7182 1.90774 21.0973C0.635912 19.4764 0 17.444 0 15.0001C0 12.8554 0.623443 10.9726 1.87033 9.35165C3.14214 7.70574 4.91273 6.43393 7.18207 5.53616ZM28.5413 15.0001C28.5413 17.444 27.9178 19.4764 26.6708 21.0973C25.424 22.6933 23.6409 23.8778 21.3217 24.6509C22.3443 22.0824 22.8554 18.8654 22.8554 15.0001C22.8554 11.0848 22.4065 7.94267 21.5088 5.57358C23.7033 6.44639 25.424 7.70574 26.6708 9.35165C27.9178 10.9975 28.5413 12.8803 28.5413 15.0001ZM7.40649 24.6509C9.35165 25.2993 11.6833 25.6235 14.4015 25.6235C16.9951 25.6235 19.3017 25.2993 21.3217 24.6509C20.6484 26.3467 19.7257 27.656 18.5537 28.5787C17.4065 29.5263 16.0225 30 14.4015 30C12.7806 30 11.3841 29.5263 10.212 28.5787C9.06486 27.656 8.12969 26.3467 7.40649 24.6509Z" fill="#667085"/>
</svg>
