<svg width="111" height="28" viewBox="0 0 111 28" fill="none" xmlns="http://www.w3.org/2000/svg">
<g clip-path="url(#clip0_1457_3222)">
<path d="M40.1238 23.5684C38.634 23.5684 37.3242 23.2859 36.194 22.7206C35.0811 22.1556 34.2163 21.3419 33.5999 20.2802C33.0006 19.2182 32.6924 17.9765 32.6753 16.5549H35.5005C35.5177 17.9594 35.9373 19.0554 36.7591 19.8433C37.5809 20.6312 38.7197 21.0251 40.1751 21.0251C41.4764 21.0251 42.5296 20.7254 43.3343 20.126C44.1562 19.5094 44.5672 18.713 44.5672 17.7366C44.5672 16.8975 44.2589 16.2467 43.6425 15.7842C43.0432 15.3047 42.2042 15.065 41.1254 15.065H38.7368C37.5895 15.065 36.5794 14.8508 35.706 14.4226C34.8328 13.9944 34.1479 13.3951 33.6514 12.6244C33.1719 11.8365 32.9321 10.9373 32.9321 9.92682C32.9321 8.83071 33.2146 7.86298 33.7797 7.02375C34.3619 6.18454 35.1753 5.54227 36.2198 5.09698C37.2642 4.63453 38.4714 4.40332 39.8412 4.40332C42.0501 4.40332 43.7966 4.98565 45.0808 6.15028C46.3651 7.31492 47.0499 8.95058 47.1356 11.0571H44.3103C44.2419 9.70413 43.8223 8.68508 43.0518 8C42.2983 7.29779 41.2111 6.94669 39.7899 6.94669C38.5399 6.94669 37.5553 7.20359 36.8361 7.71741C36.117 8.23121 35.7574 8.92486 35.7574 9.79837C35.7574 10.5862 36.0313 11.2113 36.5794 11.6738C37.1443 12.119 37.8978 12.3416 38.8395 12.3416H41.2282C43.1459 12.3416 44.6527 12.8127 45.7487 13.7547C46.8444 14.6966 47.3925 15.9812 47.3925 17.6083C47.3925 18.79 47.0928 19.8348 46.4935 20.7425C45.8942 21.6331 45.0467 22.3268 43.9507 22.8234C42.8548 23.3202 41.5793 23.5684 40.1238 23.5684Z" fill="black" style="fill:black;fill-opacity:1;"/>
<path d="M55.2172 23.337C54.0186 23.337 52.9313 23.0631 51.9552 22.5149C50.9792 21.9498 50.2088 21.1876 49.6436 20.2284C49.0958 19.2523 48.8218 18.1647 48.8218 16.9658C48.8218 15.767 49.0958 14.6793 49.6436 13.7031C50.2088 12.7268 50.9792 11.9646 51.9552 11.4166C52.9313 10.8514 54.0186 10.5688 55.2172 10.5688C56.4157 10.5688 57.5031 10.8514 58.479 11.4166C59.4722 11.9646 60.2427 12.7268 60.7906 13.7031C61.3557 14.6793 61.6381 15.767 61.6381 16.9658C61.6381 18.1647 61.3557 19.2523 60.7906 20.2284C60.2427 21.1876 59.4807 21.9498 58.5046 22.5149C57.5287 23.0631 56.4329 23.337 55.2172 23.337ZM55.2172 20.7167C56.2274 20.7167 57.0665 20.3655 57.7342 19.6633C58.402 18.9439 58.7359 18.0448 58.7359 16.9658C58.7359 15.8696 58.402 14.9704 57.7342 14.2683C57.0665 13.5489 56.2274 13.1893 55.2172 13.1893C54.2069 13.1893 53.3679 13.5489 52.7002 14.2683C52.0494 14.9704 51.7241 15.8696 51.7241 16.9658C51.7241 18.0618 52.0494 18.9611 52.7002 19.6633C53.3679 20.3655 54.2069 20.7167 55.2172 20.7167Z" fill="black" style="fill:black;fill-opacity:1;"/>
<path d="M68.7493 23.337C67.1055 23.337 65.787 22.8489 64.7939 21.8726C63.8008 20.8965 63.3042 19.5862 63.3042 17.942V10.8257H66.2066V17.7364C66.2066 18.6956 66.4206 19.4235 66.8487 19.9202C67.2939 20.4168 67.9274 20.6651 68.7493 20.6651C69.537 20.6651 70.1363 20.4168 70.5473 19.9202C70.9753 19.4235 71.1894 18.7041 71.1894 17.7621V10.8257H74.0917V17.9676C74.0917 19.0124 73.8606 19.9459 73.3981 20.768C72.953 21.5729 72.328 22.2066 71.5232 22.6691C70.7185 23.1144 69.7937 23.337 68.7493 23.337Z" fill="black" style="fill:black;fill-opacity:1;"/>
<path d="M76.146 15.5785C76.146 14.0541 76.574 12.8382 77.4302 11.9303C78.3035 11.0227 79.4764 10.5688 80.949 10.5688H83.3633V13.3948H81.4626C80.6236 13.3948 80.0072 13.6089 79.6133 14.0371C79.2366 14.4482 79.0484 15.116 79.0484 16.0408V23.0801H76.146V15.5785Z" fill="black" style="fill:black;fill-opacity:1;"/>
<path d="M90.6347 20.7167C91.3196 20.7167 91.9101 20.5453 92.407 20.2028C92.9205 19.8431 93.315 19.3293 93.5888 18.6614L96.2342 19.689C95.8064 20.8022 95.0865 21.6928 94.077 22.3608C93.0666 23.0115 91.9101 23.337 90.6093 23.337C89.3933 23.337 88.2972 23.0631 87.3217 22.5149C86.3627 21.9669 85.6093 21.2133 85.0614 20.2541C84.5305 19.2779 84.2651 18.1818 84.2651 16.9658C84.2651 15.7497 84.5392 14.6537 85.0871 13.6774C85.635 12.7011 86.3883 11.9389 87.3473 11.3909C88.306 10.8428 89.3933 10.5688 90.6093 10.5688C91.9617 10.5688 93.1523 10.9285 94.1793 11.6478C95.2238 12.3672 95.9429 13.3177 96.3365 14.4995L93.7944 15.784C93.6054 15.0132 93.2118 14.3967 92.6126 13.9343C92.0133 13.4547 91.3537 13.215 90.6347 13.215C89.6243 13.215 88.7941 13.5661 88.1435 14.2683C87.4929 14.9704 87.1675 15.8696 87.1675 16.9658C87.1675 18.0618 87.4929 18.9611 88.1435 19.6633C88.7941 20.3655 89.6243 20.7167 90.6347 20.7167Z" fill="black" style="fill:black;fill-opacity:1;"/>
<path d="M109.658 16.9658C109.658 17.3769 109.65 17.7364 109.633 18.0448H100.412C100.6 18.9011 100.986 19.5691 101.567 20.0486C102.15 20.5282 102.86 20.7679 103.699 20.7679C104.418 20.7679 105.01 20.6481 105.472 20.4083C105.934 20.1514 106.294 19.766 106.55 19.2523L109.016 20.2284C108.537 21.1876 107.827 21.9498 106.884 22.5149C105.943 23.0631 104.89 23.337 103.726 23.337C102.51 23.337 101.431 23.0715 100.489 22.5406C99.5475 21.9925 98.8109 21.2389 98.2799 20.2799C97.7498 19.3036 97.4839 18.1989 97.4839 16.9658C97.4839 15.7327 97.7498 14.6365 98.2799 13.6774C98.8109 12.7011 99.5475 11.9389 100.489 11.3909C101.431 10.8428 102.501 10.5688 103.699 10.5688C104.813 10.5688 105.823 10.8514 106.73 11.4166C107.638 11.9818 108.349 12.7525 108.862 13.7287C109.393 14.705 109.658 15.784 109.658 16.9658ZM106.756 15.784C106.653 15.0305 106.311 14.4053 105.729 13.9085C105.164 13.3948 104.487 13.1378 103.699 13.1378C102.878 13.1378 102.168 13.3776 101.567 13.8573C100.986 14.3196 100.6 14.9619 100.412 15.784H106.756Z" fill="black" style="fill:black;fill-opacity:1;"/>
<path d="M20.8586 5.20201C18.9273 4.41066 16.7166 4.01497 14.2267 4.01497C11.7369 4.01497 9.4914 4.39901 7.49023 5.16709C8.86312 1.72236 11.1086 0 14.2267 0C17.3915 0 19.602 1.734 20.8586 5.20201ZM7.49023 5.16709C6.60598 7.44806 6.16385 10.3924 6.16385 14.0001C6.16385 17.6543 6.67578 20.6567 7.69964 23.0075C5.48904 22.3093 3.77872 21.2037 2.5687 19.6908C1.38195 18.1779 0.788574 16.281 0.788574 14.0001C0.788574 11.9983 1.37031 10.2411 2.5338 8.7282C3.72054 7.19203 5.37268 6.005 7.49023 5.16709ZM27.4207 14.0001C27.4207 16.281 26.8389 18.1779 25.6754 19.6908C24.5119 21.1804 22.8482 22.286 20.684 23.0075C21.6382 20.6103 22.1152 17.6077 22.1152 14.0001C22.1152 10.3458 21.6963 7.41316 20.8586 5.20201C22.9063 6.01663 24.5119 7.19203 25.6754 8.7282C26.8389 10.2644 27.4207 12.0216 27.4207 14.0001ZM7.69964 23.0075C9.51468 23.6127 11.6904 23.9152 14.2267 23.9152C16.6469 23.9152 18.7992 23.6127 20.684 23.0075C20.0558 24.5902 19.1949 25.8122 18.1012 26.6734C17.0307 27.5579 15.7393 28 14.2267 28C12.7142 28 11.4111 27.5579 10.3175 26.6734C9.24708 25.8122 8.37446 24.5902 7.69964 23.0075Z" fill="black" style="fill:black;fill-opacity:1;"/>
</g>
<defs>
<clipPath id="clip0_1457_3222">
<rect width="109.349" height="28" fill="white" style="fill:white;fill-opacity:1;" transform="translate(0.789062)"/>
</clipPath>
</defs>
</svg>
