<svg width="125" height="24" viewBox="0 0 125 24" fill="none" xmlns="http://www.w3.org/2000/svg">
<g id="spruce_health_logo.svg" clip-path="url(#clip0_2953_1404)">
<g id="Logo Group">
<path id="Vector" d="M63.4595 10.6417C64.825 10.9501 65.8926 11.3834 66.6623 11.9334C67.4485 12.4667 67.8374 13.3167 67.8374 14.4667C67.8374 15.6167 67.4071 16.5917 66.5547 17.225C65.7106 17.8667 64.5188 18.1833 62.963 18.1833C61.0761 18.1833 59.6858 17.8083 58.7837 17.05C57.8817 16.2917 57.4017 15.2917 57.3438 14.05H60.6127C60.712 15.175 61.4568 15.7417 62.8306 15.7417C63.3271 15.7417 63.6995 15.6584 63.9644 15.5C64.2292 15.3334 64.3533 15.0917 64.3533 14.7667C64.3533 14.3667 64.1795 14.075 63.832 13.9C63.4844 13.725 62.872 13.5417 62.003 13.3667L61.5478 13.2584C60.3396 12.9917 59.3796 12.6084 58.6513 12.1001C57.9231 11.5917 57.5589 10.8084 57.5589 9.74176C57.5589 9.04176 57.7493 8.4251 58.1217 7.87511C58.5106 7.32512 59.0734 6.90012 59.8017 6.58346C60.5382 6.25846 61.4237 6.0918 62.4333 6.0918C64.1051 6.0918 65.3464 6.45846 66.174 7.18345C67.0016 7.90844 67.4402 8.83343 67.4981 9.94175H64.2292C64.1713 9.46676 64.0057 9.11676 63.7326 8.9001C63.4678 8.66677 63.0623 8.54177 62.5161 8.54177C62.0361 8.54177 61.6637 8.6251 61.4072 8.78343C61.1589 8.9501 61.0347 9.16676 61.0347 9.45009C61.0347 9.75842 61.1506 9.98342 61.3823 10.1168C61.6306 10.2334 62.1106 10.3667 62.8223 10.5167L63.4513 10.6501L63.4595 10.6417Z" fill="#02002D" style="fill:#02002D;fill:color(display-p3 0.0078 0.0000 0.1765);fill-opacity:1;"/>
<path id="Vector_2" d="M69.0703 6.43398V21.6838H72.5544V16.6922H72.5958C72.8606 17.0589 73.2744 17.4005 73.862 17.7172C74.4413 18.0255 75.0951 18.1838 75.8233 18.1838C76.8082 18.1838 77.6688 17.9422 78.3888 17.4505C79.1171 16.9589 79.6716 16.2672 80.0688 15.3589C80.4743 14.4422 80.6812 13.3672 80.6812 12.1339C80.6812 10.9006 80.4743 9.83394 80.0688 8.93395C79.6798 8.0173 79.1171 7.30897 78.3888 6.81731C77.6606 6.32565 76.8082 6.08398 75.8233 6.08398C75.0951 6.08398 74.4413 6.24232 73.862 6.55065C73.2827 6.85898 72.8606 7.20064 72.5958 7.57563H72.5544V6.44231H69.0703V6.43398ZM74.9047 15.5089C74.1765 15.5089 73.6137 15.2172 73.2082 14.6422C72.8192 14.0672 72.6206 13.2256 72.6206 12.1256C72.6206 11.0256 72.8192 10.1923 73.2082 9.60894C73.6137 9.03395 74.1765 8.74229 74.9047 8.74229C75.633 8.74229 76.1875 9.03395 76.5847 9.60894C76.9902 10.1839 77.1971 11.0256 77.1971 12.1256C77.1971 13.2256 76.9902 14.0589 76.5847 14.6422C76.1957 15.2172 75.633 15.5089 74.9047 15.5089Z" fill="#02002D" style="fill:#02002D;fill:color(display-p3 0.0078 0.0000 0.1765);fill-opacity:1;"/>
<path id="Vector_3" d="M88.2052 6.23392C88.5859 6.23392 88.9004 6.26725 89.1652 6.32558V9.44222H89.1238C88.9087 9.40055 88.6852 9.37555 88.4452 9.37555C87.6177 9.37555 86.9059 9.65055 86.3101 10.2005C85.7308 10.7505 85.4411 11.5255 85.4411 12.5338V17.8255H81.957V6.43392H85.4411V8.30056H85.4825C85.7556 7.65057 86.128 7.14224 86.5915 6.78391C87.0715 6.41725 87.6094 6.22559 88.2052 6.22559V6.23392Z" fill="#02002D" style="fill:#02002D;fill:color(display-p3 0.0078 0.0000 0.1765);fill-opacity:1;"/>
<path id="Vector_4" d="M100.999 6.43359V17.8251H97.5145V16.1751H97.4732C96.7201 17.5085 95.5035 18.1751 93.8153 18.1751C92.7146 18.1751 91.8374 17.8168 91.1836 17.1085C90.5298 16.4001 90.207 15.4002 90.207 14.1252V6.43359H93.6911V13.0002C93.6911 13.8335 93.8318 14.4252 94.1049 14.7835C94.3946 15.1252 94.8415 15.2918 95.429 15.2918C96.8194 15.2918 97.5228 14.5335 97.5228 13.0252V6.44193H101.007L100.999 6.43359Z" fill="#02002D" style="fill:#02002D;fill:color(display-p3 0.0078 0.0000 0.1765);fill-opacity:1;"/>
<path id="Vector_5" d="M109.907 10.6839C109.849 10.1339 109.659 9.67561 109.345 9.30061C109.038 8.93395 108.567 8.74229 107.929 8.74229C107.218 8.74229 106.663 9.04228 106.274 9.63394C105.885 10.2256 105.687 11.0589 105.687 12.1256C105.687 13.1922 105.877 14.0506 106.25 14.6422C106.638 15.2172 107.201 15.5089 107.929 15.5089C109.105 15.5089 109.767 14.8506 109.907 13.5256H113.325C113.267 14.4339 113.011 15.2422 112.564 15.9505C112.117 16.6505 111.488 17.2005 110.694 17.6005C109.907 17.9838 108.997 18.1755 107.954 18.1755C106.796 18.1755 105.778 17.9255 104.909 17.4172C104.056 16.9005 103.386 16.1839 102.906 15.2839C102.443 14.3672 102.211 13.3089 102.211 12.1256C102.211 10.9423 102.443 9.90894 102.906 8.99229C103.37 8.07563 104.032 7.35897 104.884 6.85898C105.736 6.34231 106.738 6.08398 107.863 6.08398C109.444 6.08398 110.718 6.51731 111.67 7.37564C112.63 8.21729 113.176 9.32561 113.325 10.6923H109.907V10.6839Z" fill="#02002D" style="fill:#02002D;fill:color(display-p3 0.0078 0.0000 0.1765);fill-opacity:1;"/>
<path id="Vector_6" d="M119.837 15.5172C120.391 15.5172 120.822 15.4172 121.144 15.2089C121.467 14.9839 121.691 14.7089 121.823 14.3839H125.282C124.959 15.5672 124.355 16.5089 123.453 17.1839C122.551 17.8505 121.368 18.1838 119.903 18.1838C118.686 18.1838 117.627 17.9339 116.725 17.4255C115.84 16.9089 115.161 16.1922 114.681 15.2922C114.201 14.3756 113.961 13.3172 113.961 12.1339C113.961 10.9506 114.193 9.94227 114.656 9.01728C115.12 8.10063 115.79 7.37564 116.659 6.85898C117.528 6.34231 118.546 6.08398 119.704 6.08398C121.566 6.08398 122.982 6.71731 123.975 7.97563C124.959 9.23395 125.456 10.9339 125.456 13.0672H117.445C117.445 13.8256 117.677 14.4256 118.14 14.8672C118.604 15.3005 119.175 15.5089 119.837 15.5089V15.5172ZM119.704 8.53396C119.026 8.53396 118.471 8.74229 118.049 9.15895C117.644 9.55894 117.437 10.1423 117.437 10.9173H121.964C121.964 10.1423 121.757 9.55894 121.335 9.15895C120.929 8.74229 120.383 8.53396 119.704 8.53396Z" fill="#02002D" style="fill:#02002D;fill:color(display-p3 0.0078 0.0000 0.1765);fill-opacity:1;"/>
<path id="Vector_7" fill-rule="evenodd" clip-rule="evenodd" d="M28.0661 8.4834C24.5158 8.4834 22 11.75 22 15.2417V21.9999H38.2784C41.8287 21.9999 44.3528 18.7249 44.3528 15.2333C44.3363 11.75 41.837 8.4834 38.2702 8.4834H28.0661Z" fill="#007FFF" style="fill:#007FFF;fill:color(display-p3 0.0000 0.4980 1.0000);fill-opacity:1;"/>
<path id="Vector_8" fill-rule="evenodd" clip-rule="evenodd" d="M27.1875 8.74992C27.1875 5.16663 29.7695 2 33.1874 2H49.8962V8.77492C49.8962 12.3582 47.4549 15.5082 44.037 15.5082H33.1874C29.7613 15.5082 27.2041 12.3332 27.1875 8.75826V8.74992Z" fill="#CCE5FF" style="fill:#CCE5FF;fill:color(display-p3 0.8000 0.8980 1.0000);fill-opacity:1;"/>
<path id="Vector_9" fill-rule="evenodd" clip-rule="evenodd" d="M27.1953 8.54961C27.1953 8.61627 27.1953 8.68294 27.1953 8.74961C27.2119 12.3329 29.7691 15.4995 33.1952 15.4995H44.0448C44.1524 15.4995 44.2517 15.4995 44.351 15.4912C44.351 15.3995 44.351 15.3162 44.351 15.2245C44.3344 11.7412 41.8351 8.47461 38.2683 8.47461H28.0643C27.7663 8.47461 27.4767 8.49961 27.1953 8.54128V8.54961Z" fill="#4DA5FF" style="fill:#4DA5FF;fill:color(display-p3 0.3020 0.6471 1.0000);fill-opacity:1;"/>
</g>
</g>
<defs>
<clipPath id="clip0_2953_1404">
<rect width="124.138" height="24" fill="white" style="fill:white;fill-opacity:1;" transform="translate(0.863281)"/>
</clipPath>
</defs>
</svg>
