<svg width="147" height="28" viewBox="0 0 147 28" fill="none" xmlns="http://www.w3.org/2000/svg">
<g clip-path="url(#clip0_1457_3307)">
<path d="M59.099 12.0985C61.024 12.5302 62.529 13.1368 63.614 13.9068C64.7223 14.6535 65.2706 15.8435 65.2706 17.4535C65.2706 19.0635 64.664 20.4285 63.4623 21.3152C62.2723 22.2135 60.5923 22.6568 58.399 22.6568C55.739 22.6568 53.779 22.1318 52.5073 21.0702C51.2356 20.0085 50.559 18.6085 50.4773 16.8702H55.0856C55.2256 18.4452 56.2756 19.2385 58.2123 19.2385C58.9123 19.2385 59.4373 19.1218 59.8106 18.9002C60.184 18.6668 60.359 18.3285 60.359 17.8735C60.359 17.3135 60.114 16.9052 59.624 16.6602C59.134 16.4152 58.2706 16.1585 57.0456 15.9135L56.404 15.7618C54.7006 15.3885 53.3473 14.8518 52.3206 14.1402C51.294 13.4285 50.7806 12.3318 50.7806 10.8385C50.7806 9.85852 51.049 8.99518 51.574 8.22518C52.1223 7.45518 52.9156 6.86018 53.9423 6.41685C54.9806 5.96185 56.229 5.72852 57.6523 5.72852C60.009 5.72852 61.759 6.24185 62.9256 7.25685C64.0923 8.27185 64.7106 9.56685 64.7923 11.1185H60.184C60.1023 10.4535 59.869 9.96351 59.484 9.66018C59.1106 9.33351 58.539 9.15852 57.769 9.15852C57.0923 9.15852 56.5673 9.27518 56.2056 9.49685C55.8556 9.73018 55.6806 10.0335 55.6806 10.4302C55.6806 10.8618 55.844 11.1768 56.1706 11.3635C56.5206 11.5268 57.1973 11.7135 58.2006 11.9235L59.0873 12.1102L59.099 12.0985Z" fill="#02002D" style="fill:#02002D;fill:color(display-p3 0.0078 0.0000 0.1765);fill-opacity:1;"/>
<path d="M67.0085 6.2068V27.5568H71.9202V20.5685H71.9785C72.3519 21.0818 72.9352 21.5601 73.7635 22.0035C74.5802 22.4351 75.5019 22.6568 76.5285 22.6568C77.9169 22.6568 79.1302 22.3185 80.1452 21.6301C81.1719 20.9418 81.9535 19.9735 82.5135 18.7018C83.0852 17.4185 83.3769 15.9135 83.3769 14.1868C83.3769 12.4601 83.0852 10.9668 82.5135 9.7068C81.9652 8.42346 81.1719 7.4318 80.1452 6.74346C79.1185 6.05513 77.9169 5.7168 76.5285 5.7168C75.5019 5.7168 74.5802 5.93846 73.7635 6.37013C72.9469 6.8018 72.3519 7.28013 71.9785 7.80513H71.9202V6.21846H67.0085V6.2068ZM75.2335 18.9118C74.2069 18.9118 73.4135 18.5035 72.8419 17.6985C72.2935 16.8935 72.0135 15.7151 72.0135 14.1751C72.0135 12.6351 72.2935 11.4685 72.8419 10.6518C73.4135 9.8468 74.2069 9.43846 75.2335 9.43846C76.2602 9.43846 77.0419 9.8468 77.6019 10.6518C78.1735 11.4568 78.4652 12.6351 78.4652 14.1751C78.4652 15.7151 78.1735 16.8818 77.6019 17.6985C77.0535 18.5035 76.2602 18.9118 75.2335 18.9118Z" fill="#02002D" style="fill:#02002D;fill:color(display-p3 0.0078 0.0000 0.1765);fill-opacity:1;"/>
<path d="M93.9829 5.92671C94.5196 5.92671 94.9629 5.97337 95.3362 6.05504V10.4184H95.2779C94.9746 10.36 94.6596 10.325 94.3212 10.325C93.1546 10.325 92.1512 10.71 91.3112 11.48C90.4946 12.25 90.0862 13.335 90.0862 14.7467V22.155H85.1746V6.20671H90.0862V8.82004H90.1446C90.5296 7.91004 91.0546 7.19837 91.7079 6.69671C92.3846 6.18337 93.1429 5.91504 93.9829 5.91504V5.92671Z" fill="#02002D" style="fill:#02002D;fill:color(display-p3 0.0078 0.0000 0.1765);fill-opacity:1;"/>
<path d="M112.017 6.20654V22.1549H107.105V19.8449H107.047C105.985 21.7115 104.27 22.6449 101.89 22.6449C100.338 22.6449 99.1018 22.1432 98.1801 21.1515C97.2585 20.1599 96.8035 18.7599 96.8035 16.9749V6.20654H101.715V15.3999C101.715 16.5665 101.913 17.3949 102.298 17.8965C102.707 18.3749 103.337 18.6082 104.165 18.6082C106.125 18.6082 107.117 17.5465 107.117 15.4349V6.21821H112.028L112.017 6.20654Z" fill="#02002D" style="fill:#02002D;fill:color(display-p3 0.0078 0.0000 0.1765);fill-opacity:1;"/>
<path d="M124.573 12.1568C124.492 11.3868 124.223 10.7451 123.78 10.2201C123.348 9.7068 122.683 9.43846 121.785 9.43846C120.782 9.43846 120 9.85846 119.452 10.6868C118.903 11.5151 118.623 12.6818 118.623 14.1751C118.623 15.6685 118.892 16.8701 119.417 17.6985C119.965 18.5035 120.758 18.9118 121.785 18.9118C123.442 18.9118 124.375 17.9901 124.573 16.1351H129.392C129.31 17.4068 128.948 18.5385 128.318 19.5301C127.688 20.5101 126.802 21.2801 125.682 21.8401C124.573 22.3768 123.29 22.6451 121.82 22.6451C120.187 22.6451 118.752 22.2951 117.527 21.5835C116.325 20.8601 115.38 19.8568 114.703 18.5968C114.05 17.3135 113.723 15.8318 113.723 14.1751C113.723 12.5185 114.05 11.0718 114.703 9.78846C115.357 8.50513 116.29 7.5018 117.492 6.8018C118.693 6.07846 120.105 5.7168 121.692 5.7168C123.92 5.7168 125.717 6.32346 127.058 7.52513C128.412 8.70346 129.182 10.2551 129.392 12.1685H124.573V12.1568Z" fill="#02002D" style="fill:#02002D;fill:color(display-p3 0.0078 0.0000 0.1765);fill-opacity:1;"/>
<path d="M138.573 18.9235C139.355 18.9235 139.961 18.7835 140.416 18.4918C140.871 18.1768 141.186 17.7918 141.373 17.3368H146.25C145.795 18.9935 144.943 20.3118 143.671 21.2568C142.4 22.1901 140.731 22.6568 138.666 22.6568C136.951 22.6568 135.458 22.3068 134.186 21.5951C132.938 20.8718 131.981 19.8685 131.305 18.6085C130.628 17.3251 130.29 15.8435 130.29 14.1868C130.29 12.5301 130.616 11.1185 131.27 9.82346C131.923 8.54013 132.868 7.52513 134.093 6.8018C135.318 6.07846 136.753 5.7168 138.386 5.7168C141.011 5.7168 143.006 6.60346 144.406 8.36513C145.795 10.1268 146.495 12.5068 146.495 15.4935H135.201C135.201 16.5551 135.528 17.3951 136.181 18.0135C136.835 18.6201 137.64 18.9118 138.573 18.9118V18.9235ZM138.386 9.1468C137.43 9.1468 136.648 9.43846 136.053 10.0218C135.481 10.5818 135.19 11.3985 135.19 12.4835H141.571C141.571 11.3985 141.28 10.5818 140.685 10.0218C140.113 9.43846 139.343 9.1468 138.386 9.1468Z" fill="#02002D" style="fill:#02002D;fill:color(display-p3 0.0078 0.0000 0.1765);fill-opacity:1;"/>
<path fill-rule="evenodd" clip-rule="evenodd" d="M9.20059 9.07666C4.19559 9.07666 0.648926 13.65 0.648926 18.5383V28H23.5973C28.6023 28 32.1606 23.415 32.1606 18.5267C32.1373 13.65 28.6139 9.07666 23.5856 9.07666H9.20059Z" fill="#007FFF" style="fill:#007FFF;fill:color(display-p3 0.0000 0.4980 1.0000);fill-opacity:1;"/>
<path fill-rule="evenodd" clip-rule="evenodd" d="M7.96362 9.45C7.96362 4.43333 11.6036 0 16.422 0H39.977V9.485C39.977 14.5017 36.5353 18.9117 31.717 18.9117H16.422C11.592 18.9117 7.98696 14.4667 7.96362 9.46167V9.45Z" fill="#CCE5FF" style="fill:#CCE5FF;fill:color(display-p3 0.8000 0.8980 1.0000);fill-opacity:1;"/>
<path fill-rule="evenodd" clip-rule="evenodd" d="M7.97705 9.16994C7.97705 9.26327 7.97705 9.35661 7.97705 9.44994C8.00038 14.4666 11.6054 18.8999 16.4354 18.8999H31.7304C31.882 18.8999 32.022 18.8999 32.1621 18.8883C32.1621 18.7599 32.1621 18.6433 32.1621 18.5149C32.1387 13.6383 28.6154 9.06494 23.587 9.06494H9.20205C8.78205 9.06494 8.37372 9.09994 7.97705 9.15827V9.16994Z" fill="#4DA5FF" style="fill:#4DA5FF;fill:color(display-p3 0.3020 0.6471 1.0000);fill-opacity:1;"/>
</g>
<defs>
<clipPath id="clip0_1457_3307">
<rect width="145.833" height="28" fill="white" style="fill:white;fill-opacity:1;" transform="translate(0.647461)"/>
</clipPath>
</defs>
</svg>
