<svg width="146" height="28" viewBox="0 0 146 28" fill="none" xmlns="http://www.w3.org/2000/svg">
<path d="M58.45 12.0983C60.375 12.53 61.88 13.1367 62.965 13.9067C64.0734 14.6533 64.6217 15.8433 64.6217 17.4533C64.6217 19.0633 64.015 20.4283 62.8134 21.315C61.6234 22.2133 59.9434 22.6567 57.75 22.6567C55.09 22.6567 53.13 22.1317 51.8584 21.07C50.5867 20.0083 49.91 18.6083 49.8284 16.87H54.4367C54.5767 18.445 55.6267 19.2383 57.5634 19.2383C58.2634 19.2383 58.7884 19.1217 59.1617 18.9C59.535 18.6667 59.71 18.3283 59.71 17.8733C59.71 17.3133 59.465 16.905 58.975 16.66C58.485 16.415 57.6217 16.1583 56.3967 15.9133L55.755 15.7617C54.0517 15.3883 52.6984 14.8517 51.6717 14.14C50.645 13.4283 50.1317 12.3317 50.1317 10.8383C50.1317 9.85833 50.4 8.995 50.925 8.225C51.4734 7.455 52.2667 6.86 53.2934 6.41667C54.3317 5.96167 55.58 5.72833 57.0034 5.72833C59.36 5.72833 61.11 6.24167 62.2767 7.25667C63.4434 8.27167 64.0617 9.56667 64.1434 11.1183H59.535C59.4534 10.4533 59.22 9.96333 58.835 9.66C58.4617 9.33333 57.89 9.15833 57.12 9.15833C56.4434 9.15833 55.9184 9.275 55.5567 9.49667C55.2067 9.73 55.0317 10.0333 55.0317 10.43C55.0317 10.8617 55.195 11.1767 55.5217 11.3633C55.8717 11.5267 56.5484 11.7133 57.5517 11.9233L58.4384 12.11L58.45 12.0983Z" fill="#6B7280"/>
<path d="M66.3599 6.20667V27.5567H71.2715V20.5683H71.3299C71.7032 21.0817 72.2865 21.56 73.1149 22.0033C73.9315 22.435 74.8532 22.6567 75.8799 22.6567C77.2682 22.6567 78.4815 22.3183 79.4965 21.63C80.5232 20.9417 81.3049 19.9733 81.8649 18.7017C82.4365 17.4183 82.7282 15.9133 82.7282 14.1867C82.7282 12.46 82.4365 10.9667 81.8649 9.70667C81.3165 8.42334 80.5232 7.43168 79.4965 6.74334C78.4699 6.05501 77.2682 5.71667 75.8799 5.71667C74.8532 5.71667 73.9315 5.93834 73.1149 6.37001C72.2982 6.80167 71.7032 7.28001 71.3299 7.80501H71.2715V6.21834H66.3599V6.20667ZM74.5849 18.9117C73.5582 18.9117 72.7649 18.5033 72.1932 17.6983C71.6449 16.8933 71.3649 15.715 71.3649 14.175C71.3649 12.635 71.6449 11.4683 72.1932 10.6517C72.7649 9.84668 73.5582 9.43834 74.5849 9.43834C75.6115 9.43834 76.3932 9.84668 76.9532 10.6517C77.5249 11.4567 77.8165 12.635 77.8165 14.175C77.8165 15.715 77.5249 16.8817 76.9532 17.6983C76.4049 18.5033 75.6115 18.9117 74.5849 18.9117Z" fill="#6B7280"/>
<path d="M93.3332 5.92667C93.8699 5.92667 94.3132 5.97334 94.6866 6.05501V10.4183H94.6282C94.3249 10.36 94.0099 10.325 93.6716 10.325C92.5049 10.325 91.5016 10.71 90.6616 11.48C89.8449 12.25 89.4366 13.335 89.4366 14.7467V22.155H84.5249V6.20668H89.4366V8.82001H89.4949C89.8799 7.91001 90.4049 7.19834 91.0582 6.69667C91.7349 6.18334 92.4932 5.91501 93.3332 5.91501V5.92667Z" fill="#6B7280"/>
<path d="M111.37 6.20667V22.155H106.458V19.845H106.4C105.338 21.7117 103.623 22.645 101.243 22.645C99.6915 22.645 98.4548 22.1433 97.5332 21.1517C96.6115 20.16 96.1565 18.76 96.1565 16.975V6.20667H101.068V15.4C101.068 16.5667 101.266 17.395 101.651 17.8967C102.06 18.375 102.69 18.6083 103.518 18.6083C105.478 18.6083 106.47 17.5467 106.47 15.435V6.21833H111.381L111.37 6.20667Z" fill="#6B7280"/>
<path d="M123.923 12.1567C123.842 11.3867 123.573 10.745 123.13 10.22C122.698 9.70668 122.033 9.43834 121.135 9.43834C120.132 9.43834 119.35 9.85834 118.802 10.6867C118.253 11.515 117.973 12.6817 117.973 14.175C117.973 15.6683 118.242 16.87 118.767 17.6983C119.315 18.5033 120.108 18.9117 121.135 18.9117C122.792 18.9117 123.725 17.99 123.923 16.135H128.742C128.66 17.4067 128.298 18.5383 127.668 19.53C127.038 20.51 126.152 21.28 125.032 21.84C123.923 22.3767 122.64 22.645 121.17 22.645C119.537 22.645 118.102 22.295 116.877 21.5833C115.675 20.86 114.73 19.8567 114.053 18.5967C113.4 17.3133 113.073 15.8317 113.073 14.175C113.073 12.5183 113.4 11.0717 114.053 9.78834C114.707 8.50501 115.64 7.50167 116.842 6.80167C118.043 6.07834 119.455 5.71667 121.042 5.71667C123.27 5.71667 125.067 6.32334 126.408 7.52501C127.762 8.70334 128.532 10.255 128.742 12.1683H123.923V12.1567Z" fill="#6B7280"/>
<path d="M137.923 18.9233C138.705 18.9233 139.312 18.7833 139.767 18.4917C140.222 18.1767 140.537 17.7917 140.723 17.3367H145.6C145.145 18.9933 144.293 20.3117 143.022 21.2567C141.75 22.19 140.082 22.6567 138.017 22.6567C136.302 22.6567 134.808 22.3067 133.537 21.595C132.288 20.8717 131.332 19.8683 130.655 18.6083C129.978 17.325 129.64 15.8433 129.64 14.1867C129.64 12.53 129.967 11.1183 130.62 9.82334C131.273 8.54001 132.218 7.52501 133.443 6.80167C134.668 6.07834 136.103 5.71667 137.737 5.71667C140.362 5.71667 142.357 6.60334 143.757 8.36501C145.145 10.1267 145.845 12.5067 145.845 15.4933H134.552C134.552 16.555 134.878 17.395 135.532 18.0133C136.185 18.62 136.99 18.9117 137.923 18.9117V18.9233ZM137.737 9.14668C136.78 9.14668 135.998 9.43834 135.403 10.0217C134.832 10.5817 134.54 11.3983 134.54 12.4833H140.922C140.922 11.3983 140.63 10.5817 140.035 10.0217C139.463 9.43834 138.693 9.14668 137.737 9.14668Z" fill="#6B7280"/>
<path fill-rule="evenodd" clip-rule="evenodd" d="M8.55167 9.07666C3.54667 9.07666 0 13.65 0 18.5383V28H22.9483C27.9533 28 31.5117 23.415 31.5117 18.5267C31.4883 13.65 27.965 9.07666 22.9367 9.07666H8.55167Z" fill="#6B7280"/>
<path fill-rule="evenodd" clip-rule="evenodd" d="M7.31494 9.45C7.31494 4.43333 10.9549 0 15.7733 0H39.3283V9.485C39.3283 14.5017 35.8866 18.9117 31.0683 18.9117H15.7733C10.9433 18.9117 7.33827 14.4667 7.31494 9.46167V9.45Z" fill="#D1D5DB"/>
<path fill-rule="evenodd" clip-rule="evenodd" d="M7.32666 9.17C7.32666 9.26334 7.32666 9.35667 7.32666 9.45C7.34999 14.4667 10.955 18.9 15.785 18.9H31.08C31.2317 18.9 31.3717 18.9 31.5117 18.8883C31.5117 18.76 31.5117 18.6433 31.5117 18.515C31.4883 13.6383 27.965 9.065 22.9367 9.065H8.55166C8.13166 9.065 7.72333 9.1 7.32666 9.15834V9.17Z" fill="#9CA3AF"/>
</svg>
