<svg width="146" height="28" viewBox="0 0 146 28" fill="none" xmlns="http://www.w3.org/2000/svg">
<g id="65eea2b6975161169d749a76_spruce-logo-svg">
<path id="Vector" fill-rule="evenodd" clip-rule="evenodd" d="M8.55167 9.07617C3.54667 9.07617 0 13.6495 0 18.5378V27.9995H22.9483C27.9533 27.9995 31.5117 23.4145 31.5117 18.5262C31.4883 13.6495 27.965 9.07617 22.9367 9.07617H8.55167Z" fill="#007FFF" style="fill:#007FFF;fill:color(display-p3 0.0000 0.4980 1.0000);fill-opacity:1;"/>
<path id="Vector_2" fill-rule="evenodd" clip-rule="evenodd" d="M7.3125 9.45C7.3125 4.43333 10.9525 0 15.7708 0H39.3258V9.485C39.3258 14.5017 35.8842 18.9117 31.0658 18.9117H15.7708C10.9408 18.9117 7.33583 14.4667 7.3125 9.46167V9.45Z" fill="#CCE5FF" style="fill:#CCE5FF;fill:color(display-p3 0.8000 0.8980 1.0000);fill-opacity:1;"/>
<path id="Vector_3" fill-rule="evenodd" clip-rule="evenodd" d="M7.32812 9.16945C7.32812 9.26279 7.32812 9.35612 7.32812 9.44945C7.35146 14.4661 10.9565 18.8995 15.7865 18.8995H31.0815C31.2331 18.8995 31.3731 18.8995 31.5131 18.8878C31.5131 18.7595 31.5131 18.6428 31.5131 18.5145C31.4898 13.6378 27.9665 9.06445 22.9381 9.06445H8.55312C8.13312 9.06445 7.72479 9.09945 7.32812 9.15779V9.16945Z" fill="#4DA5FF" style="fill:#4DA5FF;fill:color(display-p3 0.3020 0.6471 1.0000);fill-opacity:1;"/>
</g>
</svg>
