<svg width="40" height="40" viewBox="0 0 40 40" fill="none" xmlns="http://www.w3.org/2000/svg">
<g id="Frame">
<path id="Vector" d="M19.9984 0C18.0359 0 16.3797 1.08438 13.9234 2.35C11.4672 3.61562 8.17031 5.14375 3.02344 6.275L2.39844 6.425V7.05C2.39844 19.3062 6.69531 27.4969 10.9984 32.575C15.3016 37.6531 19.6734 39.675 19.6734 39.675L20.0234 39.85L20.3734 39.675C20.3734 39.675 37.5984 30.775 37.5984 7.05V6.425L36.9734 6.275C31.8266 5.14375 28.5297 3.61562 26.0734 2.35C23.6172 1.08438 21.9609 0 19.9984 0ZM19.9984 1.6C21.3141 1.6 22.8391 2.48438 25.3484 3.775C27.7328 5 31.0859 6.50312 35.9484 7.65C35.6547 29.3437 21.0016 37.4812 19.9734 38.025C19.4766 37.7844 16.0141 36.0531 12.1984 31.55C8.17656 26.8031 4.19531 19.1687 4.04844 7.65C8.91094 6.50312 12.2641 5 14.6484 3.775C17.1578 2.48438 18.6828 1.6 19.9984 1.6ZM15.5234 13.95C13.8109 13.95 12.8484 15.0719 12.8484 16.5C12.8484 17.4937 13.5547 18.4219 14.5734 19.075C15.3203 19.5937 15.7734 20.0156 15.7734 20.75C15.7734 21.5125 15.2703 22.025 14.3734 22.025C13.8984 22.025 13.3141 21.8531 12.9734 21.65L12.7234 22.9C13.0078 23.0906 13.6922 23.275 14.3734 23.275C16.0203 23.275 17.1984 22.2469 17.1984 20.6C17.1984 19.6219 16.7297 18.7344 15.5734 17.975C14.6359 17.3781 14.2734 17.0312 14.2734 16.325C14.2734 15.7656 14.6703 15.225 15.4984 15.225C15.9891 15.225 16.3641 15.3625 16.6234 15.525L16.8734 14.275C16.6297 14.125 16.1078 13.95 15.5234 13.95ZM20.6734 13.95C18.9609 13.95 17.9984 15.0719 17.9984 16.5C17.9984 17.4937 18.7047 18.4219 19.7234 19.075C20.4703 19.5937 20.9234 20.0156 20.9234 20.75C20.9234 21.5125 20.4453 22.025 19.5484 22.025C19.0734 22.025 18.4641 21.8531 18.1234 21.65L17.8734 22.9C18.1578 23.0906 18.8422 23.275 19.5234 23.275C21.1703 23.275 22.3484 22.2469 22.3484 20.6C22.3484 19.6219 21.8797 18.7344 20.7234 17.975C19.7859 17.3781 19.4234 17.0312 19.4234 16.325C19.4234 15.7656 19.8203 15.225 20.6484 15.225C21.1391 15.225 21.5141 15.3625 21.7734 15.525L22.0484 14.275C21.8047 14.125 21.2578 13.95 20.6734 13.95ZM23.4734 14.025V23.2H27.3734V21.975H24.9234V14.025H23.4734Z" fill="black" style="fill:black;fill-opacity:1;"/>
</g>
</svg>
