<svg width="41" height="40" viewBox="0 0 41 40" fill="none" xmlns="http://www.w3.org/2000/svg">
<rect x="0.805664" width="40" height="40" rx="5.2" fill="#F5F5F5"/>
<path d="M25.8057 14.06C25.1121 14.0605 24.4402 14.3012 23.9042 14.7412C23.3681 15.1813 23.0011 15.7935 22.8655 16.4736C22.73 17.1538 22.8343 17.8599 23.1606 18.4718C23.487 19.0837 24.0153 19.5637 24.6557 19.83C24.5034 20.1949 24.2464 20.5066 23.9172 20.7255C23.5879 20.9444 23.2011 21.0608 22.8057 21.06H18.8057C18.1007 21.063 17.4097 21.2565 16.8057 21.62V15.88C17.4729 15.6441 18.0352 15.1799 18.3933 14.5695C18.7514 13.9591 18.8821 13.2418 18.7625 12.5443C18.6428 11.8468 18.2804 11.214 17.7393 10.7579C17.1983 10.3018 16.5134 10.0516 15.8057 10.0516C15.098 10.0516 14.4131 10.3018 13.872 10.7579C13.3309 11.214 12.9685 11.8468 12.8489 12.5443C12.7292 13.2418 12.86 13.9591 13.218 14.5695C13.5761 15.1799 14.1385 15.6441 14.8057 15.88V24.24C14.1467 24.477 13.5913 24.9371 13.2359 25.5405C12.8805 26.144 12.7474 26.8528 12.8597 27.544C12.972 28.2353 13.3226 28.8655 13.8508 29.3254C14.3789 29.7853 15.0513 30.046 15.7515 30.0622C16.4516 30.0784 17.1354 29.8491 17.6842 29.4142C18.2331 28.9792 18.6125 28.3659 18.7567 27.6805C18.9008 26.9952 18.8007 26.281 18.4736 25.6618C18.1465 25.0425 17.613 24.5572 16.9657 24.29C17.1172 23.9266 17.3727 23.6161 17.7 23.3973C18.0273 23.1785 18.412 23.0612 18.8057 23.06H22.8057C23.7205 23.0598 24.6076 22.7461 25.3191 22.171C26.0307 21.596 26.5236 20.7944 26.7157 19.9C27.3842 19.6728 27.9513 19.2171 28.3169 18.613C28.6826 18.009 28.8235 17.2953 28.7147 16.5976C28.606 15.8999 28.2547 15.2629 27.7226 14.7987C27.1905 14.3346 26.5117 14.073 25.8057 14.06ZM15.8057 12.06C16.0035 12.06 16.1968 12.1187 16.3612 12.2285C16.5257 12.3384 16.6539 12.4946 16.7295 12.6773C16.8052 12.86 16.825 13.0611 16.7865 13.2551C16.7479 13.4491 16.6526 13.6273 16.5128 13.7671C16.3729 13.907 16.1947 14.0022 16.0008 14.0408C15.8068 14.0794 15.6057 14.0596 15.423 13.9839C15.2403 13.9082 15.0841 13.78 14.9742 13.6156C14.8643 13.4511 14.8057 13.2578 14.8057 13.06C14.8057 12.7948 14.911 12.5404 15.0986 12.3529C15.2861 12.1654 15.5405 12.06 15.8057 12.06ZM15.8057 28.06C15.6079 28.06 15.4145 28.0014 15.2501 27.8915C15.0857 27.7816 14.9575 27.6254 14.8818 27.4427C14.8061 27.26 14.7863 27.0589 14.8249 26.8649C14.8635 26.6709 14.9587 26.4927 15.0986 26.3529C15.2384 26.213 15.4166 26.1178 15.6106 26.0792C15.8046 26.0406 16.0056 26.0604 16.1884 26.1361C16.3711 26.2118 16.5273 26.34 16.6371 26.5044C16.747 26.6689 16.8057 26.8622 16.8057 27.06C16.8057 27.3252 16.7003 27.5796 16.5128 27.7671C16.3252 27.9546 16.0709 28.06 15.8057 28.06ZM25.8057 18.06C25.6079 18.06 25.4145 18.0014 25.2501 17.8915C25.0857 17.7816 24.9575 17.6254 24.8818 17.4427C24.8061 17.26 24.7863 17.0589 24.8249 16.8649C24.8635 16.6709 24.9587 16.4927 25.0986 16.3529C25.2384 16.213 25.4166 16.1178 25.6106 16.0792C25.8046 16.0406 26.0056 16.0604 26.1884 16.1361C26.3711 16.2118 26.5273 16.34 26.6371 16.5044C26.747 16.6689 26.8057 16.8622 26.8057 17.06C26.8057 17.3252 26.7003 17.5796 26.5128 17.7671C26.3252 17.9546 26.0709 18.06 25.8057 18.06Z" fill="url(#paint0_linear_7852_30198)"/>
<defs>
<linearGradient id="paint0_linear_7852_30198" x1="20.7781" y1="10.0516" x2="20.7781" y2="30.063" gradientUnits="userSpaceOnUse">
<stop stop-color="#2C2F3E"/>
<stop offset="1" stop-color="#422F41"/>
</linearGradient>
</defs>
</svg>
