<svg width="58" height="24" viewBox="0 0 58 24" fill="none" xmlns="http://www.w3.org/2000/svg">
<g id="Logo Icons">
<path id="Vector" fill-rule="evenodd" clip-rule="evenodd" d="M57.9979 12.4003C57.9979 8.29882 56.0164 5.0625 52.2292 5.0625C48.4261 5.0625 46.125 8.29881 46.125 12.3682C46.125 17.1907 48.8415 19.6259 52.7406 19.6259C54.6422 19.6259 56.0804 19.1933 57.167 18.5845V15.3803C56.0804 15.925 54.8339 16.2614 53.2519 16.2614C51.7019 16.2614 50.3277 15.7167 50.1519 13.8262H57.966C57.966 13.6179 57.9979 12.7848 57.9979 12.4003ZM50.1039 10.8783C50.1039 9.06784 51.2065 8.31484 52.2133 8.31484C53.188 8.31484 54.2267 9.06784 54.2267 10.8783H50.1039Z" fill="#635BFF" style="fill:#635BFF;fill:color(display-p3 0.3882 0.3569 1.0000);fill-opacity:1;"/>
<path id="Vector_2" fill-rule="evenodd" clip-rule="evenodd" d="M39.9569 5.0625C38.3908 5.0625 37.3841 5.79948 36.8248 6.31217L36.6171 5.31884H33.1016V23.9998L37.0965 23.1506L37.1125 18.6166C37.6877 19.0331 38.5347 19.6259 39.9409 19.6259C42.8012 19.6259 45.4059 17.3188 45.4059 12.2401C45.39 7.59388 42.7533 5.0625 39.9569 5.0625ZM38.9981 16.1012C38.0553 16.1012 37.496 15.7648 37.1125 15.3482L37.0965 9.40429C37.512 8.93967 38.0872 8.61924 38.9981 8.61924C40.4522 8.61924 41.4589 10.2534 41.4589 12.3522C41.4589 14.4991 40.4682 16.1012 38.9981 16.1012Z" fill="#635BFF" style="fill:#635BFF;fill:color(display-p3 0.3882 0.3569 1.0000);fill-opacity:1;"/>
<path id="Vector_3" fill-rule="evenodd" clip-rule="evenodd" d="M27.6055 4.11749L31.6164 3.25234V0L27.6055 0.849132V4.11749Z" fill="#635BFF" style="fill:#635BFF;fill:color(display-p3 0.3882 0.3569 1.0000);fill-opacity:1;"/>
<path id="Vector_4" d="M31.6164 5.33496H27.6055V19.3537H31.6164V5.33496Z" fill="#635BFF" style="fill:#635BFF;fill:color(display-p3 0.3882 0.3569 1.0000);fill-opacity:1;"/>
<path id="Vector_5" fill-rule="evenodd" clip-rule="evenodd" d="M23.3089 6.52111L23.0532 5.33553H19.6016V19.3542H23.5965V9.85355C24.5393 8.61991 26.1373 8.84421 26.6326 9.02044V5.33553C26.1213 5.14327 24.2517 4.7908 23.3089 6.52111Z" fill="#635BFF" style="fill:#635BFF;fill:color(display-p3 0.3882 0.3569 1.0000);fill-opacity:1;"/>
<path id="Vector_6" fill-rule="evenodd" clip-rule="evenodd" d="M15.3174 1.8584L11.4183 2.69151L11.4023 15.5246C11.4023 17.8958 13.1761 19.6421 15.5411 19.6421C16.8514 19.6421 17.8102 19.4018 18.3375 19.1134V15.8611C17.8262 16.0693 15.3014 16.8063 15.3014 14.4352V8.74758H18.3375V5.33503H15.3014L15.3174 1.8584Z" fill="#635BFF" style="fill:#635BFF;fill:color(display-p3 0.3882 0.3569 1.0000);fill-opacity:1;"/>
<path id="Vector_7" fill-rule="evenodd" clip-rule="evenodd" d="M4.51552 9.40429C4.51552 8.77946 5.02687 8.53914 5.8738 8.53914C7.08826 8.53914 8.62231 8.90763 9.83676 9.5645V5.79948C8.51045 5.27078 7.20011 5.0625 5.8738 5.0625C2.62992 5.0625 0.472656 6.76076 0.472656 9.59655C0.472656 14.0184 6.54494 13.3135 6.54494 15.22C6.54494 15.957 5.90576 16.1973 5.01089 16.1973C3.68458 16.1973 1.99073 15.6526 0.648433 14.9156V18.7287C2.13455 19.3696 3.63664 19.6419 5.01089 19.6419C8.33467 19.6419 10.6198 17.9917 10.6198 15.1239C10.6038 10.3495 4.51552 11.1987 4.51552 9.40429Z" fill="#635BFF" style="fill:#635BFF;fill:color(display-p3 0.3882 0.3569 1.0000);fill-opacity:1;"/>
</g>
</svg>
