<svg width="40" height="40" viewBox="0 0 40 40" fill="none" xmlns="http://www.w3.org/2000/svg">
<g id="Frame">
<path id="Vector" d="M40 12.8H30.4V19.2H22.4V4.8H12V0H2.4V11.2H12V6.4H20.8V19.2H12V14.4H2.4V25.6H12V20.8H20.8V33.6H12V28.8H2.4V40H12V35.2H22.4V20.8H30.4V27.2H40V12.8ZM38.4 14.4V25.6H32V20.175C32.0219 20.0938 32.0313 20.0094 32.025 19.925C32.0188 19.9 32.0094 19.875 32 19.85V14.4H38.4ZM10.4 1.6V9.6H4V1.6H10.4ZM10.4 16V24H4V16H10.4ZM10.4 30.4V38.4H4V30.4H10.4Z" fill="black" style="fill:black;fill-opacity:1;"/>
</g>
</svg>
