<svg width="40" height="40" viewBox="0 0 40 40" fill="none" xmlns="http://www.w3.org/2000/svg">
<g id="Frame">
<path id="Vector" d="M20.0016 1.59961C9.84844 1.59961 1.60156 9.84648 1.60156 19.9996C1.60156 30.1527 9.84844 38.3996 20.0016 38.3996C30.1547 38.3996 38.4016 30.1527 38.4016 19.9996C38.4016 9.84648 30.1547 1.59961 20.0016 1.59961ZM20.0016 3.19961C29.2891 3.19961 36.8016 10.7121 36.8016 19.9996C36.8016 29.2871 29.2891 36.7996 20.0016 36.7996C10.7141 36.7996 3.20156 29.2871 3.20156 19.9996C3.20156 10.7121 10.7141 3.19961 20.0016 3.19961ZM20.0016 8.79961C13.8266 8.79961 8.80156 13.8246 8.80156 19.9996H10.4016C10.4016 14.6871 14.6891 10.3996 20.0016 10.3996C22.8609 10.3996 25.4203 11.6496 27.1766 13.6246L24.8016 15.9996H30.4016V10.3996L28.3266 12.4746C26.2734 10.2059 23.2953 8.79961 20.0016 8.79961ZM29.6016 19.9996C29.6016 25.3121 25.3141 29.5996 20.0016 29.5996C17.1359 29.5996 14.5828 28.359 12.8266 26.3746L15.2016 23.9996H9.60156V29.5996L11.7016 27.4996C13.7484 29.7715 16.7078 31.1996 20.0016 31.1996C26.1766 31.1996 31.2016 26.1746 31.2016 19.9996H29.6016Z" fill="black" style="fill:black;fill-opacity:1;"/>
</g>
</svg>
