<svg width="40" height="40" viewBox="0 0 40 40" fill="none" xmlns="http://www.w3.org/2000/svg">
<g id="Frame" clip-path="url(#clip0_3127_4570)">
<path id="Vector" d="M26.11 26.7846C25.8474 27.0476 25.5355 27.2563 25.1921 27.3986C24.8487 27.541 24.4807 27.6143 24.109 27.6143C23.7373 27.6143 23.3692 27.541 23.0259 27.3986C22.6826 27.2563 22.3707 27.0476 22.108 26.7847L26.11 26.7846ZM26.11 26.7846C27.2134 25.6807 27.2154 23.8861 26.1092 22.7842L26.11 26.7846ZM38.3608 12.499L38.3608 12.499L35.7897 15.0704C35.7895 15.0706 35.7893 15.0709 35.7891 15.0711C35.6855 15.1735 35.5458 15.231 35.4001 15.231C35.2545 15.231 35.1148 15.1736 35.0112 15.0712C35.011 15.071 35.0107 15.0707 35.0104 15.0704L24.9679 5.02787C24.9676 5.0276 24.9673 5.02733 24.9671 5.02707C24.8647 4.92354 24.8073 4.78383 24.8073 4.63823C24.8073 4.49263 24.8647 4.35293 24.9671 4.2494C24.9673 4.24913 24.9676 4.24886 24.9679 4.24859L27.5374 1.67941C27.5376 1.6792 27.5378 1.67898 27.538 1.67876C27.6412 1.57663 27.7803 1.51953 27.9246 1.51953C28.0693 1.51953 28.2082 1.57659 28.311 1.67829C28.3113 1.67856 28.3116 1.67883 28.3119 1.6791L38.3609 11.7254L38.361 11.7254C38.5709 11.9352 38.5712 12.2887 38.3608 12.499ZM8.44874 33.5002L5.78626 36.1639L5.13219 36.6544L5.74365 37.2659L6.48583 38.0081L6.48931 38.0115C6.59652 38.1174 6.6053 38.3087 6.48432 38.4321C6.45688 38.4593 6.42441 38.4809 6.3887 38.4957C6.35253 38.5107 6.31377 38.5184 6.27461 38.5184C6.23545 38.5184 6.19669 38.5107 6.16052 38.4957C6.12435 38.4807 6.0915 38.4587 6.06384 38.431L6.0633 38.4305L1.61143 33.9798L1.60906 33.9775C1.49614 33.8656 1.49291 33.6747 1.61131 33.5564L1.61413 33.5536C1.72545 33.4411 1.91633 33.4373 2.03522 33.5562L2.77571 34.298L3.23569 34.7587L3.75651 34.368L3.76151 34.3643L3.80422 34.3323L3.84197 34.2945L6.5415 31.5934C6.5417 31.5932 6.54191 31.593 6.54212 31.5928C6.62216 31.5135 6.73024 31.4691 6.84289 31.4691C6.95546 31.4691 7.06347 31.5135 7.14349 31.5926C7.14376 31.5929 7.14402 31.5931 7.14429 31.5934L8.44874 32.8991C8.44888 32.8992 8.44902 32.8994 8.44915 32.8995C8.52837 32.9793 8.57284 33.0872 8.57284 33.1996C8.57284 33.3121 8.52836 33.42 8.44911 33.4998C8.44899 33.4999 8.44887 33.5 8.44874 33.5002ZM21.6699 27.2209C20.3235 25.8731 20.3235 23.6893 21.6699 22.3415C23.0178 20.9949 25.2017 20.9952 26.548 22.3415C27.8958 23.6893 27.8958 25.8731 26.548 27.2209C25.2017 28.5672 23.0178 28.5675 21.6699 27.2209ZM21.495 25.8674C21.6372 26.2104 21.8454 26.522 22.108 26.7846L22.6387 23.3149L22.1085 22.7845C22.1083 22.7847 22.1081 22.7848 22.108 22.785C21.8454 23.0475 21.6372 23.3592 21.495 23.7022C21.3528 24.0454 21.2796 24.4133 21.2796 24.7848C21.2796 25.1563 21.3528 25.5242 21.495 25.8674Z" stroke="black" style="stroke:black;stroke-opacity:1;" stroke-width="1.5"/>
<path id="Vector_2" d="M23.1259 9.06498L23.1256 9.06531L17.409 14.7815C17.409 14.7816 17.409 14.7816 17.409 14.7816C17.1941 14.9965 17.1941 15.3578 17.4089 15.5727C17.409 15.5727 17.409 15.5727 17.409 15.5728L20.5089 18.6718C23.0363 17.1798 26.2854 17.3776 28.6197 19.2716L30.975 16.9161L23.1259 9.06498ZM23.1259 9.06498C23.1773 9.01348 23.239 8.97216 23.3072 8.94389C23.375 8.91582 23.4476 8.90137 23.5209 8.90137C23.5942 8.90137 23.6668 8.91582 23.7345 8.94389C23.8022 8.97197 23.8637 9.01312 23.9155 9.06498L23.9158 9.06527M23.1259 9.06498L23.9158 9.06527M23.9158 9.06527L30.975 16.1251C30.9752 16.1253 30.9754 16.1254 30.9755 16.1256M23.9158 9.06527L30.9755 16.1256M30.9755 16.1256C31.1895 16.3405 31.1895 16.7007 30.9755 16.9156L30.9755 16.1256ZM15.5935 19.5652L15.5939 19.5648C15.7876 19.3707 16.113 19.3696 16.309 19.5653C16.309 19.5654 16.3091 19.5654 16.3091 19.5655L17.9664 21.2227C16.8581 23.1232 16.7006 25.4202 17.4903 27.4298L13.1249 31.8025C13.1246 31.8028 13.1242 31.8031 13.1239 31.8034C13.0283 31.898 12.8992 31.951 12.7646 31.951C12.63 31.951 12.5008 31.8979 12.4051 31.8032C12.4049 31.803 12.4046 31.8027 12.4044 31.8025L8.24218 27.64C8.24194 27.6398 8.2417 27.6395 8.24146 27.6393C8.14683 27.5436 8.09375 27.4144 8.09375 27.2798C8.09375 27.1452 8.14681 27.0161 8.24139 26.9204C8.24166 26.9201 8.24192 26.9199 8.24218 26.9196L15.5935 19.5652Z" stroke="black" style="stroke:black;stroke-opacity:1;" stroke-width="1.5"/>
</g>
<defs>
<clipPath id="clip0_3127_4570">
<rect width="40" height="40" fill="white" style="fill:white;fill-opacity:1;"/>
</clipPath>
</defs>
</svg>
