<svg width="105" height="30" viewBox="0 0 105 30" fill="none" xmlns="http://www.w3.org/2000/svg">
<path d="M104.09 6.39052L94.0475 30H88.6236L92.4012 21.7794L87.4596 10.5194H84.9107V22.3841H79.9744V10.5194H78.0425V6.39052H79.9744V6.21737C79.9744 4.23015 80.5591 2.69846 81.7231 1.61961C82.8871 0.540757 84.5738 0 86.786 0C87.2494 0 87.5943 0.0106553 87.826 0.0293021V4.24081L87.2791 4.21417C86.468 4.21417 85.878 4.38466 85.5142 4.73095C85.1505 5.07459 84.9484 5.62866 84.908 6.39318H91.1564L95.0229 16.1907L98.6335 6.39052H104.09Z" fill="#6B7280"/>
<path d="M11.0694 6.39052H16.6092V2.1204H0.623047V6.39052H6.10624V22.3788H11.0694V6.39052Z" fill="#6B7280"/>
<path d="M59.3161 18.1673H57.756C57.1417 18.1673 56.7079 18.0448 56.4439 17.7944C56.1825 17.544 56.0559 17.1071 56.0559 16.4758V10.5168H59.2865V6.39052H56.0559V2.1204H51.1196V6.39052H48.956V10.5168H51.1196V16.3905C51.1196 18.5296 51.6451 20.0613 52.6932 20.9883C53.7413 21.9153 55.2071 22.3788 57.0932 22.3788H59.3161V18.1673Z" fill="#6B7280"/>
<path d="M65.8528 27.5466H6.06852V24.8295H65.8528C66.61 24.8295 67.2216 25.4395 67.2216 26.1881C67.2216 26.9393 66.61 27.5466 65.8528 27.5466Z" fill="#6B7280"/>
<path d="M72.0204 24.9227C72.7237 24.9227 73.2949 25.4901 73.2949 26.1881C73.2949 26.8887 72.7237 27.456 72.0204 27.456C71.3145 27.456 70.746 26.8887 70.746 26.1881C70.746 25.4901 71.3145 24.9227 72.0204 24.9227Z" fill="#6B7280"/>
<path d="M79.1607 26.1881C79.1607 25.4901 78.5895 24.9227 77.8835 24.9227C77.1803 24.9227 76.6091 25.4901 76.6091 26.1881C76.6091 26.8887 77.1803 27.456 77.8835 27.456C78.5895 27.456 79.1607 26.8887 79.1607 26.1881Z" fill="#6B7280"/>
<path d="M83.7493 24.9227C84.4526 24.9227 85.0238 25.4901 85.0238 26.1881C85.0238 26.8887 84.4526 27.456 83.7493 27.456C83.0434 27.456 82.4722 26.8887 82.4722 26.1881C82.4722 25.4901 83.0434 24.9227 83.7493 24.9227Z" fill="#6B7280"/>
<path d="M62.2881 2.1204H67.2216V22.3788H62.2881V2.1204Z" fill="#6B7280"/>
<path fill-rule="evenodd" clip-rule="evenodd" d="M27.2954 7.3415C26.1125 6.70751 24.741 6.39052 23.1836 6.39052C21.6451 6.39052 20.2763 6.71018 19.0746 7.35482C17.8864 7.98349 16.9137 8.94513 16.2751 10.1225C15.6069 11.3239 15.2754 12.7437 15.2754 14.3873C15.2754 16.0069 15.6122 17.4241 16.2912 18.6361C16.9325 19.8135 17.9052 20.7778 19.0908 21.4145C20.2844 22.0591 21.6478 22.3815 23.1863 22.3815C24.5012 22.3815 25.6922 22.1337 26.7619 21.6409C27.7938 21.1747 28.6992 20.4768 29.4078 19.6004C30.0976 18.7427 30.561 17.7304 30.7604 16.6542H25.6625C25.5197 17.203 25.191 17.6851 24.7329 18.0234C24.2641 18.3777 23.674 18.5535 22.96 18.5535C22.1139 18.5535 21.4215 18.2978 20.8772 17.7864C20.3329 17.2749 20.0311 16.4305 19.9772 15.2557H30.8709C30.9598 14.8322 31.0056 14.4033 31.011 13.9691C31.011 12.48 30.6877 11.1614 30.0383 10.016C29.4051 8.87853 28.4513 7.94886 27.2954 7.3415ZM26.1421 13.2365H20.0042C20.0796 12.2323 20.4084 11.4678 20.9904 10.9457C21.5724 10.4235 22.3025 10.1625 23.1836 10.1625C24.0297 10.1625 24.7383 10.4182 25.3095 10.9323C25.8835 11.4438 26.161 12.2136 26.1421 13.2365Z" fill="#6B7280"/>
<path d="M47.2531 17.7944C47.2531 16.6942 46.9648 15.8178 46.3882 15.1652C45.8358 14.5312 45.1326 14.0464 44.3431 13.756C43.5536 13.4656 42.5432 13.1806 41.3119 12.9009C40.1748 12.6558 39.3422 12.4134 38.8114 12.1737C38.2833 11.9366 38.0192 11.5743 38.0192 11.0895C38.0192 10.6606 38.1647 10.3303 38.4504 10.0986C38.7387 9.86415 39.1617 9.74694 39.7194 9.74694C40.4335 9.74694 41.0262 9.92808 41.4951 10.2904C41.9666 10.6553 42.2684 11.1534 42.4058 11.7874H47.0214C46.7142 10.1625 45.949 8.85722 44.7284 7.8716C43.5051 6.88333 41.875 6.39052 39.8353 6.39052C37.836 6.38519 36.2894 6.81673 35.1928 7.68514C34.0961 8.55088 33.5492 9.68301 33.5492 11.0788C33.5492 12.163 33.8267 13.0155 34.3844 13.6388C34.9233 14.2488 35.6077 14.715 36.3756 14.9947C37.1435 15.2744 38.127 15.5354 39.318 15.7752C40.5116 16.0336 41.3738 16.2813 41.9019 16.5184C42.4301 16.7528 42.6941 17.1417 42.6941 17.6798C42.7103 18.0581 42.5513 18.423 42.263 18.6734C41.9747 18.9238 41.5517 19.0517 40.9939 19.0517C40.1856 19.049 39.5254 18.8705 39.0162 18.5189C38.5069 18.1673 38.2133 17.6532 38.1351 16.9819H33.3713C33.6623 18.7187 34.4599 20.0506 35.7694 20.9803C37.0762 21.9126 38.8168 22.3761 40.9912 22.3761C42.2819 22.3761 43.3974 22.1817 44.3377 21.7901C45.2808 21.3985 46.0029 20.8578 46.5014 20.1678C47.0025 19.4779 47.2666 18.6441 47.2531 17.7944Z" fill="#6B7280"/>
<path d="M75.763 6.39052H70.8295V22.3788H75.763V6.39052Z" fill="#6B7280"/>
<path d="M75.7953 2.48269C75.7953 3.85456 74.6771 4.96537 73.2949 4.96537C71.9153 4.96537 70.7971 3.85456 70.7971 2.48269C70.7971 1.11081 71.9153 0 73.2949 0C74.6771 0 75.7953 1.11081 75.7953 2.48269Z" fill="#6B7280"/>
</svg>
