<svg width="97" height="28" viewBox="0 0 97 28" fill="none" xmlns="http://www.w3.org/2000/svg">
<g clip-path="url(#clip0_1457_3350)">
<path d="M60.7949 25.7089H5.63843V23.1733H60.7949C61.4935 23.1733 62.0578 23.7426 62.0578 24.4411C62.0578 25.1421 61.4935 25.7089 60.7949 25.7089Z" fill="#F23F44" style="fill:#F23F44;fill:color(display-p3 0.9490 0.2471 0.2667);fill-opacity:1;"/>
<path d="M66.4861 23.2603C67.1349 23.2603 67.6619 23.7897 67.6619 24.441C67.6619 25.0948 67.1349 25.6242 66.4861 25.6242C65.8348 25.6242 65.3103 25.0948 65.3103 24.441C65.3103 23.7897 65.8348 23.2603 66.4861 23.2603Z" fill="#F23F44" style="fill:#F23F44;fill:color(display-p3 0.9490 0.2471 0.2667);fill-opacity:1;"/>
<path d="M71.8924 23.2603C72.5437 23.2603 73.0707 23.7897 73.0707 24.441C73.0707 25.0948 72.5437 25.6242 71.8924 25.6242C71.2436 25.6242 70.7166 25.0948 70.7166 24.441C70.7166 23.7897 71.2436 23.2603 71.8924 23.2603Z" fill="#F23F44" style="fill:#F23F44;fill:color(display-p3 0.9490 0.2471 0.2667);fill-opacity:1;"/>
<path d="M77.3089 23.2603C77.9577 23.2603 78.4847 23.7897 78.4847 24.441C78.4847 25.0948 77.9577 25.6242 77.3089 25.6242C76.6576 25.6242 76.1306 25.0948 76.1306 24.441C76.1306 23.7897 76.6576 23.2603 77.3089 23.2603Z" fill="#F23F44" style="fill:#F23F44;fill:color(display-p3 0.9490 0.2471 0.2667);fill-opacity:1;"/>
<path d="M53.3276 16.9564H54.7669V20.8864H52.7161C50.976 20.8864 49.6236 20.4539 48.6566 19.5888C47.6896 18.7238 47.2049 17.2944 47.2049 15.2983V9.81716H45.2087V5.96666H47.2049V1.98193H51.759V5.96666H54.7396V9.81716H51.759V15.3779C51.759 15.967 51.8758 16.3747 52.117 16.6084C52.3606 16.842 52.7608 16.9564 53.3276 16.9564Z" fill="#161B21" style="fill:#161B21;fill:color(display-p3 0.0863 0.1059 0.1294);fill-opacity:1;"/>
<path d="M57.5056 1.98193H62.0572V20.8864H57.5056V1.98193Z" fill="#161B21" style="fill:#161B21;fill:color(display-p3 0.0863 0.1059 0.1294);fill-opacity:1;"/>
<path d="M15.3637 5.96666H10.2527V20.8864H5.67374V5.96666H0.61499V1.98193H15.3637V5.96666Z" fill="#161B21" style="fill:#161B21;fill:color(display-p3 0.0863 0.1059 0.1294);fill-opacity:1;"/>
<path d="M25.224 6.85374C24.1327 6.26212 22.8674 5.96631 21.4306 5.96631C20.0111 5.96631 18.7483 6.2646 17.6396 6.86617C16.5433 7.45281 15.6459 8.35019 15.0568 9.44891C14.4403 10.57 14.1345 11.8949 14.1345 13.4287C14.1345 14.94 14.4453 16.2625 15.0717 17.3935C15.6633 18.4922 16.5607 19.3921 17.6545 19.9862C18.7558 20.5878 20.0136 20.8885 21.433 20.8885C22.6461 20.8885 23.7449 20.6574 24.7318 20.1975C25.6839 19.7625 26.5191 19.1112 27.1729 18.2934C27.8093 17.4929 28.2369 16.5483 28.4208 15.5441H23.7176C23.5858 16.0562 23.2825 16.5061 22.8599 16.8218C22.4274 17.1524 21.883 17.3165 21.2242 17.3165C20.4437 17.3165 19.8048 17.0778 19.3026 16.6005C18.8005 16.1233 18.5221 15.3353 18.4724 14.239H28.5227C28.6048 13.8438 28.647 13.4436 28.652 13.0384C28.652 11.6488 28.3537 10.4184 27.7546 9.34948C27.1704 8.28804 26.2904 7.4205 25.224 6.85374ZM24.16 12.3548H18.4972C18.5668 11.4177 18.8701 10.7042 19.4071 10.217C19.944 9.7298 20.6177 9.48619 21.4306 9.48619C22.2111 9.48619 22.8649 9.72483 23.3919 10.2046C23.9214 10.6819 24.1774 11.4003 24.16 12.3548Z" fill="#161B21" style="fill:#161B21;fill:color(display-p3 0.0863 0.1059 0.1294);fill-opacity:1;"/>
<path d="M42.8391 14.1541C43.3711 14.7631 43.637 15.5809 43.637 16.6076C43.6495 17.4005 43.4059 18.1786 42.9435 18.8224C42.4836 19.4662 41.8174 19.9708 40.9473 20.3362C40.0798 20.7017 39.0506 20.8831 37.8599 20.8831C35.8538 20.8831 34.2479 20.4506 33.0423 19.5806C31.8341 18.713 31.0983 17.4701 30.8298 15.8494H35.2249C35.2969 16.4758 35.5679 16.9556 36.0377 17.2837C36.5076 17.6118 37.1166 17.7784 37.8624 17.7808C38.3769 17.7808 38.7672 17.6615 39.0332 17.4279C39.2992 17.1942 39.4459 16.8536 39.4309 16.5007C39.4309 15.9985 39.1873 15.6356 38.7001 15.4169C38.2129 15.1956 37.4174 14.9644 36.3162 14.7233C35.2174 14.4996 34.3101 14.256 33.6016 13.995C32.8931 13.734 32.2617 13.299 31.7645 12.7297C31.2499 12.148 30.9939 11.3526 30.9939 10.3409C30.9939 9.03831 31.4985 7.98185 32.5103 7.17396C33.522 6.36359 34.9489 5.96089 36.7934 5.96587C38.6752 5.96587 40.1792 6.42574 41.3078 7.34797C42.4339 8.26771 43.1399 9.48575 43.4233 11.0021H39.165C39.0382 10.4105 38.7598 9.94562 38.3247 9.60507C37.8922 9.267 37.3453 9.09797 36.6865 9.09797C36.172 9.09797 35.7817 9.20734 35.5157 9.42609C35.2522 9.64236 35.118 9.9506 35.118 10.3508C35.118 10.8032 35.3616 11.1413 35.8488 11.3625C36.3385 11.5862 37.1067 11.8125 38.1557 12.0411C39.2917 12.3022 40.2239 12.5681 40.9523 12.8391C41.6807 13.11 42.3295 13.5625 42.8391 14.1541Z" fill="#161B21" style="fill:#161B21;fill:color(display-p3 0.0863 0.1059 0.1294);fill-opacity:1;"/>
<path d="M96.0756 5.96635L86.8108 27.998H81.8067L85.2919 20.3268L80.7328 9.81934H78.3812V20.8911H73.827V9.81934H72.0447V5.96635H73.827V5.80478C73.827 3.95037 74.3665 2.52104 75.4404 1.51429C76.5143 0.507546 78.0704 0.00292969 80.1113 0.00292969C80.5389 0.00292969 80.8571 0.0128728 81.0709 0.0302734V3.96032L80.5662 3.93546C79.818 3.93546 79.2736 4.09455 78.938 4.4177C78.6024 4.73837 78.416 5.25542 78.3787 5.96884H84.1434L87.7106 15.1116L91.0417 5.96635H96.0756Z" fill="#161B21" style="fill:#161B21;fill:color(display-p3 0.0863 0.1059 0.1294);fill-opacity:1;"/>
<path d="M65.3884 5.96631H69.9401V20.8861H65.3884V5.96631Z" fill="#161B21" style="fill:#161B21;fill:color(display-p3 0.0863 0.1059 0.1294);fill-opacity:1;"/>
<path d="M69.9685 2.31969C69.9685 3.59988 68.9368 4.63645 67.6616 4.63645C66.3888 4.63645 65.3572 3.59988 65.3572 2.31969C65.3572 1.03951 66.3888 0.00292969 67.6616 0.00292969C68.9368 0.00292969 69.9685 1.03951 69.9685 2.31969Z" fill="#161B21" style="fill:#161B21;fill:color(display-p3 0.0863 0.1059 0.1294);fill-opacity:1;"/>
</g>
<defs>
<clipPath id="clip0_1457_3350">
<rect width="95.4575" height="28" fill="white" style="fill:white;fill-opacity:1;" transform="translate(0.615479)"/>
</clipPath>
</defs>
</svg>
