<svg width="40" height="40" viewBox="0 0 40 40" fill="none" xmlns="http://www.w3.org/2000/svg">
<g id="Frame">
<path id="Vector" d="M20.0437 1.59966C9.87234 1.57688 1.60156 9.83341 1.60156 19.9997V20.0215C1.60796 20.4631 1.9709 20.817 2.4125 20.8106C2.8549 20.8042 3.20796 20.4413 3.20156 19.9997C3.20156 10.4141 11.2032 2.71989 20.9 3.22309C29.3848 3.66389 36.3373 10.6164 36.7781 19.1012C37.2677 28.534 30.0004 36.3625 20.7812 36.7825C20.3476 36.8025 20.0016 37.1449 20.0016 37.5793C20.0016 38.0289 20.373 38.4009 20.8234 38.3809C31.2802 37.9201 39.4852 28.7077 38.2844 17.8997C37.346 9.45486 30.5464 2.65524 22.1016 1.71684C21.4085 1.63984 20.7218 1.60117 20.0437 1.59966ZM19.9891 7.18872C19.5483 7.19592 19.1952 7.55806 19.2016 7.99966V17.7403C17.9536 18.1875 17.3044 19.561 17.7516 20.809C18.0916 21.7594 18.992 22.3957 20.0016 22.3997C21.0184 22.3989 21.9241 21.7581 22.2625 20.7997H28.8016C29.2432 20.8061 29.6061 20.4522 29.6125 20.0106C29.6189 19.569 29.265 19.2061 28.8234 19.1997H28.8016H22.2641C22.0225 18.5165 21.4848 17.9788 20.8016 17.7372V7.99966C20.808 7.55806 20.4541 7.19512 20.0125 7.18872H19.9891ZM2.70156 22.2997C2.48939 22.2997 2.28591 22.3839 2.13588 22.534C1.98585 22.684 1.90156 22.8875 1.90156 23.0997C1.90156 23.3118 1.98585 23.5153 2.13588 23.6653C2.28591 23.8154 2.48939 23.8997 2.70156 23.8997C2.91374 23.8997 3.11722 23.8154 3.26725 23.6653C3.41728 23.5153 3.50156 23.3118 3.50156 23.0997C3.50156 22.8875 3.41728 22.684 3.26725 22.534C3.11722 22.3839 2.91374 22.2997 2.70156 22.2997ZM3.60156 25.3997C3.38939 25.3997 3.18591 25.4839 3.03588 25.634C2.88585 25.784 2.80156 25.9875 2.80156 26.1997C2.80156 26.4118 2.88585 26.6153 3.03588 26.7653C3.18591 26.9154 3.38939 26.9997 3.60156 26.9997C3.81374 26.9997 4.01722 26.9154 4.16725 26.7653C4.31728 26.6153 4.40156 26.4118 4.40156 26.1997C4.40156 25.9875 4.31728 25.784 4.16725 25.634C4.01722 25.4839 3.81374 25.3997 3.60156 25.3997ZM4.90156 28.1997C4.68939 28.1997 4.48591 28.2839 4.33588 28.434C4.18585 28.584 4.10156 28.7875 4.10156 28.9997C4.10156 29.2118 4.18585 29.4153 4.33588 29.5653C4.48591 29.7154 4.68939 29.7997 4.90156 29.7997C5.11374 29.7997 5.31722 29.7154 5.46725 29.5653C5.61728 29.4153 5.70156 29.2118 5.70156 28.9997C5.70156 28.7875 5.61728 28.584 5.46725 28.434C5.31722 28.2839 5.11374 28.1997 4.90156 28.1997ZM6.80156 30.7997C6.58939 30.7997 6.38591 30.8839 6.23588 31.034C6.08585 31.184 6.00156 31.3875 6.00156 31.5997C6.00156 31.8118 6.08585 32.0153 6.23588 32.1653C6.38591 32.3154 6.58939 32.3997 6.80156 32.3997C7.01374 32.3997 7.21722 32.3154 7.36725 32.1653C7.51728 32.0153 7.60156 31.8118 7.60156 31.5997C7.60156 31.3875 7.51728 31.184 7.36725 31.034C7.21722 30.8839 7.01374 30.7997 6.80156 30.7997ZM9.10156 32.9997C8.88939 32.9997 8.68591 33.0839 8.53588 33.234C8.38585 33.384 8.30156 33.5875 8.30156 33.7997C8.30156 34.0118 8.38585 34.2153 8.53588 34.3653C8.68591 34.5154 8.88939 34.5997 9.10156 34.5997C9.31374 34.5997 9.51722 34.5154 9.66725 34.3653C9.81728 34.2153 9.90156 34.0118 9.90156 33.7997C9.90156 33.5875 9.81728 33.384 9.66725 33.234C9.51722 33.0839 9.31374 32.9997 9.10156 32.9997ZM11.7016 34.6997C11.4894 34.6997 11.2859 34.7839 11.1359 34.934C10.9858 35.084 10.9016 35.2875 10.9016 35.4997C10.9016 35.7118 10.9858 35.9153 11.1359 36.0653C11.2859 36.2154 11.4894 36.2997 11.7016 36.2997C11.9137 36.2997 12.1172 36.2154 12.2672 36.0653C12.4173 35.9153 12.5016 35.7118 12.5016 35.4997C12.5016 35.2875 12.4173 35.084 12.2672 34.934C12.1172 34.7839 11.9137 34.6997 11.7016 34.6997ZM14.6016 35.9997C14.3894 35.9997 14.1859 36.0839 14.0359 36.234C13.8858 36.384 13.8016 36.5875 13.8016 36.7997C13.8016 37.0118 13.8858 37.2153 14.0359 37.3653C14.1859 37.5154 14.3894 37.5997 14.6016 37.5997C14.8137 37.5997 15.0172 37.5154 15.1672 37.3653C15.3173 37.2153 15.4016 37.0118 15.4016 36.7997C15.4016 36.5875 15.3173 36.384 15.1672 36.234C15.0172 36.0839 14.8137 35.9997 14.6016 35.9997ZM17.7016 36.6997C17.4894 36.6997 17.2859 36.7839 17.1359 36.934C16.9858 37.084 16.9016 37.2875 16.9016 37.4997C16.9016 37.7118 16.9858 37.9153 17.1359 38.0653C17.2859 38.2154 17.4894 38.2997 17.7016 38.2997C17.9137 38.2997 18.1172 38.2154 18.2672 38.0653C18.4173 37.9153 18.5016 37.7118 18.5016 37.4997C18.5016 37.2875 18.4173 37.084 18.2672 36.934C18.1172 36.7839 17.9137 36.6997 17.7016 36.6997Z" fill="black" style="fill:black;fill-opacity:1;"/>
</g>
</svg>
