<svg width="40" height="40" viewBox="0 0 40 40" fill="none" xmlns="http://www.w3.org/2000/svg">
<g id="Frame">
<path id="Vector" d="M20.0016 1.59961C9.849 1.59961 1.60156 9.84705 1.60156 19.9996C1.60156 30.1522 9.849 38.3996 20.0016 38.3996C30.1541 38.3996 38.4016 30.1522 38.4016 19.9996C38.4016 9.84705 30.1541 1.59961 20.0016 1.59961ZM20.0016 3.19961C29.2894 3.19961 36.8016 10.7118 36.8016 19.9996C36.8016 29.2875 29.2894 36.7996 20.0016 36.7996C10.7137 36.7996 3.20156 29.2875 3.20156 19.9996C3.20156 10.7118 10.7137 3.19961 20.0016 3.19961ZM20.0016 8.79961C17.3425 8.79961 15.2016 10.9406 15.2016 13.5996V15.9996H14.4016C13.0852 15.9996 12.0016 17.0832 12.0016 18.3996V26.3996C12.0016 27.716 13.0852 28.7996 14.4016 28.7996H25.6016C26.9179 28.7996 28.0016 27.716 28.0016 26.3996V18.3996C28.0016 17.0832 26.9179 15.9996 25.6016 15.9996H24.8016V13.5996C24.8016 10.9406 22.6606 8.79961 20.0016 8.79961ZM20.0016 10.3996C21.8225 10.3996 23.2016 11.7787 23.2016 13.5996V15.9996H16.8016V13.5996C16.8016 11.7787 18.1806 10.3996 20.0016 10.3996ZM14.4016 17.5996H15.8672C15.9536 17.6139 16.0417 17.6139 16.1281 17.5996H23.8672C23.9536 17.6139 24.0417 17.6139 24.1281 17.5996H25.6016C26.0452 17.5996 26.4016 17.956 26.4016 18.3996V26.3996C26.4016 26.8432 26.0452 27.1996 25.6016 27.1996H14.4016C13.9579 27.1996 13.6016 26.8432 13.6016 26.3996V18.3996C13.6016 17.956 13.9579 17.5996 14.4016 17.5996ZM20.0016 19.9996C19.5772 19.9996 19.1703 20.1682 18.8702 20.4682C18.5701 20.7683 18.4016 21.1753 18.4016 21.5996C18.4018 21.8803 18.4758 22.1559 18.6162 22.3989C18.7567 22.6419 18.9585 22.8437 19.2016 22.984V23.9996C19.2016 24.4796 19.5216 24.7996 20.0016 24.7996C20.4816 24.7996 20.8016 24.4796 20.8016 23.9996V22.9824C21.0444 22.8422 21.2461 22.6407 21.3865 22.398C21.5269 22.1553 21.6011 21.88 21.6016 21.5996C21.6016 21.1753 21.433 20.7683 21.1329 20.4682C20.8329 20.1682 20.4259 19.9996 20.0016 19.9996Z" fill="black" style="fill:black;fill-opacity:1;"/>
</g>
</svg>
