<svg width="118" height="28" viewBox="0 0 118 28" fill="none" xmlns="http://www.w3.org/2000/svg">
<path d="M22.8887 12.9709H22.8434L22.8453 9.97303H22.3752C19.1013 9.83412 17.6372 12.3174 17.6372 14.9392V27.7129H23.5537V20.4557C23.5537 16.9726 25.2829 15.2525 27.1859 15.0433C28.7874 14.8677 29.6785 15.5437 30.3811 16.0251L30.3949 16.043V10.488C29.9142 10.0804 28.9527 9.82129 27.8803 9.82129C25.4028 9.82129 23.8132 10.8586 22.8887 12.9709Z" fill="#070E42" style="fill:#070E42;fill:color(display-p3 0.0275 0.0549 0.2588);fill-opacity:1;"/>
<path d="M43.5971 19.5884C43.5971 21.6636 42.7097 22.7381 41.0084 22.7381C39.5663 22.7381 38.7158 21.7745 38.7158 19.9222L38.7836 9.9248L32.8144 9.93028L32.7993 20.6262C32.7993 25.2947 35.2402 27.9995 39.3818 27.9995C41.6373 27.9995 43.3386 27.1103 44.3367 25.4428H44.4109L44.6329 27.7128L49.5626 27.6785L49.5818 9.9248H43.6653L43.5971 19.5884Z" fill="#070E42" style="fill:#070E42;fill:color(display-p3 0.0275 0.0549 0.2588);fill-opacity:1;"/>
<path d="M59.6323 16.5237C57.6353 16.3756 57.1176 16.0422 57.1176 15.4492C57.1176 14.6342 57.931 14.1894 59.4474 14.1894C61.5549 14.1894 63.589 14.7099 64.6984 15.8216L64.6825 10.7274C63.351 10.0235 61.4076 9.63232 59.2999 9.63232C54.6773 9.63232 51.7563 11.9295 51.7563 15.6349C51.7563 18.8584 53.5313 20.3777 57.7841 20.7482C59.9659 20.9335 60.5577 21.2669 60.5577 22.008C60.5577 22.8234 59.7443 23.2678 58.3022 23.2678C55.7134 23.2678 53.6799 22.5267 52.2378 21.0816H52.0158V26.3432C53.421 27.3434 55.6398 27.8625 58.5613 27.8625C63.2205 27.8625 65.9199 25.7135 65.9199 22.008C65.9199 18.3025 64.0343 16.858 59.6336 16.5241L59.6323 16.5237Z" fill="#070E42" style="fill:#070E42;fill:color(display-p3 0.0275 0.0549 0.2588);fill-opacity:1;"/>
<path d="M77.8067 22.738C76.5123 22.738 75.7727 21.9968 75.7727 20.6262V14.911H80.3583V9.92155H75.7727V4.14648H70.7436L70.0411 9.92155H67.1567V14.911H69.8562V20.8485C69.8562 25.5913 72.2228 28 76.8084 28C78.3984 28 79.508 27.8147 80.3954 27.4441V21.7754H80.1734C79.3967 22.5537 78.657 22.738 77.8067 22.738Z" fill="#070E42" style="fill:#070E42;fill:color(display-p3 0.0275 0.0549 0.2588);fill-opacity:1;"/>
<path d="M104.146 9.58447C101.515 9.58447 99.335 11.106 98.3658 12.5585C97.6736 10.5874 96.0118 9.58447 93.6236 9.58447C90.9928 9.58447 88.8471 11.0717 88.1198 12.0398V9.89545H82.7896V27.6867H88.1198V15.913C88.6737 15.2216 89.6774 14.2878 91.0967 14.2878C92.7233 14.2878 93.3118 15.2559 93.3118 16.5359V27.6871H98.6421V15.9136C99.1612 15.222 100.2 14.2882 101.654 14.2882C103.246 14.2882 103.869 15.2563 103.869 16.5363V27.6876H109.165V14.5996C109.165 11.1758 107.226 9.58447 104.146 9.58447Z" fill="url(#paint0_linear_1457_3317)" style=""/>
<path d="M114.28 8.05171C115.977 8.05171 117.326 6.69885 117.326 4.99973C117.326 3.30061 115.977 1.94775 114.28 1.94775C112.584 1.94775 111.235 3.30021 111.235 4.99973C111.235 6.69939 112.584 8.05171 114.28 8.05171Z" fill="url(#paint1_linear_1457_3317)" style=""/>
<path d="M111.583 27.6931H116.913L116.944 9.94678H111.615L111.583 27.6931Z" fill="url(#paint2_linear_1457_3317)" style=""/>
<path d="M22.8305 7.51321C22.8606 7.51682 22.8666 0.281144 22.8368 0.261759C22.7325 0.194911 19.5608 -0.786941 15.4126 1.54362C13.5504 2.59018 12.1946 4.34064 11.2642 5.35043C8.20584 8.6702 4.12335 11.2659 0.504778 10.4614C0.467344 10.4533 0.479242 17.124 0.504778 17.1318C3.76679 18.142 5.51244 17.8178 8.67324 16.1596L8.69008 27.7126C8.69008 27.7414 15.311 27.7158 15.311 27.6869L15.2515 15.5079C15.0305 11.375 17.054 6.77896 22.8305 7.51321Z" fill="#070E42" style="fill:#070E42;fill:color(display-p3 0.0275 0.0549 0.2588);fill-opacity:1;"/>
<defs>
<linearGradient id="paint0_linear_1457_3317" x1="120.341" y1="-13.2927" x2="98.5758" y2="15.2561" gradientUnits="userSpaceOnUse">
<stop stop-color="#00EAA8" style="stop-color:#00EAA8;stop-color:color(display-p3 0.0000 0.9176 0.6588);stop-opacity:1;"/>
<stop offset="1" stop-color="#00908E" style="stop-color:#00908E;stop-color:color(display-p3 0.0000 0.5647 0.5569);stop-opacity:1;"/>
</linearGradient>
<linearGradient id="paint1_linear_1457_3317" x1="125.3" y1="-9.5112" x2="103.534" y2="19.038" gradientUnits="userSpaceOnUse">
<stop stop-color="#00EAA8" style="stop-color:#00EAA8;stop-color:color(display-p3 0.0000 0.9176 0.6588);stop-opacity:1;"/>
<stop offset="1" stop-color="#00908E" style="stop-color:#00908E;stop-color:color(display-p3 0.0000 0.5647 0.5569);stop-opacity:1;"/>
</linearGradient>
<linearGradient id="paint2_linear_1457_3317" x1="131.935" y1="-4.45184" x2="110.169" y2="24.0975" gradientUnits="userSpaceOnUse">
<stop stop-color="#00EAA8" style="stop-color:#00EAA8;stop-color:color(display-p3 0.0000 0.9176 0.6588);stop-opacity:1;"/>
<stop offset="1" stop-color="#00908E" style="stop-color:#00908E;stop-color:color(display-p3 0.0000 0.5647 0.5569);stop-opacity:1;"/>
</linearGradient>
</defs>
</svg>
