<svg width="110" height="26" viewBox="0 0 110 26" fill="none" xmlns="http://www.w3.org/2000/svg">
<path d="M21.1634 12.0444H21.1211L21.1228 9.26068H20.6844C17.6307 9.1317 16.2651 11.4376 16.2651 13.8722V25.7333H21.7837V18.9946C21.7837 15.7602 23.3966 14.163 25.1716 13.9687C26.5968 13.8132 27.4188 14.3774 28.0604 14.8178L28.1518 14.8804L28.1647 14.8971V9.73889C27.7164 9.36037 26.8195 9.11978 25.8193 9.11978C23.5084 9.11978 22.0257 10.083 21.1634 12.0444Z" fill="#6B7280"/>
<path d="M38.0615 21.1138C39.6484 21.1138 40.4762 20.1161 40.4762 18.1891L40.5398 9.21585H46.0583L46.0403 25.7013L41.4423 25.7332L41.2353 23.6254H41.166C40.235 25.1737 38.6482 25.9994 36.5443 25.9994C32.6813 25.9994 30.4046 23.4878 30.4046 19.1528L30.4187 9.22096L35.9864 9.21585L35.9232 18.4991C35.9232 20.2191 36.7164 21.1138 38.0615 21.1138Z" fill="#6B7280"/>
<path d="M55.4348 15.3438C53.5721 15.2063 53.0893 14.8966 53.0893 14.3461C53.0893 13.5893 53.848 13.1763 55.2623 13.1763C57.2281 13.1763 59.1253 13.6596 60.1601 14.6918L60.1453 9.96155C58.9034 9.30794 57.0907 8.94472 55.1248 8.94472C50.8131 8.94472 48.0887 11.0778 48.0887 14.5185C48.0887 17.5118 49.7441 18.9225 53.7109 19.2665C55.7459 19.4386 56.298 19.7482 56.298 20.4363C56.298 21.1935 55.5393 21.6061 54.1941 21.6061C51.7796 21.6061 49.8828 20.918 48.5377 19.5761H48.3307V24.4618C49.6413 25.3905 51.7108 25.8726 54.4358 25.8726C58.7817 25.8726 61.2995 23.8771 61.2995 20.4363C61.2995 16.9956 59.5407 15.6542 55.4361 15.3442L55.4348 15.3438Z" fill="#6B7280"/>
<path d="M70.4929 19.153C70.4929 20.4257 71.1827 21.1139 72.3901 21.1139C73.1832 21.1139 73.8731 20.9427 74.5975 20.2201H74.8046V25.4838C73.9769 25.8279 72.942 26 71.459 26C67.1818 26 64.9743 23.7634 64.9743 19.3594V13.846H62.4565V9.21299H65.1468L65.8021 3.85046H70.4929V9.21299H74.77V13.846H70.4929V19.153Z" fill="#6B7280"/>
<path d="M96.9556 8.89997C94.5017 8.89997 92.4679 10.3128 91.5639 11.6615C90.9183 9.83129 89.3682 8.89997 87.1406 8.89997C84.6868 8.89997 82.6855 10.281 82.0071 11.1799V9.18874H77.0353V25.709H82.0071V14.7765C82.5237 14.1344 83.4599 13.2674 84.7837 13.2674C86.301 13.2674 86.8499 14.1663 86.8499 15.3548V25.7094H91.8216V14.7769C92.3059 14.1347 93.2743 13.2677 94.6306 13.2677C96.1158 13.2677 96.6969 14.1667 96.6969 15.3552V25.7099H101.636V13.5569C101.636 10.3777 99.8285 8.89997 96.9556 8.89997Z" fill="#6B7280"/>
<path d="M109.251 4.64288C109.251 6.22062 107.992 7.47688 106.41 7.47688C104.827 7.47688 103.569 6.22112 103.569 4.64288C103.569 3.06477 104.827 1.80895 106.41 1.80895C107.992 1.80895 109.251 3.06514 109.251 4.64288Z" fill="#6B7280"/>
<path d="M103.894 25.7154H108.866L108.895 9.23678H103.924L103.894 25.7154Z" fill="#6B7280"/>
<path d="M21.1151 0.243056C21.1429 0.261056 21.1373 6.97986 21.1092 6.97651C15.7212 6.29471 13.8339 10.5624 14.04 14.4001L14.0955 25.7091C14.0955 25.7359 7.91991 25.7597 7.91991 25.7329L7.9042 15.0052C4.95602 16.545 3.32773 16.846 0.285136 15.908C0.261349 15.9007 0.250249 9.70656 0.285136 9.71413C3.66032 10.4611 7.46827 8.05082 10.3209 4.9682C10.4672 4.81013 10.6247 4.63254 10.7939 4.4418C11.6285 3.50111 12.7462 2.24132 14.1903 1.43335C18.0594 -0.730721 21.0178 0.180984 21.1151 0.243056Z" fill="#6B7280"/>
</svg>
