<svg width="98" height="28" viewBox="0 0 98 28" fill="none" xmlns="http://www.w3.org/2000/svg">
<g clip-path="url(#clip0_1457_3295)">
<path d="M17.7464 21.1969L20.4915 25.9471L21.8043 25.1117L22.2818 23.5362L19.3218 18.428L17.7464 21.1969ZM8.84271 2.36318L7.55371 3.50895L11.0627 9.5243L12.662 6.7792L9.43947 1.26514L8.84271 2.36318ZM11.8504 17.0912L7.98338 23.7749L8.46079 25.5652L9.65431 26.4007L15.2639 16.7332L16.8632 13.9881L23.0217 3.27025L21.9953 1.8619L21.6611 1.36062L20.1573 2.76897L11.8504 17.0912Z" fill="#4B4B4B" style="fill:#4B4B4B;fill:color(display-p3 0.2941 0.2941 0.2941);fill-opacity:1;"/>
<path d="M8.72348 0L7.12416 2.76897L2.25459 11.2191L0.655273 14.0119L8.72348 27.9523L10.3228 25.231L3.85391 14.0119L10.3228 2.79284H14.9537L16.553 0H8.72348ZM20.1097 2.81671L26.6024 14.0358L20.1097 25.2549H15.4788L13.9034 28H21.709L23.3083 25.2549L28.2256 16.7809L29.8011 14.0358L28.2017 11.243L23.2844 2.79284L21.709 0.0238719L20.1097 2.81671Z" fill="#4B4B4B" style="fill:#4B4B4B;fill:color(display-p3 0.2941 0.2941 0.2941);fill-opacity:1;"/>
<path fill-rule="evenodd" clip-rule="evenodd" d="M43.4342 8.97607L40.4743 13.2727L37.5382 8.97607H35.175L39.2807 14.7288L34.9602 20.7681H37.2995L40.4743 16.2088L43.6252 20.7681H45.9645L41.6439 14.7288L45.7496 8.9522L43.4342 8.97607ZM52.3856 10.5276C53.1495 10.4799 53.8656 10.7902 54.3668 11.3631C54.8443 12.0315 55.1068 12.8192 55.0591 13.6308H49.3541C49.4257 12.7953 49.736 12.0076 50.2611 11.387C50.834 10.8141 51.5979 10.4799 52.3856 10.5276ZM52.3856 8.76123C50.9295 8.71349 49.5212 9.33412 48.5902 10.456C47.6115 11.745 47.1102 13.3444 47.1819 14.9675C47.0864 16.5907 47.6354 18.1662 48.6857 19.3836C49.7837 20.5055 51.2876 21.1022 52.8391 21.0306C53.5075 21.0306 54.1998 20.9829 54.8681 20.8635C55.4888 20.7203 56.0855 20.5293 56.6584 20.2906L56.7539 20.2429V18.3333L56.5391 18.4288C55.3933 18.93 54.152 19.1926 52.9108 19.1926C51.9321 19.2403 50.9773 18.8823 50.285 18.19C49.6405 17.4023 49.2824 16.3998 49.3063 15.3972H57.2313V14.1321C57.3029 12.7237 56.8255 11.3392 55.9423 10.2651C55.0352 9.28638 53.7701 8.73736 52.4333 8.7851M65.5621 8.7851C64.7982 8.7851 64.0344 8.9522 63.3421 9.26251C62.7931 9.52509 62.3157 9.93088 61.9338 10.4322L61.6712 9.02381H59.9287V20.8158H61.9815V14.6095C61.886 13.5114 62.1725 12.4134 62.7931 11.4825C63.4615 10.8141 64.3924 10.456 65.3234 10.5276C66.0156 10.456 66.7079 10.6947 67.233 11.1721C67.6865 11.745 67.9014 12.4611 67.8298 13.1773V20.7919H69.8826V13.1295C69.9781 11.9121 69.5962 10.7186 68.7846 9.81153C67.8775 9.04768 66.7317 8.68962 65.5382 8.76123M77.6405 19.2881C76.7573 19.3358 75.898 18.9539 75.3728 18.2139C74.7761 17.2352 74.5135 16.1133 74.5851 14.9675C74.5135 13.8218 74.7999 12.676 75.3728 11.6973C75.8502 10.9334 76.7096 10.4799 77.5928 10.5276C78.5237 10.4322 79.4547 10.8141 80.0753 11.5063C80.6004 12.1747 80.863 13.3205 80.863 14.8959V15.2779C80.9585 16.352 80.672 17.4262 80.0992 18.3094C79.4547 18.9778 78.5476 19.312 77.6166 19.2403L77.6405 19.2881ZM80.8869 9.02381L80.9346 9.8354L80.9824 10.3606C79.1682 8.40318 76.0889 8.28382 74.1315 10.098C74.0122 10.2173 73.8928 10.3128 73.7974 10.4322C72.8664 11.745 72.4129 13.3444 72.5084 14.9437C72.4129 16.543 72.8664 18.1423 73.7974 19.4313C74.6806 20.5055 76.0412 21.0784 77.4257 21.0068C78.8102 21.0784 80.1708 20.4816 81.0301 19.3836L81.2449 20.7919H82.9397V4.13037H80.8869V8.97607V9.02381ZM87.3796 4.751C87.0693 4.751 86.759 4.84648 86.5442 5.06132C86.3055 5.32389 86.1861 5.65808 86.1861 6.01613C86.1622 6.37419 86.2816 6.73225 86.5203 6.99482C86.7351 7.20966 87.0454 7.32901 87.3558 7.32901C87.6661 7.32901 87.9525 7.20966 88.1912 6.99482C88.4299 6.73225 88.5732 6.37419 88.5493 6.01613C88.5732 5.65808 88.4538 5.30002 88.1912 5.03745C87.9764 4.82261 87.6661 4.70326 87.3558 4.70326M86.3293 20.8397H88.3583V8.99994H86.3293V20.8397ZM97.1904 19.0971C96.9755 19.1449 96.7607 19.1926 96.522 19.2403C96.2356 19.2881 95.9491 19.312 95.6627 19.312C95.1853 19.3358 94.7317 19.1449 94.4214 18.8107C94.0872 18.381 93.9201 17.8559 93.9679 17.3068V10.647H97.3097V8.99994H93.9679V6.32645H92.6789L91.9389 8.83284L90.2679 9.52509V10.6231H91.915V17.3307C91.915 19.7655 93.0847 21.0068 95.424 21.0068C95.7581 21.0068 96.1162 20.9829 96.4504 20.9113C96.7607 20.8635 97.0471 20.7919 97.3336 20.6726L97.4291 20.6248V19.0255L97.2381 19.0733L97.1904 19.0971Z" fill="#4B4B4B" style="fill:#4B4B4B;fill:color(display-p3 0.2941 0.2941 0.2941);fill-opacity:1;"/>
</g>
<defs>
<clipPath id="clip0_1457_3295">
<rect width="96.6933" height="28" fill="white" style="fill:white;fill-opacity:1;" transform="translate(0.845947)"/>
</clipPath>
</defs>
</svg>
