<svg width="111" height="32" viewBox="0 0 111 32" fill="none" xmlns="http://www.w3.org/2000/svg">
<path d="M8.15246 3.15753L9.97371 0H18.8803L17.0671 3.20563H11.8156L14.439 7.74956L12.6257 10.8911L9.984 6.33783L4.40609 16.0281L9.96731 25.6893L22.9542 3.15753L22.9776 3.13569L24.7435 0L26.5408 3.15753L32.1324 12.8225L33.9457 16.0281L32.1564 19.1695L24.7435 32H15.8449L17.6502 28.8505H22.9312L20.2543 24.2104L22.0755 21.0689L24.7485 25.7124L30.3351 16.0281L24.743 6.33423L19.2158 15.98L17.4025 19.1295L11.7822 28.8421L11.787 28.8505L9.97371 31.9679L0.779541 16.0281L2.59285 12.8225L8.15246 3.15753Z" fill="#6B7280"/>
<path d="M49.5063 10.258L46.1433 15.1706L42.7884 10.258H40.1044L44.7933 16.8294L39.8648 23.7456H42.5408L46.1673 18.5364L49.7539 23.7456H52.4299L47.5013 16.8294L52.1902 10.2339L49.5063 10.258Z" fill="#6B7280"/>
<path fill-rule="evenodd" clip-rule="evenodd" d="M59.7149 10.0095C58.8931 9.97881 58.075 10.1369 57.3233 10.4716C56.5716 10.8063 55.906 11.3088 55.3774 11.9409C54.2519 13.4199 53.6858 15.2515 53.7798 17.1099C53.6713 18.9574 54.291 20.7736 55.5052 22.1668C56.1193 22.7979 56.8595 23.2913 57.6774 23.6145C58.4952 23.9377 59.372 24.0834 60.2501 24.0421C61.0244 24.0546 61.798 23.9874 62.5586 23.8417C63.2547 23.686 63.9342 23.4633 64.5876 23.1766L64.6914 23.1285V20.9487L64.4517 21.0528C63.1482 21.6213 61.7433 21.9185 60.322 21.9264C59.7703 21.9593 59.2178 21.8742 58.7014 21.6766C58.1849 21.479 57.7163 21.1735 57.3265 20.7804C56.5906 19.8764 56.1948 18.7418 56.2082 17.5748H65.2506V16.1162C65.3272 14.5105 64.7998 12.9344 63.7728 11.7005C63.2684 11.1463 62.65 10.7088 61.9604 10.4182C61.2707 10.1276 60.5263 9.99086 59.7788 10.0175L59.7149 10.0095ZM59.7149 12.021C60.1397 11.9962 60.5646 12.0684 60.9575 12.2322C61.3505 12.396 61.7013 12.6471 61.9835 12.9667C62.5377 13.7182 62.8196 14.6371 62.7823 15.5712H56.2721C56.343 14.6248 56.7091 13.7248 57.3185 12.9988C57.6241 12.6722 57.9965 12.4158 58.4101 12.2471C58.8237 12.0783 59.2688 12.0012 59.7149 12.021Z" fill="#6B7280"/>
<path d="M74.7243 10.0175C73.8493 10.0059 72.9832 10.1951 72.1922 10.5705C71.5601 10.8777 71.0119 11.3342 70.5946 11.9008L70.299 10.298H68.302V23.7696H70.6345V16.6852C70.5236 15.4234 70.8479 14.1617 71.5531 13.111C71.9254 12.7269 72.3776 12.4301 72.8775 12.2417C73.3774 12.0533 73.9125 11.9779 74.4447 12.021C74.8369 11.9855 75.2321 12.0328 75.6049 12.1597C75.9778 12.2867 76.32 12.4906 76.6095 12.7583C77.1154 13.4096 77.3605 14.2271 77.2965 15.0504V23.7696H79.6289V15.0103C79.6869 14.3262 79.6056 13.6374 79.39 12.9857C79.1744 12.3341 78.829 11.7332 78.3748 11.2196C77.3462 10.3554 76.0225 9.92712 74.6844 10.0256L74.7243 10.0175Z" fill="#6B7280"/>
<path fill-rule="evenodd" clip-rule="evenodd" d="M92.21 10.3141L92.2579 11.2517L92.3139 11.8447C91.7896 11.276 91.1522 10.8238 90.4431 10.5173C89.7339 10.2107 88.9687 10.0566 88.1965 10.0649C87.4244 10.0732 86.6626 10.2437 85.9601 10.5655C85.2577 10.8872 84.6302 11.353 84.1182 11.9329C83.0569 13.4355 82.5358 15.2553 82.6404 17.0939C82.5264 18.9261 83.0486 20.7414 84.1182 22.2309C84.6209 22.8338 85.2563 23.3112 85.9744 23.6255C86.6925 23.9398 87.4736 24.0824 88.256 24.0421C89.0389 24.0858 89.8208 23.9397 90.5355 23.6161C91.2502 23.2925 91.8766 22.8008 92.3618 22.1828L92.6094 23.7856H94.5425V4.72828H92.21V10.3141ZM88.5116 22.0466C88.0151 22.0785 87.5187 21.9835 87.0689 21.7704C86.619 21.5574 86.2304 21.2332 85.9395 20.8284C85.2688 19.713 84.9564 18.4176 85.0448 17.118C84.9678 15.8056 85.282 14.4999 85.9474 13.3674C86.2154 12.9387 86.5914 12.5885 87.0374 12.3521C87.4833 12.1157 87.9836 12.0015 88.4876 12.021C89.0143 11.9737 89.5446 12.0513 90.0358 12.2476C90.5271 12.4439 90.9654 12.7534 91.3153 13.151C91.9064 13.9124 92.21 15.2267 92.21 17.0378V17.4626C92.3149 18.688 92.0054 19.9133 91.3314 20.9407C90.9705 21.3178 90.5297 21.6087 90.0416 21.7918C89.5535 21.9749 89.0306 22.0456 88.5116 21.9985V22.0466Z" fill="#6B7280"/>
<path d="M99.5989 5.41748C99.2446 5.40677 98.9003 5.5363 98.6404 5.77811C98.5048 5.92263 98.3989 6.09262 98.329 6.27828C98.2591 6.46395 98.2265 6.66167 98.233 6.86003C98.2174 7.06338 98.2434 7.26777 98.3093 7.46069C98.3753 7.65361 98.4798 7.83099 98.6164 7.98199C98.7416 8.10828 98.8912 8.20753 99.056 8.27369C99.2209 8.33984 99.3975 8.37147 99.575 8.36663C99.9262 8.36967 100.265 8.23446 100.518 7.98999C100.658 7.8391 100.765 7.66094 100.834 7.46658C100.903 7.27221 100.931 7.06578 100.917 6.86003C100.932 6.65543 100.904 6.44994 100.835 6.25675C100.766 6.06356 100.658 5.8869 100.518 5.73804C100.264 5.49576 99.9252 5.36336 99.575 5.36941L99.5989 5.41748Z" fill="#6B7280"/>
<path d="M98.4007 23.8016H100.725V10.258H98.4007V23.8016Z" fill="#6B7280"/>
<path d="M110.774 21.8222C110.525 21.8901 110.271 21.941 110.015 21.9744C109.688 22.0296 109.357 22.0565 109.025 22.0546C108.76 22.0696 108.495 22.0257 108.249 21.9259C108.004 21.8261 107.783 21.6731 107.603 21.4776C107.227 20.9885 107.043 20.3786 107.084 19.7626V12.1493H110.894V10.258H107.084V7.21262H105.63L104.783 10.0736L102.866 10.875V12.1172H104.751V19.7786C104.751 22.5675 106.093 23.9779 108.745 23.9779C109.133 23.9749 109.521 23.9401 109.903 23.8738C110.247 23.8293 110.583 23.7376 110.902 23.6013L110.998 23.5532V21.726L110.782 21.7901L110.774 21.8222Z" fill="#6B7280"/>
</svg>
