<svg width="18" height="19" viewBox="0 0 18 19" fill="none" xmlns="http://www.w3.org/2000/svg">
<path d="M9 12.085C10.2426 12.085 11.25 11.0776 11.25 9.83496C11.25 8.59232 10.2426 7.58496 9 7.58496C7.75736 7.58496 6.75 8.59232 6.75 9.83496C6.75 11.0776 7.75736 12.085 9 12.085Z" stroke="#667085" stroke-width="1.5" stroke-miterlimit="10" stroke-linecap="round" stroke-linejoin="round"/>
<path d="M1.5 10.495V9.17503C1.5 8.39504 2.1375 7.75004 2.925 7.75004C4.2825 7.75004 4.8375 6.79004 4.155 5.61254C3.765 4.93754 3.9975 4.06004 4.68 3.67004L5.9775 2.92754C6.57 2.57504 7.335 2.78504 7.6875 3.37754L7.77 3.52004C8.445 4.69754 9.555 4.69754 10.2375 3.52004L10.32 3.37754C10.6725 2.78504 11.4375 2.57504 12.03 2.92754L13.3275 3.67004C14.01 4.06004 14.2425 4.93754 13.8525 5.61254C13.17 6.79004 13.725 7.75004 15.0825 7.75004C15.8625 7.75004 16.5075 8.38754 16.5075 9.17503V10.495C16.5075 11.275 15.87 11.92 15.0825 11.92C13.725 11.92 13.17 12.88 13.8525 14.0575C14.2425 14.74 14.01 15.61 13.3275 16L12.03 16.7425C11.4375 17.095 10.6725 16.885 10.32 16.2925L10.2375 16.15C9.5625 14.9725 8.4525 14.9725 7.77 16.15L7.6875 16.2925C7.335 16.885 6.57 17.095 5.9775 16.7425L4.68 16C3.9975 15.61 3.765 14.7325 4.155 14.0575C4.8375 12.88 4.2825 11.92 2.925 11.92C2.1375 11.92 1.5 11.275 1.5 10.495Z" stroke="#667085" stroke-width="1.5" stroke-miterlimit="10" stroke-linecap="round" stroke-linejoin="round"/>
</svg>
