<svg width="18" height="19" viewBox="0 0 18 19" fill="none" xmlns="http://www.w3.org/2000/svg">
<g id="u:cloud-upload">
<g id="Vector">
<mask id="path-1-inside-1_9554_10825" fill="white">
<path d="M13.8155 6.99976C13.3572 5.94676 12.5663 5.07307 11.564 4.51256C10.5617 3.95204 9.40326 3.73563 8.26619 3.89649C7.12912 4.05735 6.07616 4.5866 5.26866 5.40314C4.46116 6.21968 3.94366 7.27847 3.79547 8.41726C3.08041 8.5885 2.45313 9.01639 2.03277 9.61965C1.61241 10.2229 1.42823 10.9596 1.51521 11.6897C1.6022 12.4198 1.95429 13.0925 2.50462 13.5802C3.05495 14.0678 3.76519 14.3363 4.50047 14.3348C4.69938 14.3348 4.89014 14.2557 5.0308 14.1151C5.17145 13.9744 5.25047 13.7837 5.25047 13.5848C5.25047 13.3858 5.17145 13.1951 5.0308 13.0544C4.89014 12.9138 4.69938 12.8348 4.50047 12.8348C4.10264 12.8348 3.72111 12.6767 3.43981 12.3954C3.1585 12.1141 3.00047 11.7326 3.00047 11.3348C3.00047 10.9369 3.1585 10.5554 3.43981 10.2741C3.72111 9.9928 4.10264 9.83476 4.50047 9.83476C4.69938 9.83476 4.89014 9.75574 5.0308 9.61509C5.17145 9.47444 5.25047 9.28367 5.25047 9.08476C5.25238 8.19772 5.56868 7.34008 6.14317 6.6642C6.71766 5.98832 7.51314 5.53797 8.38828 5.39317C9.26342 5.24836 10.1616 5.41847 10.9231 5.87327C11.6847 6.32807 12.2604 7.03812 12.548 7.87726C12.5908 8.00614 12.6679 8.12096 12.7709 8.20946C12.874 8.29796 12.9991 8.35682 13.133 8.37976C13.6325 8.47416 14.0854 8.73496 14.4177 9.11966C14.7501 9.50436 14.9424 9.99028 14.9633 10.4982C14.9841 11.0062 14.8324 11.5063 14.5327 11.9169C14.233 12.3276 13.8031 12.6247 13.313 12.7598C13.12 12.8095 12.9547 12.9338 12.8535 13.1054C12.7522 13.277 12.7232 13.4818 12.773 13.6748C12.8227 13.8677 12.947 14.033 13.1186 14.1343C13.2902 14.2355 13.495 14.2645 13.688 14.2148C14.4773 14.0062 15.1769 13.5458 15.6807 12.9034C16.1845 12.261 16.4649 11.4717 16.4793 10.6555C16.4938 9.83921 16.2414 9.04054 15.7606 8.38075C15.2799 7.72096 14.5969 7.23608 13.8155 6.99976V6.99976ZM9.53297 8.55226C9.46164 8.48398 9.37753 8.43046 9.28547 8.39476C9.10287 8.31975 8.89806 8.31975 8.71547 8.39476C8.6234 8.43046 8.53929 8.48398 8.46797 8.55226L6.21797 10.8023C6.07674 10.9435 5.9974 11.135 5.9974 11.3348C5.9974 11.5345 6.07674 11.726 6.21797 11.8673C6.35919 12.0085 6.55074 12.0878 6.75047 12.0878C6.95019 12.0878 7.14174 12.0085 7.28297 11.8673L8.25047 10.8923V15.0848C8.25047 15.2837 8.32948 15.4744 8.47014 15.6151C8.61079 15.7557 8.80155 15.8348 9.00047 15.8348C9.19938 15.8348 9.39014 15.7557 9.5308 15.6151C9.67145 15.4744 9.75047 15.2837 9.75047 15.0848V10.8923L10.718 11.8673C10.7877 11.9376 10.8706 11.9934 10.962 12.0314C11.0534 12.0695 11.1515 12.0891 11.2505 12.0891C11.3495 12.0891 11.4475 12.0695 11.5389 12.0314C11.6303 11.9934 11.7132 11.9376 11.783 11.8673C11.8533 11.7975 11.9091 11.7146 11.9471 11.6232C11.9852 11.5318 12.0048 11.4338 12.0048 11.3348C12.0048 11.2358 11.9852 11.1377 11.9471 11.0463C11.9091 10.9549 11.8533 10.872 11.783 10.8023L9.53297 8.55226Z"/>
</mask>
<path d="M13.8155 6.99976C13.3572 5.94676 12.5663 5.07307 11.564 4.51256C10.5617 3.95204 9.40326 3.73563 8.26619 3.89649C7.12912 4.05735 6.07616 4.5866 5.26866 5.40314C4.46116 6.21968 3.94366 7.27847 3.79547 8.41726C3.08041 8.5885 2.45313 9.01639 2.03277 9.61965C1.61241 10.2229 1.42823 10.9596 1.51521 11.6897C1.6022 12.4198 1.95429 13.0925 2.50462 13.5802C3.05495 14.0678 3.76519 14.3363 4.50047 14.3348C4.69938 14.3348 4.89014 14.2557 5.0308 14.1151C5.17145 13.9744 5.25047 13.7837 5.25047 13.5848C5.25047 13.3858 5.17145 13.1951 5.0308 13.0544C4.89014 12.9138 4.69938 12.8348 4.50047 12.8348C4.10264 12.8348 3.72111 12.6767 3.43981 12.3954C3.1585 12.1141 3.00047 11.7326 3.00047 11.3348C3.00047 10.9369 3.1585 10.5554 3.43981 10.2741C3.72111 9.9928 4.10264 9.83476 4.50047 9.83476C4.69938 9.83476 4.89014 9.75574 5.0308 9.61509C5.17145 9.47444 5.25047 9.28367 5.25047 9.08476C5.25238 8.19772 5.56868 7.34008 6.14317 6.6642C6.71766 5.98832 7.51314 5.53797 8.38828 5.39317C9.26342 5.24836 10.1616 5.41847 10.9231 5.87327C11.6847 6.32807 12.2604 7.03812 12.548 7.87726C12.5908 8.00614 12.6679 8.12096 12.7709 8.20946C12.874 8.29796 12.9991 8.35682 13.133 8.37976C13.6325 8.47416 14.0854 8.73496 14.4177 9.11966C14.7501 9.50436 14.9424 9.99028 14.9633 10.4982C14.9841 11.0062 14.8324 11.5063 14.5327 11.9169C14.233 12.3276 13.8031 12.6247 13.313 12.7598C13.12 12.8095 12.9547 12.9338 12.8535 13.1054C12.7522 13.277 12.7232 13.4818 12.773 13.6748C12.8227 13.8677 12.947 14.033 13.1186 14.1343C13.2902 14.2355 13.495 14.2645 13.688 14.2148C14.4773 14.0062 15.1769 13.5458 15.6807 12.9034C16.1845 12.261 16.4649 11.4717 16.4793 10.6555C16.4938 9.83921 16.2414 9.04054 15.7606 8.38075C15.2799 7.72096 14.5969 7.23608 13.8155 6.99976V6.99976ZM9.53297 8.55226C9.46164 8.48398 9.37753 8.43046 9.28547 8.39476C9.10287 8.31975 8.89806 8.31975 8.71547 8.39476C8.6234 8.43046 8.53929 8.48398 8.46797 8.55226L6.21797 10.8023C6.07674 10.9435 5.9974 11.135 5.9974 11.3348C5.9974 11.5345 6.07674 11.726 6.21797 11.8673C6.35919 12.0085 6.55074 12.0878 6.75047 12.0878C6.95019 12.0878 7.14174 12.0085 7.28297 11.8673L8.25047 10.8923V15.0848C8.25047 15.2837 8.32948 15.4744 8.47014 15.6151C8.61079 15.7557 8.80155 15.8348 9.00047 15.8348C9.19938 15.8348 9.39014 15.7557 9.5308 15.6151C9.67145 15.4744 9.75047 15.2837 9.75047 15.0848V10.8923L10.718 11.8673C10.7877 11.9376 10.8706 11.9934 10.962 12.0314C11.0534 12.0695 11.1515 12.0891 11.2505 12.0891C11.3495 12.0891 11.4475 12.0695 11.5389 12.0314C11.6303 11.9934 11.7132 11.9376 11.783 11.8673C11.8533 11.7975 11.9091 11.7146 11.9471 11.6232C11.9852 11.5318 12.0048 11.4338 12.0048 11.3348C12.0048 11.2358 11.9852 11.1377 11.9471 11.0463C11.9091 10.9549 11.8533 10.872 11.783 10.8023L9.53297 8.55226Z" stroke="#477DB3" stroke-width="3" mask="url(#path-1-inside-1_9554_10825)"/>
</g>
</g>
</svg>
