<svg width="18" height="19" viewBox="0 0 18 19" fill="none" xmlns="http://www.w3.org/2000/svg">
<path d="M12.75 14.6573H9.75L6.41249 16.8772C5.91749 17.2072 5.25 16.8548 5.25 16.2548V14.6573C3 14.6573 1.5 13.1573 1.5 10.9073V6.40723C1.5 4.15723 3 2.65723 5.25 2.65723H12.75C15 2.65723 16.5 4.15723 16.5 6.40723V10.9073C16.5 13.1573 15 14.6573 12.75 14.6573Z" stroke="#477DB3" stroke-width="1.5" stroke-miterlimit="10" stroke-linecap="round" stroke-linejoin="round"/>
<path d="M8.99986 9.35498V9.19751C8.99986 8.68751 9.31488 8.4175 9.62988 8.2C9.93738 7.99 10.2448 7.72001 10.2448 7.22501C10.2448 6.53501 9.68986 5.97998 8.99986 5.97998C8.30986 5.97998 7.75488 6.53501 7.75488 7.22501" stroke="#477DB3" stroke-width="1.5" stroke-linecap="round" stroke-linejoin="round"/>
<path d="M8.99662 11.1475H9.00337" stroke="#477DB3" stroke-width="1.5" stroke-linecap="round" stroke-linejoin="round"/>
</svg>
