<svg width="18" height="19" viewBox="0 0 18 19" fill="none" xmlns="http://www.w3.org/2000/svg">
<g id="u:server-network" clip-path="url(#clip0_9554_10846)">
<g id="Vector">
<mask id="path-1-inside-1_9554_10846" fill="white">
<path d="M6 5.33496C6.14834 5.33496 6.29334 5.29097 6.41668 5.20856C6.54001 5.12615 6.63614 5.00902 6.69291 4.87197C6.74968 4.73493 6.76453 4.58413 6.73559 4.43864C6.70665 4.29316 6.63522 4.15952 6.53033 4.05463C6.42544 3.94974 6.2918 3.87831 6.14632 3.84937C6.00083 3.82043 5.85003 3.83529 5.71299 3.89205C5.57594 3.94882 5.45881 4.04495 5.3764 4.16828C5.29399 4.29162 5.25 4.43662 5.25 4.58496C5.25 4.78387 5.32902 4.97464 5.46967 5.11529C5.61032 5.25594 5.80109 5.33496 6 5.33496ZM15.75 15.085H11.115C11.003 14.7704 10.8224 14.4847 10.5863 14.2486C10.3502 14.0125 10.0645 13.8319 9.75 13.72V12.085H12.75C13.3467 12.085 13.919 11.8479 14.341 11.426C14.7629 11.004 15 10.4317 15 9.83496V8.33496C14.9967 7.77992 14.7883 7.24569 14.415 6.83496C14.7883 6.42423 14.9967 5.89 15 5.33496V3.83496C15 3.23822 14.7629 2.66593 14.341 2.24397C13.919 1.82201 13.3467 1.58496 12.75 1.58496H5.25C4.65326 1.58496 4.08097 1.82201 3.65901 2.24397C3.23705 2.66593 3 3.23822 3 3.83496V5.33496C3.00331 5.89 3.21166 6.42423 3.585 6.83496C3.21166 7.24569 3.00331 7.77992 3 8.33496V9.83496C3 10.4317 3.23705 11.004 3.65901 11.426C4.08097 11.8479 4.65326 12.085 5.25 12.085H8.25V13.72C7.93545 13.8319 7.64977 14.0125 7.41368 14.2486C7.17758 14.4847 6.99699 14.7704 6.885 15.085H2.25C2.05109 15.085 1.86032 15.164 1.71967 15.3046C1.57902 15.4453 1.5 15.636 1.5 15.835C1.5 16.0339 1.57902 16.2246 1.71967 16.3653C1.86032 16.5059 2.05109 16.585 2.25 16.585H6.885C7.04265 17.0193 7.33022 17.3946 7.70862 17.6598C8.08703 17.925 8.53791 18.0673 9 18.0673C9.46209 18.0673 9.91297 17.925 10.2914 17.6598C10.6698 17.3946 10.9573 17.0193 11.115 16.585H15.75C15.9489 16.585 16.1397 16.5059 16.2803 16.3653C16.421 16.2246 16.5 16.0339 16.5 15.835C16.5 15.636 16.421 15.4453 16.2803 15.3046C16.1397 15.164 15.9489 15.085 15.75 15.085ZM4.5 3.83496C4.5 3.63605 4.57902 3.44528 4.71967 3.30463C4.86032 3.16398 5.05109 3.08496 5.25 3.08496H12.75C12.9489 3.08496 13.1397 3.16398 13.2803 3.30463C13.421 3.44528 13.5 3.63605 13.5 3.83496V5.33496C13.5 5.53387 13.421 5.72464 13.2803 5.86529C13.1397 6.00594 12.9489 6.08496 12.75 6.08496H5.25C5.05109 6.08496 4.86032 6.00594 4.71967 5.86529C4.57902 5.72464 4.5 5.53387 4.5 5.33496V3.83496ZM5.25 10.585C5.05109 10.585 4.86032 10.5059 4.71967 10.3653C4.57902 10.2246 4.5 10.0339 4.5 9.83496V8.33496C4.5 8.13605 4.57902 7.94528 4.71967 7.80463C4.86032 7.66398 5.05109 7.58496 5.25 7.58496H12.75C12.9489 7.58496 13.1397 7.66398 13.2803 7.80463C13.421 7.94528 13.5 8.13605 13.5 8.33496V9.83496C13.5 10.0339 13.421 10.2246 13.2803 10.3653C13.1397 10.5059 12.9489 10.585 12.75 10.585H5.25ZM9 16.585C8.85166 16.585 8.70666 16.541 8.58332 16.4586C8.45999 16.3762 8.36386 16.259 8.30709 16.122C8.25032 15.9849 8.23547 15.8341 8.26441 15.6886C8.29335 15.5432 8.36478 15.4095 8.46967 15.3046C8.57456 15.1997 8.7082 15.1283 8.85368 15.0994C8.99917 15.0704 9.14997 15.0853 9.28701 15.1421C9.42406 15.1988 9.54119 15.2949 9.6236 15.4183C9.70601 15.5416 9.75 15.6866 9.75 15.835C9.75 16.0339 9.67098 16.2246 9.53033 16.3653C9.38968 16.5059 9.19891 16.585 9 16.585ZM6 8.33496C5.85166 8.33496 5.70666 8.37895 5.58332 8.46136C5.45999 8.54377 5.36386 8.6609 5.30709 8.79795C5.25032 8.93499 5.23547 9.08579 5.26441 9.23128C5.29335 9.37676 5.36478 9.5104 5.46967 9.61529C5.57456 9.72018 5.7082 9.79161 5.85368 9.82055C5.99917 9.84949 6.14997 9.83464 6.28701 9.77787C6.42406 9.7211 6.54119 9.62498 6.6236 9.50164C6.70601 9.3783 6.75 9.2333 6.75 9.08496C6.75 8.88605 6.67098 8.69528 6.53033 8.55463C6.38968 8.41398 6.19891 8.33496 6 8.33496V8.33496Z"/>
</mask>
<path d="M6 5.33496C6.14834 5.33496 6.29334 5.29097 6.41668 5.20856C6.54001 5.12615 6.63614 5.00902 6.69291 4.87197C6.74968 4.73493 6.76453 4.58413 6.73559 4.43864C6.70665 4.29316 6.63522 4.15952 6.53033 4.05463C6.42544 3.94974 6.2918 3.87831 6.14632 3.84937C6.00083 3.82043 5.85003 3.83529 5.71299 3.89205C5.57594 3.94882 5.45881 4.04495 5.3764 4.16828C5.29399 4.29162 5.25 4.43662 5.25 4.58496C5.25 4.78387 5.32902 4.97464 5.46967 5.11529C5.61032 5.25594 5.80109 5.33496 6 5.33496ZM15.75 15.085H11.115C11.003 14.7704 10.8224 14.4847 10.5863 14.2486C10.3502 14.0125 10.0645 13.8319 9.75 13.72V12.085H12.75C13.3467 12.085 13.919 11.8479 14.341 11.426C14.7629 11.004 15 10.4317 15 9.83496V8.33496C14.9967 7.77992 14.7883 7.24569 14.415 6.83496C14.7883 6.42423 14.9967 5.89 15 5.33496V3.83496C15 3.23822 14.7629 2.66593 14.341 2.24397C13.919 1.82201 13.3467 1.58496 12.75 1.58496H5.25C4.65326 1.58496 4.08097 1.82201 3.65901 2.24397C3.23705 2.66593 3 3.23822 3 3.83496V5.33496C3.00331 5.89 3.21166 6.42423 3.585 6.83496C3.21166 7.24569 3.00331 7.77992 3 8.33496V9.83496C3 10.4317 3.23705 11.004 3.65901 11.426C4.08097 11.8479 4.65326 12.085 5.25 12.085H8.25V13.72C7.93545 13.8319 7.64977 14.0125 7.41368 14.2486C7.17758 14.4847 6.99699 14.7704 6.885 15.085H2.25C2.05109 15.085 1.86032 15.164 1.71967 15.3046C1.57902 15.4453 1.5 15.636 1.5 15.835C1.5 16.0339 1.57902 16.2246 1.71967 16.3653C1.86032 16.5059 2.05109 16.585 2.25 16.585H6.885C7.04265 17.0193 7.33022 17.3946 7.70862 17.6598C8.08703 17.925 8.53791 18.0673 9 18.0673C9.46209 18.0673 9.91297 17.925 10.2914 17.6598C10.6698 17.3946 10.9573 17.0193 11.115 16.585H15.75C15.9489 16.585 16.1397 16.5059 16.2803 16.3653C16.421 16.2246 16.5 16.0339 16.5 15.835C16.5 15.636 16.421 15.4453 16.2803 15.3046C16.1397 15.164 15.9489 15.085 15.75 15.085ZM4.5 3.83496C4.5 3.63605 4.57902 3.44528 4.71967 3.30463C4.86032 3.16398 5.05109 3.08496 5.25 3.08496H12.75C12.9489 3.08496 13.1397 3.16398 13.2803 3.30463C13.421 3.44528 13.5 3.63605 13.5 3.83496V5.33496C13.5 5.53387 13.421 5.72464 13.2803 5.86529C13.1397 6.00594 12.9489 6.08496 12.75 6.08496H5.25C5.05109 6.08496 4.86032 6.00594 4.71967 5.86529C4.57902 5.72464 4.5 5.53387 4.5 5.33496V3.83496ZM5.25 10.585C5.05109 10.585 4.86032 10.5059 4.71967 10.3653C4.57902 10.2246 4.5 10.0339 4.5 9.83496V8.33496C4.5 8.13605 4.57902 7.94528 4.71967 7.80463C4.86032 7.66398 5.05109 7.58496 5.25 7.58496H12.75C12.9489 7.58496 13.1397 7.66398 13.2803 7.80463C13.421 7.94528 13.5 8.13605 13.5 8.33496V9.83496C13.5 10.0339 13.421 10.2246 13.2803 10.3653C13.1397 10.5059 12.9489 10.585 12.75 10.585H5.25ZM9 16.585C8.85166 16.585 8.70666 16.541 8.58332 16.4586C8.45999 16.3762 8.36386 16.259 8.30709 16.122C8.25032 15.9849 8.23547 15.8341 8.26441 15.6886C8.29335 15.5432 8.36478 15.4095 8.46967 15.3046C8.57456 15.1997 8.7082 15.1283 8.85368 15.0994C8.99917 15.0704 9.14997 15.0853 9.28701 15.1421C9.42406 15.1988 9.54119 15.2949 9.6236 15.4183C9.70601 15.5416 9.75 15.6866 9.75 15.835C9.75 16.0339 9.67098 16.2246 9.53033 16.3653C9.38968 16.5059 9.19891 16.585 9 16.585ZM6 8.33496C5.85166 8.33496 5.70666 8.37895 5.58332 8.46136C5.45999 8.54377 5.36386 8.6609 5.30709 8.79795C5.25032 8.93499 5.23547 9.08579 5.26441 9.23128C5.29335 9.37676 5.36478 9.5104 5.46967 9.61529C5.57456 9.72018 5.7082 9.79161 5.85368 9.82055C5.99917 9.84949 6.14997 9.83464 6.28701 9.77787C6.42406 9.7211 6.54119 9.62498 6.6236 9.50164C6.70601 9.3783 6.75 9.2333 6.75 9.08496C6.75 8.88605 6.67098 8.69528 6.53033 8.55463C6.38968 8.41398 6.19891 8.33496 6 8.33496V8.33496Z" stroke="#477DB3" stroke-width="3" mask="url(#path-1-inside-1_9554_10846)"/>
</g>
</g>
<defs>
<clipPath id="clip0_9554_10846">
<rect width="18" height="18" fill="white" transform="translate(0 0.834961)"/>
</clipPath>
</defs>
</svg>
