<svg width="18" height="19" viewBox="0 0 18 19" fill="none" xmlns="http://www.w3.org/2000/svg">
<path d="M15.0001 6.83484L10.5001 2.88984C10.0876 2.52088 9.55352 2.31689 9.00007 2.31689C8.44662 2.31689 7.91259 2.52088 7.50007 2.88984L3.00007 6.83484C2.76185 7.0479 2.57175 7.30926 2.44243 7.60153C2.3131 7.89379 2.24753 8.21026 2.25007 8.52984V15.0848C2.25007 15.6816 2.48712 16.2539 2.90908 16.6758C3.33104 17.0978 3.90333 17.3348 4.50007 17.3348H13.5001C14.0968 17.3348 14.6691 17.0978 15.0911 16.6758C15.513 16.2539 15.7501 15.6816 15.7501 15.0848V8.52234C15.7515 8.20402 15.6855 7.889 15.5562 7.5981C15.4269 7.30721 15.2373 7.04706 15.0001 6.83484ZM10.5001 15.8348H7.50007V12.0848C7.50007 11.8859 7.57909 11.6952 7.71974 11.5545C7.86039 11.4139 8.05116 11.3348 8.25007 11.3348H9.75007C9.94898 11.3348 10.1397 11.4139 10.2804 11.5545C10.4211 11.6952 10.5001 11.8859 10.5001 12.0848V15.8348ZM14.2501 15.0848C14.2501 15.2838 14.1711 15.4745 14.0304 15.6152C13.8897 15.7558 13.699 15.8348 13.5001 15.8348H12.0001V12.0848C12.0001 11.4881 11.763 10.9158 11.3411 10.4939C10.9191 10.0719 10.3468 9.83484 9.75007 9.83484H8.25007C7.65333 9.83484 7.08104 10.0719 6.65908 10.4939C6.23712 10.9158 6.00007 11.4881 6.00007 12.0848V15.8348H4.50007C4.30116 15.8348 4.11039 15.7558 3.96974 15.6152C3.82909 15.4745 3.75007 15.2838 3.75007 15.0848V8.52234C3.75021 8.41585 3.77302 8.31062 3.81698 8.21363C3.86095 8.11664 3.92507 8.03013 4.00507 7.95984L8.50507 4.02234C8.64194 3.9021 8.81789 3.83579 9.00007 3.83579C9.18225 3.83579 9.3582 3.9021 9.49507 4.02234L13.9951 7.95984C14.0751 8.03013 14.1392 8.11664 14.1832 8.21363C14.2271 8.31062 14.2499 8.41585 14.2501 8.52234V15.0848Z" fill="#477DB3"/>
</svg>
