<svg width="17" height="16" viewBox="0 0 17 16" fill="none" xmlns="http://www.w3.org/2000/svg">
<path d="M11.6819 2.13741L11.9167 2.33057C12.7968 3.15456 13.3524 4.27198 13.4741 5.47851C13.6062 6.78808 13.2166 8.09688 12.39 9.12099C11.8385 9.77447 11.5249 10.5956 11.5004 11.4504L11.5003 11.4504V11.46V13.3333C11.5003 13.7753 11.3247 14.1992 11.0121 14.5118C10.6996 14.8244 10.2756 15 9.83362 15H7.16695C6.72493 15 6.301 14.8244 5.98844 14.5118C5.67588 14.1992 5.50029 13.7753 5.50029 13.3333V11.3333H5.50045L5.50013 11.3229C5.47579 10.54 5.17864 9.79015 4.66015 9.2031C4.18769 8.63261 3.8466 7.96509 3.66111 7.24792C3.47525 6.52934 3.45018 5.77861 3.58769 5.04925C3.77621 4.07701 4.24921 3.18265 4.94671 2.47958C5.6444 1.77633 6.53527 1.29617 7.50629 1.10003L7.50688 1.09991C8.23613 0.951216 8.98938 0.967197 9.71167 1.14669C10.434 1.32618 11.1071 1.66465 11.6819 2.13741ZM6.50029 12.3333H6.16695V12.6666V13.3333C6.16695 13.5985 6.27231 13.8529 6.45985 14.0404C6.64738 14.2279 6.90174 14.3333 7.16695 14.3333H9.83362C10.0988 14.3333 10.3532 14.2279 10.5407 14.0404C10.7283 13.8529 10.8336 13.5985 10.8336 13.3333V12.6666V12.3333H10.5003H6.50029ZM11.8685 8.72149L11.8685 8.72152L11.8717 8.71762C12.4986 7.95083 12.8387 6.98957 12.8336 5.99916C12.8338 5.3561 12.6909 4.72105 12.4152 4.14008C12.1394 3.5588 11.7376 3.04624 11.239 2.63961C10.7404 2.23298 10.1575 1.94248 9.53261 1.78921C8.90774 1.63593 8.25657 1.62373 7.6264 1.75348L7.62604 1.75355C6.89278 1.90536 6.21137 2.2446 5.64825 2.73818C5.08514 3.23176 4.65953 3.86284 4.41294 4.56988C4.16635 5.27693 4.10718 6.03581 4.24121 6.77253C4.37524 7.50925 4.69789 8.19866 5.17771 8.77355L5.17765 8.7736L5.18239 8.77904C5.80205 9.48966 6.15077 10.3963 6.167 11.339L6.17265 11.6666H6.50029H7.83362H8.16695V11.3333V9.3333C8.16695 9.24489 8.20207 9.16011 8.26458 9.0976C8.3271 9.03508 8.41188 8.99996 8.50029 8.99996C8.58869 8.99996 8.67348 9.03508 8.73599 9.0976C8.7985 9.16011 8.83362 9.24489 8.83362 9.3333V11.3333V11.6666H9.16695H10.5003H10.8174L10.8332 11.3499C10.8815 10.3841 11.2451 9.4608 11.8685 8.72149Z" fill="#1D2939" stroke="#47CD89" stroke-width="0.666667"/>
</svg>
