<svg width="18" height="19" viewBox="0 0 18 19" fill="none" xmlns="http://www.w3.org/2000/svg">
<path d="M16.5 13.3897V4.33724C16.5 3.43724 15.765 2.76974 14.8725 2.84474H14.8275C13.2525 2.97974 10.86 3.78224 9.525 4.62224L9.3975 4.70474C9.18 4.83974 8.82 4.83974 8.6025 4.70474L8.415 4.59224C7.08 3.75974 4.695 2.96474 3.12 2.83724C2.2275 2.76224 1.5 3.43724 1.5 4.32974V13.3897C1.5 14.1097 2.085 14.7847 2.805 14.8747L3.0225 14.9047C4.65 15.1222 7.1625 15.9472 8.6025 16.7347L8.6325 16.7497C8.835 16.8622 9.1575 16.8622 9.3525 16.7497C10.7925 15.9547 13.3125 15.1222 14.9475 14.9047L15.195 14.8747C15.915 14.7847 16.5 14.1097 16.5 13.3897Z" stroke="#667085" stroke-width="1.5" stroke-linecap="round" stroke-linejoin="round"/>
<path d="M9 4.95239V16.2024" stroke="#667085" stroke-width="1.5" stroke-linecap="round" stroke-linejoin="round"/>
<path d="M5.8125 7.20239H4.125" stroke="#667085" stroke-width="1.5" stroke-linecap="round" stroke-linejoin="round"/>
<path d="M6.375 9.45239H4.125" stroke="#667085" stroke-width="1.5" stroke-linecap="round" stroke-linejoin="round"/>
</svg>
