<svg width="18" height="19" viewBox="0 0 18 19" fill="none" xmlns="http://www.w3.org/2000/svg">
<g id="vuesax/linear/note">
<g id="vuesax/linear/note_2">
<g id="note">
<path id="Vector" d="M15 7.02246V14.335C15 16.585 13.6575 17.335 12 17.335H6C4.3425 17.335 3 16.585 3 14.335V7.02246C3 4.58496 4.3425 4.02246 6 4.02246C6 4.48746 6.18748 4.90746 6.49498 5.21496C6.80248 5.52246 7.2225 5.70996 7.6875 5.70996H10.3125C11.2425 5.70996 12 4.95246 12 4.02246C13.6575 4.02246 15 4.58496 15 7.02246Z" stroke="#667085" stroke-width="1.5" stroke-linecap="round" stroke-linejoin="round"/>
<path id="Vector_2" d="M12 4.02246C12 4.95246 11.2425 5.70996 10.3125 5.70996H7.6875C7.2225 5.70996 6.80248 5.52246 6.49498 5.21496C6.18748 4.90746 6 4.48746 6 4.02246C6 3.09246 6.7575 2.33496 7.6875 2.33496H10.3125C10.7775 2.33496 11.1975 2.52246 11.505 2.82996C11.8125 3.13746 12 3.55746 12 4.02246Z" stroke="#667085" stroke-width="1.5" stroke-linecap="round" stroke-linejoin="round"/>
<path id="Vector_3" d="M6 10.585H9" stroke="#667085" stroke-width="1.5" stroke-linecap="round" stroke-linejoin="round"/>
<path id="Vector_4" d="M6 13.585H12" stroke="#667085" stroke-width="1.5" stroke-linecap="round" stroke-linejoin="round"/>
</g>
</g>
</g>
</svg>
