<svg width="18" height="19" viewBox="0 0 18 19" fill="none" xmlns="http://www.w3.org/2000/svg">
<path d="M11.025 5.55976C10.8876 5.69996 10.8106 5.88845 10.8106 6.08476C10.8106 6.28108 10.8876 6.46957 11.025 6.60976L12.225 7.80976C12.3652 7.94718 12.5537 8.02416 12.75 8.02416C12.9463 8.02416 13.1348 7.94718 13.275 7.80976L16.1025 4.98226C16.4796 5.81565 16.5938 6.74419 16.4299 7.64412C16.2659 8.54406 15.8315 9.37265 15.1847 10.0195C14.5379 10.6663 13.7093 11.1006 12.8094 11.2646C11.9094 11.4286 10.9809 11.3144 10.1475 10.9373L4.96501 16.1198C4.66664 16.4181 4.26197 16.5858 3.84001 16.5858C3.41806 16.5858 3.01338 16.4181 2.71501 16.1198C2.41665 15.8214 2.24902 15.4167 2.24902 14.9948C2.24902 14.5728 2.41665 14.1681 2.71501 13.8698L7.89751 8.68726C7.52039 7.85387 7.4062 6.92534 7.57017 6.0254C7.73414 5.12547 8.16848 4.29688 8.8153 3.65005C9.46213 3.00323 10.2907 2.56889 11.1907 2.40492C12.0906 2.24095 13.0191 2.35514 13.8525 2.73226L11.0325 5.55226L11.025 5.55976Z" stroke="#667085" stroke-width="1.5" stroke-linecap="round" stroke-linejoin="round"/>
</svg>
